%TF.GenerationSoftware,KiCad,Pcbnew,8.0.0*%
%TF.CreationDate,2025-02-17T15:32:22+01:00*%
%TF.ProjectId,Amon_Link,416d6f6e-5f4c-4696-9e6b-2e6b69636164,rev?*%
%TF.SameCoordinates,Original*%
%TF.FileFunction,Soldermask,Bot*%
%TF.FilePolarity,Negative*%
%FSLAX46Y46*%
G04 Gerber Fmt 4.6, Leading zero omitted, Abs format (unit mm)*
G04 Created by KiCad (PCBNEW 8.0.0) date 2025-02-17 15:32:22*
%MOMM*%
%LPD*%
G01*
G04 APERTURE LIST*
%ADD10C,0.700000*%
%ADD11C,4.400000*%
%ADD12C,0.900000*%
%ADD13R,1.700000X1.700000*%
%ADD14O,1.700000X1.700000*%
%ADD15R,4.200000X1.350000*%
%ADD16C,0.650000*%
%ADD17O,2.100000X1.000000*%
%ADD18O,1.600000X1.000000*%
G04 APERTURE END LIST*
D10*
%TO.C,H4*%
X179949999Y-77549999D03*
X179466725Y-78716725D03*
X179466725Y-76383273D03*
X178299999Y-79199999D03*
D11*
X178299999Y-77549999D03*
D10*
X178299999Y-75899999D03*
X177133273Y-78716725D03*
X177133273Y-76383273D03*
X176649999Y-77549999D03*
%TD*%
%TO.C,H3*%
X179949999Y-111549999D03*
X179466725Y-112716725D03*
X179466725Y-110383273D03*
X178299999Y-113199999D03*
D11*
X178299999Y-111549999D03*
D10*
X178299999Y-109899999D03*
X177133273Y-112716725D03*
X177133273Y-110383273D03*
X176649999Y-111549999D03*
%TD*%
%TO.C,H2*%
X130809000Y-77470000D03*
X130325726Y-78636726D03*
X130325726Y-76303274D03*
X129159000Y-79120000D03*
D11*
X129159000Y-77470000D03*
D10*
X129159000Y-75820000D03*
X127992274Y-78636726D03*
X127992274Y-76303274D03*
X127509000Y-77470000D03*
%TD*%
%TO.C,H1*%
X130809000Y-111470000D03*
X130325726Y-112636726D03*
X130325726Y-110303274D03*
X129159000Y-113120000D03*
D11*
X129159000Y-111470000D03*
D10*
X129159000Y-109820000D03*
X127992274Y-112636726D03*
X127992274Y-110303274D03*
X127509000Y-111470000D03*
%TD*%
D12*
%TO.C,S1*%
X128159001Y-97395001D03*
X128159001Y-93145001D03*
%TD*%
D13*
%TO.C,J3*%
X143002000Y-111379000D03*
D14*
X140462000Y-111379000D03*
X137922000Y-111379000D03*
%TD*%
D15*
%TO.C,J4*%
X179200000Y-107475000D03*
X179200000Y-101825000D03*
%TD*%
%TO.C,J2*%
X179200000Y-87475000D03*
X179200000Y-81825000D03*
%TD*%
D16*
%TO.C,J1*%
X131279000Y-82880000D03*
X131279000Y-88660000D03*
D17*
X131779000Y-81450000D03*
D18*
X127599000Y-81450000D03*
D17*
X131779000Y-90090000D03*
D18*
X127599000Y-90090000D03*
%TD*%
M02*
