M48
; DRILL file {KiCad 9.0.1} date 2025-07-03T23:17:37+0200
; FORMAT={-:-/ absolute / metric / decimal}
; #@! TF.CreationDate,2025-07-03T23:17:37+02:00
; #@! TF.GenerationSoftware,Kicad,Pcbnew,9.0.1
; #@! TF.FileFunction,Plated,1,4,PTH
FMAT,2
METRIC
; #@! TA.AperFunction,Plated,PTH,ViaDrill
T1C0.300
; #@! TA.AperFunction,Plated,PTH,ComponentDrill
T2C0.400
; #@! TA.AperFunction,Plated,PTH,ComponentDrill
T3C0.600
; #@! TA.AperFunction,Plated,PTH,ComponentDrill
T4C1.000
; #@! TA.AperFunction,Plated,PTH,ComponentDrill
T5C2.200
%
G90
G05
T1
X127.41Y-83.93
X127.41Y-85.748
X127.41Y-87.565
X127.959Y-106.13
X127.959Y-100.895
X130.459Y-85.02
X130.459Y-85.745
X130.459Y-86.47
X130.759Y-94.045
X130.937Y-102.641
X131.115Y-98.222
X132.212Y-75.44
X132.28Y-113.64
X132.461Y-77.775
X132.588Y-110.973
X132.715Y-105.613
X132.715Y-107.188
X133.35Y-76.733
X133.477Y-96.139
X133.477Y-112.039
X133.528Y-101.117
X133.528Y-102.667
X133.778Y-90.78
X133.778Y-92.304
X133.778Y-93.721
X133.782Y-79.731
X133.96Y-77.775
X134.03Y-75.44
X134.087Y-110.973
X134.097Y-113.64
X134.925Y-76.733
X135.052Y-112.039
X135.848Y-75.44
X135.915Y-113.64
X136.017Y-107.95
X136.703Y-82.626
X136.703Y-84.531
X137.665Y-75.44
X137.732Y-113.64
X138.125Y-90.246
X138.176Y-86.995
X138.176Y-100.711
X138.176Y-102.235
X138.176Y-103.759
X138.582Y-99.263
X139.243Y-77.775
X139.37Y-95.301
X139.483Y-75.44
X139.548Y-79.731
X139.55Y-113.64
X139.929Y-101.803
X139.929Y-103.429
X140.132Y-76.733
X140.741Y-77.775
X140.992Y-75.42
X141.06Y-113.62
X141.554Y-93.523
X141.681Y-99.212
X141.707Y-76.733
X142.126Y-80.442
X142.3Y-104.41
X142.646Y-97.892
X142.81Y-75.42
X142.877Y-113.62
X142.97Y-108.54
X143.256Y-89.916
X143.297Y-98.603
X143.675Y-94.044
X143.878Y-76.657
X143.947Y-97.993
X144.018Y-80.442
X144.323Y-101.143
X144.628Y-75.42
X144.695Y-113.62
X144.97Y-78.664
X145.18Y-95.4
X145.41Y-108.55
X145.771Y-76.657
X145.91Y-80.442
X145.96Y-95.41
X145.974Y-101.143
X146.126Y-85.801
X146.28Y-89.79
X146.445Y-75.42
X146.512Y-113.62
X146.863Y-78.664
X147.193Y-111.074
X147.32Y-105.486
X147.663Y-76.657
X147.803Y-80.442
X148.082Y-112.141
X148.209Y-87.401
X148.234Y-89.814
X148.263Y-75.42
X148.33Y-113.62
X148.615Y-96.469
X148.692Y-111.074
X148.755Y-78.664
X149.047Y-107.975
X149.123Y-81.94
X149.123Y-83.833
X149.555Y-76.657
X149.657Y-112.141
X149.809Y-96.444
X150.08Y-75.42
X150.148Y-113.62
X150.647Y-78.664
X150.647Y-97.968
X150.698Y-81.94
X150.907Y-103.759
X150.95Y-84.0
X151.099Y-87.427
X151.714Y-76.657
X151.8Y-83.15
X151.813Y-103.2
X151.813Y-107.15
X151.898Y-75.42
X151.917Y-96.444
X151.92Y-87.35
X151.965Y-113.62
X152.298Y-94.717
X152.603Y-78.638
X152.75Y-81.0
X152.756Y-97.968
X152.863Y-100.999
X152.97Y-88.519
X152.983Y-108.645
X153.391Y-89.154
X153.606Y-76.657
X153.715Y-75.42
X153.783Y-113.62
X153.949Y-96.444
X154.381Y-94.717
X154.508Y-78.638
X154.788Y-97.968
X155.499Y-76.657
X155.533Y-75.42
X155.6Y-113.62
X155.863Y-107.2
X155.95Y-83.1
X156.0Y-87.35
X156.014Y-99.238
X156.063Y-103.0
X156.083Y-96.444
X156.312Y-82.042
X156.413Y-78.638
X156.413Y-100.559
X156.489Y-94.717
X156.613Y-108.15
X156.718Y-88.138
X157.124Y-80.696
X157.35Y-75.42
X157.391Y-76.657
X157.418Y-113.62
X157.582Y-101.93
X157.709Y-99.238
X157.81Y-82.042
X157.861Y-97.028
X157.963Y-92.735
X158.14Y-83.388
X158.15Y-103.2
X158.318Y-78.638
X158.496Y-100.559
X158.598Y-94.717
X158.623Y-80.696
X158.623Y-84.201
X158.763Y-104.0
X158.945Y-75.39
X159.012Y-113.59
X159.08Y-110.922
X159.182Y-91.516
X159.283Y-76.657
X159.309Y-83.287
X159.316Y-99.136
X159.487Y-82.067
X159.621Y-97.003
X159.69Y-101.93
X159.963Y-103.95
X160.223Y-78.638
X160.274Y-84.191
X160.299Y-80.721
X160.383Y-94.717
X160.401Y-90.322
X160.604Y-100.559
X160.613Y-108.15
X160.762Y-75.39
X160.813Y-106.2
X160.83Y-113.59
X160.858Y-83.363
X160.909Y-88.138
X160.985Y-82.067
X161.011Y-99.136
X161.036Y-110.922
X161.174Y-92.71
X161.176Y-76.657
X161.315Y-97.003
X161.544Y-84.201
X161.544Y-86.233
X161.763Y-106.5
X161.773Y-101.93
X161.798Y-80.721
X162.077Y-94.717
X162.128Y-78.638
X162.139Y-90.322
X162.313Y-102.95
X162.433Y-99.111
X162.535Y-110.922
X162.58Y-75.39
X162.647Y-113.59
X162.687Y-100.559
X162.977Y-92.761
X163.068Y-76.657
X163.213Y-102.6
X163.263Y-106.1
X163.263Y-97.003
X163.271Y-80.747
X163.3Y-82.7
X163.3Y-86.2
X163.563Y-101.6
X163.57Y-81.73
X163.877Y-90.322
X164.033Y-78.638
X164.128Y-99.111
X164.16Y-94.767
X164.211Y-110.922
X164.397Y-75.39
X164.465Y-113.59
X164.715Y-92.761
X164.763Y-109.05
X164.85Y-88.85
X164.922Y-97.003
X164.96Y-76.657
X165.615Y-90.322
X165.71Y-110.922
X165.822Y-99.111
X165.855Y-94.767
X165.938Y-78.638
X166.215Y-75.39
X166.282Y-113.59
X166.453Y-92.761
X166.582Y-97.003
X166.7Y-80.721
X166.763Y-106.1
X166.8Y-82.7
X166.8Y-86.2
X166.853Y-76.657
X166.925Y-101.524
X167.284Y-108.28
X167.353Y-90.322
X167.361Y-110.947
X167.517Y-99.111
X167.549Y-94.767
X167.818Y-105.689
X167.843Y-78.638
X168.032Y-75.39
X168.1Y-113.59
X168.192Y-92.761
X168.217Y-88.24
X168.241Y-97.003
X168.326Y-80.772
X168.62Y-101.524
X168.745Y-76.657
X168.91Y-85.852
X169.091Y-90.322
X169.211Y-99.111
X169.244Y-94.767
X169.342Y-108.28
X169.418Y-110.947
X169.443Y-105.689
X169.469Y-82.906
X169.748Y-78.638
X169.85Y-75.39
X169.901Y-97.003
X169.917Y-113.59
X169.93Y-92.761
X169.945Y-80.772
X169.955Y-88.24
X170.063Y-103.55
X170.314Y-101.524
X170.637Y-76.657
X170.83Y-90.322
X170.906Y-99.111
X170.938Y-94.767
X171.069Y-85.852
X171.323Y-105.791
X171.45Y-108.28
X171.526Y-110.947
X171.56Y-97.003
X171.564Y-80.772
X171.653Y-78.638
X171.668Y-75.39
X171.668Y-92.761
X171.693Y-88.24
X171.735Y-113.59
X172.009Y-101.524
X172.529Y-76.657
X172.568Y-90.322
X172.6Y-99.111
X172.633Y-94.767
X172.863Y-103.55
X172.898Y-82.804
X173.184Y-80.772
X173.22Y-97.003
X173.406Y-92.761
X173.431Y-88.24
X173.485Y-75.39
X173.552Y-113.59
X173.558Y-78.638
X173.558Y-108.28
X173.634Y-110.947
X173.703Y-101.524
X174.092Y-105.943
X174.117Y-85.852
X174.135Y-90.373
X174.295Y-99.111
X174.327Y-94.767
X174.422Y-76.657
X174.498Y-82.829
X174.803Y-80.772
X174.963Y-103.55
X174.984Y-97.053
X175.144Y-92.761
X175.209Y-88.214
X175.303Y-75.39
X175.354Y-101.524
X175.37Y-113.59
X175.463Y-78.638
X175.666Y-108.28
X175.873Y-90.373
X175.946Y-82.829
X176.022Y-94.767
X176.621Y-92.761
X176.657Y-85.725
X176.657Y-103.55
X176.713Y-105.8
X176.722Y-97.053
X177.611Y-90.373
X177.677Y-94.767
X178.359Y-92.761
X178.46Y-97.053
X180.1Y-90.0
X180.1Y-91.818
X180.1Y-93.635
X180.1Y-95.453
X180.1Y-97.27
X180.1Y-99.088
T2
X127.509Y-77.47
X127.509Y-111.47
X127.992Y-76.303
X127.992Y-78.637
X127.992Y-110.303
X127.992Y-112.637
X129.159Y-75.82
X129.159Y-79.12
X129.159Y-109.82
X129.159Y-113.12
X130.326Y-76.303
X130.326Y-78.637
X130.326Y-110.303
X130.326Y-112.637
X130.809Y-77.47
X130.809Y-111.47
X176.65Y-77.55
X176.65Y-111.55
X177.133Y-76.383
X177.133Y-78.717
X177.133Y-110.383
X177.133Y-112.717
X178.3Y-75.9
X178.3Y-79.2
X178.3Y-109.9
X178.3Y-113.2
X179.467Y-76.383
X179.467Y-78.717
X179.467Y-110.383
X179.467Y-112.717
X179.95Y-77.55
X179.95Y-111.55
T4
X137.922Y-111.379
X140.462Y-111.379
X143.002Y-111.379
T5
X129.159Y-77.47
X129.159Y-111.47
X178.3Y-77.55
X178.3Y-111.55
T3
G00X127.899Y-81.45
M15
G01X127.299Y-81.45
M16
G05
G00X127.899Y-90.09
M15
G01X127.299Y-90.09
M16
G05
G00X132.329Y-81.45
M15
G01X131.229Y-81.45
M16
G05
G00X132.329Y-90.09
M15
G01X131.229Y-90.09
M16
G05
M30
