%TF.GenerationSoftware,KiCad,Pcbnew,8.0.0*%
%TF.CreationDate,2025-02-17T15:32:22+01:00*%
%TF.ProjectId,Amon_Link,416d6f6e-5f4c-4696-9e6b-2e6b69636164,rev?*%
%TF.SameCoordinates,Original*%
%TF.FileFunction,Soldermask,Top*%
%TF.FilePolarity,Negative*%
%FSLAX46Y46*%
G04 Gerber Fmt 4.6, Leading zero omitted, Abs format (unit mm)*
G04 Created by KiCad (PCBNEW 8.0.0) date 2025-02-17 15:32:22*
%MOMM*%
%LPD*%
G01*
G04 APERTURE LIST*
G04 Aperture macros list*
%AMRoundRect*
0 Rectangle with rounded corners*
0 $1 Rounding radius*
0 $2 $3 $4 $5 $6 $7 $8 $9 X,Y pos of 4 corners*
0 Add a 4 corners polygon primitive as box body*
4,1,4,$2,$3,$4,$5,$6,$7,$8,$9,$2,$3,0*
0 Add four circle primitives for the rounded corners*
1,1,$1+$1,$2,$3*
1,1,$1+$1,$4,$5*
1,1,$1+$1,$6,$7*
1,1,$1+$1,$8,$9*
0 Add four rect primitives between the rounded corners*
20,1,$1+$1,$2,$3,$4,$5,0*
20,1,$1+$1,$4,$5,$6,$7,0*
20,1,$1+$1,$6,$7,$8,$9,0*
20,1,$1+$1,$8,$9,$2,$3,0*%
G04 Aperture macros list end*
%ADD10C,0.010000*%
%ADD11RoundRect,0.200000X0.275000X-0.200000X0.275000X0.200000X-0.275000X0.200000X-0.275000X-0.200000X0*%
%ADD12RoundRect,0.200000X-0.200000X-0.275000X0.200000X-0.275000X0.200000X0.275000X-0.200000X0.275000X0*%
%ADD13R,0.600000X1.150000*%
%ADD14RoundRect,0.100000X0.100000X-0.637500X0.100000X0.637500X-0.100000X0.637500X-0.100000X-0.637500X0*%
%ADD15RoundRect,0.225000X0.225000X0.250000X-0.225000X0.250000X-0.225000X-0.250000X0.225000X-0.250000X0*%
%ADD16RoundRect,0.225000X0.250000X-0.225000X0.250000X0.225000X-0.250000X0.225000X-0.250000X-0.225000X0*%
%ADD17RoundRect,0.150000X0.150000X-0.825000X0.150000X0.825000X-0.150000X0.825000X-0.150000X-0.825000X0*%
%ADD18R,0.400000X1.900000*%
%ADD19RoundRect,0.200000X-0.275000X0.200000X-0.275000X-0.200000X0.275000X-0.200000X0.275000X0.200000X0*%
%ADD20RoundRect,0.250000X0.625000X-0.375000X0.625000X0.375000X-0.625000X0.375000X-0.625000X-0.375000X0*%
%ADD21RoundRect,0.140000X0.170000X-0.140000X0.170000X0.140000X-0.170000X0.140000X-0.170000X-0.140000X0*%
%ADD22RoundRect,0.140000X-0.170000X0.140000X-0.170000X-0.140000X0.170000X-0.140000X0.170000X0.140000X0*%
%ADD23C,0.700000*%
%ADD24C,4.400000*%
%ADD25RoundRect,0.102000X-0.450000X0.650000X-0.450000X-0.650000X0.450000X-0.650000X0.450000X0.650000X0*%
%ADD26RoundRect,0.102000X-0.900000X0.300000X-0.900000X-0.300000X0.900000X-0.300000X0.900000X0.300000X0*%
%ADD27C,0.900000*%
%ADD28R,1.700000X1.700000*%
%ADD29O,1.700000X1.700000*%
%ADD30R,3.600000X1.270000*%
%ADD31R,4.200000X1.350000*%
%ADD32RoundRect,0.135000X0.185000X-0.135000X0.185000X0.135000X-0.185000X0.135000X-0.185000X-0.135000X0*%
%ADD33RoundRect,0.147500X-0.147500X-0.172500X0.147500X-0.172500X0.147500X0.172500X-0.147500X0.172500X0*%
%ADD34RoundRect,0.218750X-0.256250X0.218750X-0.256250X-0.218750X0.256250X-0.218750X0.256250X0.218750X0*%
%ADD35RoundRect,0.059250X-0.447750X-0.177750X0.447750X-0.177750X0.447750X0.177750X-0.447750X0.177750X0*%
%ADD36RoundRect,0.059250X-0.177750X-0.447750X0.177750X-0.447750X0.177750X0.447750X-0.177750X0.447750X0*%
%ADD37RoundRect,0.102000X-0.850000X-0.850000X0.850000X-0.850000X0.850000X0.850000X-0.850000X0.850000X0*%
%ADD38RoundRect,0.225000X-0.250000X0.225000X-0.250000X-0.225000X0.250000X-0.225000X0.250000X0.225000X0*%
%ADD39RoundRect,0.135000X-0.185000X0.135000X-0.185000X-0.135000X0.185000X-0.135000X0.185000X0.135000X0*%
%ADD40RoundRect,0.135000X-0.135000X-0.185000X0.135000X-0.185000X0.135000X0.185000X-0.135000X0.185000X0*%
%ADD41R,0.900000X1.000000*%
%ADD42RoundRect,0.147500X0.172500X-0.147500X0.172500X0.147500X-0.172500X0.147500X-0.172500X-0.147500X0*%
%ADD43RoundRect,0.140000X-0.140000X-0.170000X0.140000X-0.170000X0.140000X0.170000X-0.140000X0.170000X0*%
%ADD44RoundRect,0.250000X-0.325000X-0.650000X0.325000X-0.650000X0.325000X0.650000X-0.325000X0.650000X0*%
%ADD45RoundRect,0.140000X0.140000X0.170000X-0.140000X0.170000X-0.140000X-0.170000X0.140000X-0.170000X0*%
%ADD46R,1.400000X1.200000*%
%ADD47RoundRect,0.062500X-0.350000X-0.062500X0.350000X-0.062500X0.350000X0.062500X-0.350000X0.062500X0*%
%ADD48RoundRect,0.062500X-0.062500X-0.350000X0.062500X-0.350000X0.062500X0.350000X-0.062500X0.350000X0*%
%ADD49R,2.500000X2.500000*%
%ADD50C,0.650000*%
%ADD51R,1.150000X0.300000*%
%ADD52O,2.100000X1.000000*%
%ADD53O,1.600000X1.000000*%
G04 APERTURE END LIST*
D10*
%TO.C,S1*%
X130059001Y-96970001D02*
X128582501Y-96970001D01*
X128582501Y-96970031D01*
X128556370Y-96946941D01*
X128500776Y-96904881D01*
X128441213Y-96868661D01*
X128378285Y-96838651D01*
X128345767Y-96826081D01*
X128336807Y-96823491D01*
X128318795Y-96818651D01*
X128300670Y-96814271D01*
X128282439Y-96810331D01*
X128273289Y-96808541D01*
X128273285Y-96808541D01*
X128263895Y-96806771D01*
X128245051Y-96803581D01*
X128226132Y-96800861D01*
X128207151Y-96798611D01*
X128197642Y-96797671D01*
X128197635Y-96797681D01*
X128180279Y-96796901D01*
X128145542Y-96796611D01*
X128110829Y-96798041D01*
X128076232Y-96801181D01*
X128059001Y-96803401D01*
X128059001Y-96020001D01*
X130059001Y-96020001D01*
X130059001Y-96970001D01*
G36*
X130059001Y-96970001D02*
G01*
X128582501Y-96970001D01*
X128582501Y-96970031D01*
X128556370Y-96946941D01*
X128500776Y-96904881D01*
X128441213Y-96868661D01*
X128378285Y-96838651D01*
X128345767Y-96826081D01*
X128336807Y-96823491D01*
X128318795Y-96818651D01*
X128300670Y-96814271D01*
X128282439Y-96810331D01*
X128273289Y-96808541D01*
X128273285Y-96808541D01*
X128263895Y-96806771D01*
X128245051Y-96803581D01*
X128226132Y-96800861D01*
X128207151Y-96798611D01*
X128197642Y-96797671D01*
X128197635Y-96797681D01*
X128180279Y-96796901D01*
X128145542Y-96796611D01*
X128110829Y-96798041D01*
X128076232Y-96801181D01*
X128059001Y-96803401D01*
X128059001Y-96020001D01*
X130059001Y-96020001D01*
X130059001Y-96970001D01*
G37*
X130059001Y-94520001D02*
X128059001Y-94520001D01*
X128059001Y-93736601D01*
X128076232Y-93738821D01*
X128110829Y-93741961D01*
X128145542Y-93743391D01*
X128180279Y-93743111D01*
X128197635Y-93742321D01*
X128197642Y-93742331D01*
X128207151Y-93741391D01*
X128226132Y-93739141D01*
X128245051Y-93736421D01*
X128263895Y-93733231D01*
X128273285Y-93731461D01*
X128282439Y-93729671D01*
X128300670Y-93725741D01*
X128318795Y-93721351D01*
X128336807Y-93716521D01*
X128345767Y-93713931D01*
X128378285Y-93701351D01*
X128441213Y-93671341D01*
X128500776Y-93635121D01*
X128556370Y-93593061D01*
X128582501Y-93570001D01*
X130059001Y-93570001D01*
X130059001Y-94520001D01*
G36*
X130059001Y-94520001D02*
G01*
X128059001Y-94520001D01*
X128059001Y-93736601D01*
X128076232Y-93738821D01*
X128110829Y-93741961D01*
X128145542Y-93743391D01*
X128180279Y-93743111D01*
X128197635Y-93742321D01*
X128197642Y-93742331D01*
X128207151Y-93741391D01*
X128226132Y-93739141D01*
X128245051Y-93736421D01*
X128263895Y-93733231D01*
X128273285Y-93731461D01*
X128282439Y-93729671D01*
X128300670Y-93725741D01*
X128318795Y-93721351D01*
X128336807Y-93716521D01*
X128345767Y-93713931D01*
X128378285Y-93701351D01*
X128441213Y-93671341D01*
X128500776Y-93635121D01*
X128556370Y-93593061D01*
X128582501Y-93570001D01*
X130059001Y-93570001D01*
X130059001Y-94520001D01*
G37*
%TD*%
D11*
%TO.C,R2*%
X148615400Y-97269800D03*
X148615400Y-98919800D03*
%TD*%
D12*
%TO.C,R1*%
X142024600Y-94919800D03*
X143674600Y-94919800D03*
%TD*%
D13*
%TO.C,IC1*%
X136967000Y-96540000D03*
X136017000Y-96540000D03*
X135067000Y-96540000D03*
X135067000Y-99040000D03*
X136967000Y-99040000D03*
%TD*%
D14*
%TO.C,U1*%
X141347000Y-102497000D03*
X141997000Y-102497000D03*
X142647000Y-102497000D03*
X143297000Y-102497000D03*
X143947000Y-102497000D03*
X144597000Y-102497000D03*
X145247000Y-102497000D03*
X145897000Y-102497000D03*
X146547000Y-102497000D03*
X147197000Y-102497000D03*
X147197000Y-96772000D03*
X146547000Y-96772000D03*
X145897000Y-96772000D03*
X145247000Y-96772000D03*
X144597000Y-96772000D03*
X143947000Y-96772000D03*
X143297000Y-96772000D03*
X142647000Y-96772000D03*
X141997000Y-96772000D03*
X141347000Y-96772000D03*
%TD*%
D15*
%TO.C,C47*%
X147079000Y-104648000D03*
X145529000Y-104648000D03*
%TD*%
D16*
%TO.C,C12*%
X141986000Y-92215000D03*
X141986000Y-90665000D03*
%TD*%
D17*
%TO.C,U2*%
X138176000Y-88245000D03*
X139446000Y-88245000D03*
X140716000Y-88245000D03*
X141986000Y-88245000D03*
X143256000Y-88245000D03*
X144526000Y-88245000D03*
X145796000Y-88245000D03*
X147066000Y-88245000D03*
X147066000Y-83295000D03*
X145796000Y-83295000D03*
X144526000Y-83295000D03*
X143256000Y-83295000D03*
X141986000Y-83295000D03*
X140716000Y-83295000D03*
X139446000Y-83295000D03*
X138176000Y-83295000D03*
%TD*%
D18*
%TO.C,Y1*%
X143005400Y-106984800D03*
X144205400Y-106984800D03*
X145405400Y-106984800D03*
%TD*%
%TO.C,Y2*%
X144920000Y-91541600D03*
X146120000Y-91541600D03*
X147320000Y-91541600D03*
%TD*%
D19*
%TO.C,R11*%
X136652000Y-79693000D03*
X136652000Y-81343000D03*
%TD*%
D20*
%TO.C,D4*%
X127959001Y-107530001D03*
X127959001Y-104730001D03*
%TD*%
%TO.C,D2*%
X127959002Y-102295002D03*
X127959002Y-99495002D03*
%TD*%
D21*
%TO.C,C34*%
X157250000Y-90830000D03*
X157250000Y-89870000D03*
%TD*%
D22*
%TO.C,C20*%
X152050000Y-89870000D03*
X152050000Y-90830000D03*
%TD*%
D21*
%TO.C,C19*%
X157212501Y-110980001D03*
X157212501Y-110020001D03*
%TD*%
D22*
%TO.C,C1*%
X152012501Y-110020001D03*
X152012501Y-110980001D03*
%TD*%
D23*
%TO.C,H4*%
X179949999Y-77549999D03*
X179466725Y-78716725D03*
X179466725Y-76383273D03*
X178299999Y-79199999D03*
D24*
X178299999Y-77549999D03*
D23*
X178299999Y-75899999D03*
X177133273Y-78716725D03*
X177133273Y-76383273D03*
X176649999Y-77549999D03*
%TD*%
%TO.C,H3*%
X179949999Y-111549999D03*
X179466725Y-112716725D03*
X179466725Y-110383273D03*
X178299999Y-113199999D03*
D24*
X178299999Y-111549999D03*
D23*
X178299999Y-109899999D03*
X177133273Y-112716725D03*
X177133273Y-110383273D03*
X176649999Y-111549999D03*
%TD*%
%TO.C,H2*%
X130809000Y-77470000D03*
X130325726Y-78636726D03*
X130325726Y-76303274D03*
X129159000Y-79120000D03*
D24*
X129159000Y-77470000D03*
D23*
X129159000Y-75820000D03*
X127992274Y-78636726D03*
X127992274Y-76303274D03*
X127509000Y-77470000D03*
%TD*%
%TO.C,H1*%
X130809000Y-111470000D03*
X130325726Y-112636726D03*
X130325726Y-110303274D03*
X129159000Y-113120000D03*
D24*
X129159000Y-111470000D03*
D23*
X129159000Y-109820000D03*
X127992274Y-112636726D03*
X127992274Y-110303274D03*
X127509000Y-111470000D03*
%TD*%
D25*
%TO.C,S1*%
X127109001Y-97120001D03*
X127109001Y-93420001D03*
D26*
X129059001Y-95270001D03*
D27*
X128159001Y-97395001D03*
X128159001Y-93145001D03*
%TD*%
D28*
%TO.C,J3*%
X143002000Y-111379000D03*
D29*
X140462000Y-111379000D03*
X137922000Y-111379000D03*
%TD*%
D30*
%TO.C,J4*%
X179400000Y-104650000D03*
D31*
X179200000Y-107475000D03*
X179200000Y-101825000D03*
%TD*%
D11*
%TO.C,R23*%
X131159001Y-95295001D03*
X131159001Y-96945001D03*
%TD*%
D30*
%TO.C,J2*%
X179400000Y-84650000D03*
D31*
X179200000Y-87475000D03*
X179200000Y-81825000D03*
%TD*%
D32*
%TO.C,R16*%
X163752501Y-108210001D03*
X163752501Y-107190001D03*
%TD*%
D33*
%TO.C,L2*%
X159397501Y-106150001D03*
X158427501Y-106150001D03*
%TD*%
D19*
%TO.C,R4*%
X133477000Y-97600000D03*
X133477000Y-99250000D03*
%TD*%
D34*
%TO.C,D1*%
X136652000Y-90271500D03*
X136652000Y-91846500D03*
%TD*%
D21*
%TO.C,C38*%
X162400000Y-85230000D03*
X162400000Y-84270000D03*
%TD*%
D22*
%TO.C,C17*%
X157412501Y-103220001D03*
X157412501Y-104180001D03*
%TD*%
D21*
%TO.C,C31*%
X153750000Y-81980000D03*
X153750000Y-81020000D03*
%TD*%
D35*
%TO.C,U6*%
X163610000Y-83700000D03*
X163610000Y-84200000D03*
X163610000Y-84700000D03*
X163610000Y-85200000D03*
D36*
X164305000Y-85895000D03*
X164805000Y-85895000D03*
X165305000Y-85895000D03*
X165805000Y-85895000D03*
D35*
X166500000Y-85200000D03*
X166500000Y-84700000D03*
X166500000Y-84200000D03*
X166500000Y-83700000D03*
D36*
X165805000Y-83005000D03*
X165305000Y-83005000D03*
X164805000Y-83005000D03*
X164305000Y-83005000D03*
D37*
X165055000Y-84450000D03*
%TD*%
D33*
%TO.C,L9*%
X169715000Y-84700000D03*
X170685000Y-84700000D03*
%TD*%
D21*
%TO.C,C27*%
X171612501Y-104630001D03*
X171612501Y-103670001D03*
%TD*%
D32*
%TO.C,R18*%
X155050000Y-82010000D03*
X155050000Y-80990000D03*
%TD*%
D38*
%TO.C,C14*%
X135059000Y-79743000D03*
X135059000Y-81293000D03*
%TD*%
%TO.C,C4*%
X139598400Y-106336800D03*
X139598400Y-107886800D03*
%TD*%
D33*
%TO.C,L8*%
X158565000Y-85250000D03*
X159535000Y-85250000D03*
%TD*%
D32*
%TO.C,R13*%
X155112501Y-101910001D03*
X155112501Y-100890001D03*
%TD*%
D39*
%TO.C,R22*%
X165850000Y-87240000D03*
X165850000Y-88260000D03*
%TD*%
D40*
%TO.C,R19*%
X154140000Y-88600000D03*
X155160000Y-88600000D03*
%TD*%
D21*
%TO.C,C25*%
X165300000Y-81730000D03*
X165300000Y-80770000D03*
%TD*%
%TO.C,C44*%
X171650000Y-84680000D03*
X171650000Y-83720000D03*
%TD*%
D22*
%TO.C,C10*%
X143544999Y-91061600D03*
X143544999Y-92021600D03*
%TD*%
D41*
%TO.C,SW1*%
X138092400Y-107911800D03*
X133992400Y-107911800D03*
X138092400Y-106311800D03*
X133992400Y-106311800D03*
%TD*%
D38*
%TO.C,C6*%
X138557000Y-97930000D03*
X138557000Y-96380000D03*
%TD*%
D22*
%TO.C,C22*%
X159412501Y-107170001D03*
X159412501Y-108130001D03*
%TD*%
D32*
%TO.C,R15*%
X164752501Y-108210001D03*
X164752501Y-107190001D03*
%TD*%
D38*
%TO.C,C11*%
X138176000Y-79743000D03*
X138176000Y-81293000D03*
%TD*%
D40*
%TO.C,R14*%
X154152501Y-108650001D03*
X155172501Y-108650001D03*
%TD*%
D42*
%TO.C,L6*%
X157550000Y-86235000D03*
X157550000Y-85265000D03*
%TD*%
D32*
%TO.C,R20*%
X163850000Y-88260000D03*
X163850000Y-87240000D03*
%TD*%
D22*
%TO.C,C29*%
X175512501Y-104670001D03*
X175512501Y-105630001D03*
%TD*%
D21*
%TO.C,C30*%
X167712501Y-104630001D03*
X167712501Y-103670001D03*
%TD*%
D22*
%TO.C,C28*%
X172612501Y-104670001D03*
X172612501Y-105630001D03*
%TD*%
D42*
%TO.C,L1*%
X157412501Y-106135001D03*
X157412501Y-105165001D03*
%TD*%
D33*
%TO.C,L7*%
X158565000Y-86250000D03*
X159535000Y-86250000D03*
%TD*%
D21*
%TO.C,C16*%
X153762501Y-101880001D03*
X153762501Y-100920001D03*
%TD*%
D19*
%TO.C,R9*%
X135059000Y-82672500D03*
X135059000Y-84322500D03*
%TD*%
D11*
%TO.C,R10*%
X135059001Y-88845001D03*
X135059001Y-87195001D03*
%TD*%
D33*
%TO.C,L10*%
X173615000Y-84700000D03*
X174585000Y-84700000D03*
%TD*%
D21*
%TO.C,C41*%
X167750000Y-84730000D03*
X167750000Y-83770000D03*
%TD*%
D15*
%TO.C,C8*%
X135242000Y-102235000D03*
X136792000Y-102235000D03*
%TD*%
D39*
%TO.C,R17*%
X165752501Y-107190001D03*
X165752501Y-108210001D03*
%TD*%
D35*
%TO.C,U4*%
X163572501Y-103600001D03*
X163572501Y-104100001D03*
X163572501Y-104600001D03*
X163572501Y-105100001D03*
D36*
X164267501Y-105795001D03*
X164767501Y-105795001D03*
X165267501Y-105795001D03*
X165767501Y-105795001D03*
D35*
X166462501Y-105100001D03*
X166462501Y-104600001D03*
X166462501Y-104100001D03*
X166462501Y-103600001D03*
D36*
X165767501Y-102905001D03*
X165267501Y-102905001D03*
X164767501Y-102905001D03*
X164267501Y-102905001D03*
D37*
X165017501Y-104350001D03*
%TD*%
D11*
%TO.C,R5*%
X135059001Y-91884000D03*
X135059001Y-90234000D03*
%TD*%
D19*
%TO.C,R12*%
X129909002Y-100920002D03*
X129909002Y-99270002D03*
%TD*%
D21*
%TO.C,C26*%
X168712501Y-104630001D03*
X168712501Y-103670001D03*
%TD*%
%TO.C,C42*%
X165262501Y-101600001D03*
X165262501Y-100640001D03*
%TD*%
%TO.C,C24*%
X164300000Y-81730000D03*
X164300000Y-80770000D03*
%TD*%
D33*
%TO.C,L3*%
X158427501Y-105100001D03*
X159397501Y-105100001D03*
%TD*%
D43*
%TO.C,C37*%
X160470000Y-85250000D03*
X161430000Y-85250000D03*
%TD*%
D21*
%TO.C,C43*%
X168750000Y-84730000D03*
X168750000Y-83770000D03*
%TD*%
D44*
%TO.C,C5*%
X138127000Y-93726000D03*
X135177000Y-93726000D03*
%TD*%
D33*
%TO.C,L5*%
X173577501Y-104650001D03*
X174547501Y-104650001D03*
%TD*%
D15*
%TO.C,C9*%
X135242000Y-103759000D03*
X136792000Y-103759000D03*
%TD*%
D19*
%TO.C,R7*%
X129909001Y-106145001D03*
X129909001Y-104495001D03*
%TD*%
D45*
%TO.C,C32*%
X152730000Y-81950000D03*
X151770000Y-81950000D03*
%TD*%
D22*
%TO.C,C45*%
X172650000Y-84670000D03*
X172650000Y-85630000D03*
%TD*%
D32*
%TO.C,R21*%
X164850000Y-88260000D03*
X164850000Y-87240000D03*
%TD*%
D22*
%TO.C,C39*%
X158550000Y-87270000D03*
X158550000Y-88230000D03*
%TD*%
D46*
%TO.C,Y4*%
X153550000Y-92000000D03*
X155750000Y-92000000D03*
X155750000Y-90300000D03*
X153550000Y-90300000D03*
%TD*%
D47*
%TO.C,U5*%
X151962500Y-84262500D03*
X151962500Y-84762500D03*
X151962500Y-85262500D03*
X151962500Y-85762500D03*
X151962500Y-86262500D03*
D48*
X152900000Y-87200000D03*
X153400000Y-87200000D03*
X153900000Y-87200000D03*
X154400000Y-87200000D03*
X154900000Y-87200000D03*
D47*
X155837500Y-86262500D03*
X155837500Y-85762500D03*
X155837500Y-85262500D03*
X155837500Y-84762500D03*
X155837500Y-84262500D03*
D48*
X154900000Y-83325000D03*
X154400000Y-83325000D03*
X153900000Y-83325000D03*
X153400000Y-83325000D03*
X152900000Y-83325000D03*
D49*
X153900000Y-85262500D03*
%TD*%
D12*
%TO.C,R3*%
X136842000Y-100711000D03*
X135192000Y-100711000D03*
%TD*%
D22*
%TO.C,C23*%
X158412501Y-107170001D03*
X158412501Y-108130001D03*
%TD*%
D21*
%TO.C,C40*%
X164262501Y-101600001D03*
X164262501Y-100640001D03*
%TD*%
D22*
%TO.C,C3*%
X146558000Y-106809600D03*
X146558000Y-107769600D03*
%TD*%
%TO.C,C13*%
X148463000Y-91061600D03*
X148463000Y-92021600D03*
%TD*%
D21*
%TO.C,C18*%
X162312501Y-105080001D03*
X162312501Y-104120001D03*
%TD*%
D22*
%TO.C,C36*%
X159550000Y-87270000D03*
X159550000Y-88230000D03*
%TD*%
D43*
%TO.C,C21*%
X160382501Y-105100001D03*
X161342501Y-105100001D03*
%TD*%
D47*
%TO.C,U3*%
X151975001Y-104150001D03*
X151975001Y-104650001D03*
X151975001Y-105150001D03*
X151975001Y-105650001D03*
X151975001Y-106150001D03*
D48*
X152912501Y-107087501D03*
X153412501Y-107087501D03*
X153912501Y-107087501D03*
X154412501Y-107087501D03*
X154912501Y-107087501D03*
D47*
X155850001Y-106150001D03*
X155850001Y-105650001D03*
X155850001Y-105150001D03*
X155850001Y-104650001D03*
X155850001Y-104150001D03*
D48*
X154912501Y-103212501D03*
X154412501Y-103212501D03*
X153912501Y-103212501D03*
X153412501Y-103212501D03*
X152912501Y-103212501D03*
D49*
X153912501Y-105150001D03*
%TD*%
D22*
%TO.C,C33*%
X157550000Y-83370000D03*
X157550000Y-84330000D03*
%TD*%
D46*
%TO.C,Y3*%
X153512501Y-112150001D03*
X155712501Y-112150001D03*
X155712501Y-110450001D03*
X153512501Y-110450001D03*
%TD*%
D50*
%TO.C,J1*%
X131279000Y-82880000D03*
X131279000Y-88660000D03*
D51*
X132344000Y-82420000D03*
X132344000Y-83220000D03*
X132344000Y-84520000D03*
X132344000Y-85520000D03*
X132344000Y-86020000D03*
X132344000Y-87020000D03*
X132344000Y-88320000D03*
X132344000Y-89120000D03*
X132344000Y-88820000D03*
X132344000Y-88020000D03*
X132344000Y-87520000D03*
X132344000Y-86520000D03*
X132344000Y-85020000D03*
X132344000Y-84020000D03*
X132344000Y-83520000D03*
X132344000Y-82720000D03*
D52*
X131779000Y-81450000D03*
D53*
X127599000Y-81450000D03*
D52*
X131779000Y-90090000D03*
D53*
X127599000Y-90090000D03*
%TD*%
D33*
%TO.C,L4*%
X169677501Y-104650001D03*
X170647501Y-104650001D03*
%TD*%
D22*
%TO.C,C46*%
X175550000Y-84670000D03*
X175550000Y-85630000D03*
%TD*%
%TO.C,C2*%
X141605000Y-107769600D03*
X141605000Y-106809600D03*
%TD*%
D45*
%TO.C,C15*%
X152742501Y-101850001D03*
X151782501Y-101850001D03*
%TD*%
M02*
