%TF.GenerationSoftware,KiCad,Pcbnew,9.0.1*%
%TF.CreationDate,2025-07-03T23:17:29+02:00*%
%TF.ProjectId,Amon_Link,416d6f6e-5f4c-4696-9e6b-2e6b69636164,rev?*%
%TF.SameCoordinates,Original*%
%TF.FileFunction,Soldermask,Bot*%
%TF.FilePolarity,Negative*%
%FSLAX46Y46*%
G04 Gerber Fmt 4.6, Leading zero omitted, Abs format (unit mm)*
G04 Created by KiCad (PCBNEW 9.0.1) date 2025-07-03 23:17:29*
%MOMM*%
%LPD*%
G01*
G04 APERTURE LIST*
%ADD10C,0.900000*%
%ADD11O,1.600000X1.000000*%
%ADD12O,2.100000X1.000000*%
%ADD13C,0.650000*%
%ADD14C,0.700000*%
%ADD15C,4.400000*%
%ADD16R,1.700000X1.700000*%
%ADD17O,1.700000X1.700000*%
%ADD18R,4.200000X1.350000*%
G04 APERTURE END LIST*
D10*
%TO.C,S1*%
X128159001Y-93145001D03*
X128159001Y-97395001D03*
%TD*%
D11*
%TO.C,J1*%
X127599000Y-90090000D03*
D12*
X131779000Y-90090000D03*
D11*
X127599000Y-81450000D03*
D12*
X131779000Y-81450000D03*
D13*
X131279000Y-88660000D03*
X131279000Y-82880000D03*
%TD*%
D14*
%TO.C,H3*%
X176649999Y-111549999D03*
X177133273Y-110383273D03*
X177133273Y-112716725D03*
X178299999Y-109899999D03*
D15*
X178299999Y-111549999D03*
D14*
X178299999Y-113199999D03*
X179466725Y-110383273D03*
X179466725Y-112716725D03*
X179949999Y-111549999D03*
%TD*%
%TO.C,H4*%
X176649999Y-77549999D03*
X177133273Y-76383273D03*
X177133273Y-78716725D03*
X178299999Y-75899999D03*
D15*
X178299999Y-77549999D03*
D14*
X178299999Y-79199999D03*
X179466725Y-76383273D03*
X179466725Y-78716725D03*
X179949999Y-77549999D03*
%TD*%
%TO.C,H2*%
X127509000Y-77470000D03*
X127992274Y-76303274D03*
X127992274Y-78636726D03*
X129159000Y-75820000D03*
D15*
X129159000Y-77470000D03*
D14*
X129159000Y-79120000D03*
X130325726Y-76303274D03*
X130325726Y-78636726D03*
X130809000Y-77470000D03*
%TD*%
%TO.C,H1*%
X127509000Y-111470000D03*
X127992274Y-110303274D03*
X127992274Y-112636726D03*
X129159000Y-109820000D03*
D15*
X129159000Y-111470000D03*
D14*
X129159000Y-113120000D03*
X130325726Y-110303274D03*
X130325726Y-112636726D03*
X130809000Y-111470000D03*
%TD*%
D16*
%TO.C,J3*%
X143002000Y-111379000D03*
D17*
X140462000Y-111379000D03*
X137922000Y-111379000D03*
%TD*%
D18*
%TO.C,J4*%
X179200000Y-107475000D03*
X179200000Y-101825000D03*
%TD*%
%TO.C,J2*%
X179200000Y-87475000D03*
X179200000Y-81825000D03*
%TD*%
G36*
X131543039Y-74519685D02*
G01*
X131588794Y-74572489D01*
X131600000Y-74624000D01*
X131600000Y-76025859D01*
X131580315Y-76092898D01*
X131527511Y-76138653D01*
X131475861Y-76149859D01*
X131350000Y-76149717D01*
X131350000Y-77376000D01*
X131330315Y-77443039D01*
X131277511Y-77488794D01*
X131226000Y-77500000D01*
X129150000Y-77500000D01*
X129150000Y-77626000D01*
X129130315Y-77693039D01*
X129077511Y-77738794D01*
X129026000Y-77750000D01*
X126353000Y-77750000D01*
X126285961Y-77730315D01*
X126240206Y-77677511D01*
X126229000Y-77626000D01*
X126229000Y-77488882D01*
X126229012Y-77487144D01*
X126231274Y-77325743D01*
X126232042Y-77313597D01*
X126268277Y-76992007D01*
X126270606Y-76978299D01*
X126342426Y-76663633D01*
X126346275Y-76650270D01*
X126452879Y-76345613D01*
X126458201Y-76332766D01*
X126498059Y-76250000D01*
X128977000Y-76250000D01*
X130226000Y-76250000D01*
X130226000Y-75624000D01*
X128977000Y-75624000D01*
X128977000Y-76250000D01*
X126498059Y-76250000D01*
X126598239Y-76041974D01*
X126604965Y-76029804D01*
X126776685Y-75756513D01*
X126784732Y-75745172D01*
X126985971Y-75492826D01*
X126995237Y-75482458D01*
X127223458Y-75254237D01*
X127233826Y-75244971D01*
X127486172Y-75043732D01*
X127497513Y-75035685D01*
X127770804Y-74863965D01*
X127782974Y-74857239D01*
X128073766Y-74717201D01*
X128086613Y-74711879D01*
X128391270Y-74605275D01*
X128404633Y-74601426D01*
X128719299Y-74529606D01*
X128733007Y-74527277D01*
X128968175Y-74500780D01*
X128982059Y-74500000D01*
X131476000Y-74500000D01*
X131543039Y-74519685D01*
G37*
G36*
X129343039Y-74519685D02*
G01*
X129388794Y-74572489D01*
X129400000Y-74624000D01*
X129400000Y-77376000D01*
X129380315Y-77443039D01*
X129327511Y-77488794D01*
X129276000Y-77500000D01*
X129150000Y-77500000D01*
X129150000Y-79546000D01*
X129130315Y-79613039D01*
X129077511Y-79658794D01*
X129026000Y-79670000D01*
X128170000Y-79670000D01*
X128170000Y-79796000D01*
X128150315Y-79863039D01*
X128097511Y-79908794D01*
X128046000Y-79920000D01*
X126353000Y-79920000D01*
X126285961Y-79900315D01*
X126240206Y-79847511D01*
X126229000Y-79796000D01*
X126229000Y-78546000D01*
X127324000Y-78546000D01*
X127979000Y-78546000D01*
X127979000Y-77248000D01*
X127324000Y-77248000D01*
X127324000Y-78546000D01*
X126229000Y-78546000D01*
X126229000Y-77488882D01*
X126229012Y-77487144D01*
X126231274Y-77325743D01*
X126232042Y-77313597D01*
X126268277Y-76992007D01*
X126270606Y-76978299D01*
X126342426Y-76663633D01*
X126346275Y-76650270D01*
X126452879Y-76345613D01*
X126458201Y-76332766D01*
X126598239Y-76041974D01*
X126604965Y-76029804D01*
X126776685Y-75756513D01*
X126784732Y-75745172D01*
X126985971Y-75492826D01*
X126995237Y-75482458D01*
X127223458Y-75254237D01*
X127233826Y-75244971D01*
X127486172Y-75043732D01*
X127497513Y-75035685D01*
X127770804Y-74863965D01*
X127782974Y-74857239D01*
X128073766Y-74717201D01*
X128086613Y-74711879D01*
X128391270Y-74605275D01*
X128404633Y-74601426D01*
X128719299Y-74529606D01*
X128733007Y-74527277D01*
X128968175Y-74500780D01*
X128982059Y-74500000D01*
X129276000Y-74500000D01*
X129343039Y-74519685D01*
G37*
G36*
X178489825Y-74500780D02*
G01*
X178724992Y-74527277D01*
X178738700Y-74529606D01*
X179053366Y-74601426D01*
X179066729Y-74605275D01*
X179371386Y-74711879D01*
X179384233Y-74717201D01*
X179675025Y-74857239D01*
X179687195Y-74863965D01*
X179960486Y-75035685D01*
X179971827Y-75043732D01*
X180224173Y-75244971D01*
X180234541Y-75254237D01*
X180462762Y-75482458D01*
X180472028Y-75492826D01*
X180673267Y-75745172D01*
X180681314Y-75756513D01*
X180853034Y-76029804D01*
X180859760Y-76041974D01*
X180999798Y-76332766D01*
X181005120Y-76345613D01*
X181111724Y-76650270D01*
X181115573Y-76663633D01*
X181187393Y-76978299D01*
X181189722Y-76992006D01*
X181199220Y-77076294D01*
X181200000Y-77090179D01*
X181200000Y-77676000D01*
X181180315Y-77743039D01*
X181127511Y-77788794D01*
X181076000Y-77800000D01*
X178374000Y-77800000D01*
X178306961Y-77780315D01*
X178261206Y-77727511D01*
X178250000Y-77676000D01*
X178250000Y-77550000D01*
X176224000Y-77550000D01*
X176156961Y-77530315D01*
X176111206Y-77477511D01*
X176100000Y-77426000D01*
X176100000Y-76250000D01*
X178598000Y-76250000D01*
X179799364Y-76250000D01*
X179722358Y-76153438D01*
X179563559Y-75994639D01*
X179387957Y-75854601D01*
X179197789Y-75735111D01*
X178995433Y-75637661D01*
X178956391Y-75624000D01*
X178598000Y-75624000D01*
X178598000Y-76250000D01*
X176100000Y-76250000D01*
X176100000Y-76200281D01*
X175973860Y-76200139D01*
X175906842Y-76180378D01*
X175861147Y-76127523D01*
X175850000Y-76076139D01*
X175850000Y-74624000D01*
X175869685Y-74556961D01*
X175922489Y-74511206D01*
X175974000Y-74500000D01*
X178475941Y-74500000D01*
X178489825Y-74500780D01*
G37*
G36*
X176293039Y-74519685D02*
G01*
X176338794Y-74572489D01*
X176350000Y-74624000D01*
X176350000Y-76188071D01*
X176347617Y-76212264D01*
X176345617Y-76222318D01*
X176313231Y-76284228D01*
X176252515Y-76318802D01*
X176182746Y-76315061D01*
X176126074Y-76274194D01*
X176100493Y-76209176D01*
X176100100Y-76200382D01*
X176100000Y-76200282D01*
X131349999Y-76149718D01*
X131349130Y-76150585D01*
X131330315Y-76214664D01*
X131277511Y-76260419D01*
X131208353Y-76270363D01*
X131144797Y-76241338D01*
X131107023Y-76182560D01*
X131104369Y-76171749D01*
X131102369Y-76161665D01*
X131100000Y-76137541D01*
X131100000Y-74624000D01*
X131119685Y-74556961D01*
X131172489Y-74511206D01*
X131224000Y-74500000D01*
X176226000Y-74500000D01*
X176293039Y-74519685D01*
G37*
G36*
X131260974Y-112725130D02*
G01*
X131317740Y-112765866D01*
X131343472Y-112830825D01*
X131343991Y-112842162D01*
X131343991Y-112860001D01*
X131343990Y-112860001D01*
X176093991Y-112881871D01*
X176094874Y-112880989D01*
X176113676Y-112816960D01*
X176166480Y-112771205D01*
X176235638Y-112761261D01*
X176299194Y-112790286D01*
X176336968Y-112849064D01*
X176339614Y-112859839D01*
X176341614Y-112869907D01*
X176343991Y-112894067D01*
X176343991Y-114364000D01*
X176324306Y-114431039D01*
X176271502Y-114476794D01*
X176219991Y-114488000D01*
X131217485Y-114488000D01*
X131150446Y-114468315D01*
X131104691Y-114415511D01*
X131093485Y-114364287D01*
X131090029Y-112872788D01*
X131092356Y-112848591D01*
X131098318Y-112818252D01*
X131130560Y-112756266D01*
X131191196Y-112721552D01*
X131260974Y-112725130D01*
G37*
G36*
X129103039Y-111351839D02*
G01*
X129148794Y-111404643D01*
X129160000Y-111456154D01*
X129160000Y-111582154D01*
X131219991Y-111582154D01*
X131287030Y-111601839D01*
X131332785Y-111654643D01*
X131343991Y-111706154D01*
X131343991Y-112860000D01*
X131470051Y-112860062D01*
X131537081Y-112879779D01*
X131582810Y-112932605D01*
X131593991Y-112984062D01*
X131593991Y-114364000D01*
X131574306Y-114431039D01*
X131521502Y-114476794D01*
X131469991Y-114488000D01*
X129229860Y-114488000D01*
X129228185Y-114487989D01*
X129066769Y-114485809D01*
X129054560Y-114485040D01*
X128732992Y-114448808D01*
X128719284Y-114446479D01*
X128404609Y-114374657D01*
X128391246Y-114370808D01*
X128086583Y-114264202D01*
X128073736Y-114258880D01*
X127782932Y-114118836D01*
X127770762Y-114112110D01*
X127497463Y-113940385D01*
X127486122Y-113932338D01*
X127233768Y-113731093D01*
X127223400Y-113721827D01*
X126995172Y-113493599D01*
X126985906Y-113483231D01*
X126784661Y-113230877D01*
X126776614Y-113219536D01*
X126690291Y-113082154D01*
X128977000Y-113082154D01*
X130219991Y-113082154D01*
X130219991Y-112706154D01*
X128977000Y-112706154D01*
X128977000Y-113082154D01*
X126690291Y-113082154D01*
X126604889Y-112946237D01*
X126598163Y-112934067D01*
X126458119Y-112643263D01*
X126452797Y-112630416D01*
X126346191Y-112325753D01*
X126342342Y-112312390D01*
X126270520Y-111997715D01*
X126268191Y-111984007D01*
X126231959Y-111662439D01*
X126231190Y-111650229D01*
X126229011Y-111488813D01*
X126229000Y-111487139D01*
X126229000Y-111456154D01*
X126248685Y-111389115D01*
X126301489Y-111343360D01*
X126353000Y-111332154D01*
X129036000Y-111332154D01*
X129103039Y-111351839D01*
G37*
G36*
X181133039Y-111301839D02*
G01*
X181178794Y-111354643D01*
X181190000Y-111406154D01*
X181190000Y-111559030D01*
X181191157Y-111561149D01*
X181193991Y-111587507D01*
X181193991Y-111939927D01*
X181193211Y-111953814D01*
X181189808Y-111984010D01*
X181187479Y-111997715D01*
X181115657Y-112312390D01*
X181111808Y-112325753D01*
X181005202Y-112630416D01*
X180999880Y-112643263D01*
X180859836Y-112934067D01*
X180853110Y-112946237D01*
X180681385Y-113219536D01*
X180673338Y-113230877D01*
X180472093Y-113483231D01*
X180462827Y-113493599D01*
X180234599Y-113721827D01*
X180224231Y-113731093D01*
X179971877Y-113932338D01*
X179960536Y-113940385D01*
X179687237Y-114112110D01*
X179675067Y-114118836D01*
X179384263Y-114258880D01*
X179371416Y-114264202D01*
X179066753Y-114370808D01*
X179053390Y-114374657D01*
X178738715Y-114446479D01*
X178725007Y-114448808D01*
X178403439Y-114485040D01*
X178391230Y-114485809D01*
X178229815Y-114487989D01*
X178228140Y-114488000D01*
X175967991Y-114488000D01*
X175900952Y-114468315D01*
X175855197Y-114415511D01*
X175843991Y-114364000D01*
X175843991Y-113005809D01*
X175863676Y-112938770D01*
X175916480Y-112893015D01*
X175968053Y-112881809D01*
X176093990Y-112881871D01*
X176093991Y-112881871D01*
X176093991Y-111656154D01*
X176113676Y-111589115D01*
X176166480Y-111543360D01*
X176217991Y-111532154D01*
X178290000Y-111532154D01*
X178290000Y-111406154D01*
X178309685Y-111339115D01*
X178362489Y-111293360D01*
X178414000Y-111282154D01*
X181066000Y-111282154D01*
X181133039Y-111301839D01*
G37*
G36*
X181143039Y-79519685D02*
G01*
X181188794Y-79572489D01*
X181200000Y-79624000D01*
X181200000Y-79688638D01*
X181190000Y-79722693D01*
X181190000Y-109476000D01*
X181170315Y-109543039D01*
X181117511Y-109588794D01*
X181066000Y-109600000D01*
X179232211Y-109600000D01*
X179208021Y-109597618D01*
X179197966Y-109595618D01*
X179136054Y-109563233D01*
X179101480Y-109502517D01*
X179105219Y-109432748D01*
X179146085Y-109376076D01*
X179211103Y-109350494D01*
X179219899Y-109350100D01*
X179220000Y-109350000D01*
X179220000Y-79750000D01*
X179219103Y-79749103D01*
X179155117Y-79730315D01*
X179109362Y-79677511D01*
X179099418Y-79608353D01*
X179128443Y-79544797D01*
X179187221Y-79507023D01*
X179197966Y-79504382D01*
X179208021Y-79502382D01*
X179232211Y-79500000D01*
X181076000Y-79500000D01*
X181143039Y-79519685D01*
G37*
G36*
X178489825Y-74500780D02*
G01*
X178724992Y-74527277D01*
X178738700Y-74529606D01*
X179053366Y-74601426D01*
X179066729Y-74605275D01*
X179371386Y-74711879D01*
X179384233Y-74717201D01*
X179675025Y-74857239D01*
X179687195Y-74863965D01*
X179960486Y-75035685D01*
X179971827Y-75043732D01*
X180224173Y-75244971D01*
X180234541Y-75254237D01*
X180462762Y-75482458D01*
X180472028Y-75492826D01*
X180673267Y-75745172D01*
X180681314Y-75756513D01*
X180853034Y-76029804D01*
X180859760Y-76041974D01*
X180999798Y-76332766D01*
X181005120Y-76345613D01*
X181111724Y-76650270D01*
X181115573Y-76663633D01*
X181187393Y-76978299D01*
X181189722Y-76992006D01*
X181199220Y-77076294D01*
X181200000Y-77090179D01*
X181200000Y-79688638D01*
X181190000Y-79722693D01*
X181190000Y-79876000D01*
X181170315Y-79943039D01*
X181117511Y-79988794D01*
X181066000Y-80000000D01*
X179344000Y-80000000D01*
X179276961Y-79980315D01*
X179231206Y-79927511D01*
X179220000Y-79876000D01*
X179220000Y-79750000D01*
X178374000Y-79750000D01*
X178306961Y-79730315D01*
X178261206Y-79677511D01*
X178250000Y-79626000D01*
X178250000Y-78626000D01*
X179374000Y-78626000D01*
X179750000Y-78626000D01*
X179750000Y-77248000D01*
X179374000Y-77248000D01*
X179374000Y-78626000D01*
X178250000Y-78626000D01*
X178250000Y-77550000D01*
X178124000Y-77550000D01*
X178056961Y-77530315D01*
X178011206Y-77477511D01*
X178000000Y-77426000D01*
X178000000Y-74624000D01*
X178019685Y-74556961D01*
X178072489Y-74511206D01*
X178124000Y-74500000D01*
X178475941Y-74500000D01*
X178489825Y-74500780D01*
G37*
G36*
X181133039Y-109119685D02*
G01*
X181178794Y-109172489D01*
X181190000Y-109224000D01*
X181190000Y-111559030D01*
X181191157Y-111561149D01*
X181193991Y-111587507D01*
X181193991Y-111939927D01*
X181193211Y-111953814D01*
X181189808Y-111984010D01*
X181187479Y-111997715D01*
X181115657Y-112312390D01*
X181111808Y-112325753D01*
X181005202Y-112630416D01*
X180999880Y-112643263D01*
X180859836Y-112934067D01*
X180853110Y-112946237D01*
X180681385Y-113219536D01*
X180673338Y-113230877D01*
X180472093Y-113483231D01*
X180462827Y-113493599D01*
X180234599Y-113721827D01*
X180224231Y-113731093D01*
X179971877Y-113932338D01*
X179960536Y-113940385D01*
X179687237Y-114112110D01*
X179675067Y-114118836D01*
X179384263Y-114258880D01*
X179371416Y-114264202D01*
X179066753Y-114370808D01*
X179053390Y-114374657D01*
X178738715Y-114446479D01*
X178725007Y-114448808D01*
X178403439Y-114485040D01*
X178391230Y-114485809D01*
X178229815Y-114487989D01*
X178228140Y-114488000D01*
X178164000Y-114488000D01*
X178096961Y-114468315D01*
X178051206Y-114415511D01*
X178040000Y-114364000D01*
X178040000Y-111656154D01*
X178059685Y-111589115D01*
X178112489Y-111543360D01*
X178164000Y-111532154D01*
X178290000Y-111532154D01*
X178290000Y-109474000D01*
X178309685Y-109406961D01*
X178362489Y-109361206D01*
X178414000Y-109350000D01*
X179220000Y-109350000D01*
X179220000Y-109224000D01*
X179239685Y-109156961D01*
X179292489Y-109111206D01*
X179344000Y-109100000D01*
X181066000Y-109100000D01*
X181133039Y-109119685D01*
G37*
G36*
X128181979Y-79422382D02*
G01*
X128192034Y-79424382D01*
X128253946Y-79456767D01*
X128288520Y-79517483D01*
X128284781Y-79587252D01*
X128243915Y-79643924D01*
X128178897Y-79669506D01*
X128170100Y-79669899D01*
X128170000Y-79670000D01*
X128170000Y-109270000D01*
X128170896Y-109270896D01*
X128234883Y-109289685D01*
X128280638Y-109342489D01*
X128290582Y-109411647D01*
X128261557Y-109475203D01*
X128202779Y-109512977D01*
X128192034Y-109515618D01*
X128181979Y-109517618D01*
X128157789Y-109520000D01*
X126353000Y-109520000D01*
X126285961Y-109500315D01*
X126240206Y-109447511D01*
X126229000Y-109396000D01*
X126229000Y-79544000D01*
X126248685Y-79476961D01*
X126301489Y-79431206D01*
X126353000Y-79420000D01*
X128157789Y-79420000D01*
X128181979Y-79422382D01*
G37*
G36*
X129103039Y-111351839D02*
G01*
X129148794Y-111404643D01*
X129160000Y-111456154D01*
X129160000Y-111582154D01*
X131219991Y-111582154D01*
X131287030Y-111601839D01*
X131332785Y-111654643D01*
X131343991Y-111706154D01*
X131343991Y-112860000D01*
X131470051Y-112860062D01*
X131537081Y-112879779D01*
X131582810Y-112932605D01*
X131593991Y-112984062D01*
X131593991Y-114364000D01*
X131574306Y-114431039D01*
X131521502Y-114476794D01*
X131469991Y-114488000D01*
X129229860Y-114488000D01*
X129228185Y-114487989D01*
X129066769Y-114485809D01*
X129054560Y-114485040D01*
X128732992Y-114448808D01*
X128719284Y-114446479D01*
X128404609Y-114374657D01*
X128391246Y-114370808D01*
X128086583Y-114264202D01*
X128073736Y-114258880D01*
X127782932Y-114118836D01*
X127770762Y-114112110D01*
X127497463Y-113940385D01*
X127486122Y-113932338D01*
X127233768Y-113731093D01*
X127223400Y-113721827D01*
X126995172Y-113493599D01*
X126985906Y-113483231D01*
X126784661Y-113230877D01*
X126776614Y-113219536D01*
X126690291Y-113082154D01*
X128977000Y-113082154D01*
X130219991Y-113082154D01*
X130219991Y-112706154D01*
X128977000Y-112706154D01*
X128977000Y-113082154D01*
X126690291Y-113082154D01*
X126604889Y-112946237D01*
X126598163Y-112934067D01*
X126458119Y-112643263D01*
X126452797Y-112630416D01*
X126346191Y-112325753D01*
X126342342Y-112312390D01*
X126270520Y-111997715D01*
X126268191Y-111984007D01*
X126231959Y-111662439D01*
X126231190Y-111650229D01*
X126229011Y-111488813D01*
X126229000Y-111487139D01*
X126229000Y-111456154D01*
X126248685Y-111389115D01*
X126301489Y-111343360D01*
X126353000Y-111332154D01*
X129036000Y-111332154D01*
X129103039Y-111351839D01*
G37*
G36*
X128113039Y-109039685D02*
G01*
X128158794Y-109092489D01*
X128170000Y-109144000D01*
X128170000Y-109270000D01*
X129036000Y-109270000D01*
X129103039Y-109289685D01*
X129148794Y-109342489D01*
X129160000Y-109394000D01*
X129160000Y-111582154D01*
X129286000Y-111582154D01*
X129353039Y-111601839D01*
X129398794Y-111654643D01*
X129410000Y-111706154D01*
X129410000Y-114364000D01*
X129390315Y-114431039D01*
X129337511Y-114476794D01*
X129286000Y-114488000D01*
X129229860Y-114488000D01*
X129228185Y-114487989D01*
X129066769Y-114485809D01*
X129054560Y-114485040D01*
X128732992Y-114448808D01*
X128719284Y-114446479D01*
X128404609Y-114374657D01*
X128391246Y-114370808D01*
X128086583Y-114264202D01*
X128073736Y-114258880D01*
X127782932Y-114118836D01*
X127770762Y-114112110D01*
X127497463Y-113940385D01*
X127486122Y-113932338D01*
X127233768Y-113731093D01*
X127223400Y-113721827D01*
X126995172Y-113493599D01*
X126985906Y-113483231D01*
X126784661Y-113230877D01*
X126776614Y-113219536D01*
X126604889Y-112946237D01*
X126598163Y-112934067D01*
X126458119Y-112643263D01*
X126452797Y-112630416D01*
X126346191Y-112325753D01*
X126342342Y-112312390D01*
X126293519Y-112098479D01*
X127324000Y-112098479D01*
X127378586Y-112254479D01*
X127476031Y-112456824D01*
X127595533Y-112647012D01*
X127735570Y-112822613D01*
X127894384Y-112981427D01*
X127979000Y-113048905D01*
X127979000Y-111768000D01*
X127324000Y-111768000D01*
X127324000Y-112098479D01*
X126293519Y-112098479D01*
X126270520Y-111997715D01*
X126268191Y-111984007D01*
X126231959Y-111662439D01*
X126231190Y-111650229D01*
X126229011Y-111488813D01*
X126229000Y-111487139D01*
X126229000Y-109144000D01*
X126248685Y-109076961D01*
X126301489Y-109031206D01*
X126353000Y-109020000D01*
X128046000Y-109020000D01*
X128113039Y-109039685D01*
G37*
M02*
