%TF.GenerationSoftware,KiCad,Pcbnew,9.0.1*%
%TF.CreationDate,2025-07-03T23:17:29+02:00*%
%TF.ProjectId,Amon_Link,416d6f6e-5f4c-4696-9e6b-2e6b69636164,rev?*%
%TF.SameCoordinates,Original*%
%TF.FileFunction,Paste,Top*%
%TF.FilePolarity,Positive*%
%FSLAX46Y46*%
G04 Gerber Fmt 4.6, Leading zero omitted, Abs format (unit mm)*
G04 Created by KiCad (PCBNEW 9.0.1) date 2025-07-03 23:17:29*
%MOMM*%
%LPD*%
G01*
G04 APERTURE LIST*
G04 Aperture macros list*
%AMRoundRect*
0 Rectangle with rounded corners*
0 $1 Rounding radius*
0 $2 $3 $4 $5 $6 $7 $8 $9 X,Y pos of 4 corners*
0 Add a 4 corners polygon primitive as box body*
4,1,4,$2,$3,$4,$5,$6,$7,$8,$9,$2,$3,0*
0 Add four circle primitives for the rounded corners*
1,1,$1+$1,$2,$3*
1,1,$1+$1,$4,$5*
1,1,$1+$1,$6,$7*
1,1,$1+$1,$8,$9*
0 Add four rect primitives between the rounded corners*
20,1,$1+$1,$2,$3,$4,$5,0*
20,1,$1+$1,$4,$5,$6,$7,0*
20,1,$1+$1,$6,$7,$8,$9,0*
20,1,$1+$1,$8,$9,$2,$3,0*%
G04 Aperture macros list end*
%ADD10C,0.010000*%
%ADD11R,1.800000X0.600000*%
%ADD12R,0.900000X1.300000*%
%ADD13RoundRect,0.250000X0.625000X-0.375000X0.625000X0.375000X-0.625000X0.375000X-0.625000X-0.375000X0*%
%ADD14R,1.150000X0.300000*%
%ADD15RoundRect,0.135000X0.185000X-0.135000X0.185000X0.135000X-0.185000X0.135000X-0.185000X-0.135000X0*%
%ADD16RoundRect,0.147500X-0.147500X-0.172500X0.147500X-0.172500X0.147500X0.172500X-0.147500X0.172500X0*%
%ADD17RoundRect,0.200000X-0.275000X0.200000X-0.275000X-0.200000X0.275000X-0.200000X0.275000X0.200000X0*%
%ADD18RoundRect,0.218750X-0.256250X0.218750X-0.256250X-0.218750X0.256250X-0.218750X0.256250X0.218750X0*%
%ADD19RoundRect,0.140000X0.170000X-0.140000X0.170000X0.140000X-0.170000X0.140000X-0.170000X-0.140000X0*%
%ADD20RoundRect,0.140000X-0.170000X0.140000X-0.170000X-0.140000X0.170000X-0.140000X0.170000X0.140000X0*%
%ADD21RoundRect,0.033750X-0.371250X-0.101250X0.371250X-0.101250X0.371250X0.101250X-0.371250X0.101250X0*%
%ADD22RoundRect,0.033750X-0.101250X-0.371250X0.101250X-0.371250X0.101250X0.371250X-0.101250X0.371250X0*%
%ADD23RoundRect,0.200000X0.275000X-0.200000X0.275000X0.200000X-0.275000X0.200000X-0.275000X-0.200000X0*%
%ADD24RoundRect,0.225000X-0.250000X0.225000X-0.250000X-0.225000X0.250000X-0.225000X0.250000X0.225000X0*%
%ADD25RoundRect,0.150000X0.150000X-0.825000X0.150000X0.825000X-0.150000X0.825000X-0.150000X-0.825000X0*%
%ADD26RoundRect,0.225000X0.225000X0.250000X-0.225000X0.250000X-0.225000X-0.250000X0.225000X-0.250000X0*%
%ADD27RoundRect,0.135000X-0.185000X0.135000X-0.185000X-0.135000X0.185000X-0.135000X0.185000X0.135000X0*%
%ADD28RoundRect,0.135000X-0.135000X-0.185000X0.135000X-0.185000X0.135000X0.185000X-0.135000X0.185000X0*%
%ADD29R,0.900000X1.000000*%
%ADD30RoundRect,0.147500X0.172500X-0.147500X0.172500X0.147500X-0.172500X0.147500X-0.172500X-0.147500X0*%
%ADD31RoundRect,0.200000X-0.200000X-0.275000X0.200000X-0.275000X0.200000X0.275000X-0.200000X0.275000X0*%
%ADD32RoundRect,0.100000X0.100000X-0.637500X0.100000X0.637500X-0.100000X0.637500X-0.100000X-0.637500X0*%
%ADD33R,0.400000X1.900000*%
%ADD34RoundRect,0.140000X-0.140000X-0.170000X0.140000X-0.170000X0.140000X0.170000X-0.140000X0.170000X0*%
%ADD35RoundRect,0.250000X-0.325000X-0.650000X0.325000X-0.650000X0.325000X0.650000X-0.325000X0.650000X0*%
%ADD36RoundRect,0.140000X0.140000X0.170000X-0.140000X0.170000X-0.140000X-0.170000X0.140000X-0.170000X0*%
%ADD37R,1.400000X1.200000*%
%ADD38RoundRect,0.250000X-0.255000X-0.255000X0.255000X-0.255000X0.255000X0.255000X-0.255000X0.255000X0*%
%ADD39RoundRect,0.062500X-0.350000X-0.062500X0.350000X-0.062500X0.350000X0.062500X-0.350000X0.062500X0*%
%ADD40RoundRect,0.062500X-0.062500X-0.350000X0.062500X-0.350000X0.062500X0.350000X-0.062500X0.350000X0*%
%ADD41R,0.600000X1.150000*%
%ADD42RoundRect,0.225000X0.250000X-0.225000X0.250000X0.225000X-0.250000X0.225000X-0.250000X-0.225000X0*%
%ADD43R,3.600000X1.270000*%
%ADD44R,4.200000X1.350000*%
G04 APERTURE END LIST*
D10*
%TO.C,S1*%
X128459001Y-93670001D02*
X129959001Y-93670001D01*
X129959001Y-94420001D01*
X128159001Y-94420001D01*
X128159001Y-93745001D01*
X128167964Y-93745161D01*
X128185895Y-93744811D01*
X128203782Y-93743581D01*
X128221589Y-93741481D01*
X128230448Y-93740091D01*
X128230457Y-93740101D01*
X128239473Y-93739281D01*
X128257423Y-93736971D01*
X128275238Y-93733781D01*
X128292873Y-93729701D01*
X128301610Y-93727341D01*
X128312464Y-93724931D01*
X128333976Y-93719301D01*
X128355185Y-93712611D01*
X128376042Y-93704881D01*
X128386317Y-93700631D01*
X128394542Y-93697531D01*
X128410726Y-93690681D01*
X128426538Y-93683011D01*
X128441935Y-93674531D01*
X128449464Y-93669991D01*
X128459001Y-93670001D01*
G36*
X128459001Y-93670001D02*
G01*
X129959001Y-93670001D01*
X129959001Y-94420001D01*
X128159001Y-94420001D01*
X128159001Y-93745001D01*
X128167964Y-93745161D01*
X128185895Y-93744811D01*
X128203782Y-93743581D01*
X128221589Y-93741481D01*
X128230448Y-93740091D01*
X128230457Y-93740101D01*
X128239473Y-93739281D01*
X128257423Y-93736971D01*
X128275238Y-93733781D01*
X128292873Y-93729701D01*
X128301610Y-93727341D01*
X128312464Y-93724931D01*
X128333976Y-93719301D01*
X128355185Y-93712611D01*
X128376042Y-93704881D01*
X128386317Y-93700631D01*
X128394542Y-93697531D01*
X128410726Y-93690681D01*
X128426538Y-93683011D01*
X128441935Y-93674531D01*
X128449464Y-93669991D01*
X128459001Y-93670001D01*
G37*
X129959001Y-96870001D02*
X128459001Y-96870001D01*
X128449464Y-96870011D01*
X128441935Y-96865471D01*
X128426538Y-96856991D01*
X128410726Y-96849321D01*
X128394542Y-96842471D01*
X128386317Y-96839371D01*
X128376042Y-96835121D01*
X128355185Y-96827391D01*
X128333976Y-96820701D01*
X128312464Y-96815071D01*
X128301610Y-96812661D01*
X128292873Y-96810301D01*
X128275238Y-96806221D01*
X128257423Y-96803031D01*
X128239473Y-96800721D01*
X128230457Y-96799901D01*
X128230448Y-96799911D01*
X128221589Y-96798521D01*
X128203782Y-96796421D01*
X128185895Y-96795191D01*
X128167964Y-96794841D01*
X128159001Y-96795001D01*
X128159001Y-96120001D01*
X129959001Y-96120001D01*
X129959001Y-96870001D01*
G36*
X129959001Y-96870001D02*
G01*
X128459001Y-96870001D01*
X128449464Y-96870011D01*
X128441935Y-96865471D01*
X128426538Y-96856991D01*
X128410726Y-96849321D01*
X128394542Y-96842471D01*
X128386317Y-96839371D01*
X128376042Y-96835121D01*
X128355185Y-96827391D01*
X128333976Y-96820701D01*
X128312464Y-96815071D01*
X128301610Y-96812661D01*
X128292873Y-96810301D01*
X128275238Y-96806221D01*
X128257423Y-96803031D01*
X128239473Y-96800721D01*
X128230457Y-96799901D01*
X128230448Y-96799911D01*
X128221589Y-96798521D01*
X128203782Y-96796421D01*
X128185895Y-96795191D01*
X128167964Y-96794841D01*
X128159001Y-96795001D01*
X128159001Y-96120001D01*
X129959001Y-96120001D01*
X129959001Y-96870001D01*
G37*
%TO.C,U6*%
X165595000Y-84990000D02*
X164515000Y-84990000D01*
X164515000Y-83910000D01*
X165595000Y-83910000D01*
X165595000Y-84990000D01*
G36*
X165595000Y-84990000D02*
G01*
X164515000Y-84990000D01*
X164515000Y-83910000D01*
X165595000Y-83910000D01*
X165595000Y-84990000D01*
G37*
%TO.C,U4*%
X165557501Y-104890001D02*
X164477501Y-104890001D01*
X164477501Y-103810001D01*
X165557501Y-103810001D01*
X165557501Y-104890001D01*
G36*
X165557501Y-104890001D02*
G01*
X164477501Y-104890001D01*
X164477501Y-103810001D01*
X165557501Y-103810001D01*
X165557501Y-104890001D01*
G37*
%TD*%
D11*
%TO.C,S1*%
X129059001Y-95270001D03*
D12*
X127109001Y-93420001D03*
X127109001Y-97120001D03*
%TD*%
D13*
%TO.C,D4*%
X127959001Y-107530001D03*
X127959001Y-104730001D03*
%TD*%
%TO.C,D2*%
X127959002Y-102295002D03*
X127959002Y-99495002D03*
%TD*%
D14*
%TO.C,J1*%
X132344000Y-82720000D03*
X132344000Y-83520000D03*
X132344000Y-84020000D03*
X132344000Y-85020000D03*
X132344000Y-86520000D03*
X132344000Y-87520000D03*
X132344000Y-88020000D03*
X132344000Y-88820000D03*
X132344000Y-89120000D03*
X132344000Y-88320000D03*
X132344000Y-87020000D03*
X132344000Y-86020000D03*
X132344000Y-85520000D03*
X132344000Y-84520000D03*
X132344000Y-83220000D03*
X132344000Y-82420000D03*
%TD*%
D15*
%TO.C,R16*%
X163752501Y-108210001D03*
X163752501Y-107190001D03*
%TD*%
D16*
%TO.C,L2*%
X158427501Y-106150001D03*
X159397501Y-106150001D03*
%TD*%
D17*
%TO.C,R4*%
X133477000Y-97600000D03*
X133477000Y-99250000D03*
%TD*%
D18*
%TO.C,D1*%
X136652000Y-90271500D03*
X136652000Y-91846500D03*
%TD*%
D19*
%TO.C,C38*%
X162400000Y-85230000D03*
X162400000Y-84270000D03*
%TD*%
D20*
%TO.C,C17*%
X157412501Y-103220001D03*
X157412501Y-104180001D03*
%TD*%
D19*
%TO.C,C31*%
X153750000Y-81980000D03*
X153750000Y-81020000D03*
%TD*%
D21*
%TO.C,U6*%
X163610000Y-83700000D03*
X163610000Y-84200000D03*
X163610000Y-84700000D03*
X163610000Y-85200000D03*
D22*
X164305000Y-85895000D03*
X164805000Y-85895000D03*
X165305000Y-85895000D03*
X165805000Y-85895000D03*
D21*
X166500000Y-85200000D03*
X166500000Y-84700000D03*
X166500000Y-84200000D03*
X166500000Y-83700000D03*
D22*
X165805000Y-83005000D03*
X165305000Y-83005000D03*
X164805000Y-83005000D03*
X164305000Y-83005000D03*
%TD*%
D16*
%TO.C,L9*%
X169715000Y-84700000D03*
X170685000Y-84700000D03*
%TD*%
D23*
%TO.C,R2*%
X148615400Y-98919800D03*
X148615400Y-97269800D03*
%TD*%
D19*
%TO.C,C27*%
X171612501Y-104630001D03*
X171612501Y-103670001D03*
%TD*%
D15*
%TO.C,R18*%
X155050000Y-82010000D03*
X155050000Y-80990000D03*
%TD*%
D24*
%TO.C,C14*%
X135059000Y-79743000D03*
X135059000Y-81293000D03*
%TD*%
%TO.C,C4*%
X139598400Y-106336800D03*
X139598400Y-107886800D03*
%TD*%
D16*
%TO.C,L8*%
X158565000Y-85250000D03*
X159535000Y-85250000D03*
%TD*%
D15*
%TO.C,R13*%
X155112501Y-101910001D03*
X155112501Y-100890001D03*
%TD*%
D25*
%TO.C,U2*%
X138176000Y-88245000D03*
X139446000Y-88245000D03*
X140716000Y-88245000D03*
X141986000Y-88245000D03*
X143256000Y-88245000D03*
X144526000Y-88245000D03*
X145796000Y-88245000D03*
X147066000Y-88245000D03*
X147066000Y-83295000D03*
X145796000Y-83295000D03*
X144526000Y-83295000D03*
X143256000Y-83295000D03*
X141986000Y-83295000D03*
X140716000Y-83295000D03*
X139446000Y-83295000D03*
X138176000Y-83295000D03*
%TD*%
D26*
%TO.C,C47*%
X147079000Y-104648000D03*
X145529000Y-104648000D03*
%TD*%
D27*
%TO.C,R22*%
X165850000Y-87240000D03*
X165850000Y-88260000D03*
%TD*%
D28*
%TO.C,R19*%
X154140000Y-88600000D03*
X155160000Y-88600000D03*
%TD*%
D19*
%TO.C,C25*%
X165300000Y-81730000D03*
X165300000Y-80770000D03*
%TD*%
%TO.C,C44*%
X171650000Y-84680000D03*
X171650000Y-83720000D03*
%TD*%
D20*
%TO.C,C10*%
X143270199Y-91061600D03*
X143270199Y-92021600D03*
%TD*%
D29*
%TO.C,SW1*%
X138092400Y-107911800D03*
X133992400Y-107911800D03*
X138092400Y-106311800D03*
X133992400Y-106311800D03*
%TD*%
D24*
%TO.C,C6*%
X138557000Y-96380000D03*
X138557000Y-97930000D03*
%TD*%
D20*
%TO.C,C22*%
X159412501Y-107170001D03*
X159412501Y-108130001D03*
%TD*%
D15*
%TO.C,R15*%
X164752501Y-108210001D03*
X164752501Y-107190001D03*
%TD*%
D19*
%TO.C,C34*%
X157250000Y-90830000D03*
X157250000Y-89870000D03*
%TD*%
D24*
%TO.C,C11*%
X138176000Y-79743000D03*
X138176000Y-81293000D03*
%TD*%
D28*
%TO.C,R14*%
X154152501Y-108650001D03*
X155172501Y-108650001D03*
%TD*%
D30*
%TO.C,L6*%
X157550000Y-86235000D03*
X157550000Y-85265000D03*
%TD*%
D15*
%TO.C,R20*%
X163850000Y-88260000D03*
X163850000Y-87240000D03*
%TD*%
D20*
%TO.C,C29*%
X175512501Y-104670001D03*
X175512501Y-105630001D03*
%TD*%
D31*
%TO.C,R1*%
X142024600Y-94919800D03*
X143674600Y-94919800D03*
%TD*%
D19*
%TO.C,C30*%
X167712501Y-104630001D03*
X167712501Y-103670001D03*
%TD*%
D20*
%TO.C,C28*%
X172612501Y-104670001D03*
X172612501Y-105630001D03*
%TD*%
D30*
%TO.C,L1*%
X157412501Y-106135001D03*
X157412501Y-105165001D03*
%TD*%
D16*
%TO.C,L7*%
X158565000Y-86250000D03*
X159535000Y-86250000D03*
%TD*%
D32*
%TO.C,U1*%
X141347000Y-102497000D03*
X141997000Y-102497000D03*
X142647000Y-102497000D03*
X143297000Y-102497000D03*
X143947000Y-102497000D03*
X144597000Y-102497000D03*
X145247000Y-102497000D03*
X145897000Y-102497000D03*
X146547000Y-102497000D03*
X147197000Y-102497000D03*
X147197000Y-96772000D03*
X146547000Y-96772000D03*
X145897000Y-96772000D03*
X145247000Y-96772000D03*
X144597000Y-96772000D03*
X143947000Y-96772000D03*
X143297000Y-96772000D03*
X142647000Y-96772000D03*
X141997000Y-96772000D03*
X141347000Y-96772000D03*
%TD*%
D19*
%TO.C,C16*%
X153762501Y-101880001D03*
X153762501Y-100920001D03*
%TD*%
D17*
%TO.C,R9*%
X135059000Y-82672500D03*
X135059000Y-84322500D03*
%TD*%
D23*
%TO.C,R10*%
X135059001Y-88845001D03*
X135059001Y-87195001D03*
%TD*%
D33*
%TO.C,Y1*%
X143005400Y-106984800D03*
X144205400Y-106984800D03*
X145405400Y-106984800D03*
%TD*%
D16*
%TO.C,L10*%
X173615000Y-84700000D03*
X174585000Y-84700000D03*
%TD*%
D19*
%TO.C,C41*%
X167750000Y-84730000D03*
X167750000Y-83770000D03*
%TD*%
D26*
%TO.C,C8*%
X136792000Y-102235000D03*
X135242000Y-102235000D03*
%TD*%
D27*
%TO.C,R17*%
X165752501Y-107190001D03*
X165752501Y-108210001D03*
%TD*%
D21*
%TO.C,U4*%
X163572501Y-103600001D03*
X163572501Y-104100001D03*
X163572501Y-104600001D03*
X163572501Y-105100001D03*
D22*
X164267501Y-105795001D03*
X164767501Y-105795001D03*
X165267501Y-105795001D03*
X165767501Y-105795001D03*
D21*
X166462501Y-105100001D03*
X166462501Y-104600001D03*
X166462501Y-104100001D03*
X166462501Y-103600001D03*
D22*
X165767501Y-102905001D03*
X165267501Y-102905001D03*
X164767501Y-102905001D03*
X164267501Y-102905001D03*
%TD*%
D23*
%TO.C,R5*%
X135059001Y-91884000D03*
X135059001Y-90234000D03*
%TD*%
D20*
%TO.C,C20*%
X152050000Y-89870000D03*
X152050000Y-90830000D03*
%TD*%
D17*
%TO.C,R12*%
X129909002Y-99270002D03*
X129909002Y-100920002D03*
%TD*%
D19*
%TO.C,C26*%
X168712501Y-104630001D03*
X168712501Y-103670001D03*
%TD*%
%TO.C,C42*%
X165262501Y-101600001D03*
X165262501Y-100640001D03*
%TD*%
%TO.C,C24*%
X164300000Y-81730000D03*
X164300000Y-80770000D03*
%TD*%
D16*
%TO.C,L3*%
X158427501Y-105100001D03*
X159397501Y-105100001D03*
%TD*%
D17*
%TO.C,R11*%
X136652000Y-79693000D03*
X136652000Y-81343000D03*
%TD*%
D34*
%TO.C,C37*%
X160470000Y-85250000D03*
X161430000Y-85250000D03*
%TD*%
D19*
%TO.C,C43*%
X168750000Y-84730000D03*
X168750000Y-83770000D03*
%TD*%
D35*
%TO.C,C5*%
X135177000Y-93726000D03*
X138127000Y-93726000D03*
%TD*%
D16*
%TO.C,L5*%
X173577501Y-104650001D03*
X174547501Y-104650001D03*
%TD*%
D26*
%TO.C,C9*%
X136792000Y-103759000D03*
X135242000Y-103759000D03*
%TD*%
D17*
%TO.C,R7*%
X129909001Y-104495001D03*
X129909001Y-106145001D03*
%TD*%
D36*
%TO.C,C32*%
X152730000Y-81950000D03*
X151770000Y-81950000D03*
%TD*%
D20*
%TO.C,C45*%
X172650000Y-84670000D03*
X172650000Y-85630000D03*
%TD*%
D15*
%TO.C,R21*%
X164850000Y-88260000D03*
X164850000Y-87240000D03*
%TD*%
D20*
%TO.C,C39*%
X158550000Y-87270000D03*
X158550000Y-88230000D03*
%TD*%
D37*
%TO.C,Y4*%
X153550000Y-92000000D03*
X155750000Y-92000000D03*
X155750000Y-90300000D03*
X153550000Y-90300000D03*
%TD*%
D38*
%TO.C,U5*%
X153275000Y-84637500D03*
X153275000Y-85887500D03*
X154525000Y-84637500D03*
X154525000Y-85887500D03*
D39*
X151962500Y-84262500D03*
X151962500Y-84762500D03*
X151962500Y-85262500D03*
X151962500Y-85762500D03*
X151962500Y-86262500D03*
D40*
X152900000Y-87200000D03*
X153400000Y-87200000D03*
X153900000Y-87200000D03*
X154400000Y-87200000D03*
X154900000Y-87200000D03*
D39*
X155837500Y-86262500D03*
X155837500Y-85762500D03*
X155837500Y-85262500D03*
X155837500Y-84762500D03*
X155837500Y-84262500D03*
D40*
X154900000Y-83325000D03*
X154400000Y-83325000D03*
X153900000Y-83325000D03*
X153400000Y-83325000D03*
X152900000Y-83325000D03*
%TD*%
D31*
%TO.C,R3*%
X135192000Y-100711000D03*
X136842000Y-100711000D03*
%TD*%
D20*
%TO.C,C23*%
X158412501Y-107170001D03*
X158412501Y-108130001D03*
%TD*%
D19*
%TO.C,C40*%
X164262501Y-101600001D03*
X164262501Y-100640001D03*
%TD*%
D20*
%TO.C,C3*%
X146558000Y-106809600D03*
X146558000Y-107769600D03*
%TD*%
D19*
%TO.C,C19*%
X157212501Y-110980001D03*
X157212501Y-110020001D03*
%TD*%
D41*
%TO.C,IC1*%
X136967000Y-96540000D03*
X136017000Y-96540000D03*
X135067000Y-96540000D03*
X135067000Y-99040000D03*
X136967000Y-99040000D03*
%TD*%
D20*
%TO.C,C1*%
X152012501Y-110020001D03*
X152012501Y-110980001D03*
%TD*%
D42*
%TO.C,C12*%
X141986000Y-92215000D03*
X141986000Y-90665000D03*
%TD*%
D43*
%TO.C,J4*%
X179400000Y-104650000D03*
D44*
X179200000Y-107475000D03*
X179200000Y-101825000D03*
%TD*%
D20*
%TO.C,C13*%
X148188200Y-91061600D03*
X148188200Y-92021600D03*
%TD*%
D19*
%TO.C,C18*%
X162312501Y-105080001D03*
X162312501Y-104120001D03*
%TD*%
D20*
%TO.C,C36*%
X159550000Y-87270000D03*
X159550000Y-88230000D03*
%TD*%
D34*
%TO.C,C21*%
X160382501Y-105100001D03*
X161342501Y-105100001D03*
%TD*%
D38*
%TO.C,U3*%
X153287501Y-104525001D03*
X153287501Y-105775001D03*
X154537501Y-104525001D03*
X154537501Y-105775001D03*
D39*
X151975001Y-104150001D03*
X151975001Y-104650001D03*
X151975001Y-105150001D03*
X151975001Y-105650001D03*
X151975001Y-106150001D03*
D40*
X152912501Y-107087501D03*
X153412501Y-107087501D03*
X153912501Y-107087501D03*
X154412501Y-107087501D03*
X154912501Y-107087501D03*
D39*
X155850001Y-106150001D03*
X155850001Y-105650001D03*
X155850001Y-105150001D03*
X155850001Y-104650001D03*
X155850001Y-104150001D03*
D40*
X154912501Y-103212501D03*
X154412501Y-103212501D03*
X153912501Y-103212501D03*
X153412501Y-103212501D03*
X152912501Y-103212501D03*
%TD*%
D20*
%TO.C,C33*%
X157550000Y-83370000D03*
X157550000Y-84330000D03*
%TD*%
D37*
%TO.C,Y3*%
X153512501Y-112150001D03*
X155712501Y-112150001D03*
X155712501Y-110450001D03*
X153512501Y-110450001D03*
%TD*%
D43*
%TO.C,J2*%
X179400000Y-84650000D03*
D44*
X179200000Y-87475000D03*
X179200000Y-81825000D03*
%TD*%
D23*
%TO.C,R23*%
X131159001Y-96945001D03*
X131159001Y-95295001D03*
%TD*%
D16*
%TO.C,L4*%
X169677501Y-104650001D03*
X170647501Y-104650001D03*
%TD*%
D20*
%TO.C,C46*%
X175550000Y-84670000D03*
X175550000Y-85630000D03*
%TD*%
%TO.C,C2*%
X141605000Y-106809600D03*
X141605000Y-107769600D03*
%TD*%
D36*
%TO.C,C15*%
X152742501Y-101850001D03*
X151782501Y-101850001D03*
%TD*%
D33*
%TO.C,Y2*%
X144645200Y-91541600D03*
X145845200Y-91541600D03*
X147045200Y-91541600D03*
%TD*%
M02*
