M48
; DRILL file {KiCad 8.0.0} date 2025-02-17T15:32:12+0100
; FORMAT={-:-/ absolute / metric / decimal}
; #@! TF.CreationDate,2025-02-17T15:32:12+01:00
; #@! TF.GenerationSoftware,Kicad,Pcbnew,8.0.0
; #@! TF.FileFunction,Plated,1,4,PTH
FMAT,2
METRIC
; #@! TA.AperFunction,Plated,PTH,ViaDrill
T1C0.300
; #@! TA.AperFunction,Plated,PTH,ComponentDrill
T2C0.400
; #@! TA.AperFunction,Plated,PTH,ComponentDrill
T3C0.600
; #@! TA.AperFunction,Plated,PTH,ComponentDrill
T4C1.000
; #@! TA.AperFunction,Plated,PTH,ComponentDrill
T5C2.200
%
G90
G05
T1
X127.959Y-106.13
X127.959Y-100.895
X130.459Y-85.02
X130.459Y-85.745
X130.459Y-86.47
X130.759Y-94.045
X130.937Y-102.641
X131.115Y-98.222
X132.461Y-75.667
X132.461Y-77.775
X132.588Y-110.973
X132.588Y-113.081
X132.715Y-105.613
X132.715Y-107.188
X133.35Y-76.733
X133.477Y-96.139
X133.477Y-112.039
X133.528Y-101.117
X133.528Y-102.667
X133.778Y-90.673
X133.778Y-92.197
X133.778Y-93.721
X133.782Y-79.731
X133.96Y-75.667
X133.96Y-77.775
X134.087Y-110.973
X134.087Y-113.081
X134.925Y-76.733
X135.052Y-112.039
X136.017Y-107.95
X136.703Y-82.626
X136.703Y-84.531
X138.125Y-90.246
X138.176Y-86.995
X138.176Y-100.711
X138.176Y-102.235
X138.176Y-103.759
X138.582Y-99.263
X139.243Y-75.667
X139.243Y-77.775
X139.37Y-95.301
X139.548Y-79.731
X139.929Y-101.803
X139.929Y-103.429
X140.132Y-76.733
X140.741Y-75.667
X140.741Y-77.775
X141.554Y-93.523
X141.681Y-99.212
X141.707Y-76.733
X141.884Y-78.994
X141.884Y-81.102
X142.646Y-97.892
X142.773Y-80.061
X143.297Y-98.603
X143.383Y-78.994
X143.383Y-81.102
X143.545Y-89.916
X143.675Y-94.044
X143.947Y-97.993
X144.323Y-101.143
X144.348Y-80.061
X144.704Y-75.819
X144.704Y-77.927
X145.172Y-94.971
X145.593Y-76.886
X145.898Y-94.971
X145.974Y-101.143
X146.126Y-85.801
X146.126Y-90.119
X146.202Y-75.819
X146.202Y-77.927
X147.066Y-79.045
X147.066Y-81.153
X147.168Y-76.886
X147.193Y-111.074
X147.193Y-113.182
X147.32Y-105.486
X147.955Y-80.112
X148.082Y-112.141
X148.209Y-87.401
X148.234Y-89.814
X148.565Y-79.045
X148.565Y-81.153
X148.615Y-96.469
X148.692Y-111.074
X148.692Y-113.182
X149.047Y-107.975
X149.53Y-80.112
X149.657Y-112.141
X150.647Y-95.961
X150.647Y-97.968
X150.673Y-75.438
X150.673Y-77.47
X150.673Y-79.68
X150.698Y-81.94
X150.907Y-103.759
X150.95Y-84.0
X151.099Y-87.427
X151.613Y-95.021
X151.689Y-99.187
X151.714Y-76.403
X151.714Y-78.435
X151.714Y-96.901
X151.8Y-83.15
X151.813Y-103.2
X151.813Y-107.15
X151.85Y-87.3
X152.629Y-94.005
X152.679Y-79.705
X152.75Y-81.0
X152.756Y-95.961
X152.756Y-97.968
X152.781Y-75.438
X152.781Y-77.47
X152.863Y-100.999
X152.97Y-88.519
X152.983Y-108.645
X153.213Y-113.589
X153.391Y-89.154
X153.695Y-95.021
X153.772Y-99.187
X153.797Y-76.479
X153.797Y-78.511
X153.797Y-96.901
X154.711Y-94.005
X154.788Y-95.961
X154.788Y-97.968
X154.813Y-75.641
X154.813Y-77.673
X155.804Y-95.021
X155.854Y-113.563
X155.863Y-107.2
X155.88Y-99.187
X155.905Y-76.479
X155.905Y-78.511
X155.905Y-96.901
X155.95Y-83.1
X156.0Y-87.35
X156.063Y-103.0
X156.134Y-79.604
X156.235Y-81.661
X156.613Y-108.15
X156.718Y-88.138
X156.82Y-94.005
X156.87Y-82.575
X156.921Y-95.961
X156.921Y-97.968
X156.947Y-75.667
X156.947Y-77.699
X156.972Y-100.152
X156.997Y-102.286
X157.124Y-80.696
X157.734Y-81.661
X157.886Y-95.021
X157.963Y-92.735
X157.963Y-99.187
X157.963Y-101.321
X157.988Y-76.632
X157.988Y-78.664
X157.988Y-96.901
X158.013Y-79.654
X158.14Y-83.388
X158.15Y-103.2
X158.318Y-110.973
X158.344Y-113.208
X158.369Y-82.575
X158.623Y-80.696
X158.623Y-84.201
X158.763Y-104.0
X159.004Y-75.489
X159.055Y-100.152
X159.106Y-102.286
X159.156Y-77.521
X159.182Y-91.516
X159.283Y-112.065
X159.309Y-83.287
X159.41Y-81.686
X159.588Y-79.654
X159.963Y-103.95
X160.045Y-76.454
X160.045Y-82.601
X160.045Y-101.321
X160.198Y-78.486
X160.274Y-84.191
X160.274Y-111.049
X160.274Y-113.157
X160.299Y-80.721
X160.401Y-90.322
X160.613Y-108.15
X160.813Y-106.2
X160.858Y-83.363
X160.909Y-81.686
X160.909Y-88.138
X161.087Y-75.641
X161.112Y-109.906
X161.163Y-100.152
X161.163Y-112.116
X161.188Y-79.68
X161.188Y-102.286
X161.239Y-77.673
X161.366Y-91.592
X161.544Y-82.601
X161.544Y-84.201
X161.544Y-86.233
X161.763Y-106.5
X161.773Y-111.049
X161.773Y-113.157
X161.798Y-80.721
X162.139Y-90.322
X162.154Y-101.321
X162.179Y-76.479
X162.204Y-92.608
X162.313Y-102.95
X162.331Y-78.511
X162.433Y-81.712
X162.433Y-99.111
X162.738Y-109.855
X162.738Y-112.116
X162.763Y-79.68
X163.104Y-91.592
X163.119Y-93.65
X163.17Y-95.885
X163.195Y-75.641
X163.213Y-102.6
X163.246Y-100.152
X163.263Y-106.1
X163.271Y-80.747
X163.3Y-82.7
X163.3Y-86.2
X163.322Y-97.993
X163.347Y-77.673
X163.449Y-111.074
X163.449Y-113.182
X163.563Y-101.6
X163.57Y-81.73
X163.877Y-90.322
X164.008Y-92.659
X164.128Y-99.111
X164.16Y-94.767
X164.236Y-79.654
X164.279Y-96.901
X164.338Y-112.141
X164.465Y-76.733
X164.465Y-78.537
X164.763Y-109.05
X164.842Y-91.592
X164.85Y-88.85
X164.908Y-95.885
X164.948Y-111.074
X164.948Y-113.182
X165.017Y-97.993
X165.117Y-93.675
X165.278Y-75.717
X165.43Y-77.749
X165.615Y-90.322
X165.746Y-92.659
X165.822Y-99.111
X165.855Y-94.767
X165.913Y-112.141
X165.938Y-96.901
X166.319Y-76.683
X166.395Y-80.772
X166.472Y-78.715
X166.58Y-91.592
X166.628Y-100.152
X166.646Y-95.885
X166.678Y-102.083
X166.711Y-97.993
X166.751Y-113.157
X166.763Y-106.1
X166.776Y-93.675
X166.8Y-82.7
X166.8Y-86.2
X166.954Y-75.641
X167.03Y-79.731
X167.107Y-77.673
X167.234Y-81.813
X167.241Y-88.113
X167.353Y-90.322
X167.386Y-107.467
X167.386Y-108.966
X167.386Y-110.617
X167.386Y-112.116
X167.462Y-105.766
X167.484Y-92.659
X167.517Y-99.111
X167.517Y-101.117
X167.549Y-94.767
X167.598Y-96.901
X167.792Y-76.657
X167.945Y-78.689
X168.021Y-80.823
X168.054Y-87.071
X168.133Y-89.078
X168.319Y-91.592
X168.322Y-100.152
X168.373Y-102.083
X168.377Y-106.68
X168.384Y-95.885
X168.406Y-97.993
X168.427Y-108.356
X168.427Y-109.931
X168.427Y-111.506
X168.427Y-113.081
X168.436Y-93.675
X168.758Y-75.616
X168.808Y-81.839
X168.91Y-77.648
X168.91Y-79.781
X168.91Y-85.852
X168.979Y-88.113
X169.091Y-90.322
X169.211Y-99.111
X169.211Y-101.117
X169.222Y-92.659
X169.244Y-94.767
X169.257Y-96.901
X169.367Y-76.657
X169.443Y-105.689
X169.469Y-82.906
X169.494Y-107.467
X169.494Y-108.966
X169.494Y-110.617
X169.494Y-112.116
X169.52Y-78.689
X169.52Y-80.823
X169.792Y-87.071
X169.872Y-89.078
X170.017Y-100.152
X170.057Y-91.592
X170.063Y-103.55
X170.068Y-102.083
X170.095Y-93.675
X170.1Y-97.993
X170.122Y-95.885
X170.256Y-75.616
X170.358Y-81.915
X170.409Y-77.648
X170.485Y-79.781
X170.485Y-106.705
X170.485Y-108.204
X170.485Y-109.855
X170.485Y-111.354
X170.51Y-113.157
X170.717Y-88.113
X170.83Y-90.322
X170.906Y-99.111
X170.906Y-101.117
X170.917Y-96.901
X170.938Y-94.767
X170.96Y-92.659
X170.967Y-76.683
X171.069Y-85.852
X171.12Y-78.715
X171.196Y-80.848
X171.475Y-105.791
X171.526Y-107.594
X171.526Y-109.169
X171.526Y-110.744
X171.526Y-112.319
X171.53Y-87.071
X171.61Y-89.078
X171.711Y-100.152
X171.755Y-93.675
X171.762Y-102.083
X171.795Y-91.592
X171.795Y-97.993
X171.86Y-95.885
X171.933Y-75.641
X172.06Y-81.915
X172.085Y-77.673
X172.085Y-79.807
X172.455Y-88.113
X172.542Y-76.683
X172.568Y-90.322
X172.576Y-96.901
X172.593Y-106.705
X172.593Y-108.204
X172.593Y-109.855
X172.593Y-111.354
X172.6Y-99.111
X172.6Y-101.117
X172.618Y-113.157
X172.633Y-94.767
X172.695Y-78.715
X172.695Y-80.848
X172.698Y-92.659
X172.863Y-103.55
X172.898Y-82.804
X173.268Y-87.071
X173.348Y-89.078
X173.406Y-100.152
X173.414Y-93.675
X173.431Y-75.641
X173.457Y-102.083
X173.489Y-97.993
X173.533Y-91.592
X173.584Y-77.673
X173.598Y-95.885
X173.66Y-79.807
X173.66Y-81.915
X173.66Y-107.696
X173.66Y-109.195
X173.66Y-110.846
X173.66Y-112.344
X174.117Y-85.852
X174.135Y-90.373
X174.193Y-88.113
X174.236Y-96.901
X174.295Y-99.111
X174.295Y-101.117
X174.327Y-94.767
X174.422Y-76.733
X174.436Y-92.659
X174.498Y-80.823
X174.498Y-82.829
X174.549Y-106.655
X174.574Y-78.765
X174.701Y-108.585
X174.701Y-110.16
X174.701Y-111.735
X174.701Y-113.309
X174.963Y-103.55
X175.006Y-87.071
X175.074Y-93.675
X175.108Y-102.108
X175.133Y-79.781
X175.151Y-91.542
X175.184Y-97.993
X175.209Y-77.699
X175.235Y-81.89
X175.336Y-95.885
X175.362Y-75.59
X175.768Y-107.696
X175.768Y-109.195
X175.873Y-90.373
X175.946Y-82.829
X175.971Y-88.087
X176.0Y-96.952
X176.022Y-94.767
X176.174Y-92.659
X176.657Y-85.725
X176.657Y-103.55
X176.713Y-105.8
X176.788Y-97.968
X176.813Y-93.751
X176.864Y-95.91
X176.889Y-91.542
X177.611Y-90.373
X177.651Y-92.659
X177.677Y-94.767
X177.738Y-96.952
X178.526Y-97.968
X178.551Y-93.751
X178.602Y-95.91
X178.627Y-91.542
X179.349Y-90.373
X179.389Y-92.659
X179.415Y-94.767
X179.476Y-96.952
X180.264Y-97.968
X180.289Y-93.751
X180.34Y-95.91
X180.365Y-91.542
T2
X127.509Y-77.47
X127.509Y-111.47
X127.992Y-76.303
X127.992Y-78.637
X127.992Y-110.303
X127.992Y-112.637
X129.159Y-75.82
X129.159Y-79.12
X129.159Y-109.82
X129.159Y-113.12
X130.326Y-76.303
X130.326Y-78.637
X130.326Y-110.303
X130.326Y-112.637
X130.809Y-77.47
X130.809Y-111.47
X176.65Y-77.55
X176.65Y-111.55
X177.133Y-76.383
X177.133Y-78.717
X177.133Y-110.383
X177.133Y-112.717
X178.3Y-75.9
X178.3Y-79.2
X178.3Y-109.9
X178.3Y-113.2
X179.467Y-76.383
X179.467Y-78.717
X179.467Y-110.383
X179.467Y-112.717
X179.95Y-77.55
X179.95Y-111.55
T4
X137.922Y-111.379
X140.462Y-111.379
X143.002Y-111.379
T5
X129.159Y-77.47
X129.159Y-111.47
X178.3Y-77.55
X178.3Y-111.55
T3
G00X127.899Y-81.45
M15
G01X127.299Y-81.45
M16
G05
G00X127.899Y-90.09
M15
G01X127.299Y-90.09
M16
G05
G00X132.329Y-81.45
M15
G01X131.229Y-81.45
M16
G05
G00X132.329Y-90.09
M15
G01X131.229Y-90.09
M16
G05
M30
