%TF.GenerationSoftware,KiCad,Pcbnew,9.0.1*%
%TF.CreationDate,2025-07-03T23:17:29+02:00*%
%TF.ProjectId,Amon_Link,416d6f6e-5f4c-4696-9e6b-2e6b69636164,rev?*%
%TF.SameCoordinates,Original*%
%TF.FileFunction,Copper,L2,Inr*%
%TF.FilePolarity,Positive*%
%FSLAX46Y46*%
G04 Gerber Fmt 4.6, Leading zero omitted, Abs format (unit mm)*
G04 Created by KiCad (PCBNEW 9.0.1) date 2025-07-03 23:17:29*
%MOMM*%
%LPD*%
G01*
G04 APERTURE LIST*
%TA.AperFunction,ComponentPad*%
%ADD10O,1.600000X1.000000*%
%TD*%
%TA.AperFunction,ComponentPad*%
%ADD11O,2.100000X1.000000*%
%TD*%
%TA.AperFunction,ComponentPad*%
%ADD12C,0.700000*%
%TD*%
%TA.AperFunction,ComponentPad*%
%ADD13C,4.400000*%
%TD*%
%TA.AperFunction,ComponentPad*%
%ADD14R,1.700000X1.700000*%
%TD*%
%TA.AperFunction,ComponentPad*%
%ADD15O,1.700000X1.700000*%
%TD*%
%TA.AperFunction,ViaPad*%
%ADD16C,0.500000*%
%TD*%
G04 APERTURE END LIST*
D10*
%TO.N,Net-(J1-SHIELD)*%
%TO.C,J1*%
X127599000Y-90090000D03*
D11*
X131779000Y-90090000D03*
D10*
X127599000Y-81450000D03*
D11*
X131779000Y-81450000D03*
%TD*%
D12*
%TO.N,GND*%
%TO.C,H3*%
X176649999Y-111549999D03*
X177133273Y-110383273D03*
X177133273Y-112716725D03*
X178299999Y-109899999D03*
D13*
X178299999Y-111549999D03*
D12*
X178299999Y-113199999D03*
X179466725Y-110383273D03*
X179466725Y-112716725D03*
X179949999Y-111549999D03*
%TD*%
%TO.N,GND*%
%TO.C,H4*%
X176649999Y-77549999D03*
X177133273Y-76383273D03*
X177133273Y-78716725D03*
X178299999Y-75899999D03*
D13*
X178299999Y-77549999D03*
D12*
X178299999Y-79199999D03*
X179466725Y-76383273D03*
X179466725Y-78716725D03*
X179949999Y-77549999D03*
%TD*%
%TO.N,GND*%
%TO.C,H2*%
X127509000Y-77470000D03*
X127992274Y-76303274D03*
X127992274Y-78636726D03*
X129159000Y-75820000D03*
D13*
X129159000Y-77470000D03*
D12*
X129159000Y-79120000D03*
X130325726Y-76303274D03*
X130325726Y-78636726D03*
X130809000Y-77470000D03*
%TD*%
%TO.N,GND*%
%TO.C,H1*%
X127509000Y-111470000D03*
X127992274Y-110303274D03*
X127992274Y-112636726D03*
X129159000Y-109820000D03*
D13*
X129159000Y-111470000D03*
D12*
X129159000Y-113120000D03*
X130325726Y-110303274D03*
X130325726Y-112636726D03*
X130809000Y-111470000D03*
%TD*%
D14*
%TO.N,+3.3V*%
%TO.C,J3*%
X143002000Y-111379000D03*
D15*
%TO.N,/SWIO*%
X140462000Y-111379000D03*
%TO.N,GND*%
X137922000Y-111379000D03*
%TD*%
D16*
%TO.N,GND*%
X180100000Y-93635022D03*
X180100000Y-90000000D03*
X180100000Y-99087555D03*
X180100000Y-91817511D03*
X180100000Y-97270044D03*
X180100000Y-95452533D03*
X127410000Y-83930000D03*
X127410000Y-85747511D03*
X127410000Y-87565022D03*
X132212490Y-75440000D03*
X139482534Y-75440000D03*
X151897556Y-75420000D03*
X155532578Y-75420000D03*
X144627512Y-75420000D03*
X157350090Y-75420000D03*
X150080045Y-75420000D03*
X153715067Y-75420000D03*
X146445023Y-75420000D03*
X140992490Y-75420000D03*
X148262534Y-75420000D03*
X137665023Y-75440000D03*
X142810001Y-75420000D03*
X135847512Y-75440000D03*
X134030001Y-75440000D03*
X169850000Y-75390000D03*
X162579956Y-75390000D03*
X175302534Y-75390000D03*
X173485022Y-75390000D03*
X164397467Y-75390000D03*
X160762445Y-75390000D03*
X171667511Y-75390000D03*
X158944934Y-75390000D03*
X166214978Y-75390000D03*
X168032489Y-75390000D03*
X135914978Y-113640000D03*
X137732489Y-113640000D03*
X134097467Y-113640000D03*
X132279956Y-113640000D03*
X139550000Y-113640000D03*
X151965022Y-113620000D03*
X144694978Y-113620000D03*
X157417556Y-113620000D03*
X155600044Y-113620000D03*
X146512489Y-113620000D03*
X142877467Y-113620000D03*
X153782533Y-113620000D03*
X141059956Y-113620000D03*
X148330000Y-113620000D03*
X150147511Y-113620000D03*
%TO.N,+3.3V*%
X148615400Y-96469200D03*
X138176000Y-100711000D03*
X163562501Y-101600001D03*
X152750000Y-81000000D03*
X158140400Y-83388200D03*
X147320000Y-105486200D03*
X138176000Y-102235000D03*
X138176000Y-103759000D03*
X130759200Y-94045001D03*
X163570000Y-81730000D03*
X152982501Y-108645000D03*
X143674600Y-94044000D03*
X158150000Y-103200000D03*
X152862501Y-100998511D03*
X152970000Y-88519000D03*
%TO.N,GND*%
X159316058Y-99136200D03*
X170829510Y-90322400D03*
X133477000Y-112039400D03*
X166800000Y-86200000D03*
X139242800Y-77774800D03*
X168099955Y-113590000D03*
X168216945Y-88239600D03*
X175666400Y-108280200D03*
X163262736Y-97002600D03*
X156489400Y-94716600D03*
X169443400Y-105689400D03*
X173431200Y-88239600D03*
X173558200Y-78638400D03*
X160612501Y-108150001D03*
X144970500Y-78663800D03*
X164160200Y-94767400D03*
X159486600Y-82067400D03*
X155498800Y-76657200D03*
X156083000Y-96443800D03*
X166852600Y-76657200D03*
X143256000Y-89916000D03*
X159012400Y-113590000D03*
X169243826Y-94767400D03*
X148691600Y-111074200D03*
X167843200Y-78638400D03*
X174802800Y-80772000D03*
X138176000Y-86995000D03*
X160223200Y-78638400D03*
X142125700Y-80441800D03*
X127959002Y-100895002D03*
X154787600Y-97967800D03*
X140131800Y-76733400D03*
X164127542Y-99110800D03*
X161036000Y-110921800D03*
X132715000Y-107188000D03*
X161175700Y-76657200D03*
X139547600Y-79730600D03*
X159962501Y-103950001D03*
X162433000Y-99110800D03*
X166282444Y-113590000D03*
X169468800Y-82905600D03*
X178460400Y-97053400D03*
X174294800Y-99110800D03*
X171693115Y-88239600D03*
X162534600Y-110921800D03*
X149809200Y-96443800D03*
X146280000Y-89790000D03*
X156413200Y-100558600D03*
X133477000Y-96139000D03*
X163068000Y-76657200D03*
X170314258Y-101523800D03*
X160829911Y-113590000D03*
X171734977Y-113590000D03*
X178358800Y-92760800D03*
X155862501Y-107200001D03*
X163877170Y-90322400D03*
X151800000Y-83150000D03*
X166700200Y-80721200D03*
X173558200Y-108280200D03*
X170905710Y-99110800D03*
X171653200Y-78638400D03*
X158318200Y-78638400D03*
X166453460Y-92760800D03*
X158496000Y-100558600D03*
X163212501Y-102600001D03*
X161798000Y-80721200D03*
X173219536Y-97002600D03*
X167549284Y-94767400D03*
X172862501Y-103550001D03*
X163300000Y-82700000D03*
X153606500Y-76657200D03*
X169418000Y-110947200D03*
X156311600Y-82042000D03*
X174091600Y-105943400D03*
X139369800Y-95300800D03*
X145410000Y-108550000D03*
X162312501Y-102950001D03*
X132461000Y-77774800D03*
X176657000Y-85725000D03*
X146862800Y-78663800D03*
X174327452Y-94767400D03*
X160858200Y-83362800D03*
X177611310Y-90373200D03*
X163300000Y-86200000D03*
X164960300Y-76657200D03*
X157708600Y-99237800D03*
X149656800Y-112141000D03*
X158623000Y-84201000D03*
X160401000Y-90322400D03*
X174117000Y-85852000D03*
X176657000Y-103550001D03*
X162687000Y-100558600D03*
X159181800Y-91516200D03*
X145770600Y-76657200D03*
X174421800Y-76657200D03*
X169900600Y-97002600D03*
X136017000Y-107950000D03*
X161762501Y-106500001D03*
X147193000Y-111074200D03*
X159080200Y-110921800D03*
X149047200Y-107975400D03*
X166925174Y-101523800D03*
X159283400Y-76657200D03*
X161544000Y-84201000D03*
X136702800Y-82626200D03*
X175354348Y-101523800D03*
X157861000Y-97028000D03*
X151812501Y-107150001D03*
X172529500Y-76657200D03*
X174498000Y-82829400D03*
X172567600Y-90322400D03*
X165709600Y-110921800D03*
X176620715Y-92760800D03*
X127959001Y-106130001D03*
X147802600Y-80441800D03*
X132588000Y-110972600D03*
X168191545Y-92760800D03*
X147662900Y-76657200D03*
X173552488Y-113590000D03*
X167516626Y-99110800D03*
X160909000Y-88138000D03*
X151812501Y-103200001D03*
X132715000Y-105613200D03*
X168325800Y-80772000D03*
X155950000Y-83100000D03*
X172632910Y-94767400D03*
X141681200Y-99212400D03*
X172600252Y-99110800D03*
X172008800Y-101523800D03*
X175370000Y-113590000D03*
X162139085Y-90322400D03*
X144322800Y-101142800D03*
X161173890Y-92710000D03*
X169211168Y-99110800D03*
X171564300Y-80772000D03*
X173703348Y-101523800D03*
X163262501Y-106100001D03*
X148082000Y-112141000D03*
X164464933Y-113590000D03*
X163271200Y-80746600D03*
X174962501Y-103550001D03*
X157810200Y-82042000D03*
X169955030Y-88239600D03*
X134086600Y-110972600D03*
X136702800Y-84531200D03*
X152755600Y-97967800D03*
X139928600Y-103428800D03*
X162977290Y-92760800D03*
X169091425Y-90322400D03*
X167284400Y-108280200D03*
X161315400Y-97002600D03*
X134924800Y-76733400D03*
X170938368Y-94767400D03*
X168241134Y-97002600D03*
X167360600Y-110947200D03*
X156612501Y-108150001D03*
X175143890Y-92760800D03*
X149555200Y-76657200D03*
X165615255Y-90322400D03*
X133781800Y-79730600D03*
X169748200Y-78638400D03*
X164033200Y-78638400D03*
X164922202Y-97002600D03*
X160382858Y-94716600D03*
X169945050Y-80772000D03*
X142300000Y-104410000D03*
X160985200Y-82067400D03*
X176022000Y-94767400D03*
X164715375Y-92760800D03*
X161772600Y-101930200D03*
X139928600Y-101803200D03*
X160299400Y-80721200D03*
X175873225Y-90373200D03*
X151917400Y-96443800D03*
X140741400Y-77774800D03*
X152603200Y-78638400D03*
X171323000Y-105791000D03*
X165938200Y-78638400D03*
X160604200Y-100558600D03*
X133959600Y-77774800D03*
X149123400Y-81940400D03*
X165854742Y-94767400D03*
X177676625Y-94767400D03*
X169929630Y-92760800D03*
X148234400Y-89814400D03*
X166581668Y-97002600D03*
X175945800Y-82829400D03*
X167353340Y-90322400D03*
X171526200Y-110947200D03*
X138582400Y-99263200D03*
X170637200Y-76657200D03*
X148209000Y-87401400D03*
X175463200Y-78638400D03*
X135051800Y-112039400D03*
X172897800Y-82804000D03*
X161544000Y-86233000D03*
X151714200Y-76657200D03*
X153390600Y-89154000D03*
X148755100Y-78663800D03*
X150647400Y-97967800D03*
X159620858Y-97002600D03*
X138125200Y-90246200D03*
X141554200Y-93522800D03*
X154508200Y-78638400D03*
X158762501Y-104000001D03*
X156062501Y-103000001D03*
X145973800Y-101142800D03*
X156413200Y-78638400D03*
X175209200Y-88214200D03*
X151920000Y-87350000D03*
X174135140Y-90373200D03*
X156718000Y-88138000D03*
X162647422Y-113590000D03*
X161010600Y-99136200D03*
X162128200Y-78638400D03*
X141706600Y-76733400D03*
X171560066Y-97002600D03*
X145910300Y-80441800D03*
X157962600Y-92735400D03*
X157124400Y-80695800D03*
X167817800Y-105689400D03*
X149123400Y-83832700D03*
X173634400Y-110947200D03*
X142970000Y-108540000D03*
X171450000Y-108280200D03*
X176712501Y-105800001D03*
X150698200Y-81940400D03*
X170062501Y-103550001D03*
X157581600Y-101930200D03*
X150647400Y-78663800D03*
X156014058Y-99237800D03*
X160273602Y-84191212D03*
X174984225Y-97053400D03*
X133527800Y-102666800D03*
X143878300Y-76657200D03*
X165822084Y-99110800D03*
X133527800Y-101117400D03*
X168619716Y-101523800D03*
X157391100Y-76657200D03*
X152298400Y-94716600D03*
X159689800Y-101930200D03*
X171667715Y-92760800D03*
X176722310Y-97053400D03*
X168744900Y-76657200D03*
X173405800Y-92760800D03*
X164211000Y-110921800D03*
X166800000Y-82700000D03*
X160812501Y-106200001D03*
X169341800Y-108280200D03*
X131114800Y-98221800D03*
X133350000Y-76733400D03*
X173183550Y-80772000D03*
X171069000Y-85852000D03*
X144018000Y-80441800D03*
X153949400Y-96443800D03*
X146126200Y-85801200D03*
X168910000Y-85852000D03*
X162077400Y-94716600D03*
X154381200Y-94716600D03*
X130937000Y-102641400D03*
X159308800Y-83286600D03*
X158623000Y-80695800D03*
X169917466Y-113590000D03*
X156000000Y-87350000D03*
X158597600Y-94716600D03*
X166762501Y-106100001D03*
%TO.N,+5V*%
X133778176Y-93720678D03*
X133778176Y-90780000D03*
X133778176Y-92304000D03*
X130459001Y-85745001D03*
X130459001Y-86470001D03*
X130459001Y-85020001D03*
%TO.N,/CE1*%
X150907000Y-103759000D03*
X164762501Y-109050001D03*
%TO.N,/CE2*%
X164850000Y-88850000D03*
X151099200Y-87426800D03*
X150950000Y-84000000D03*
%TO.N,/MISO*%
X143297000Y-98602800D03*
X145960000Y-95410000D03*
%TO.N,/SWIO*%
X142646400Y-97891600D03*
%TO.N,/MOSI*%
X143947000Y-97993200D03*
X145180000Y-95400000D03*
%TD*%
%TA.AperFunction,Conductor*%
%TO.N,GND*%
G36*
X178232472Y-74788695D02*
G01*
X178524306Y-74805084D01*
X178538103Y-74806638D01*
X178822827Y-74855015D01*
X178836384Y-74858109D01*
X179113899Y-74938060D01*
X179127025Y-74942653D01*
X179393841Y-75053172D01*
X179406355Y-75059198D01*
X179572444Y-75150992D01*
X179659125Y-75198899D01*
X179670899Y-75206297D01*
X179906430Y-75373415D01*
X179917302Y-75382085D01*
X180132642Y-75574524D01*
X180142475Y-75584357D01*
X180334914Y-75799697D01*
X180343584Y-75810569D01*
X180510702Y-76046100D01*
X180518100Y-76057874D01*
X180657797Y-76310637D01*
X180663830Y-76323165D01*
X180774346Y-76589975D01*
X180778939Y-76603100D01*
X180858890Y-76880615D01*
X180861984Y-76894172D01*
X180910359Y-77178885D01*
X180911916Y-77192703D01*
X180928305Y-77484527D01*
X180928500Y-77491480D01*
X180928500Y-111484518D01*
X180928305Y-111491471D01*
X180911916Y-111783295D01*
X180910359Y-111797113D01*
X180861984Y-112081827D01*
X180858890Y-112095384D01*
X180778939Y-112372899D01*
X180774346Y-112386023D01*
X180663831Y-112652833D01*
X180657797Y-112665363D01*
X180518099Y-112918125D01*
X180510702Y-112929898D01*
X180343584Y-113165430D01*
X180334914Y-113176302D01*
X180142475Y-113391642D01*
X180132642Y-113401475D01*
X179917302Y-113593914D01*
X179906430Y-113602584D01*
X179670898Y-113769702D01*
X179659125Y-113777099D01*
X179406363Y-113916797D01*
X179393833Y-113922831D01*
X179127023Y-114033346D01*
X179113899Y-114037939D01*
X178836384Y-114117890D01*
X178822827Y-114120984D01*
X178538113Y-114169359D01*
X178524295Y-114170916D01*
X178232471Y-114187305D01*
X178225518Y-114187500D01*
X129232482Y-114187500D01*
X129225529Y-114187305D01*
X128933704Y-114170916D01*
X128919886Y-114169359D01*
X128635172Y-114120984D01*
X128621615Y-114117890D01*
X128344100Y-114037939D01*
X128330976Y-114033346D01*
X128064166Y-113922831D01*
X128051636Y-113916797D01*
X127798874Y-113777099D01*
X127787101Y-113769702D01*
X127551569Y-113602584D01*
X127540697Y-113593914D01*
X127325357Y-113401475D01*
X127315524Y-113391642D01*
X127123085Y-113176302D01*
X127114415Y-113165430D01*
X126947297Y-112929898D01*
X126939900Y-112918125D01*
X126800202Y-112665363D01*
X126794168Y-112652833D01*
X126683653Y-112386023D01*
X126679060Y-112372899D01*
X126599109Y-112095384D01*
X126596015Y-112081827D01*
X126595281Y-112077507D01*
X126547638Y-111797103D01*
X126546084Y-111783305D01*
X126529695Y-111491470D01*
X126529500Y-111484518D01*
X126529500Y-111129000D01*
X136594769Y-111129000D01*
X137488988Y-111129000D01*
X137456075Y-111186007D01*
X137422000Y-111313174D01*
X137422000Y-111444826D01*
X137456075Y-111571993D01*
X137488988Y-111629000D01*
X136594769Y-111629000D01*
X136605242Y-111695126D01*
X136605242Y-111695129D01*
X136670904Y-111897217D01*
X136767379Y-112086557D01*
X136892272Y-112258459D01*
X136892276Y-112258464D01*
X137042535Y-112408723D01*
X137042540Y-112408727D01*
X137214442Y-112533620D01*
X137403782Y-112630095D01*
X137605871Y-112695757D01*
X137672000Y-112706231D01*
X137672000Y-111812012D01*
X137729007Y-111844925D01*
X137856174Y-111879000D01*
X137987826Y-111879000D01*
X138114993Y-111844925D01*
X138172000Y-111812012D01*
X138172000Y-112706230D01*
X138238126Y-112695757D01*
X138238129Y-112695757D01*
X138440217Y-112630095D01*
X138629557Y-112533620D01*
X138801459Y-112408727D01*
X138801464Y-112408723D01*
X138951723Y-112258464D01*
X138951727Y-112258459D01*
X139076620Y-112086558D01*
X139081232Y-112077507D01*
X139129205Y-112026709D01*
X139197025Y-112009912D01*
X139263161Y-112032447D01*
X139302204Y-112077504D01*
X139306949Y-112086817D01*
X139431890Y-112258786D01*
X139582213Y-112409109D01*
X139754179Y-112534048D01*
X139754181Y-112534049D01*
X139754184Y-112534051D01*
X139943588Y-112630557D01*
X140145757Y-112696246D01*
X140355713Y-112729500D01*
X140355714Y-112729500D01*
X140568286Y-112729500D01*
X140568287Y-112729500D01*
X140778243Y-112696246D01*
X140980412Y-112630557D01*
X141169816Y-112534051D01*
X141341792Y-112409104D01*
X141455329Y-112295566D01*
X141516648Y-112262084D01*
X141586340Y-112267068D01*
X141642274Y-112308939D01*
X141659189Y-112339917D01*
X141708202Y-112471328D01*
X141708206Y-112471335D01*
X141794452Y-112586544D01*
X141794455Y-112586547D01*
X141909664Y-112672793D01*
X141909671Y-112672797D01*
X142044517Y-112723091D01*
X142044516Y-112723091D01*
X142051444Y-112723835D01*
X142104127Y-112729500D01*
X143899872Y-112729499D01*
X143959483Y-112723091D01*
X144094331Y-112672796D01*
X144209546Y-112586546D01*
X144295796Y-112471331D01*
X144346091Y-112336483D01*
X144352500Y-112276873D01*
X144352499Y-110481128D01*
X144346091Y-110421517D01*
X144344810Y-110418083D01*
X144295797Y-110286671D01*
X144295793Y-110286664D01*
X144209547Y-110171455D01*
X144209544Y-110171452D01*
X144094335Y-110085206D01*
X144094328Y-110085202D01*
X143959482Y-110034908D01*
X143959483Y-110034908D01*
X143899883Y-110028501D01*
X143899881Y-110028500D01*
X143899873Y-110028500D01*
X143899864Y-110028500D01*
X142104129Y-110028500D01*
X142104123Y-110028501D01*
X142044516Y-110034908D01*
X141909671Y-110085202D01*
X141909664Y-110085206D01*
X141794455Y-110171452D01*
X141794452Y-110171455D01*
X141708206Y-110286664D01*
X141708203Y-110286669D01*
X141659189Y-110418083D01*
X141617317Y-110474016D01*
X141551853Y-110498433D01*
X141483580Y-110483581D01*
X141455326Y-110462430D01*
X141341786Y-110348890D01*
X141169820Y-110223951D01*
X140980414Y-110127444D01*
X140980413Y-110127443D01*
X140980412Y-110127443D01*
X140778243Y-110061754D01*
X140778241Y-110061753D01*
X140778240Y-110061753D01*
X140616957Y-110036208D01*
X140568287Y-110028500D01*
X140355713Y-110028500D01*
X140307042Y-110036208D01*
X140145760Y-110061753D01*
X139943585Y-110127444D01*
X139754179Y-110223951D01*
X139582213Y-110348890D01*
X139431890Y-110499213D01*
X139306949Y-110671182D01*
X139302202Y-110680499D01*
X139254227Y-110731293D01*
X139186405Y-110748087D01*
X139120271Y-110725548D01*
X139081234Y-110680495D01*
X139076622Y-110671444D01*
X138951727Y-110499540D01*
X138951723Y-110499535D01*
X138801464Y-110349276D01*
X138801459Y-110349272D01*
X138629557Y-110224379D01*
X138440215Y-110127903D01*
X138238124Y-110062241D01*
X138172000Y-110051768D01*
X138172000Y-110945988D01*
X138114993Y-110913075D01*
X137987826Y-110879000D01*
X137856174Y-110879000D01*
X137729007Y-110913075D01*
X137672000Y-110945988D01*
X137672000Y-110051768D01*
X137671999Y-110051768D01*
X137605875Y-110062241D01*
X137403784Y-110127903D01*
X137214442Y-110224379D01*
X137042540Y-110349272D01*
X137042535Y-110349276D01*
X136892276Y-110499535D01*
X136892272Y-110499540D01*
X136767379Y-110671442D01*
X136670904Y-110860782D01*
X136605242Y-111062870D01*
X136605242Y-111062873D01*
X136594769Y-111129000D01*
X126529500Y-111129000D01*
X126529500Y-108718920D01*
X152232000Y-108718920D01*
X152260841Y-108863907D01*
X152260844Y-108863917D01*
X152317413Y-109000488D01*
X152317420Y-109000501D01*
X152399549Y-109123415D01*
X152399552Y-109123419D01*
X152504081Y-109227948D01*
X152504085Y-109227951D01*
X152626999Y-109310080D01*
X152627012Y-109310087D01*
X152763583Y-109366656D01*
X152763588Y-109366658D01*
X152763592Y-109366658D01*
X152763593Y-109366659D01*
X152908580Y-109395500D01*
X152908583Y-109395500D01*
X153056421Y-109395500D01*
X153153963Y-109376096D01*
X153201414Y-109366658D01*
X153337996Y-109310084D01*
X153460917Y-109227951D01*
X153564947Y-109123921D01*
X164012000Y-109123921D01*
X164040841Y-109268908D01*
X164040844Y-109268918D01*
X164097413Y-109405489D01*
X164097420Y-109405502D01*
X164179549Y-109528416D01*
X164179552Y-109528420D01*
X164284081Y-109632949D01*
X164284085Y-109632952D01*
X164406999Y-109715081D01*
X164407012Y-109715088D01*
X164543583Y-109771657D01*
X164543588Y-109771659D01*
X164543592Y-109771659D01*
X164543593Y-109771660D01*
X164688580Y-109800501D01*
X164688583Y-109800501D01*
X164836421Y-109800501D01*
X164933963Y-109781097D01*
X164981414Y-109771659D01*
X165117996Y-109715085D01*
X165240917Y-109632952D01*
X165345452Y-109528417D01*
X165427585Y-109405496D01*
X165431726Y-109395500D01*
X165443673Y-109366656D01*
X165484159Y-109268914D01*
X165513001Y-109123919D01*
X165513001Y-108976083D01*
X165513001Y-108976080D01*
X165484160Y-108831093D01*
X165484159Y-108831092D01*
X165484159Y-108831088D01*
X165437697Y-108718918D01*
X165427588Y-108694512D01*
X165427581Y-108694499D01*
X165345452Y-108571585D01*
X165345449Y-108571581D01*
X165240920Y-108467052D01*
X165240916Y-108467049D01*
X165118002Y-108384920D01*
X165117989Y-108384913D01*
X164981418Y-108328344D01*
X164981408Y-108328341D01*
X164836421Y-108299501D01*
X164836419Y-108299501D01*
X164688583Y-108299501D01*
X164688581Y-108299501D01*
X164543593Y-108328341D01*
X164543583Y-108328344D01*
X164407012Y-108384913D01*
X164406999Y-108384920D01*
X164284085Y-108467049D01*
X164284081Y-108467052D01*
X164179552Y-108571581D01*
X164179549Y-108571585D01*
X164097420Y-108694499D01*
X164097413Y-108694512D01*
X164040844Y-108831083D01*
X164040841Y-108831093D01*
X164012001Y-108976080D01*
X164012001Y-108976083D01*
X164012001Y-109123919D01*
X164012001Y-109123921D01*
X164012000Y-109123921D01*
X153564947Y-109123921D01*
X153565452Y-109123416D01*
X153647585Y-109000495D01*
X153704159Y-108863913D01*
X153733001Y-108718918D01*
X153733001Y-108571082D01*
X153733001Y-108571079D01*
X153704160Y-108426092D01*
X153704159Y-108426091D01*
X153704159Y-108426087D01*
X153663673Y-108328344D01*
X153647588Y-108289511D01*
X153647581Y-108289498D01*
X153565452Y-108166584D01*
X153565449Y-108166580D01*
X153460920Y-108062051D01*
X153460916Y-108062048D01*
X153338002Y-107979919D01*
X153337989Y-107979912D01*
X153201418Y-107923343D01*
X153201408Y-107923340D01*
X153056421Y-107894500D01*
X153056419Y-107894500D01*
X152908583Y-107894500D01*
X152908581Y-107894500D01*
X152763593Y-107923340D01*
X152763583Y-107923343D01*
X152627012Y-107979912D01*
X152626999Y-107979919D01*
X152504085Y-108062048D01*
X152504081Y-108062051D01*
X152399552Y-108166580D01*
X152399549Y-108166584D01*
X152317420Y-108289498D01*
X152317413Y-108289511D01*
X152260844Y-108426082D01*
X152260841Y-108426092D01*
X152232001Y-108571079D01*
X152232001Y-108571082D01*
X152232001Y-108718918D01*
X152232001Y-108718920D01*
X152232000Y-108718920D01*
X126529500Y-108718920D01*
X126529500Y-105560120D01*
X146569499Y-105560120D01*
X146598340Y-105705107D01*
X146598343Y-105705117D01*
X146654912Y-105841688D01*
X146654919Y-105841701D01*
X146737048Y-105964615D01*
X146737051Y-105964619D01*
X146841580Y-106069148D01*
X146841584Y-106069151D01*
X146964498Y-106151280D01*
X146964511Y-106151287D01*
X147101082Y-106207856D01*
X147101087Y-106207858D01*
X147101091Y-106207858D01*
X147101092Y-106207859D01*
X147246079Y-106236700D01*
X147246082Y-106236700D01*
X147393920Y-106236700D01*
X147491462Y-106217296D01*
X147538913Y-106207858D01*
X147675495Y-106151284D01*
X147798416Y-106069151D01*
X147902951Y-105964616D01*
X147985084Y-105841695D01*
X148041658Y-105705113D01*
X148070500Y-105560118D01*
X148070500Y-105412282D01*
X148070500Y-105412279D01*
X148041659Y-105267292D01*
X148041658Y-105267291D01*
X148041658Y-105267287D01*
X148041656Y-105267282D01*
X147985087Y-105130711D01*
X147985080Y-105130698D01*
X147902951Y-105007784D01*
X147902948Y-105007780D01*
X147798419Y-104903251D01*
X147798415Y-104903248D01*
X147675501Y-104821119D01*
X147675488Y-104821112D01*
X147538917Y-104764543D01*
X147538907Y-104764540D01*
X147393920Y-104735700D01*
X147393918Y-104735700D01*
X147246082Y-104735700D01*
X147246080Y-104735700D01*
X147101092Y-104764540D01*
X147101082Y-104764543D01*
X146964511Y-104821112D01*
X146964498Y-104821119D01*
X146841584Y-104903248D01*
X146841580Y-104903251D01*
X146737051Y-105007780D01*
X146737048Y-105007784D01*
X146654919Y-105130698D01*
X146654912Y-105130711D01*
X146598343Y-105267282D01*
X146598340Y-105267292D01*
X146569500Y-105412279D01*
X146569500Y-105412282D01*
X146569500Y-105560118D01*
X146569500Y-105560120D01*
X146569499Y-105560120D01*
X126529500Y-105560120D01*
X126529500Y-100784920D01*
X137425499Y-100784920D01*
X137454340Y-100929907D01*
X137454343Y-100929917D01*
X137510912Y-101066488D01*
X137510919Y-101066501D01*
X137593048Y-101189415D01*
X137593051Y-101189419D01*
X137697580Y-101293948D01*
X137697584Y-101293951D01*
X137811246Y-101369898D01*
X137856051Y-101423510D01*
X137864758Y-101492835D01*
X137834604Y-101555863D01*
X137811246Y-101576102D01*
X137697584Y-101652048D01*
X137697580Y-101652051D01*
X137593051Y-101756580D01*
X137593048Y-101756584D01*
X137510919Y-101879498D01*
X137510912Y-101879511D01*
X137454343Y-102016082D01*
X137454340Y-102016092D01*
X137425500Y-102161079D01*
X137425500Y-102161082D01*
X137425500Y-102308918D01*
X137425500Y-102308920D01*
X137425499Y-102308920D01*
X137454340Y-102453907D01*
X137454343Y-102453917D01*
X137510912Y-102590488D01*
X137510919Y-102590501D01*
X137593048Y-102713415D01*
X137593051Y-102713419D01*
X137697580Y-102817948D01*
X137697584Y-102817951D01*
X137811246Y-102893898D01*
X137856051Y-102947510D01*
X137864758Y-103016835D01*
X137834604Y-103079863D01*
X137811246Y-103100102D01*
X137697584Y-103176048D01*
X137697580Y-103176051D01*
X137593051Y-103280580D01*
X137593048Y-103280584D01*
X137510919Y-103403498D01*
X137510912Y-103403511D01*
X137454343Y-103540082D01*
X137454340Y-103540092D01*
X137425500Y-103685079D01*
X137425500Y-103685082D01*
X137425500Y-103832918D01*
X137425500Y-103832920D01*
X137425499Y-103832920D01*
X137454340Y-103977907D01*
X137454343Y-103977917D01*
X137510912Y-104114488D01*
X137510919Y-104114501D01*
X137593048Y-104237415D01*
X137593051Y-104237419D01*
X137697580Y-104341948D01*
X137697584Y-104341951D01*
X137820498Y-104424080D01*
X137820511Y-104424087D01*
X137957082Y-104480656D01*
X137957087Y-104480658D01*
X137957091Y-104480658D01*
X137957092Y-104480659D01*
X138102079Y-104509500D01*
X138102082Y-104509500D01*
X138249920Y-104509500D01*
X138347462Y-104490096D01*
X138394913Y-104480658D01*
X138531495Y-104424084D01*
X138654416Y-104341951D01*
X138758951Y-104237416D01*
X138841084Y-104114495D01*
X138897658Y-103977913D01*
X138908848Y-103921658D01*
X138926500Y-103832920D01*
X150156499Y-103832920D01*
X150185340Y-103977907D01*
X150185343Y-103977917D01*
X150241912Y-104114488D01*
X150241919Y-104114501D01*
X150324048Y-104237415D01*
X150324051Y-104237419D01*
X150428580Y-104341948D01*
X150428584Y-104341951D01*
X150551498Y-104424080D01*
X150551511Y-104424087D01*
X150688082Y-104480656D01*
X150688087Y-104480658D01*
X150688091Y-104480658D01*
X150688092Y-104480659D01*
X150833079Y-104509500D01*
X150833082Y-104509500D01*
X150980920Y-104509500D01*
X151078462Y-104490096D01*
X151125913Y-104480658D01*
X151262495Y-104424084D01*
X151385416Y-104341951D01*
X151489951Y-104237416D01*
X151572084Y-104114495D01*
X151628658Y-103977913D01*
X151639848Y-103921658D01*
X151657500Y-103832920D01*
X151657500Y-103685079D01*
X151628659Y-103540092D01*
X151628658Y-103540091D01*
X151628658Y-103540087D01*
X151578468Y-103418917D01*
X151572087Y-103403511D01*
X151572080Y-103403498D01*
X151489951Y-103280584D01*
X151489948Y-103280580D01*
X151483288Y-103273920D01*
X157399499Y-103273920D01*
X157428340Y-103418907D01*
X157428343Y-103418917D01*
X157484912Y-103555488D01*
X157484919Y-103555501D01*
X157567048Y-103678415D01*
X157567051Y-103678419D01*
X157671580Y-103782948D01*
X157671584Y-103782951D01*
X157794498Y-103865080D01*
X157794511Y-103865087D01*
X157931082Y-103921656D01*
X157931087Y-103921658D01*
X157931091Y-103921658D01*
X157931092Y-103921659D01*
X158076079Y-103950500D01*
X158076082Y-103950500D01*
X158223920Y-103950500D01*
X158321462Y-103931096D01*
X158368913Y-103921658D01*
X158505495Y-103865084D01*
X158628416Y-103782951D01*
X158732951Y-103678416D01*
X158815084Y-103555495D01*
X158871658Y-103418913D01*
X158900500Y-103273918D01*
X158900500Y-103126082D01*
X158900500Y-103126079D01*
X158871659Y-102981092D01*
X158871658Y-102981091D01*
X158871658Y-102981087D01*
X158871656Y-102981082D01*
X158815087Y-102844511D01*
X158815080Y-102844498D01*
X158732951Y-102721584D01*
X158732948Y-102721580D01*
X158628419Y-102617051D01*
X158628415Y-102617048D01*
X158505501Y-102534919D01*
X158505488Y-102534912D01*
X158368917Y-102478343D01*
X158368907Y-102478340D01*
X158223920Y-102449500D01*
X158223918Y-102449500D01*
X158076082Y-102449500D01*
X158076080Y-102449500D01*
X157931092Y-102478340D01*
X157931082Y-102478343D01*
X157794511Y-102534912D01*
X157794498Y-102534919D01*
X157671584Y-102617048D01*
X157671580Y-102617051D01*
X157567051Y-102721580D01*
X157567048Y-102721584D01*
X157484919Y-102844498D01*
X157484912Y-102844511D01*
X157428343Y-102981082D01*
X157428340Y-102981092D01*
X157399500Y-103126079D01*
X157399500Y-103126082D01*
X157399500Y-103273918D01*
X157399500Y-103273920D01*
X157399499Y-103273920D01*
X151483288Y-103273920D01*
X151385419Y-103176051D01*
X151385415Y-103176048D01*
X151262501Y-103093919D01*
X151262488Y-103093912D01*
X151125917Y-103037343D01*
X151125907Y-103037340D01*
X150980920Y-103008500D01*
X150980918Y-103008500D01*
X150833082Y-103008500D01*
X150833080Y-103008500D01*
X150688092Y-103037340D01*
X150688082Y-103037343D01*
X150551511Y-103093912D01*
X150551498Y-103093919D01*
X150428584Y-103176048D01*
X150428580Y-103176051D01*
X150324051Y-103280580D01*
X150324048Y-103280584D01*
X150241919Y-103403498D01*
X150241912Y-103403511D01*
X150185343Y-103540082D01*
X150185340Y-103540092D01*
X150156500Y-103685079D01*
X150156500Y-103685082D01*
X150156500Y-103832918D01*
X150156500Y-103832920D01*
X150156499Y-103832920D01*
X138926500Y-103832920D01*
X138926500Y-103685079D01*
X138897659Y-103540092D01*
X138897658Y-103540091D01*
X138897658Y-103540087D01*
X138847468Y-103418917D01*
X138841087Y-103403511D01*
X138841080Y-103403498D01*
X138758951Y-103280584D01*
X138758948Y-103280580D01*
X138654419Y-103176051D01*
X138654411Y-103176045D01*
X138540754Y-103100102D01*
X138495948Y-103046490D01*
X138487241Y-102977165D01*
X138517395Y-102914138D01*
X138540754Y-102893898D01*
X138615388Y-102844028D01*
X138654416Y-102817951D01*
X138758951Y-102713416D01*
X138841084Y-102590495D01*
X138897658Y-102453913D01*
X138907096Y-102406462D01*
X138926500Y-102308920D01*
X138926500Y-102161079D01*
X138897659Y-102016092D01*
X138897658Y-102016091D01*
X138897658Y-102016087D01*
X138872563Y-101955502D01*
X138841087Y-101879511D01*
X138841080Y-101879498D01*
X138758951Y-101756584D01*
X138758948Y-101756580D01*
X138654419Y-101652051D01*
X138654411Y-101652045D01*
X138540754Y-101576102D01*
X138495948Y-101522490D01*
X138487241Y-101453165D01*
X138517395Y-101390138D01*
X138540754Y-101369898D01*
X138615388Y-101320028D01*
X138654416Y-101293951D01*
X138758951Y-101189416D01*
X138837118Y-101072431D01*
X152112000Y-101072431D01*
X152140841Y-101217418D01*
X152140844Y-101217428D01*
X152197413Y-101353999D01*
X152197420Y-101354012D01*
X152279549Y-101476926D01*
X152279552Y-101476930D01*
X152384081Y-101581459D01*
X152384085Y-101581462D01*
X152506999Y-101663591D01*
X152507012Y-101663598D01*
X152643583Y-101720167D01*
X152643588Y-101720169D01*
X152643592Y-101720169D01*
X152643593Y-101720170D01*
X152788580Y-101749011D01*
X152788583Y-101749011D01*
X152936421Y-101749011D01*
X153033963Y-101729607D01*
X153081414Y-101720169D01*
X153193067Y-101673921D01*
X162812000Y-101673921D01*
X162840841Y-101818908D01*
X162840844Y-101818918D01*
X162897413Y-101955489D01*
X162897420Y-101955502D01*
X162979549Y-102078416D01*
X162979552Y-102078420D01*
X163084081Y-102182949D01*
X163084085Y-102182952D01*
X163206999Y-102265081D01*
X163207012Y-102265088D01*
X163312828Y-102308918D01*
X163343588Y-102321659D01*
X163343592Y-102321659D01*
X163343593Y-102321660D01*
X163488580Y-102350501D01*
X163488583Y-102350501D01*
X163636421Y-102350501D01*
X163733963Y-102331097D01*
X163781414Y-102321659D01*
X163917996Y-102265085D01*
X164040917Y-102182952D01*
X164145452Y-102078417D01*
X164227585Y-101955496D01*
X164284159Y-101818914D01*
X164303801Y-101720169D01*
X164313001Y-101673921D01*
X164313001Y-101526080D01*
X164284160Y-101381093D01*
X164284159Y-101381092D01*
X164284159Y-101381088D01*
X164272941Y-101354006D01*
X164227588Y-101244512D01*
X164227581Y-101244499D01*
X164145452Y-101121585D01*
X164145449Y-101121581D01*
X164040920Y-101017052D01*
X164040916Y-101017049D01*
X163918002Y-100934920D01*
X163917989Y-100934913D01*
X163781418Y-100878344D01*
X163781408Y-100878341D01*
X163636421Y-100849501D01*
X163636419Y-100849501D01*
X163488583Y-100849501D01*
X163488581Y-100849501D01*
X163343593Y-100878341D01*
X163343583Y-100878344D01*
X163207012Y-100934913D01*
X163206999Y-100934920D01*
X163084085Y-101017049D01*
X163084081Y-101017052D01*
X162979552Y-101121581D01*
X162979549Y-101121585D01*
X162897420Y-101244499D01*
X162897413Y-101244512D01*
X162840844Y-101381083D01*
X162840841Y-101381093D01*
X162812001Y-101526080D01*
X162812001Y-101526083D01*
X162812001Y-101673919D01*
X162812001Y-101673921D01*
X162812000Y-101673921D01*
X153193067Y-101673921D01*
X153217996Y-101663595D01*
X153340917Y-101581462D01*
X153445452Y-101476927D01*
X153527585Y-101354006D01*
X153584159Y-101217424D01*
X153613001Y-101072429D01*
X153613001Y-100924593D01*
X153613001Y-100924590D01*
X153584160Y-100779603D01*
X153584159Y-100779602D01*
X153584159Y-100779598D01*
X153584157Y-100779593D01*
X153527588Y-100643022D01*
X153527581Y-100643009D01*
X153445452Y-100520095D01*
X153445449Y-100520091D01*
X153340920Y-100415562D01*
X153340916Y-100415559D01*
X153218002Y-100333430D01*
X153217989Y-100333423D01*
X153081418Y-100276854D01*
X153081408Y-100276851D01*
X152936421Y-100248011D01*
X152936419Y-100248011D01*
X152788583Y-100248011D01*
X152788581Y-100248011D01*
X152643593Y-100276851D01*
X152643583Y-100276854D01*
X152507012Y-100333423D01*
X152506999Y-100333430D01*
X152384085Y-100415559D01*
X152384081Y-100415562D01*
X152279552Y-100520091D01*
X152279549Y-100520095D01*
X152197420Y-100643009D01*
X152197413Y-100643022D01*
X152140844Y-100779593D01*
X152140841Y-100779603D01*
X152112001Y-100924590D01*
X152112001Y-100924593D01*
X152112001Y-101072429D01*
X152112001Y-101072431D01*
X152112000Y-101072431D01*
X138837118Y-101072431D01*
X138841084Y-101066495D01*
X138897658Y-100929913D01*
X138898717Y-100924590D01*
X138904741Y-100894308D01*
X138904741Y-100894306D01*
X138926499Y-100784922D01*
X138926500Y-100784920D01*
X138926500Y-100637079D01*
X138897659Y-100492092D01*
X138897658Y-100492091D01*
X138897658Y-100492087D01*
X138897656Y-100492082D01*
X138841087Y-100355511D01*
X138841080Y-100355498D01*
X138758951Y-100232584D01*
X138758948Y-100232580D01*
X138654419Y-100128051D01*
X138654415Y-100128048D01*
X138531501Y-100045919D01*
X138531488Y-100045912D01*
X138394917Y-99989343D01*
X138394907Y-99989340D01*
X138249920Y-99960500D01*
X138249918Y-99960500D01*
X138102082Y-99960500D01*
X138102080Y-99960500D01*
X137957092Y-99989340D01*
X137957082Y-99989343D01*
X137820511Y-100045912D01*
X137820498Y-100045919D01*
X137697584Y-100128048D01*
X137697580Y-100128051D01*
X137593051Y-100232580D01*
X137593048Y-100232584D01*
X137510919Y-100355498D01*
X137510912Y-100355511D01*
X137454343Y-100492082D01*
X137454340Y-100492092D01*
X137425500Y-100637079D01*
X137425500Y-100637082D01*
X137425500Y-100784918D01*
X137425500Y-100784920D01*
X137425499Y-100784920D01*
X126529500Y-100784920D01*
X126529500Y-97459072D01*
X127508500Y-97459072D01*
X127533498Y-97584739D01*
X127533500Y-97584745D01*
X127582534Y-97703125D01*
X127582539Y-97703134D01*
X127653724Y-97809669D01*
X127653727Y-97809673D01*
X127744328Y-97900274D01*
X127744332Y-97900277D01*
X127850867Y-97971462D01*
X127850873Y-97971465D01*
X127850874Y-97971466D01*
X127969257Y-98020502D01*
X127969261Y-98020502D01*
X127969262Y-98020503D01*
X128094929Y-98045501D01*
X128094932Y-98045501D01*
X128223072Y-98045501D01*
X128307616Y-98028683D01*
X128348745Y-98020502D01*
X128467128Y-97971466D01*
X128476027Y-97965520D01*
X141895899Y-97965520D01*
X141924740Y-98110507D01*
X141924743Y-98110517D01*
X141981312Y-98247088D01*
X141981319Y-98247101D01*
X142063448Y-98370015D01*
X142063451Y-98370019D01*
X142167980Y-98474548D01*
X142167984Y-98474551D01*
X142290898Y-98556680D01*
X142290911Y-98556687D01*
X142427482Y-98613256D01*
X142427487Y-98613258D01*
X142456998Y-98619128D01*
X142518907Y-98651512D01*
X142553482Y-98712227D01*
X142554423Y-98716553D01*
X142575340Y-98821707D01*
X142575343Y-98821717D01*
X142631912Y-98958288D01*
X142631919Y-98958301D01*
X142714048Y-99081215D01*
X142714051Y-99081219D01*
X142818580Y-99185748D01*
X142818584Y-99185751D01*
X142941498Y-99267880D01*
X142941511Y-99267887D01*
X143078082Y-99324456D01*
X143078087Y-99324458D01*
X143078091Y-99324458D01*
X143078092Y-99324459D01*
X143223079Y-99353300D01*
X143223082Y-99353300D01*
X143370920Y-99353300D01*
X143468462Y-99333896D01*
X143515913Y-99324458D01*
X143652495Y-99267884D01*
X143775416Y-99185751D01*
X143879951Y-99081216D01*
X143962084Y-98958295D01*
X144018658Y-98821713D01*
X144018659Y-98821705D01*
X144020427Y-98815881D01*
X144021676Y-98816260D01*
X144050933Y-98760314D01*
X144111645Y-98725733D01*
X144115917Y-98724802D01*
X144165913Y-98714858D01*
X144302495Y-98658284D01*
X144425416Y-98576151D01*
X144529951Y-98471616D01*
X144612084Y-98348695D01*
X144668658Y-98212113D01*
X144697500Y-98067118D01*
X144697500Y-97919282D01*
X144697500Y-97919279D01*
X144668659Y-97774292D01*
X144668658Y-97774291D01*
X144668658Y-97774287D01*
X144626572Y-97672682D01*
X144612087Y-97637711D01*
X144612080Y-97637698D01*
X144529951Y-97514784D01*
X144529948Y-97514780D01*
X144425419Y-97410251D01*
X144425415Y-97410248D01*
X144302501Y-97328119D01*
X144302488Y-97328112D01*
X144165917Y-97271543D01*
X144165907Y-97271540D01*
X144020920Y-97242700D01*
X144020918Y-97242700D01*
X143873082Y-97242700D01*
X143873080Y-97242700D01*
X143728092Y-97271540D01*
X143728082Y-97271543D01*
X143591511Y-97328112D01*
X143591498Y-97328119D01*
X143468584Y-97410248D01*
X143468579Y-97410252D01*
X143430837Y-97447994D01*
X143369514Y-97481479D01*
X143299822Y-97476493D01*
X143243889Y-97434621D01*
X143240055Y-97429203D01*
X143229351Y-97413184D01*
X143229348Y-97413180D01*
X143124819Y-97308651D01*
X143124815Y-97308648D01*
X143001901Y-97226519D01*
X143001888Y-97226512D01*
X142865317Y-97169943D01*
X142865307Y-97169940D01*
X142720320Y-97141100D01*
X142720318Y-97141100D01*
X142572482Y-97141100D01*
X142572480Y-97141100D01*
X142427492Y-97169940D01*
X142427482Y-97169943D01*
X142290911Y-97226512D01*
X142290898Y-97226519D01*
X142167984Y-97308648D01*
X142167980Y-97308651D01*
X142063451Y-97413180D01*
X142063448Y-97413184D01*
X141981319Y-97536098D01*
X141981312Y-97536111D01*
X141924743Y-97672682D01*
X141924740Y-97672692D01*
X141895900Y-97817679D01*
X141895900Y-97817682D01*
X141895900Y-97965518D01*
X141895900Y-97965520D01*
X141895899Y-97965520D01*
X128476027Y-97965520D01*
X128573670Y-97900277D01*
X128664277Y-97809670D01*
X128735466Y-97703128D01*
X128784502Y-97584745D01*
X128794179Y-97536098D01*
X128809501Y-97459072D01*
X128809501Y-97330929D01*
X128784503Y-97205262D01*
X128784502Y-97205261D01*
X128784502Y-97205257D01*
X128735466Y-97086874D01*
X128735465Y-97086873D01*
X128735462Y-97086867D01*
X128664277Y-96980332D01*
X128664274Y-96980328D01*
X128573673Y-96889727D01*
X128573669Y-96889724D01*
X128467134Y-96818539D01*
X128467125Y-96818534D01*
X128348745Y-96769500D01*
X128348739Y-96769498D01*
X128223072Y-96744501D01*
X128223070Y-96744501D01*
X128094932Y-96744501D01*
X128094930Y-96744501D01*
X127969262Y-96769498D01*
X127969256Y-96769500D01*
X127850876Y-96818534D01*
X127850867Y-96818539D01*
X127744332Y-96889724D01*
X127744328Y-96889727D01*
X127653727Y-96980328D01*
X127653724Y-96980332D01*
X127582539Y-97086867D01*
X127582534Y-97086876D01*
X127533500Y-97205256D01*
X127533498Y-97205262D01*
X127508501Y-97330929D01*
X127508501Y-97330932D01*
X127508501Y-97459070D01*
X127508501Y-97459072D01*
X127508500Y-97459072D01*
X126529500Y-97459072D01*
X126529500Y-96543120D01*
X147864899Y-96543120D01*
X147893740Y-96688107D01*
X147893743Y-96688117D01*
X147950312Y-96824688D01*
X147950319Y-96824701D01*
X148032448Y-96947615D01*
X148032451Y-96947619D01*
X148136980Y-97052148D01*
X148136984Y-97052151D01*
X148259898Y-97134280D01*
X148259911Y-97134287D01*
X148396482Y-97190856D01*
X148396487Y-97190858D01*
X148396491Y-97190858D01*
X148396492Y-97190859D01*
X148541479Y-97219700D01*
X148541482Y-97219700D01*
X148689320Y-97219700D01*
X148786862Y-97200296D01*
X148834313Y-97190858D01*
X148970895Y-97134284D01*
X149093816Y-97052151D01*
X149198351Y-96947616D01*
X149280484Y-96824695D01*
X149337058Y-96688113D01*
X149365900Y-96543118D01*
X149365900Y-96395282D01*
X149365900Y-96395279D01*
X149337059Y-96250292D01*
X149337058Y-96250291D01*
X149337058Y-96250287D01*
X149287921Y-96131659D01*
X149280487Y-96113711D01*
X149280480Y-96113698D01*
X149198351Y-95990784D01*
X149198348Y-95990780D01*
X149093819Y-95886251D01*
X149093815Y-95886248D01*
X148970901Y-95804119D01*
X148970888Y-95804112D01*
X148834317Y-95747543D01*
X148834307Y-95747540D01*
X148689320Y-95718700D01*
X148689318Y-95718700D01*
X148541482Y-95718700D01*
X148541480Y-95718700D01*
X148396492Y-95747540D01*
X148396482Y-95747543D01*
X148259911Y-95804112D01*
X148259898Y-95804119D01*
X148136984Y-95886248D01*
X148136980Y-95886251D01*
X148032451Y-95990780D01*
X148032448Y-95990784D01*
X147950319Y-96113698D01*
X147950312Y-96113711D01*
X147893743Y-96250282D01*
X147893740Y-96250292D01*
X147864900Y-96395279D01*
X147864900Y-96395282D01*
X147864900Y-96543118D01*
X147864900Y-96543120D01*
X147864899Y-96543120D01*
X126529500Y-96543120D01*
X126529500Y-95473920D01*
X144429499Y-95473920D01*
X144458340Y-95618907D01*
X144458343Y-95618917D01*
X144514912Y-95755488D01*
X144514919Y-95755501D01*
X144597048Y-95878415D01*
X144597051Y-95878419D01*
X144701580Y-95982948D01*
X144701584Y-95982951D01*
X144824498Y-96065080D01*
X144824511Y-96065087D01*
X144941901Y-96113711D01*
X144961087Y-96121658D01*
X144961091Y-96121658D01*
X144961092Y-96121659D01*
X145106079Y-96150500D01*
X145106082Y-96150500D01*
X145253920Y-96150500D01*
X145351462Y-96131096D01*
X145398913Y-96121658D01*
X145510476Y-96075446D01*
X145579946Y-96067978D01*
X145605379Y-96075446D01*
X145741087Y-96131658D01*
X145741091Y-96131658D01*
X145741092Y-96131659D01*
X145886079Y-96160500D01*
X145886082Y-96160500D01*
X146033920Y-96160500D01*
X146131462Y-96141096D01*
X146178913Y-96131658D01*
X146315495Y-96075084D01*
X146438416Y-95992951D01*
X146542951Y-95888416D01*
X146625084Y-95765495D01*
X146681658Y-95628913D01*
X146710500Y-95483918D01*
X146710500Y-95336082D01*
X146710500Y-95336079D01*
X146681659Y-95191092D01*
X146681658Y-95191091D01*
X146681658Y-95191087D01*
X146677514Y-95181082D01*
X146625087Y-95054511D01*
X146625080Y-95054498D01*
X146542951Y-94931584D01*
X146542948Y-94931580D01*
X146438419Y-94827051D01*
X146438415Y-94827048D01*
X146315501Y-94744919D01*
X146315488Y-94744912D01*
X146178917Y-94688343D01*
X146178907Y-94688340D01*
X146033920Y-94659500D01*
X146033918Y-94659500D01*
X145886082Y-94659500D01*
X145886080Y-94659500D01*
X145741092Y-94688340D01*
X145741082Y-94688343D01*
X145629523Y-94734552D01*
X145560053Y-94742021D01*
X145534619Y-94734552D01*
X145398917Y-94678343D01*
X145398907Y-94678340D01*
X145253920Y-94649500D01*
X145253918Y-94649500D01*
X145106082Y-94649500D01*
X145106080Y-94649500D01*
X144961092Y-94678340D01*
X144961082Y-94678343D01*
X144824511Y-94734912D01*
X144824498Y-94734919D01*
X144701584Y-94817048D01*
X144701580Y-94817051D01*
X144597051Y-94921580D01*
X144597048Y-94921584D01*
X144514919Y-95044498D01*
X144514912Y-95044511D01*
X144458343Y-95181082D01*
X144458340Y-95181092D01*
X144429500Y-95326079D01*
X144429500Y-95326082D01*
X144429500Y-95473918D01*
X144429500Y-95473920D01*
X144429499Y-95473920D01*
X126529500Y-95473920D01*
X126529500Y-94118921D01*
X130008699Y-94118921D01*
X130037540Y-94263908D01*
X130037543Y-94263918D01*
X130094112Y-94400489D01*
X130094119Y-94400502D01*
X130176248Y-94523416D01*
X130176251Y-94523420D01*
X130280780Y-94627949D01*
X130280784Y-94627952D01*
X130403698Y-94710081D01*
X130403711Y-94710088D01*
X130537870Y-94765658D01*
X130540287Y-94766659D01*
X130540291Y-94766659D01*
X130540292Y-94766660D01*
X130685279Y-94795501D01*
X130685282Y-94795501D01*
X130833120Y-94795501D01*
X130930662Y-94776097D01*
X130978113Y-94766659D01*
X131114695Y-94710085D01*
X131237616Y-94627952D01*
X131342151Y-94523417D01*
X131424284Y-94400496D01*
X131480858Y-94263914D01*
X131509700Y-94118919D01*
X131509700Y-93971083D01*
X131509700Y-93971080D01*
X131480859Y-93826093D01*
X131480858Y-93826092D01*
X131480858Y-93826088D01*
X131480856Y-93826083D01*
X131424287Y-93689512D01*
X131424280Y-93689499D01*
X131342151Y-93566585D01*
X131342148Y-93566581D01*
X131237619Y-93462052D01*
X131237615Y-93462049D01*
X131114701Y-93379920D01*
X131114688Y-93379913D01*
X130978117Y-93323344D01*
X130978107Y-93323341D01*
X130833120Y-93294501D01*
X130833118Y-93294501D01*
X130685282Y-93294501D01*
X130685280Y-93294501D01*
X130540292Y-93323341D01*
X130540282Y-93323344D01*
X130403711Y-93379913D01*
X130403698Y-93379920D01*
X130280784Y-93462049D01*
X130280780Y-93462052D01*
X130176251Y-93566581D01*
X130176248Y-93566585D01*
X130094119Y-93689499D01*
X130094112Y-93689512D01*
X130037543Y-93826083D01*
X130037540Y-93826093D01*
X130008700Y-93971080D01*
X130008700Y-93971083D01*
X130008700Y-94118919D01*
X130008700Y-94118921D01*
X130008699Y-94118921D01*
X126529500Y-94118921D01*
X126529500Y-93209072D01*
X127508500Y-93209072D01*
X127533498Y-93334739D01*
X127533500Y-93334745D01*
X127582534Y-93453125D01*
X127582539Y-93453134D01*
X127653724Y-93559669D01*
X127653727Y-93559673D01*
X127744328Y-93650274D01*
X127744332Y-93650277D01*
X127850867Y-93721462D01*
X127850873Y-93721465D01*
X127850874Y-93721466D01*
X127969257Y-93770502D01*
X127969261Y-93770502D01*
X127969262Y-93770503D01*
X128094929Y-93795501D01*
X128094932Y-93795501D01*
X128223072Y-93795501D01*
X128307616Y-93778683D01*
X128348745Y-93770502D01*
X128467128Y-93721466D01*
X128573670Y-93650277D01*
X128664277Y-93559670D01*
X128735466Y-93453128D01*
X128784502Y-93334745D01*
X128802899Y-93242262D01*
X128809501Y-93209072D01*
X128809501Y-93080929D01*
X128784503Y-92955262D01*
X128784502Y-92955261D01*
X128784502Y-92955257D01*
X128735466Y-92836874D01*
X128735465Y-92836873D01*
X128735462Y-92836867D01*
X128664277Y-92730332D01*
X128664274Y-92730328D01*
X128573673Y-92639727D01*
X128573669Y-92639724D01*
X128467134Y-92568539D01*
X128467125Y-92568534D01*
X128348745Y-92519500D01*
X128348739Y-92519498D01*
X128223072Y-92494501D01*
X128223070Y-92494501D01*
X128094932Y-92494501D01*
X128094930Y-92494501D01*
X127969262Y-92519498D01*
X127969256Y-92519500D01*
X127850876Y-92568534D01*
X127850867Y-92568539D01*
X127744332Y-92639724D01*
X127744328Y-92639727D01*
X127653727Y-92730328D01*
X127653724Y-92730332D01*
X127582539Y-92836867D01*
X127582534Y-92836876D01*
X127533500Y-92955256D01*
X127533498Y-92955262D01*
X127508501Y-93080929D01*
X127508501Y-93080932D01*
X127508501Y-93209070D01*
X127508501Y-93209072D01*
X127508500Y-93209072D01*
X126529500Y-93209072D01*
X126529500Y-91011115D01*
X126549185Y-90944076D01*
X126601989Y-90898321D01*
X126671147Y-90888377D01*
X126722389Y-90908012D01*
X126825086Y-90976632D01*
X126825088Y-90976633D01*
X126825092Y-90976635D01*
X127007160Y-91052049D01*
X127007165Y-91052051D01*
X127007169Y-91052051D01*
X127007170Y-91052052D01*
X127200456Y-91090500D01*
X127200459Y-91090500D01*
X127997543Y-91090500D01*
X128127582Y-91064632D01*
X128190835Y-91052051D01*
X128331655Y-90993721D01*
X128372907Y-90976635D01*
X128372907Y-90976634D01*
X128372914Y-90976632D01*
X128536782Y-90867139D01*
X128676139Y-90727782D01*
X128785632Y-90563914D01*
X128861051Y-90381835D01*
X128877015Y-90301580D01*
X128899500Y-90188543D01*
X130228499Y-90188543D01*
X130266947Y-90381829D01*
X130266950Y-90381839D01*
X130342364Y-90563907D01*
X130342371Y-90563920D01*
X130451860Y-90727781D01*
X130451863Y-90727785D01*
X130591214Y-90867136D01*
X130591218Y-90867139D01*
X130755079Y-90976628D01*
X130755092Y-90976635D01*
X130937160Y-91052049D01*
X130937165Y-91052051D01*
X130937169Y-91052051D01*
X130937170Y-91052052D01*
X131130456Y-91090500D01*
X131130459Y-91090500D01*
X132427543Y-91090500D01*
X132557582Y-91064632D01*
X132620835Y-91052051D01*
X132761655Y-90993721D01*
X132802907Y-90976635D01*
X132802907Y-90976634D01*
X132802914Y-90976632D01*
X132869141Y-90932380D01*
X132935817Y-90911503D01*
X133003197Y-90929987D01*
X133049888Y-90981966D01*
X133055752Y-90997065D01*
X133113088Y-91135488D01*
X133113095Y-91135501D01*
X133195224Y-91258415D01*
X133195227Y-91258419D01*
X133299756Y-91362948D01*
X133299760Y-91362951D01*
X133413422Y-91438898D01*
X133458227Y-91492510D01*
X133466934Y-91561835D01*
X133436780Y-91624863D01*
X133413422Y-91645102D01*
X133299760Y-91721048D01*
X133299756Y-91721051D01*
X133195227Y-91825580D01*
X133195224Y-91825584D01*
X133113095Y-91948498D01*
X133113088Y-91948511D01*
X133056519Y-92085082D01*
X133056516Y-92085092D01*
X133027676Y-92230079D01*
X133027676Y-92230082D01*
X133027676Y-92377918D01*
X133027676Y-92377920D01*
X133027675Y-92377920D01*
X133056516Y-92522907D01*
X133056519Y-92522917D01*
X133113088Y-92659488D01*
X133113095Y-92659501D01*
X133195224Y-92782415D01*
X133195227Y-92782419D01*
X133299756Y-92886948D01*
X133299759Y-92886950D01*
X133299760Y-92886951D01*
X133317486Y-92898795D01*
X133333113Y-92909237D01*
X133377917Y-92962850D01*
X133386624Y-93032175D01*
X133356469Y-93095202D01*
X133333113Y-93115441D01*
X133299756Y-93137729D01*
X133195227Y-93242258D01*
X133195224Y-93242262D01*
X133113095Y-93365176D01*
X133113088Y-93365189D01*
X133056519Y-93501760D01*
X133056516Y-93501770D01*
X133027676Y-93646757D01*
X133027676Y-93646760D01*
X133027676Y-93794596D01*
X133027676Y-93794598D01*
X133027675Y-93794598D01*
X133056516Y-93939585D01*
X133056519Y-93939595D01*
X133113088Y-94076166D01*
X133113095Y-94076179D01*
X133195224Y-94199093D01*
X133195227Y-94199097D01*
X133299756Y-94303626D01*
X133299760Y-94303629D01*
X133422674Y-94385758D01*
X133422687Y-94385765D01*
X133559258Y-94442334D01*
X133559263Y-94442336D01*
X133559267Y-94442336D01*
X133559268Y-94442337D01*
X133704255Y-94471178D01*
X133704258Y-94471178D01*
X133852096Y-94471178D01*
X133949638Y-94451774D01*
X133997089Y-94442336D01*
X134133671Y-94385762D01*
X134256592Y-94303629D01*
X134361127Y-94199094D01*
X134415366Y-94117920D01*
X142924099Y-94117920D01*
X142952940Y-94262907D01*
X142952943Y-94262917D01*
X143009512Y-94399488D01*
X143009519Y-94399501D01*
X143091648Y-94522415D01*
X143091651Y-94522419D01*
X143196180Y-94626948D01*
X143196184Y-94626951D01*
X143319098Y-94709080D01*
X143319111Y-94709087D01*
X143449200Y-94762971D01*
X143455687Y-94765658D01*
X143455691Y-94765658D01*
X143455692Y-94765659D01*
X143600679Y-94794500D01*
X143600682Y-94794500D01*
X143748520Y-94794500D01*
X143846062Y-94775096D01*
X143893513Y-94765658D01*
X144027671Y-94710088D01*
X144030088Y-94709087D01*
X144030088Y-94709086D01*
X144030095Y-94709084D01*
X144153016Y-94626951D01*
X144257551Y-94522416D01*
X144339684Y-94399495D01*
X144396258Y-94262913D01*
X144408953Y-94199093D01*
X144425100Y-94117920D01*
X144425100Y-93970079D01*
X144396259Y-93825092D01*
X144396258Y-93825091D01*
X144396258Y-93825087D01*
X144373648Y-93770501D01*
X144339687Y-93688511D01*
X144339680Y-93688498D01*
X144257551Y-93565584D01*
X144257548Y-93565580D01*
X144153019Y-93461051D01*
X144153015Y-93461048D01*
X144030101Y-93378919D01*
X144030088Y-93378912D01*
X143893517Y-93322343D01*
X143893507Y-93322340D01*
X143748520Y-93293500D01*
X143748518Y-93293500D01*
X143600682Y-93293500D01*
X143600680Y-93293500D01*
X143455692Y-93322340D01*
X143455682Y-93322343D01*
X143319111Y-93378912D01*
X143319098Y-93378919D01*
X143196184Y-93461048D01*
X143196180Y-93461051D01*
X143091651Y-93565580D01*
X143091648Y-93565584D01*
X143009519Y-93688498D01*
X143009512Y-93688511D01*
X142952943Y-93825082D01*
X142952940Y-93825092D01*
X142924100Y-93970079D01*
X142924100Y-93970082D01*
X142924100Y-94117918D01*
X142924100Y-94117920D01*
X142924099Y-94117920D01*
X134415366Y-94117920D01*
X134443260Y-94076173D01*
X134499834Y-93939591D01*
X134528676Y-93794596D01*
X134528676Y-93646760D01*
X134528676Y-93646757D01*
X134499835Y-93501770D01*
X134499834Y-93501769D01*
X134499834Y-93501765D01*
X134499832Y-93501760D01*
X134443263Y-93365189D01*
X134443256Y-93365176D01*
X134361127Y-93242262D01*
X134361124Y-93242258D01*
X134256595Y-93137729D01*
X134256590Y-93137725D01*
X134223240Y-93115442D01*
X134178434Y-93061831D01*
X134169725Y-92992506D01*
X134199879Y-92929478D01*
X134223240Y-92909236D01*
X134256592Y-92886951D01*
X134361127Y-92782416D01*
X134443260Y-92659495D01*
X134499834Y-92522913D01*
X134528676Y-92377918D01*
X134528676Y-92230082D01*
X134528676Y-92230079D01*
X134499835Y-92085092D01*
X134499834Y-92085091D01*
X134499834Y-92085087D01*
X134499832Y-92085082D01*
X134443263Y-91948511D01*
X134443256Y-91948498D01*
X134361127Y-91825584D01*
X134361124Y-91825580D01*
X134256595Y-91721051D01*
X134256587Y-91721045D01*
X134142930Y-91645102D01*
X134098124Y-91591490D01*
X134089417Y-91522165D01*
X134119571Y-91459138D01*
X134142930Y-91438898D01*
X134217564Y-91389028D01*
X134256592Y-91362951D01*
X134361127Y-91258416D01*
X134443260Y-91135495D01*
X134499834Y-90998913D01*
X134513545Y-90929987D01*
X134528676Y-90853920D01*
X134528676Y-90706079D01*
X134499835Y-90561092D01*
X134499834Y-90561091D01*
X134499834Y-90561087D01*
X134499832Y-90561082D01*
X134443263Y-90424511D01*
X134443256Y-90424498D01*
X134361127Y-90301584D01*
X134361124Y-90301580D01*
X134256595Y-90197051D01*
X134256591Y-90197048D01*
X134133677Y-90114919D01*
X134133664Y-90114912D01*
X133997093Y-90058343D01*
X133997083Y-90058340D01*
X133852096Y-90029500D01*
X133852094Y-90029500D01*
X133704258Y-90029500D01*
X133704256Y-90029500D01*
X133559268Y-90058340D01*
X133559263Y-90058342D01*
X133498872Y-90083356D01*
X133429403Y-90090823D01*
X133366924Y-90059548D01*
X133331272Y-89999458D01*
X133329804Y-89992985D01*
X133291052Y-89798172D01*
X133291052Y-89798170D01*
X133291051Y-89798165D01*
X133291049Y-89798160D01*
X133215635Y-89616092D01*
X133215628Y-89616079D01*
X133106139Y-89452218D01*
X133106136Y-89452214D01*
X132966785Y-89312863D01*
X132966781Y-89312860D01*
X132802920Y-89203371D01*
X132802907Y-89203364D01*
X132620839Y-89127950D01*
X132620829Y-89127947D01*
X132427543Y-89089500D01*
X132427541Y-89089500D01*
X131852598Y-89089500D01*
X131785559Y-89069815D01*
X131739804Y-89017011D01*
X131729860Y-88947853D01*
X131745211Y-88903501D01*
X131761961Y-88874488D01*
X131768688Y-88862836D01*
X131804500Y-88729183D01*
X131804500Y-88592920D01*
X152219499Y-88592920D01*
X152248340Y-88737907D01*
X152248343Y-88737917D01*
X152304912Y-88874488D01*
X152304919Y-88874501D01*
X152387048Y-88997415D01*
X152387051Y-88997419D01*
X152491580Y-89101948D01*
X152491584Y-89101951D01*
X152614498Y-89184080D01*
X152614511Y-89184087D01*
X152751082Y-89240656D01*
X152751087Y-89240658D01*
X152751091Y-89240658D01*
X152751092Y-89240659D01*
X152896079Y-89269500D01*
X152896082Y-89269500D01*
X153043920Y-89269500D01*
X153141462Y-89250096D01*
X153188913Y-89240658D01*
X153325495Y-89184084D01*
X153448416Y-89101951D01*
X153552951Y-88997416D01*
X153602059Y-88923920D01*
X164099499Y-88923920D01*
X164128340Y-89068907D01*
X164128343Y-89068917D01*
X164184912Y-89205488D01*
X164184919Y-89205501D01*
X164267048Y-89328415D01*
X164267051Y-89328419D01*
X164371580Y-89432948D01*
X164371584Y-89432951D01*
X164494498Y-89515080D01*
X164494511Y-89515087D01*
X164631082Y-89571656D01*
X164631087Y-89571658D01*
X164631091Y-89571658D01*
X164631092Y-89571659D01*
X164776079Y-89600500D01*
X164776082Y-89600500D01*
X164923920Y-89600500D01*
X165021462Y-89581096D01*
X165068913Y-89571658D01*
X165205495Y-89515084D01*
X165328416Y-89432951D01*
X165432951Y-89328416D01*
X165515084Y-89205495D01*
X165571658Y-89068913D01*
X165600500Y-88923918D01*
X165600500Y-88776082D01*
X165600500Y-88776079D01*
X165571659Y-88631092D01*
X165571658Y-88631091D01*
X165571658Y-88631087D01*
X165555848Y-88592918D01*
X165515087Y-88494511D01*
X165515080Y-88494498D01*
X165432951Y-88371584D01*
X165432948Y-88371580D01*
X165328419Y-88267051D01*
X165328415Y-88267048D01*
X165205501Y-88184919D01*
X165205488Y-88184912D01*
X165068917Y-88128343D01*
X165068907Y-88128340D01*
X164923920Y-88099500D01*
X164923918Y-88099500D01*
X164776082Y-88099500D01*
X164776080Y-88099500D01*
X164631092Y-88128340D01*
X164631082Y-88128343D01*
X164494511Y-88184912D01*
X164494498Y-88184919D01*
X164371584Y-88267048D01*
X164371580Y-88267051D01*
X164267051Y-88371580D01*
X164267048Y-88371584D01*
X164184919Y-88494498D01*
X164184912Y-88494511D01*
X164128343Y-88631082D01*
X164128340Y-88631092D01*
X164099500Y-88776079D01*
X164099500Y-88776082D01*
X164099500Y-88923918D01*
X164099500Y-88923920D01*
X164099499Y-88923920D01*
X153602059Y-88923920D01*
X153635084Y-88874495D01*
X153639913Y-88862838D01*
X153675849Y-88776079D01*
X153691658Y-88737913D01*
X153720500Y-88592918D01*
X153720500Y-88445082D01*
X153720500Y-88445079D01*
X153691659Y-88300092D01*
X153691658Y-88300091D01*
X153691658Y-88300087D01*
X153677973Y-88267048D01*
X153635087Y-88163511D01*
X153635080Y-88163498D01*
X153552951Y-88040584D01*
X153552948Y-88040580D01*
X153448419Y-87936051D01*
X153448415Y-87936048D01*
X153325501Y-87853919D01*
X153325488Y-87853912D01*
X153188917Y-87797343D01*
X153188907Y-87797340D01*
X153043920Y-87768500D01*
X153043918Y-87768500D01*
X152896082Y-87768500D01*
X152896080Y-87768500D01*
X152751092Y-87797340D01*
X152751082Y-87797343D01*
X152614511Y-87853912D01*
X152614498Y-87853919D01*
X152491584Y-87936048D01*
X152491580Y-87936051D01*
X152387051Y-88040580D01*
X152387048Y-88040584D01*
X152304919Y-88163498D01*
X152304912Y-88163511D01*
X152248343Y-88300082D01*
X152248340Y-88300092D01*
X152219500Y-88445079D01*
X152219500Y-88445082D01*
X152219500Y-88592918D01*
X152219500Y-88592920D01*
X152219499Y-88592920D01*
X131804500Y-88592920D01*
X131804500Y-88590817D01*
X131768688Y-88457164D01*
X131699505Y-88337335D01*
X131601665Y-88239495D01*
X131601664Y-88239494D01*
X131601661Y-88239492D01*
X131481838Y-88170313D01*
X131481837Y-88170312D01*
X131481836Y-88170312D01*
X131348183Y-88134500D01*
X131209817Y-88134500D01*
X131076164Y-88170312D01*
X131076161Y-88170313D01*
X130956338Y-88239492D01*
X130956333Y-88239496D01*
X130858496Y-88337333D01*
X130858492Y-88337338D01*
X130789313Y-88457161D01*
X130789312Y-88457164D01*
X130753500Y-88590817D01*
X130753500Y-88729183D01*
X130766067Y-88776082D01*
X130789312Y-88862835D01*
X130789313Y-88862838D01*
X130858492Y-88982661D01*
X130863441Y-88989110D01*
X130860691Y-88991219D01*
X130886528Y-89038536D01*
X130881544Y-89108228D01*
X130839672Y-89164161D01*
X130812816Y-89179455D01*
X130755086Y-89203368D01*
X130755079Y-89203371D01*
X130591218Y-89312860D01*
X130591214Y-89312863D01*
X130451863Y-89452214D01*
X130451860Y-89452218D01*
X130342371Y-89616079D01*
X130342364Y-89616092D01*
X130266950Y-89798160D01*
X130266947Y-89798170D01*
X130228500Y-89991456D01*
X130228500Y-89991459D01*
X130228500Y-90188541D01*
X130228500Y-90188543D01*
X130228499Y-90188543D01*
X128899500Y-90188543D01*
X128899500Y-89991456D01*
X128861052Y-89798170D01*
X128861051Y-89798169D01*
X128861051Y-89798165D01*
X128861049Y-89798160D01*
X128785635Y-89616092D01*
X128785628Y-89616079D01*
X128676139Y-89452218D01*
X128676136Y-89452214D01*
X128536785Y-89312863D01*
X128536781Y-89312860D01*
X128372920Y-89203371D01*
X128372907Y-89203364D01*
X128190839Y-89127950D01*
X128190829Y-89127947D01*
X127997543Y-89089500D01*
X127997541Y-89089500D01*
X127200459Y-89089500D01*
X127200457Y-89089500D01*
X127007170Y-89127947D01*
X127007160Y-89127950D01*
X126825092Y-89203364D01*
X126825079Y-89203371D01*
X126722391Y-89271986D01*
X126655713Y-89292864D01*
X126588333Y-89274379D01*
X126541643Y-89222401D01*
X126529500Y-89168884D01*
X126529500Y-87500720D01*
X150348699Y-87500720D01*
X150377540Y-87645707D01*
X150377543Y-87645717D01*
X150434112Y-87782288D01*
X150434119Y-87782301D01*
X150516248Y-87905215D01*
X150516251Y-87905219D01*
X150620780Y-88009748D01*
X150620784Y-88009751D01*
X150743698Y-88091880D01*
X150743711Y-88091887D01*
X150846589Y-88134500D01*
X150880287Y-88148458D01*
X150880291Y-88148458D01*
X150880292Y-88148459D01*
X151025279Y-88177300D01*
X151025282Y-88177300D01*
X151173120Y-88177300D01*
X151270662Y-88157896D01*
X151318113Y-88148458D01*
X151454695Y-88091884D01*
X151577616Y-88009751D01*
X151682151Y-87905216D01*
X151764284Y-87782295D01*
X151820858Y-87645713D01*
X151849700Y-87500718D01*
X151849700Y-87352882D01*
X151849700Y-87352879D01*
X151820859Y-87207892D01*
X151820858Y-87207891D01*
X151820858Y-87207887D01*
X151790704Y-87135088D01*
X151764287Y-87071311D01*
X151764280Y-87071298D01*
X151682151Y-86948384D01*
X151682148Y-86948380D01*
X151577619Y-86843851D01*
X151577615Y-86843848D01*
X151454701Y-86761719D01*
X151454688Y-86761712D01*
X151318117Y-86705143D01*
X151318107Y-86705140D01*
X151173120Y-86676300D01*
X151173118Y-86676300D01*
X151025282Y-86676300D01*
X151025280Y-86676300D01*
X150880292Y-86705140D01*
X150880282Y-86705143D01*
X150743711Y-86761712D01*
X150743698Y-86761719D01*
X150620784Y-86843848D01*
X150620780Y-86843851D01*
X150516251Y-86948380D01*
X150516248Y-86948384D01*
X150434119Y-87071298D01*
X150434112Y-87071311D01*
X150377543Y-87207882D01*
X150377540Y-87207892D01*
X150348700Y-87352879D01*
X150348700Y-87352882D01*
X150348700Y-87500718D01*
X150348700Y-87500720D01*
X150348699Y-87500720D01*
X126529500Y-87500720D01*
X126529500Y-85093921D01*
X129708500Y-85093921D01*
X129737341Y-85238908D01*
X129737342Y-85238909D01*
X129737343Y-85238914D01*
X129767597Y-85311954D01*
X129777163Y-85335049D01*
X129784631Y-85404519D01*
X129777163Y-85429953D01*
X129763617Y-85462655D01*
X129737343Y-85526088D01*
X129737342Y-85526091D01*
X129737342Y-85526092D01*
X129737341Y-85526093D01*
X129708501Y-85671080D01*
X129708501Y-85671083D01*
X129708501Y-85818919D01*
X129708501Y-85818921D01*
X129708500Y-85818921D01*
X129737341Y-85963908D01*
X129737342Y-85963909D01*
X129737343Y-85963914D01*
X129767597Y-86036954D01*
X129777163Y-86060049D01*
X129784631Y-86129519D01*
X129777163Y-86154953D01*
X129763617Y-86187655D01*
X129737343Y-86251088D01*
X129737342Y-86251091D01*
X129737342Y-86251092D01*
X129737341Y-86251093D01*
X129708501Y-86396080D01*
X129708501Y-86396083D01*
X129708501Y-86543919D01*
X129708501Y-86543921D01*
X129708500Y-86543921D01*
X129737341Y-86688908D01*
X129737344Y-86688918D01*
X129793913Y-86825489D01*
X129793920Y-86825502D01*
X129876049Y-86948416D01*
X129876052Y-86948420D01*
X129980581Y-87052949D01*
X129980585Y-87052952D01*
X130103499Y-87135081D01*
X130103512Y-87135088D01*
X130240083Y-87191657D01*
X130240088Y-87191659D01*
X130240092Y-87191659D01*
X130240093Y-87191660D01*
X130385080Y-87220501D01*
X130385083Y-87220501D01*
X130532921Y-87220501D01*
X130630463Y-87201097D01*
X130677914Y-87191659D01*
X130814496Y-87135085D01*
X130937417Y-87052952D01*
X131041952Y-86948417D01*
X131124085Y-86825496D01*
X131180659Y-86688914D01*
X131209501Y-86543919D01*
X131209501Y-86396083D01*
X131209501Y-86396080D01*
X131180660Y-86251093D01*
X131180659Y-86251092D01*
X131180659Y-86251088D01*
X131140837Y-86154950D01*
X131133369Y-86085485D01*
X131140834Y-86060059D01*
X131180659Y-85963914D01*
X131209501Y-85818919D01*
X131209501Y-85671083D01*
X131209501Y-85671080D01*
X131180660Y-85526093D01*
X131180659Y-85526092D01*
X131180659Y-85526088D01*
X131140837Y-85429950D01*
X131133369Y-85360485D01*
X131140834Y-85335059D01*
X131180659Y-85238914D01*
X131209501Y-85093919D01*
X131209501Y-84946083D01*
X131209501Y-84946080D01*
X131180660Y-84801093D01*
X131180659Y-84801092D01*
X131180659Y-84801088D01*
X131159705Y-84750500D01*
X131124088Y-84664512D01*
X131124081Y-84664499D01*
X131041952Y-84541585D01*
X131041949Y-84541581D01*
X130937420Y-84437052D01*
X130937416Y-84437049D01*
X130814502Y-84354920D01*
X130814489Y-84354913D01*
X130677918Y-84298344D01*
X130677908Y-84298341D01*
X130532921Y-84269501D01*
X130532919Y-84269501D01*
X130385083Y-84269501D01*
X130385081Y-84269501D01*
X130240093Y-84298341D01*
X130240083Y-84298344D01*
X130103512Y-84354913D01*
X130103499Y-84354920D01*
X129980585Y-84437049D01*
X129980581Y-84437052D01*
X129876052Y-84541581D01*
X129876049Y-84541585D01*
X129793920Y-84664499D01*
X129793913Y-84664512D01*
X129737344Y-84801083D01*
X129737341Y-84801093D01*
X129708501Y-84946080D01*
X129708501Y-84946083D01*
X129708501Y-85093919D01*
X129708501Y-85093921D01*
X129708500Y-85093921D01*
X126529500Y-85093921D01*
X126529500Y-84073920D01*
X150199499Y-84073920D01*
X150228340Y-84218907D01*
X150228343Y-84218917D01*
X150284912Y-84355488D01*
X150284919Y-84355501D01*
X150367048Y-84478415D01*
X150367051Y-84478419D01*
X150471580Y-84582948D01*
X150471584Y-84582951D01*
X150594498Y-84665080D01*
X150594511Y-84665087D01*
X150731082Y-84721656D01*
X150731087Y-84721658D01*
X150731091Y-84721658D01*
X150731092Y-84721659D01*
X150876079Y-84750500D01*
X150876082Y-84750500D01*
X151023920Y-84750500D01*
X151121462Y-84731096D01*
X151168913Y-84721658D01*
X151305495Y-84665084D01*
X151428416Y-84582951D01*
X151532951Y-84478416D01*
X151615084Y-84355495D01*
X151615324Y-84354917D01*
X151671656Y-84218917D01*
X151671658Y-84218913D01*
X151693351Y-84109858D01*
X151700500Y-84073920D01*
X151700500Y-83926079D01*
X151671659Y-83781092D01*
X151671658Y-83781091D01*
X151671658Y-83781087D01*
X151656167Y-83743688D01*
X151615087Y-83644511D01*
X151615080Y-83644498D01*
X151532951Y-83521584D01*
X151532948Y-83521580D01*
X151473488Y-83462120D01*
X157389899Y-83462120D01*
X157418740Y-83607107D01*
X157418743Y-83607117D01*
X157475312Y-83743688D01*
X157475319Y-83743701D01*
X157557448Y-83866615D01*
X157557451Y-83866619D01*
X157661980Y-83971148D01*
X157661984Y-83971151D01*
X157784898Y-84053280D01*
X157784911Y-84053287D01*
X157921482Y-84109856D01*
X157921487Y-84109858D01*
X157921491Y-84109858D01*
X157921492Y-84109859D01*
X158066479Y-84138700D01*
X158066482Y-84138700D01*
X158214320Y-84138700D01*
X158311862Y-84119296D01*
X158359313Y-84109858D01*
X158495895Y-84053284D01*
X158618816Y-83971151D01*
X158723351Y-83866616D01*
X158805484Y-83743695D01*
X158862058Y-83607113D01*
X158890900Y-83462118D01*
X158890900Y-83314282D01*
X158890900Y-83314279D01*
X158862059Y-83169292D01*
X158862058Y-83169291D01*
X158862058Y-83169287D01*
X158826249Y-83082836D01*
X158805487Y-83032711D01*
X158805480Y-83032698D01*
X158723351Y-82909784D01*
X158723348Y-82909780D01*
X158618819Y-82805251D01*
X158618815Y-82805248D01*
X158495901Y-82723119D01*
X158495888Y-82723112D01*
X158359317Y-82666543D01*
X158359307Y-82666540D01*
X158214320Y-82637700D01*
X158214318Y-82637700D01*
X158066482Y-82637700D01*
X158066480Y-82637700D01*
X157921492Y-82666540D01*
X157921482Y-82666543D01*
X157784911Y-82723112D01*
X157784898Y-82723119D01*
X157661984Y-82805248D01*
X157661980Y-82805251D01*
X157557451Y-82909780D01*
X157557448Y-82909784D01*
X157475319Y-83032698D01*
X157475312Y-83032711D01*
X157418743Y-83169282D01*
X157418740Y-83169292D01*
X157389900Y-83314279D01*
X157389900Y-83314282D01*
X157389900Y-83462118D01*
X157389900Y-83462120D01*
X157389899Y-83462120D01*
X151473488Y-83462120D01*
X151428419Y-83417051D01*
X151428413Y-83417046D01*
X151419800Y-83411291D01*
X151305501Y-83334919D01*
X151305488Y-83334912D01*
X151168917Y-83278343D01*
X151168907Y-83278340D01*
X151023920Y-83249500D01*
X151023918Y-83249500D01*
X150876082Y-83249500D01*
X150876080Y-83249500D01*
X150731092Y-83278340D01*
X150731082Y-83278343D01*
X150594511Y-83334912D01*
X150594498Y-83334919D01*
X150471584Y-83417048D01*
X150471580Y-83417051D01*
X150367051Y-83521580D01*
X150367048Y-83521584D01*
X150284919Y-83644498D01*
X150284912Y-83644511D01*
X150228343Y-83781082D01*
X150228340Y-83781092D01*
X150199500Y-83926079D01*
X150199500Y-83926082D01*
X150199500Y-84073918D01*
X150199500Y-84073920D01*
X150199499Y-84073920D01*
X126529500Y-84073920D01*
X126529500Y-82371115D01*
X126549185Y-82304076D01*
X126601989Y-82258321D01*
X126671147Y-82248377D01*
X126722389Y-82268012D01*
X126825086Y-82336632D01*
X126825088Y-82336633D01*
X126825092Y-82336635D01*
X126966210Y-82395087D01*
X127007165Y-82412051D01*
X127007169Y-82412051D01*
X127007170Y-82412052D01*
X127200456Y-82450500D01*
X127200459Y-82450500D01*
X127997543Y-82450500D01*
X128127582Y-82424632D01*
X128190835Y-82412051D01*
X128372914Y-82336632D01*
X128536782Y-82227139D01*
X128676139Y-82087782D01*
X128785632Y-81923914D01*
X128861051Y-81741835D01*
X128878109Y-81656079D01*
X128899500Y-81548543D01*
X130228499Y-81548543D01*
X130266947Y-81741829D01*
X130266950Y-81741839D01*
X130342364Y-81923907D01*
X130342371Y-81923920D01*
X130451860Y-82087781D01*
X130451863Y-82087785D01*
X130591214Y-82227136D01*
X130591218Y-82227139D01*
X130755079Y-82336628D01*
X130755092Y-82336635D01*
X130812814Y-82360544D01*
X130867218Y-82404385D01*
X130889283Y-82470679D01*
X130872004Y-82538378D01*
X130862726Y-82550341D01*
X130863441Y-82550890D01*
X130858492Y-82557338D01*
X130789313Y-82677161D01*
X130789312Y-82677164D01*
X130753500Y-82810817D01*
X130753500Y-82949182D01*
X130789312Y-83082835D01*
X130789313Y-83082838D01*
X130858492Y-83202661D01*
X130858494Y-83202664D01*
X130858495Y-83202665D01*
X130956335Y-83300505D01*
X130956336Y-83300506D01*
X130956338Y-83300507D01*
X131015930Y-83334912D01*
X131076164Y-83369688D01*
X131209817Y-83405500D01*
X131209819Y-83405500D01*
X131348181Y-83405500D01*
X131348183Y-83405500D01*
X131481836Y-83369688D01*
X131601665Y-83300505D01*
X131699505Y-83202665D01*
X131768688Y-83082836D01*
X131804500Y-82949183D01*
X131804500Y-82810817D01*
X131768688Y-82677164D01*
X131762556Y-82666543D01*
X131745211Y-82636499D01*
X131728738Y-82568599D01*
X131751591Y-82502572D01*
X131806512Y-82459382D01*
X131852598Y-82450500D01*
X132427543Y-82450500D01*
X132557582Y-82424632D01*
X132620835Y-82412051D01*
X132802914Y-82336632D01*
X132966782Y-82227139D01*
X133106139Y-82087782D01*
X133215632Y-81923914D01*
X133265335Y-81803920D01*
X162819499Y-81803920D01*
X162848340Y-81948907D01*
X162848343Y-81948917D01*
X162904912Y-82085488D01*
X162904919Y-82085501D01*
X162987048Y-82208415D01*
X162987051Y-82208419D01*
X163091580Y-82312948D01*
X163091584Y-82312951D01*
X163214498Y-82395080D01*
X163214511Y-82395087D01*
X163255469Y-82412052D01*
X163351087Y-82451658D01*
X163351091Y-82451658D01*
X163351092Y-82451659D01*
X163496079Y-82480500D01*
X163496082Y-82480500D01*
X163643920Y-82480500D01*
X163750083Y-82459382D01*
X163788913Y-82451658D01*
X163925495Y-82395084D01*
X164048416Y-82312951D01*
X164152951Y-82208416D01*
X164235084Y-82085495D01*
X164291658Y-81948913D01*
X164320500Y-81803918D01*
X164320500Y-81656082D01*
X164320500Y-81656079D01*
X164291659Y-81511092D01*
X164291658Y-81511091D01*
X164291658Y-81511087D01*
X164291656Y-81511082D01*
X164235087Y-81374511D01*
X164235080Y-81374498D01*
X164152951Y-81251584D01*
X164152948Y-81251580D01*
X164048419Y-81147051D01*
X164048415Y-81147048D01*
X163925501Y-81064919D01*
X163925488Y-81064912D01*
X163788917Y-81008343D01*
X163788907Y-81008340D01*
X163643920Y-80979500D01*
X163643918Y-80979500D01*
X163496082Y-80979500D01*
X163496080Y-80979500D01*
X163351092Y-81008340D01*
X163351082Y-81008343D01*
X163214511Y-81064912D01*
X163214498Y-81064919D01*
X163091584Y-81147048D01*
X163091580Y-81147051D01*
X162987051Y-81251580D01*
X162987048Y-81251584D01*
X162904919Y-81374498D01*
X162904912Y-81374511D01*
X162848343Y-81511082D01*
X162848340Y-81511092D01*
X162819500Y-81656079D01*
X162819500Y-81656082D01*
X162819500Y-81803918D01*
X162819500Y-81803920D01*
X162819499Y-81803920D01*
X133265335Y-81803920D01*
X133291051Y-81741835D01*
X133308109Y-81656079D01*
X133329500Y-81548543D01*
X133329500Y-81351456D01*
X133291052Y-81158170D01*
X133291051Y-81158169D01*
X133291051Y-81158165D01*
X133286447Y-81147051D01*
X133256156Y-81073920D01*
X151999499Y-81073920D01*
X152028340Y-81218907D01*
X152028343Y-81218917D01*
X152084912Y-81355488D01*
X152084919Y-81355501D01*
X152167048Y-81478415D01*
X152167051Y-81478419D01*
X152271580Y-81582948D01*
X152271584Y-81582951D01*
X152394498Y-81665080D01*
X152394511Y-81665087D01*
X152531082Y-81721656D01*
X152531087Y-81721658D01*
X152531091Y-81721658D01*
X152531092Y-81721659D01*
X152676079Y-81750500D01*
X152676082Y-81750500D01*
X152823920Y-81750500D01*
X152921462Y-81731096D01*
X152968913Y-81721658D01*
X153105495Y-81665084D01*
X153228416Y-81582951D01*
X153228419Y-81582948D01*
X153249059Y-81562309D01*
X153332948Y-81478419D01*
X153332951Y-81478416D01*
X153415084Y-81355495D01*
X153471658Y-81218913D01*
X153500500Y-81073918D01*
X153500500Y-80926082D01*
X153500500Y-80926079D01*
X153471659Y-80781092D01*
X153471658Y-80781091D01*
X153471658Y-80781087D01*
X153471656Y-80781082D01*
X153415087Y-80644511D01*
X153415080Y-80644498D01*
X153332951Y-80521584D01*
X153332948Y-80521580D01*
X153228419Y-80417051D01*
X153228415Y-80417048D01*
X153105501Y-80334919D01*
X153105488Y-80334912D01*
X152968917Y-80278343D01*
X152968907Y-80278340D01*
X152823920Y-80249500D01*
X152823918Y-80249500D01*
X152676082Y-80249500D01*
X152676080Y-80249500D01*
X152531092Y-80278340D01*
X152531082Y-80278343D01*
X152394511Y-80334912D01*
X152394498Y-80334919D01*
X152271584Y-80417048D01*
X152271580Y-80417051D01*
X152167051Y-80521580D01*
X152167048Y-80521584D01*
X152084919Y-80644498D01*
X152084912Y-80644511D01*
X152028343Y-80781082D01*
X152028340Y-80781092D01*
X151999500Y-80926079D01*
X151999500Y-80926082D01*
X151999500Y-81073918D01*
X151999500Y-81073920D01*
X151999499Y-81073920D01*
X133256156Y-81073920D01*
X133215632Y-80976086D01*
X133215631Y-80976084D01*
X133106139Y-80812218D01*
X133106136Y-80812214D01*
X132966785Y-80672863D01*
X132966781Y-80672860D01*
X132802920Y-80563371D01*
X132802907Y-80563364D01*
X132620839Y-80487950D01*
X132620829Y-80487947D01*
X132427543Y-80449500D01*
X132427541Y-80449500D01*
X131130459Y-80449500D01*
X131130457Y-80449500D01*
X130937170Y-80487947D01*
X130937160Y-80487950D01*
X130755092Y-80563364D01*
X130755079Y-80563371D01*
X130591218Y-80672860D01*
X130591214Y-80672863D01*
X130451863Y-80812214D01*
X130451860Y-80812218D01*
X130342371Y-80976079D01*
X130342364Y-80976092D01*
X130266950Y-81158160D01*
X130266947Y-81158170D01*
X130228500Y-81351456D01*
X130228500Y-81351459D01*
X130228500Y-81548541D01*
X130228500Y-81548543D01*
X130228499Y-81548543D01*
X128899500Y-81548543D01*
X128899500Y-81351456D01*
X128861052Y-81158170D01*
X128861051Y-81158169D01*
X128861051Y-81158165D01*
X128861049Y-81158160D01*
X128785635Y-80976092D01*
X128785628Y-80976079D01*
X128676139Y-80812218D01*
X128676136Y-80812214D01*
X128536785Y-80672863D01*
X128536781Y-80672860D01*
X128372920Y-80563371D01*
X128372907Y-80563364D01*
X128190839Y-80487950D01*
X128190829Y-80487947D01*
X127997543Y-80449500D01*
X127997541Y-80449500D01*
X127200459Y-80449500D01*
X127200457Y-80449500D01*
X127007170Y-80487947D01*
X127007160Y-80487950D01*
X126825092Y-80563364D01*
X126825079Y-80563371D01*
X126722391Y-80631986D01*
X126655713Y-80652864D01*
X126588333Y-80634379D01*
X126541643Y-80582401D01*
X126529500Y-80528884D01*
X126529500Y-77491480D01*
X126529695Y-77484527D01*
X126539214Y-77315028D01*
X126546084Y-77192691D01*
X126547638Y-77178898D01*
X126596015Y-76894167D01*
X126599109Y-76880615D01*
X126670563Y-76632596D01*
X126679061Y-76603096D01*
X126683653Y-76589975D01*
X126794175Y-76323151D01*
X126800195Y-76310651D01*
X126939902Y-76057868D01*
X126947297Y-76046100D01*
X126988842Y-75987548D01*
X127114422Y-75810559D01*
X127123077Y-75799705D01*
X127315534Y-75584346D01*
X127325346Y-75574534D01*
X127540705Y-75382077D01*
X127551559Y-75373422D01*
X127787105Y-75206293D01*
X127798868Y-75198902D01*
X128051651Y-75059195D01*
X128064151Y-75053175D01*
X128330979Y-74942651D01*
X128344096Y-74938061D01*
X128621621Y-74858107D01*
X128635167Y-74855015D01*
X128919898Y-74806638D01*
X128933691Y-74805084D01*
X129225528Y-74788695D01*
X129232481Y-74788500D01*
X129276595Y-74788500D01*
X178181405Y-74788500D01*
X178225519Y-74788500D01*
X178232472Y-74788695D01*
G37*
%TD.AperFunction*%
%TD*%
M02*
