%TF.GenerationSoftware,KiCad,Pcbnew,8.0.0*%
%TF.CreationDate,2025-02-17T15:32:22+01:00*%
%TF.ProjectId,Amon_Link,416d6f6e-5f4c-4696-9e6b-2e6b69636164,rev?*%
%TF.SameCoordinates,Original*%
%TF.FileFunction,Copper,L3,Inr*%
%TF.FilePolarity,Positive*%
%FSLAX46Y46*%
G04 Gerber Fmt 4.6, Leading zero omitted, Abs format (unit mm)*
G04 Created by KiCad (PCBNEW 8.0.0) date 2025-02-17 15:32:22*
%MOMM*%
%LPD*%
G01*
G04 APERTURE LIST*
%TA.AperFunction,ComponentPad*%
%ADD10C,0.700000*%
%TD*%
%TA.AperFunction,ComponentPad*%
%ADD11C,4.400000*%
%TD*%
%TA.AperFunction,ComponentPad*%
%ADD12R,1.700000X1.700000*%
%TD*%
%TA.AperFunction,ComponentPad*%
%ADD13O,1.700000X1.700000*%
%TD*%
%TA.AperFunction,ComponentPad*%
%ADD14O,2.100000X1.000000*%
%TD*%
%TA.AperFunction,ComponentPad*%
%ADD15O,1.600000X1.000000*%
%TD*%
%TA.AperFunction,ViaPad*%
%ADD16C,0.500000*%
%TD*%
G04 APERTURE END LIST*
D10*
%TO.N,N/C*%
%TO.C,H4*%
X179949999Y-77549999D03*
X179466725Y-78716725D03*
X179466725Y-76383273D03*
X178299999Y-79199999D03*
D11*
X178299999Y-77549999D03*
D10*
X178299999Y-75899999D03*
X177133273Y-78716725D03*
X177133273Y-76383273D03*
X176649999Y-77549999D03*
%TD*%
%TO.N,N/C*%
%TO.C,H3*%
X179949999Y-111549999D03*
X179466725Y-112716725D03*
X179466725Y-110383273D03*
X178299999Y-113199999D03*
D11*
X178299999Y-111549999D03*
D10*
X178299999Y-109899999D03*
X177133273Y-112716725D03*
X177133273Y-110383273D03*
X176649999Y-111549999D03*
%TD*%
%TO.N,N/C*%
%TO.C,H2*%
X130809000Y-77470000D03*
X130325726Y-78636726D03*
X130325726Y-76303274D03*
X129159000Y-79120000D03*
D11*
X129159000Y-77470000D03*
D10*
X129159000Y-75820000D03*
X127992274Y-78636726D03*
X127992274Y-76303274D03*
X127509000Y-77470000D03*
%TD*%
%TO.N,N/C*%
%TO.C,H1*%
X130809000Y-111470000D03*
X130325726Y-112636726D03*
X130325726Y-110303274D03*
X129159000Y-113120000D03*
D11*
X129159000Y-111470000D03*
D10*
X129159000Y-109820000D03*
X127992274Y-112636726D03*
X127992274Y-110303274D03*
X127509000Y-111470000D03*
%TD*%
D12*
%TO.N,+3.3V*%
%TO.C,J3*%
X143002000Y-111379000D03*
D13*
%TO.N,/SWIO*%
X140462000Y-111379000D03*
%TO.N,GND*%
X137922000Y-111379000D03*
%TD*%
D14*
%TO.N,Net-(J1-SHIELD)*%
%TO.C,J1*%
X131779000Y-81450000D03*
D15*
X127599000Y-81450000D03*
D14*
X131779000Y-90090000D03*
D15*
X127599000Y-90090000D03*
%TD*%
D16*
%TO.N,GND*%
X177676625Y-94767400D03*
X179414710Y-94767400D03*
X177651225Y-92659200D03*
X179389310Y-92659200D03*
X176000225Y-96951800D03*
X177738310Y-96951800D03*
X179476400Y-96951800D03*
X176787625Y-97967800D03*
X178525710Y-97967800D03*
X180263800Y-97967800D03*
X176863825Y-95910400D03*
X178601910Y-95910400D03*
X180340000Y-95910400D03*
X176813025Y-93751400D03*
X178551110Y-93751400D03*
X180289200Y-93751400D03*
X180365400Y-91541600D03*
X175151140Y-91541600D03*
X176889225Y-91541600D03*
X178627310Y-91541600D03*
X179349400Y-90373200D03*
X174135140Y-90373200D03*
X175873225Y-90373200D03*
X177611310Y-90373200D03*
X175971200Y-88087200D03*
X169791745Y-87071200D03*
X168053660Y-87071200D03*
X173267915Y-87071200D03*
X175006000Y-87071200D03*
X171529830Y-87071200D03*
X168978945Y-88112600D03*
X167240860Y-88112600D03*
X172455115Y-88112600D03*
X174193200Y-88112600D03*
X170717030Y-88112600D03*
X168133485Y-89077800D03*
X169871570Y-89077800D03*
X173347740Y-89077800D03*
X171609655Y-89077800D03*
X175107600Y-102108000D03*
X170062501Y-103550001D03*
X168372968Y-102082600D03*
X171762052Y-102082600D03*
X166678426Y-102082600D03*
X173456600Y-102082600D03*
X170067510Y-102082600D03*
X169211168Y-101117400D03*
X172600252Y-101117400D03*
X167516626Y-101117400D03*
X174294800Y-101117400D03*
X170905710Y-101117400D03*
X168322168Y-100152200D03*
X171711252Y-100152200D03*
X166627626Y-100152200D03*
X173405800Y-100152200D03*
X170016710Y-100152200D03*
X159181800Y-91516200D03*
X157962600Y-92735400D03*
X162139085Y-90322400D03*
X160401000Y-90322400D03*
X172567600Y-90322400D03*
X167353340Y-90322400D03*
X169091425Y-90322400D03*
X163877170Y-90322400D03*
X165615255Y-90322400D03*
X170829510Y-90322400D03*
X162204400Y-92608400D03*
X163118800Y-93649800D03*
X173532800Y-91592400D03*
X171794710Y-91592400D03*
X164842370Y-91592400D03*
X170056625Y-91592400D03*
X163104285Y-91592400D03*
X168318540Y-91592400D03*
X161366200Y-91592400D03*
X166580455Y-91592400D03*
X176022000Y-94767400D03*
X166776402Y-93675200D03*
X167483970Y-92659200D03*
X173414266Y-93675200D03*
X175073736Y-93675200D03*
X170095334Y-93675200D03*
X171754800Y-93675200D03*
X172698225Y-92659200D03*
X165116936Y-93675200D03*
X168435868Y-93675200D03*
X165745885Y-92659200D03*
X170960140Y-92659200D03*
X176174400Y-92659200D03*
X174436310Y-92659200D03*
X164007800Y-92659200D03*
X169222055Y-92659200D03*
X164160200Y-94767400D03*
X172632910Y-94767400D03*
X174327452Y-94767400D03*
X169243826Y-94767400D03*
X165854742Y-94767400D03*
X167549284Y-94767400D03*
X170938368Y-94767400D03*
X174294800Y-99110800D03*
X162433000Y-99110800D03*
X170905710Y-99110800D03*
X172600252Y-99110800D03*
X167516626Y-99110800D03*
X164127542Y-99110800D03*
X165822084Y-99110800D03*
X169211168Y-99110800D03*
X159105600Y-102285800D03*
X161188400Y-102285800D03*
X156997400Y-102285800D03*
X162153600Y-101320600D03*
X157962600Y-101320600D03*
X160045400Y-101320600D03*
X161163000Y-100152200D03*
X163245800Y-100152200D03*
X156972000Y-100152200D03*
X159054800Y-100152200D03*
X155879800Y-99187000D03*
X157962600Y-99187000D03*
X151688800Y-99187000D03*
X153771600Y-99187000D03*
X156819600Y-94005400D03*
X152628600Y-94005400D03*
X154711400Y-94005400D03*
X155803600Y-95021400D03*
X157886400Y-95021400D03*
X151612600Y-95021400D03*
X153695400Y-95021400D03*
X150647400Y-95961200D03*
X175336200Y-95885000D03*
X167597668Y-96901000D03*
X165938202Y-96901000D03*
X164907685Y-95885000D03*
X151714200Y-96901000D03*
X154787600Y-95961200D03*
X170121940Y-95885000D03*
X174235536Y-96901000D03*
X169257134Y-96901000D03*
X172576066Y-96901000D03*
X173598110Y-95885000D03*
X170916600Y-96901000D03*
X152755600Y-95961200D03*
X164278736Y-96901000D03*
X166645770Y-95885000D03*
X155905200Y-96901000D03*
X156921200Y-95961200D03*
X171860025Y-95885000D03*
X157988000Y-96901000D03*
X153797000Y-96901000D03*
X163169600Y-95885000D03*
X168383855Y-95885000D03*
X175183800Y-97993200D03*
X152755600Y-97967800D03*
X168405626Y-97993200D03*
X166711084Y-97993200D03*
X156921200Y-97967800D03*
X154787600Y-97967800D03*
X163322000Y-97993200D03*
X150647400Y-97967800D03*
X170100168Y-97993200D03*
X165016542Y-97993200D03*
X171794710Y-97993200D03*
X173489252Y-97993200D03*
X148564600Y-81153000D03*
X147066000Y-79044800D03*
X148564600Y-79044800D03*
X147066000Y-81153000D03*
X147955000Y-80111600D03*
X149529800Y-80111600D03*
X143383000Y-81102200D03*
X141884400Y-78994000D03*
X143383000Y-78994000D03*
X141884400Y-81102200D03*
X142773400Y-80060800D03*
X144348200Y-80060800D03*
X146202400Y-77927200D03*
X144703800Y-75819000D03*
X146202400Y-75819000D03*
X144703800Y-77927200D03*
X145592800Y-76885800D03*
X147167600Y-76885800D03*
X140741400Y-77774800D03*
X139242800Y-75666600D03*
X140741400Y-75666600D03*
X139242800Y-77774800D03*
X140131800Y-76733400D03*
X141706600Y-76733400D03*
X133959600Y-77774800D03*
X132461000Y-75666600D03*
X133959600Y-75666600D03*
X132461000Y-77774800D03*
X133350000Y-76733400D03*
X134924800Y-76733400D03*
X150698200Y-81940400D03*
X150672800Y-79679800D03*
X152679400Y-79705200D03*
%TO.N,+3.3V*%
X158140400Y-83388200D03*
%TO.N,GND*%
X153390600Y-89154000D03*
X160858200Y-83362800D03*
X159308800Y-83286600D03*
X162433000Y-81711800D03*
X160045400Y-82600800D03*
X156870400Y-82575400D03*
X161544000Y-82600800D03*
X158369000Y-82575400D03*
X159410400Y-81686400D03*
X156235400Y-81661000D03*
X160909000Y-81686400D03*
X157734000Y-81661000D03*
X163271200Y-80746600D03*
X166395400Y-80772000D03*
X169468800Y-82905600D03*
X175945800Y-82829400D03*
X175209200Y-77698600D03*
X175234600Y-81889600D03*
X173659800Y-81915000D03*
X170357800Y-81915000D03*
X164465000Y-78536800D03*
X161798000Y-80721200D03*
X160299400Y-80721200D03*
X158013400Y-79654400D03*
X159588200Y-79654400D03*
X164236400Y-79654400D03*
X156133800Y-79603600D03*
X162763200Y-79679800D03*
X158623000Y-80695800D03*
X157124400Y-80695800D03*
X161188400Y-79679800D03*
X172694600Y-80848200D03*
X174498000Y-80822800D03*
X171196000Y-80848200D03*
X168910000Y-79781400D03*
X170484800Y-79781400D03*
X175133000Y-79781400D03*
X167030400Y-79730600D03*
X173659800Y-79806800D03*
X169519600Y-80822800D03*
X168021000Y-80822800D03*
X172085000Y-79806800D03*
X157988000Y-78663800D03*
X153797000Y-78511400D03*
X156946600Y-77698600D03*
X155905200Y-78511400D03*
X154813000Y-77673200D03*
X150672800Y-77470000D03*
X152781000Y-77470000D03*
X151714200Y-78435200D03*
X174574200Y-78765400D03*
X159156400Y-77520800D03*
X169519600Y-78689200D03*
X163347400Y-77673200D03*
X168910000Y-77647800D03*
X160197800Y-78486000D03*
X170408600Y-77647800D03*
X167106600Y-77673200D03*
X161239200Y-77673200D03*
X167944800Y-78689200D03*
X162331400Y-78511400D03*
X166471600Y-78714600D03*
X165430200Y-77749400D03*
X172085000Y-77673200D03*
X172694600Y-78714600D03*
X173583600Y-77673200D03*
X171119800Y-78714600D03*
X157988000Y-76631800D03*
X153797000Y-76479400D03*
X156946600Y-75666600D03*
X155905200Y-76479400D03*
X154813000Y-75641200D03*
X150672800Y-75438000D03*
X152781000Y-75438000D03*
X151714200Y-76403200D03*
X175361600Y-75590400D03*
X174421800Y-76733400D03*
X159004000Y-75488800D03*
X169367200Y-76657200D03*
X163195000Y-75641200D03*
X168757600Y-75615800D03*
X160045400Y-76454000D03*
X170256200Y-75615800D03*
X166954200Y-75641200D03*
X161086800Y-75641200D03*
X167792400Y-76657200D03*
X162179000Y-76479400D03*
X166319200Y-76682600D03*
X164465000Y-76733400D03*
X165277800Y-75717400D03*
X171932600Y-75641200D03*
X172542200Y-76682600D03*
X173431200Y-75641200D03*
X170967400Y-76682600D03*
X158318200Y-110972600D03*
X158343600Y-113207800D03*
X159283400Y-112064800D03*
X162737800Y-109855000D03*
X161112200Y-109905800D03*
X171475400Y-105791000D03*
X167462200Y-105765600D03*
X169443400Y-105689400D03*
X174548800Y-106654600D03*
X168376600Y-106680000D03*
X166751000Y-113157000D03*
X164947600Y-113182400D03*
X164338000Y-112141000D03*
X163449000Y-113182400D03*
X163449000Y-111074200D03*
X165912800Y-112141000D03*
X164947600Y-111074200D03*
X172618400Y-113157000D03*
X170510200Y-113157000D03*
X173659800Y-109194600D03*
X175768000Y-107696000D03*
X173659800Y-107696000D03*
X173659800Y-112344200D03*
X174701200Y-111734600D03*
X175768000Y-109194600D03*
X174701200Y-110159800D03*
X174701200Y-108585000D03*
X173659800Y-110845600D03*
X174701200Y-113309400D03*
X170484800Y-108204000D03*
X172593000Y-106705400D03*
X170484800Y-106705400D03*
X170484800Y-111353600D03*
X171526200Y-110744000D03*
X172593000Y-108204000D03*
X171526200Y-109169200D03*
X172593000Y-111353600D03*
X171526200Y-107594400D03*
X170484800Y-109855000D03*
X171526200Y-112318800D03*
X172593000Y-109855000D03*
X167386000Y-112115600D03*
X168427400Y-111506000D03*
X167386000Y-110617000D03*
X169494200Y-110617000D03*
X168427400Y-113080800D03*
X169494200Y-112115600D03*
X167386000Y-108966000D03*
X168427400Y-108356400D03*
X167386000Y-107467400D03*
X169494200Y-107467400D03*
X168427400Y-109931200D03*
X169494200Y-108966000D03*
X161772600Y-113157000D03*
X160274000Y-111048800D03*
X161772600Y-111048800D03*
X160274000Y-113157000D03*
X161163000Y-112115600D03*
X162737800Y-112115600D03*
X148691600Y-113182400D03*
X147193000Y-111074200D03*
X148691600Y-111074200D03*
X147193000Y-113182400D03*
X148082000Y-112141000D03*
X149656800Y-112141000D03*
X132588000Y-113080800D03*
X134086600Y-113080800D03*
X133477000Y-112039400D03*
X135051800Y-112039400D03*
X132588000Y-110972600D03*
X134086600Y-110972600D03*
X149047200Y-107975400D03*
X155854400Y-113563400D03*
X153212800Y-113588800D03*
X148209000Y-87401400D03*
X146126200Y-85801200D03*
X136702800Y-84531200D03*
X139369800Y-95300800D03*
X138125200Y-90246200D03*
X138582400Y-99263200D03*
X139928600Y-101803200D03*
X139928600Y-103428800D03*
X141554200Y-93522800D03*
%TO.N,+3.3V*%
X148615400Y-96469200D03*
X143674600Y-94044000D03*
X138176000Y-100711000D03*
X138176000Y-102235000D03*
%TO.N,GND*%
X133527800Y-101117400D03*
X133527800Y-102666800D03*
X133477000Y-96139000D03*
X131114800Y-98221800D03*
X133781800Y-79730600D03*
X139547600Y-79730600D03*
X148234400Y-89814400D03*
X143544999Y-89916000D03*
X130937000Y-102641400D03*
X127959002Y-100895002D03*
X127959001Y-106130001D03*
X132715000Y-105613200D03*
X132715000Y-107188000D03*
X136017000Y-107950000D03*
X141681200Y-99212400D03*
X144322800Y-101142800D03*
X145973800Y-101142800D03*
X146126200Y-90119200D03*
%TO.N,/MISO*%
X145897600Y-94970600D03*
%TO.N,/MOSI*%
X145172000Y-94970600D03*
%TO.N,/MISO*%
X143297000Y-98602800D03*
%TO.N,/MOSI*%
X143947000Y-97993200D03*
%TO.N,/CE2*%
X151099200Y-87426800D03*
%TO.N,/SWIO*%
X142646400Y-97891600D03*
%TO.N,+3.3V*%
X147320000Y-105486200D03*
X138176000Y-103759000D03*
%TO.N,+5V*%
X133778176Y-93720678D03*
X133778176Y-92196678D03*
X133778176Y-90672678D03*
%TO.N,GND*%
X138176000Y-86995000D03*
X156718000Y-88138000D03*
X168910000Y-85852000D03*
X171069000Y-85852000D03*
X174117000Y-85852000D03*
X176657000Y-85725000D03*
X174498000Y-82829400D03*
X172897800Y-82804000D03*
X172059600Y-81915000D03*
X168808400Y-81838800D03*
X167233600Y-81813400D03*
X160909000Y-88138000D03*
X161544000Y-86233000D03*
X158623000Y-84201000D03*
X160273602Y-84191212D03*
X161544000Y-84201000D03*
X136702800Y-82626200D03*
%TO.N,+3.3V*%
X130759200Y-94045001D03*
%TO.N,GND*%
X163300000Y-86200000D03*
X166800000Y-86200000D03*
X166800000Y-82700000D03*
X163300000Y-82700000D03*
X151800000Y-83150000D03*
X155950000Y-83100000D03*
X156000000Y-87350000D03*
X151850000Y-87300000D03*
%TO.N,+3.3V*%
X152970000Y-88519000D03*
%TO.N,/CE2*%
X164850000Y-88850000D03*
X150950000Y-84000000D03*
%TO.N,+3.3V*%
X152750000Y-81000000D03*
X158150000Y-103200000D03*
X163570000Y-81730000D03*
%TO.N,+5V*%
X130459001Y-86470001D03*
X130459001Y-85745001D03*
X130459001Y-85020001D03*
%TO.N,GND*%
X151812501Y-107150001D03*
X151812501Y-103200001D03*
X156062501Y-103000001D03*
%TO.N,+3.3V*%
X163562501Y-101600001D03*
%TO.N,GND*%
X174962501Y-103550001D03*
X176712501Y-105800001D03*
X172862501Y-103550001D03*
X176657000Y-103550001D03*
X166762501Y-106100001D03*
X163212501Y-102600001D03*
X158762501Y-104000001D03*
X159962501Y-103950001D03*
X162312501Y-102950001D03*
X163262501Y-106100001D03*
X161762501Y-106500001D03*
X160812501Y-106200001D03*
X156612501Y-108150001D03*
X155862501Y-107200001D03*
X160612501Y-108150001D03*
%TO.N,/CE1*%
X164762501Y-109050001D03*
X150907000Y-103759000D03*
%TO.N,+3.3V*%
X152862501Y-100998511D03*
X152982501Y-108645000D03*
%TD*%
%TA.AperFunction,Conductor*%
%TO.N,+3.3V*%
G36*
X138866284Y-74808185D02*
G01*
X138912039Y-74860989D01*
X138921983Y-74930147D01*
X138892958Y-74993703D01*
X138865217Y-75017494D01*
X138771909Y-75076123D01*
X138652323Y-75195709D01*
X138652318Y-75195715D01*
X138562347Y-75338902D01*
X138562345Y-75338905D01*
X138506485Y-75498543D01*
X138487551Y-75666597D01*
X138487551Y-75666602D01*
X138506485Y-75834656D01*
X138562345Y-75994294D01*
X138562347Y-75994297D01*
X138652318Y-76137484D01*
X138652323Y-76137490D01*
X138771909Y-76257076D01*
X138771915Y-76257081D01*
X138915102Y-76347052D01*
X138915105Y-76347054D01*
X138915109Y-76347055D01*
X138915110Y-76347056D01*
X138987288Y-76372312D01*
X139074743Y-76402914D01*
X139242797Y-76421849D01*
X139242800Y-76421849D01*
X139242802Y-76421849D01*
X139259469Y-76419971D01*
X139328291Y-76432025D01*
X139379670Y-76479374D01*
X139397295Y-76546984D01*
X139395835Y-76558372D01*
X139396266Y-76558421D01*
X139376551Y-76733397D01*
X139376551Y-76733402D01*
X139393517Y-76883980D01*
X139381463Y-76952802D01*
X139334114Y-77004182D01*
X139266503Y-77021806D01*
X139256416Y-77021085D01*
X139250388Y-77020406D01*
X139242800Y-77019551D01*
X139242799Y-77019551D01*
X139242798Y-77019551D01*
X139242797Y-77019551D01*
X139074743Y-77038485D01*
X138915105Y-77094345D01*
X138915102Y-77094347D01*
X138771915Y-77184318D01*
X138771909Y-77184323D01*
X138652323Y-77303909D01*
X138652318Y-77303915D01*
X138562347Y-77447102D01*
X138562345Y-77447105D01*
X138506485Y-77606743D01*
X138487551Y-77774797D01*
X138487551Y-77774802D01*
X138506485Y-77942856D01*
X138562345Y-78102494D01*
X138562347Y-78102497D01*
X138652318Y-78245684D01*
X138652323Y-78245690D01*
X138771909Y-78365276D01*
X138771915Y-78365281D01*
X138915102Y-78455252D01*
X138915105Y-78455254D01*
X138915109Y-78455255D01*
X138915110Y-78455256D01*
X138952545Y-78468355D01*
X139074743Y-78511114D01*
X139242797Y-78530049D01*
X139242800Y-78530049D01*
X139242803Y-78530049D01*
X139410856Y-78511114D01*
X139439686Y-78501026D01*
X139570490Y-78455256D01*
X139570492Y-78455254D01*
X139570494Y-78455254D01*
X139570497Y-78455252D01*
X139713684Y-78365281D01*
X139713685Y-78365280D01*
X139713690Y-78365277D01*
X139833277Y-78245690D01*
X139887106Y-78160021D01*
X139939441Y-78113731D01*
X140008495Y-78103083D01*
X140072343Y-78131458D01*
X140097093Y-78160021D01*
X140111978Y-78183710D01*
X140150923Y-78245690D01*
X140270509Y-78365276D01*
X140270515Y-78365281D01*
X140413702Y-78455252D01*
X140413705Y-78455254D01*
X140413709Y-78455255D01*
X140413710Y-78455256D01*
X140451145Y-78468355D01*
X140573343Y-78511114D01*
X140741397Y-78530049D01*
X140741400Y-78530049D01*
X140741403Y-78530049D01*
X140909456Y-78511114D01*
X140953390Y-78495741D01*
X141069090Y-78455256D01*
X141069091Y-78455255D01*
X141075662Y-78452956D01*
X141076515Y-78455394D01*
X141133714Y-78445955D01*
X141197859Y-78473655D01*
X141236845Y-78531636D01*
X141238296Y-78601491D01*
X141223614Y-78635003D01*
X141203945Y-78666306D01*
X141148085Y-78825943D01*
X141129151Y-78993997D01*
X141129151Y-78994002D01*
X141148085Y-79162056D01*
X141203945Y-79321694D01*
X141203947Y-79321697D01*
X141293918Y-79464884D01*
X141293923Y-79464890D01*
X141413509Y-79584476D01*
X141413515Y-79584481D01*
X141556702Y-79674452D01*
X141556705Y-79674454D01*
X141556709Y-79674455D01*
X141556710Y-79674456D01*
X141619783Y-79696526D01*
X141716343Y-79730314D01*
X141884397Y-79749249D01*
X141884400Y-79749249D01*
X141884402Y-79749249D01*
X141901069Y-79747371D01*
X141969891Y-79759425D01*
X142021270Y-79806774D01*
X142038895Y-79874384D01*
X142037435Y-79885772D01*
X142037866Y-79885821D01*
X142018151Y-80060797D01*
X142018151Y-80060802D01*
X142035117Y-80211380D01*
X142023063Y-80280202D01*
X141975714Y-80331582D01*
X141908103Y-80349206D01*
X141898016Y-80348485D01*
X141891988Y-80347806D01*
X141884400Y-80346951D01*
X141884399Y-80346951D01*
X141884398Y-80346951D01*
X141884397Y-80346951D01*
X141716343Y-80365885D01*
X141556705Y-80421745D01*
X141556702Y-80421747D01*
X141413515Y-80511718D01*
X141413509Y-80511723D01*
X141293923Y-80631309D01*
X141293918Y-80631315D01*
X141203947Y-80774502D01*
X141203945Y-80774505D01*
X141148085Y-80934143D01*
X141129151Y-81102197D01*
X141129151Y-81102202D01*
X141148085Y-81270256D01*
X141203945Y-81429894D01*
X141203947Y-81429897D01*
X141293918Y-81573084D01*
X141293923Y-81573090D01*
X141413509Y-81692676D01*
X141413515Y-81692681D01*
X141556702Y-81782652D01*
X141556705Y-81782654D01*
X141556709Y-81782655D01*
X141556710Y-81782656D01*
X141625904Y-81806868D01*
X141716343Y-81838514D01*
X141884397Y-81857449D01*
X141884400Y-81857449D01*
X141884403Y-81857449D01*
X142052456Y-81838514D01*
X142066917Y-81833454D01*
X142212090Y-81782656D01*
X142212092Y-81782654D01*
X142212094Y-81782654D01*
X142212097Y-81782652D01*
X142355284Y-81692681D01*
X142355285Y-81692680D01*
X142355290Y-81692677D01*
X142474877Y-81573090D01*
X142528706Y-81487421D01*
X142581041Y-81441131D01*
X142650095Y-81430483D01*
X142713943Y-81458858D01*
X142738694Y-81487422D01*
X142792523Y-81573090D01*
X142912109Y-81692676D01*
X142912115Y-81692681D01*
X143055302Y-81782652D01*
X143055305Y-81782654D01*
X143055309Y-81782655D01*
X143055310Y-81782656D01*
X143124504Y-81806868D01*
X143214943Y-81838514D01*
X143382997Y-81857449D01*
X143383000Y-81857449D01*
X143383003Y-81857449D01*
X143551056Y-81838514D01*
X143565517Y-81833454D01*
X143710690Y-81782656D01*
X143710692Y-81782654D01*
X143710694Y-81782654D01*
X143710697Y-81782652D01*
X143853884Y-81692681D01*
X143853885Y-81692680D01*
X143853890Y-81692677D01*
X143973477Y-81573090D01*
X143973481Y-81573084D01*
X144063452Y-81429897D01*
X144063454Y-81429894D01*
X144063454Y-81429892D01*
X144063456Y-81429890D01*
X144119313Y-81270259D01*
X144119313Y-81270258D01*
X144119314Y-81270256D01*
X144138249Y-81102202D01*
X144138249Y-81102197D01*
X144120303Y-80942923D01*
X144132357Y-80874101D01*
X144179706Y-80822721D01*
X144247317Y-80805097D01*
X144257407Y-80805819D01*
X144348198Y-80816049D01*
X144348200Y-80816049D01*
X144348203Y-80816049D01*
X144516256Y-80797114D01*
X144530717Y-80792054D01*
X144675890Y-80741256D01*
X144675892Y-80741254D01*
X144675894Y-80741254D01*
X144675897Y-80741252D01*
X144819084Y-80651281D01*
X144819085Y-80651280D01*
X144819090Y-80651277D01*
X144938677Y-80531690D01*
X144941158Y-80527742D01*
X145028652Y-80388497D01*
X145028654Y-80388494D01*
X145028654Y-80388492D01*
X145028656Y-80388490D01*
X145084513Y-80228859D01*
X145084513Y-80228858D01*
X145084514Y-80228856D01*
X145103449Y-80060802D01*
X145103449Y-80060797D01*
X145084514Y-79892743D01*
X145028654Y-79733105D01*
X145028652Y-79733102D01*
X144938681Y-79589915D01*
X144938676Y-79589909D01*
X144819090Y-79470323D01*
X144819084Y-79470318D01*
X144675897Y-79380347D01*
X144675894Y-79380345D01*
X144516256Y-79324485D01*
X144348203Y-79305551D01*
X144348196Y-79305551D01*
X144253318Y-79316241D01*
X144184496Y-79304186D01*
X144133117Y-79256837D01*
X144115493Y-79189227D01*
X144118545Y-79165423D01*
X144119311Y-79162063D01*
X144119313Y-79162059D01*
X144119314Y-79162052D01*
X144138249Y-78994002D01*
X144138249Y-78993997D01*
X144119314Y-78825943D01*
X144081390Y-78717563D01*
X144066072Y-78673788D01*
X144062512Y-78604011D01*
X144097241Y-78543383D01*
X144159234Y-78511156D01*
X144228809Y-78517561D01*
X144249084Y-78527840D01*
X144376107Y-78607654D01*
X144376105Y-78607654D01*
X144376109Y-78607655D01*
X144376110Y-78607656D01*
X144379317Y-78608778D01*
X144535743Y-78663514D01*
X144703797Y-78682449D01*
X144703800Y-78682449D01*
X144703803Y-78682449D01*
X144871856Y-78663514D01*
X144871859Y-78663513D01*
X145031490Y-78607656D01*
X145031492Y-78607654D01*
X145031494Y-78607654D01*
X145031497Y-78607652D01*
X145174684Y-78517681D01*
X145174685Y-78517680D01*
X145174690Y-78517677D01*
X145294277Y-78398090D01*
X145348106Y-78312421D01*
X145400441Y-78266131D01*
X145469495Y-78255483D01*
X145533343Y-78283858D01*
X145558093Y-78312421D01*
X145591305Y-78365277D01*
X145611923Y-78398090D01*
X145731509Y-78517676D01*
X145731515Y-78517681D01*
X145874702Y-78607652D01*
X145874705Y-78607654D01*
X145874709Y-78607655D01*
X145874710Y-78607656D01*
X145877917Y-78608778D01*
X146034343Y-78663514D01*
X146202397Y-78682449D01*
X146202400Y-78682449D01*
X146202402Y-78682449D01*
X146209582Y-78681640D01*
X146278404Y-78693694D01*
X146329783Y-78741043D01*
X146347408Y-78808653D01*
X146340508Y-78845813D01*
X146329686Y-78876740D01*
X146310751Y-79044797D01*
X146310751Y-79044802D01*
X146329685Y-79212856D01*
X146385545Y-79372494D01*
X146385547Y-79372497D01*
X146475518Y-79515684D01*
X146475523Y-79515690D01*
X146595109Y-79635276D01*
X146595115Y-79635281D01*
X146738302Y-79725252D01*
X146738305Y-79725254D01*
X146738309Y-79725255D01*
X146738310Y-79725256D01*
X146801511Y-79747371D01*
X146897943Y-79781114D01*
X147065997Y-79800049D01*
X147066000Y-79800049D01*
X147066002Y-79800049D01*
X147082669Y-79798171D01*
X147151491Y-79810225D01*
X147202870Y-79857574D01*
X147220495Y-79925184D01*
X147219035Y-79936572D01*
X147219466Y-79936621D01*
X147199751Y-80111597D01*
X147199751Y-80111602D01*
X147216717Y-80262180D01*
X147204663Y-80331002D01*
X147157314Y-80382382D01*
X147089703Y-80400006D01*
X147079616Y-80399285D01*
X147073588Y-80398606D01*
X147066000Y-80397751D01*
X147065999Y-80397751D01*
X147065998Y-80397751D01*
X147065997Y-80397751D01*
X146897943Y-80416685D01*
X146738305Y-80472545D01*
X146738302Y-80472547D01*
X146595115Y-80562518D01*
X146595109Y-80562523D01*
X146475523Y-80682109D01*
X146475518Y-80682115D01*
X146385547Y-80825302D01*
X146385545Y-80825305D01*
X146329685Y-80984943D01*
X146310751Y-81152997D01*
X146310751Y-81153002D01*
X146329685Y-81321056D01*
X146385545Y-81480694D01*
X146385547Y-81480697D01*
X146475518Y-81623884D01*
X146475523Y-81623890D01*
X146595109Y-81743476D01*
X146595115Y-81743481D01*
X146738302Y-81833452D01*
X146738305Y-81833454D01*
X146738309Y-81833455D01*
X146738310Y-81833456D01*
X146805227Y-81856871D01*
X146897943Y-81889314D01*
X147065997Y-81908249D01*
X147066000Y-81908249D01*
X147066003Y-81908249D01*
X147234056Y-81889314D01*
X147282788Y-81872262D01*
X147393690Y-81833456D01*
X147393692Y-81833454D01*
X147393694Y-81833454D01*
X147393697Y-81833452D01*
X147536884Y-81743481D01*
X147536885Y-81743480D01*
X147536890Y-81743477D01*
X147656477Y-81623890D01*
X147710306Y-81538221D01*
X147762641Y-81491931D01*
X147831695Y-81481283D01*
X147895543Y-81509658D01*
X147920294Y-81538222D01*
X147974123Y-81623890D01*
X148093709Y-81743476D01*
X148093715Y-81743481D01*
X148236902Y-81833452D01*
X148236905Y-81833454D01*
X148236909Y-81833455D01*
X148236910Y-81833456D01*
X148303827Y-81856871D01*
X148396543Y-81889314D01*
X148564597Y-81908249D01*
X148564600Y-81908249D01*
X148564603Y-81908249D01*
X148732656Y-81889314D01*
X148781388Y-81872262D01*
X148892290Y-81833456D01*
X148892292Y-81833454D01*
X148892294Y-81833454D01*
X148892297Y-81833452D01*
X149035484Y-81743481D01*
X149035485Y-81743480D01*
X149035490Y-81743477D01*
X149155077Y-81623890D01*
X149187001Y-81573084D01*
X149245052Y-81480697D01*
X149245054Y-81480694D01*
X149245054Y-81480692D01*
X149245056Y-81480690D01*
X149300913Y-81321059D01*
X149300913Y-81321058D01*
X149300914Y-81321056D01*
X149319849Y-81153002D01*
X149319849Y-81152997D01*
X149301903Y-80993723D01*
X149313957Y-80924901D01*
X149361306Y-80873521D01*
X149428917Y-80855897D01*
X149439007Y-80856619D01*
X149529798Y-80866849D01*
X149529800Y-80866849D01*
X149529803Y-80866849D01*
X149697856Y-80847914D01*
X149734982Y-80834923D01*
X149857490Y-80792056D01*
X149857492Y-80792054D01*
X149857494Y-80792054D01*
X149857497Y-80792052D01*
X150000684Y-80702081D01*
X150000685Y-80702080D01*
X150000690Y-80702077D01*
X150120277Y-80582490D01*
X150120333Y-80582401D01*
X150210252Y-80439297D01*
X150210253Y-80439294D01*
X150210256Y-80439290D01*
X150210257Y-80439285D01*
X150213277Y-80433017D01*
X150215636Y-80434153D01*
X150249332Y-80387134D01*
X150314275Y-80361361D01*
X150366645Y-80367792D01*
X150432154Y-80390714D01*
X150504741Y-80416113D01*
X150529565Y-80418910D01*
X150672797Y-80435049D01*
X150672800Y-80435049D01*
X150672803Y-80435049D01*
X150840856Y-80416114D01*
X150855317Y-80411054D01*
X151000490Y-80360256D01*
X151000492Y-80360254D01*
X151000494Y-80360254D01*
X151000497Y-80360252D01*
X151143684Y-80270281D01*
X151143685Y-80270280D01*
X151143690Y-80270277D01*
X151263277Y-80150690D01*
X151287841Y-80111597D01*
X151353252Y-80007497D01*
X151353254Y-80007494D01*
X151353254Y-80007492D01*
X151353256Y-80007490D01*
X151409113Y-79847859D01*
X151409113Y-79847858D01*
X151409114Y-79847856D01*
X151428049Y-79679802D01*
X151428049Y-79679797D01*
X151409114Y-79511743D01*
X151382450Y-79435543D01*
X151353256Y-79352110D01*
X151353254Y-79352107D01*
X151353254Y-79352106D01*
X151341975Y-79334156D01*
X151322974Y-79266920D01*
X151343341Y-79200084D01*
X151396608Y-79154870D01*
X151465864Y-79145631D01*
X151487922Y-79151141D01*
X151546141Y-79171513D01*
X151546140Y-79171513D01*
X151714197Y-79190449D01*
X151714200Y-79190449D01*
X151714203Y-79190449D01*
X151889179Y-79170734D01*
X151889464Y-79173270D01*
X151947449Y-79176813D01*
X152003813Y-79218102D01*
X152028908Y-79283310D01*
X152014764Y-79351733D01*
X152010317Y-79359408D01*
X151998945Y-79377506D01*
X151943085Y-79537143D01*
X151924151Y-79705197D01*
X151924151Y-79705202D01*
X151943085Y-79873256D01*
X151998945Y-80032894D01*
X151998947Y-80032897D01*
X152088918Y-80176084D01*
X152088923Y-80176090D01*
X152208509Y-80295676D01*
X152208515Y-80295681D01*
X152351702Y-80385652D01*
X152351705Y-80385654D01*
X152351709Y-80385655D01*
X152351710Y-80385656D01*
X152401628Y-80403123D01*
X152511343Y-80441514D01*
X152679397Y-80460449D01*
X152679400Y-80460449D01*
X152679403Y-80460449D01*
X152847456Y-80441514D01*
X152865932Y-80435049D01*
X153007090Y-80385656D01*
X153007092Y-80385654D01*
X153007094Y-80385654D01*
X153007097Y-80385652D01*
X153150284Y-80295681D01*
X153150285Y-80295680D01*
X153150290Y-80295677D01*
X153269877Y-80176090D01*
X153310401Y-80111597D01*
X153359852Y-80032897D01*
X153359854Y-80032894D01*
X153359854Y-80032892D01*
X153359856Y-80032890D01*
X153415713Y-79873259D01*
X153415713Y-79873258D01*
X153415714Y-79873256D01*
X153434649Y-79705202D01*
X153434649Y-79705197D01*
X153415714Y-79537143D01*
X153389672Y-79462721D01*
X153359856Y-79377510D01*
X153359855Y-79377508D01*
X153357556Y-79370938D01*
X153358820Y-79370495D01*
X153348684Y-79308948D01*
X153376405Y-79244812D01*
X153434399Y-79205845D01*
X153504254Y-79204418D01*
X153512712Y-79207043D01*
X153628939Y-79247713D01*
X153796997Y-79266649D01*
X153797000Y-79266649D01*
X153797003Y-79266649D01*
X153965056Y-79247714D01*
X153972006Y-79245282D01*
X154124690Y-79191856D01*
X154124692Y-79191854D01*
X154124694Y-79191854D01*
X154124697Y-79191852D01*
X154267884Y-79101881D01*
X154267885Y-79101880D01*
X154267890Y-79101877D01*
X154387477Y-78982290D01*
X154391837Y-78975351D01*
X154477452Y-78839097D01*
X154477454Y-78839094D01*
X154477454Y-78839092D01*
X154477456Y-78839090D01*
X154533313Y-78679459D01*
X154533313Y-78679457D01*
X154533314Y-78679455D01*
X154546444Y-78562917D01*
X154550863Y-78523696D01*
X154577929Y-78459284D01*
X154635524Y-78419729D01*
X154687967Y-78414361D01*
X154812998Y-78428449D01*
X154813000Y-78428449D01*
X154813003Y-78428449D01*
X154981055Y-78409514D01*
X154981057Y-78409513D01*
X154981059Y-78409513D01*
X154985726Y-78407879D01*
X155055502Y-78404312D01*
X155116133Y-78439035D01*
X155148365Y-78501026D01*
X155149909Y-78511034D01*
X155168885Y-78679456D01*
X155224745Y-78839094D01*
X155224747Y-78839097D01*
X155314718Y-78982284D01*
X155314723Y-78982290D01*
X155439234Y-79106801D01*
X155438085Y-79107949D01*
X155473343Y-79158184D01*
X155476191Y-79227995D01*
X155460883Y-79263911D01*
X155453345Y-79275907D01*
X155397485Y-79435543D01*
X155378551Y-79603597D01*
X155378551Y-79603602D01*
X155397485Y-79771656D01*
X155453345Y-79931294D01*
X155453347Y-79931297D01*
X155543318Y-80074484D01*
X155543323Y-80074490D01*
X155662909Y-80194076D01*
X155662915Y-80194081D01*
X155806102Y-80284052D01*
X155806105Y-80284054D01*
X155806109Y-80284055D01*
X155806110Y-80284056D01*
X155878713Y-80309460D01*
X155965743Y-80339914D01*
X156133797Y-80358849D01*
X156133800Y-80358849D01*
X156133802Y-80358849D01*
X156191021Y-80352401D01*
X156263942Y-80344185D01*
X156332764Y-80356239D01*
X156384143Y-80403588D01*
X156401768Y-80471198D01*
X156394869Y-80508357D01*
X156388086Y-80527742D01*
X156369151Y-80695797D01*
X156369151Y-80695805D01*
X156377420Y-80769202D01*
X156365365Y-80838024D01*
X156318015Y-80889402D01*
X156250405Y-80907026D01*
X156240323Y-80906305D01*
X156235404Y-80905751D01*
X156235397Y-80905751D01*
X156067343Y-80924685D01*
X155907705Y-80980545D01*
X155907702Y-80980547D01*
X155764515Y-81070518D01*
X155764509Y-81070523D01*
X155644923Y-81190109D01*
X155644918Y-81190115D01*
X155554947Y-81333302D01*
X155554945Y-81333305D01*
X155499085Y-81492943D01*
X155480151Y-81660997D01*
X155480151Y-81661002D01*
X155499085Y-81829056D01*
X155554945Y-81988694D01*
X155554947Y-81988697D01*
X155644918Y-82131884D01*
X155644923Y-82131890D01*
X155712608Y-82199575D01*
X155746093Y-82260898D01*
X155741109Y-82330590D01*
X155699237Y-82386523D01*
X155665881Y-82404298D01*
X155622308Y-82419544D01*
X155622302Y-82419547D01*
X155479115Y-82509518D01*
X155479109Y-82509523D01*
X155359523Y-82629109D01*
X155359518Y-82629115D01*
X155269547Y-82772302D01*
X155269545Y-82772305D01*
X155213685Y-82931943D01*
X155194751Y-83099997D01*
X155194751Y-83100002D01*
X155213685Y-83268056D01*
X155269545Y-83427694D01*
X155269547Y-83427697D01*
X155359518Y-83570884D01*
X155359523Y-83570890D01*
X155479109Y-83690476D01*
X155479115Y-83690481D01*
X155622302Y-83780452D01*
X155622305Y-83780454D01*
X155622309Y-83780455D01*
X155622310Y-83780456D01*
X155660025Y-83793653D01*
X155781943Y-83836314D01*
X155949997Y-83855249D01*
X155950000Y-83855249D01*
X155950003Y-83855249D01*
X156118056Y-83836314D01*
X156130548Y-83831943D01*
X156277690Y-83780456D01*
X156277692Y-83780454D01*
X156277694Y-83780454D01*
X156277697Y-83780452D01*
X156420884Y-83690481D01*
X156420885Y-83690480D01*
X156420890Y-83690477D01*
X156540477Y-83570890D01*
X156566726Y-83529115D01*
X156630452Y-83427697D01*
X156630453Y-83427694D01*
X156630456Y-83427690D01*
X156639564Y-83401658D01*
X156680284Y-83344883D01*
X156745235Y-83319134D01*
X156770490Y-83319392D01*
X156870397Y-83330649D01*
X156870400Y-83330649D01*
X156870403Y-83330649D01*
X157038456Y-83311714D01*
X157052917Y-83306654D01*
X157198090Y-83255856D01*
X157198092Y-83255854D01*
X157198094Y-83255854D01*
X157198097Y-83255852D01*
X157341284Y-83165881D01*
X157341285Y-83165880D01*
X157341290Y-83165877D01*
X157460877Y-83046290D01*
X157514706Y-82960621D01*
X157567041Y-82914331D01*
X157636095Y-82903683D01*
X157699943Y-82932058D01*
X157724694Y-82960622D01*
X157778523Y-83046290D01*
X157898109Y-83165876D01*
X157898115Y-83165881D01*
X158041302Y-83255852D01*
X158041305Y-83255854D01*
X158041309Y-83255855D01*
X158041310Y-83255856D01*
X158200941Y-83311713D01*
X158210628Y-83312804D01*
X158275043Y-83339868D01*
X158314601Y-83397461D01*
X158316742Y-83467297D01*
X158280786Y-83527205D01*
X158262723Y-83541018D01*
X158152112Y-83610521D01*
X158152109Y-83610523D01*
X158032523Y-83730109D01*
X158032518Y-83730115D01*
X157942547Y-83873302D01*
X157942545Y-83873305D01*
X157886685Y-84032943D01*
X157867751Y-84200997D01*
X157867751Y-84201002D01*
X157886685Y-84369056D01*
X157942545Y-84528694D01*
X157942547Y-84528697D01*
X158032518Y-84671884D01*
X158032523Y-84671890D01*
X158152109Y-84791476D01*
X158152115Y-84791481D01*
X158295302Y-84881452D01*
X158295305Y-84881454D01*
X158295309Y-84881455D01*
X158295310Y-84881456D01*
X158367913Y-84906860D01*
X158454943Y-84937314D01*
X158622997Y-84956249D01*
X158623000Y-84956249D01*
X158623003Y-84956249D01*
X158791056Y-84937314D01*
X158791059Y-84937313D01*
X158950690Y-84881456D01*
X158950692Y-84881454D01*
X158950694Y-84881454D01*
X158950697Y-84881452D01*
X159093884Y-84791481D01*
X159093885Y-84791480D01*
X159093890Y-84791477D01*
X159213477Y-84671890D01*
X159264630Y-84590481D01*
X159303452Y-84528697D01*
X159303455Y-84528692D01*
X159303456Y-84528690D01*
X159332972Y-84444337D01*
X159373692Y-84387563D01*
X159438645Y-84361815D01*
X159507207Y-84375271D01*
X159557610Y-84423658D01*
X159567054Y-84444338D01*
X159593144Y-84518898D01*
X159593149Y-84518909D01*
X159683120Y-84662096D01*
X159683125Y-84662102D01*
X159802711Y-84781688D01*
X159802717Y-84781693D01*
X159945904Y-84871664D01*
X159945907Y-84871666D01*
X159945911Y-84871667D01*
X159945912Y-84871668D01*
X159973879Y-84881454D01*
X160105545Y-84927526D01*
X160273599Y-84946461D01*
X160273602Y-84946461D01*
X160273605Y-84946461D01*
X160441658Y-84927526D01*
X160441661Y-84927525D01*
X160601292Y-84871668D01*
X160601294Y-84871666D01*
X160601296Y-84871666D01*
X160601299Y-84871664D01*
X160744486Y-84781693D01*
X160744487Y-84781692D01*
X160744492Y-84781689D01*
X160816226Y-84709955D01*
X160877549Y-84676470D01*
X160947241Y-84681454D01*
X160991588Y-84709955D01*
X161073109Y-84791476D01*
X161073115Y-84791481D01*
X161216302Y-84881452D01*
X161216305Y-84881454D01*
X161216309Y-84881455D01*
X161216310Y-84881456D01*
X161288913Y-84906860D01*
X161375943Y-84937314D01*
X161543997Y-84956249D01*
X161544000Y-84956249D01*
X161544003Y-84956249D01*
X161712056Y-84937314D01*
X161712059Y-84937313D01*
X161871690Y-84881456D01*
X161871692Y-84881454D01*
X161871694Y-84881454D01*
X161871697Y-84881452D01*
X162014884Y-84791481D01*
X162014885Y-84791480D01*
X162014890Y-84791477D01*
X162134477Y-84671890D01*
X162185630Y-84590481D01*
X162224452Y-84528697D01*
X162224454Y-84528694D01*
X162224454Y-84528692D01*
X162224456Y-84528690D01*
X162280313Y-84369059D01*
X162280313Y-84369058D01*
X162280314Y-84369056D01*
X162299249Y-84201002D01*
X162299249Y-84200997D01*
X162280314Y-84032943D01*
X162226754Y-83879877D01*
X162224456Y-83873310D01*
X162224455Y-83873309D01*
X162224454Y-83873305D01*
X162224452Y-83873302D01*
X162134481Y-83730115D01*
X162134476Y-83730109D01*
X162014890Y-83610523D01*
X162014884Y-83610518D01*
X161871697Y-83520547D01*
X161871690Y-83520543D01*
X161864247Y-83517939D01*
X161807473Y-83477215D01*
X161781729Y-83412261D01*
X161795188Y-83343700D01*
X161843577Y-83293299D01*
X161864251Y-83283858D01*
X161871690Y-83281256D01*
X161871695Y-83281253D01*
X161871697Y-83281252D01*
X162014884Y-83191281D01*
X162014885Y-83191280D01*
X162014890Y-83191277D01*
X162134477Y-83071690D01*
X162162124Y-83027690D01*
X162224452Y-82928497D01*
X162224454Y-82928494D01*
X162224454Y-82928492D01*
X162224456Y-82928490D01*
X162280313Y-82768859D01*
X162280313Y-82768858D01*
X162280314Y-82768856D01*
X162299249Y-82600802D01*
X162299249Y-82593836D01*
X162301557Y-82593836D01*
X162311728Y-82535760D01*
X162359075Y-82484379D01*
X162426685Y-82466753D01*
X162430824Y-82467049D01*
X162432242Y-82467049D01*
X162432698Y-82467182D01*
X162436782Y-82467475D01*
X162439923Y-82467829D01*
X162439762Y-82469257D01*
X162499281Y-82486734D01*
X162545036Y-82539538D01*
X162555462Y-82604932D01*
X162544751Y-82699996D01*
X162544751Y-82700002D01*
X162563685Y-82868056D01*
X162619545Y-83027694D01*
X162619547Y-83027697D01*
X162709518Y-83170884D01*
X162709523Y-83170890D01*
X162829109Y-83290476D01*
X162829115Y-83290481D01*
X162972302Y-83380452D01*
X162972305Y-83380454D01*
X162972309Y-83380455D01*
X162972310Y-83380456D01*
X163020908Y-83397461D01*
X163131943Y-83436314D01*
X163299997Y-83455249D01*
X163300000Y-83455249D01*
X163300003Y-83455249D01*
X163468056Y-83436314D01*
X163492682Y-83427697D01*
X163627690Y-83380456D01*
X163627692Y-83380454D01*
X163627694Y-83380454D01*
X163627697Y-83380452D01*
X163770884Y-83290481D01*
X163770885Y-83290480D01*
X163770890Y-83290477D01*
X163890477Y-83170890D01*
X163890481Y-83170884D01*
X163980452Y-83027697D01*
X163980454Y-83027694D01*
X163980454Y-83027692D01*
X163980456Y-83027690D01*
X164036313Y-82868059D01*
X164036313Y-82868058D01*
X164036314Y-82868056D01*
X164055249Y-82700002D01*
X164055249Y-82699997D01*
X164036314Y-82531943D01*
X163994096Y-82411290D01*
X163980456Y-82372310D01*
X163980455Y-82372309D01*
X163980454Y-82372305D01*
X163980452Y-82372302D01*
X163890481Y-82229115D01*
X163890476Y-82229109D01*
X163770890Y-82109523D01*
X163770884Y-82109518D01*
X163627697Y-82019547D01*
X163627694Y-82019545D01*
X163468056Y-81963685D01*
X163293080Y-81943971D01*
X163293240Y-81942543D01*
X163233719Y-81925066D01*
X163187964Y-81872262D01*
X163177538Y-81806868D01*
X163188249Y-81711803D01*
X163188249Y-81711797D01*
X163179813Y-81636930D01*
X163191867Y-81568108D01*
X163239216Y-81516729D01*
X163289147Y-81499826D01*
X163359832Y-81491862D01*
X163439255Y-81482914D01*
X163439257Y-81482913D01*
X163439259Y-81482913D01*
X163598890Y-81427056D01*
X163598892Y-81427054D01*
X163598894Y-81427054D01*
X163598897Y-81427052D01*
X163742084Y-81337081D01*
X163742085Y-81337080D01*
X163742090Y-81337077D01*
X163861677Y-81217490D01*
X163881997Y-81185151D01*
X163951652Y-81074297D01*
X163951654Y-81074294D01*
X163951654Y-81074292D01*
X163951656Y-81074290D01*
X164007513Y-80914659D01*
X164007513Y-80914658D01*
X164007514Y-80914656D01*
X164026449Y-80746602D01*
X164026449Y-80746597D01*
X164007513Y-80578540D01*
X164007513Y-80578538D01*
X164001775Y-80562140D01*
X163998213Y-80492361D01*
X164032941Y-80431734D01*
X164094935Y-80399506D01*
X164132700Y-80397965D01*
X164236397Y-80409649D01*
X164236400Y-80409649D01*
X164236403Y-80409649D01*
X164404456Y-80390714D01*
X164410792Y-80388497D01*
X164564090Y-80334856D01*
X164564091Y-80334855D01*
X164567844Y-80333542D01*
X164637623Y-80329981D01*
X164698251Y-80364710D01*
X164730478Y-80426703D01*
X164732799Y-80450584D01*
X164732799Y-88007908D01*
X164713114Y-88074947D01*
X164660310Y-88120702D01*
X164649753Y-88124950D01*
X164522308Y-88169544D01*
X164522302Y-88169547D01*
X164379115Y-88259518D01*
X164379109Y-88259523D01*
X164259523Y-88379109D01*
X164259518Y-88379115D01*
X164169547Y-88522302D01*
X164169545Y-88522305D01*
X164113685Y-88681943D01*
X164094751Y-88849997D01*
X164094751Y-88850002D01*
X164113685Y-89018056D01*
X164169545Y-89177694D01*
X164169547Y-89177697D01*
X164259518Y-89320884D01*
X164259523Y-89320890D01*
X164379109Y-89440476D01*
X164379115Y-89440481D01*
X164522302Y-89530452D01*
X164522308Y-89530455D01*
X164522310Y-89530456D01*
X164627179Y-89567151D01*
X164649753Y-89575050D01*
X164706530Y-89615772D01*
X164732277Y-89680725D01*
X164732799Y-89692092D01*
X164732799Y-89843082D01*
X164713114Y-89910121D01*
X164660310Y-89955876D01*
X164591152Y-89965820D01*
X164527596Y-89936795D01*
X164503806Y-89909055D01*
X164467648Y-89851512D01*
X164467646Y-89851509D01*
X164348060Y-89731923D01*
X164348054Y-89731918D01*
X164204867Y-89641947D01*
X164204864Y-89641945D01*
X164045226Y-89586085D01*
X163877173Y-89567151D01*
X163877167Y-89567151D01*
X163709113Y-89586085D01*
X163549475Y-89641945D01*
X163549472Y-89641947D01*
X163406285Y-89731918D01*
X163406279Y-89731923D01*
X163286693Y-89851509D01*
X163286688Y-89851515D01*
X163196717Y-89994702D01*
X163196715Y-89994705D01*
X163140855Y-90154344D01*
X163131347Y-90238734D01*
X163104280Y-90303148D01*
X163076501Y-90322225D01*
X163099311Y-90335917D01*
X163130267Y-90398554D01*
X163131347Y-90406065D01*
X163140855Y-90490455D01*
X163196715Y-90650094D01*
X163199736Y-90656366D01*
X163197989Y-90657207D01*
X163214374Y-90715205D01*
X163194003Y-90782039D01*
X163140732Y-90827249D01*
X163104265Y-90837152D01*
X162929306Y-90856866D01*
X162929021Y-90854341D01*
X162870975Y-90850764D01*
X162814632Y-90809446D01*
X162789571Y-90744225D01*
X162803750Y-90675809D01*
X162808170Y-90668186D01*
X162819541Y-90650090D01*
X162875398Y-90490459D01*
X162875398Y-90490457D01*
X162875399Y-90490455D01*
X162884907Y-90406066D01*
X162911973Y-90341652D01*
X162939752Y-90322573D01*
X162916942Y-90308881D01*
X162885986Y-90246243D01*
X162884907Y-90238733D01*
X162875399Y-90154344D01*
X162848735Y-90078143D01*
X162819541Y-89994710D01*
X162819540Y-89994709D01*
X162819539Y-89994705D01*
X162819537Y-89994702D01*
X162729566Y-89851515D01*
X162729561Y-89851509D01*
X162609975Y-89731923D01*
X162609969Y-89731918D01*
X162466782Y-89641947D01*
X162466779Y-89641945D01*
X162307141Y-89586085D01*
X162139088Y-89567151D01*
X162139082Y-89567151D01*
X161971028Y-89586085D01*
X161811390Y-89641945D01*
X161811387Y-89641947D01*
X161668200Y-89731918D01*
X161668194Y-89731923D01*
X161548608Y-89851509D01*
X161548603Y-89851515D01*
X161458632Y-89994702D01*
X161458630Y-89994705D01*
X161402770Y-90154344D01*
X161393262Y-90238734D01*
X161366195Y-90303148D01*
X161338416Y-90322225D01*
X161361226Y-90335917D01*
X161392182Y-90398554D01*
X161393262Y-90406065D01*
X161402770Y-90490455D01*
X161458630Y-90650094D01*
X161461651Y-90656366D01*
X161459904Y-90657207D01*
X161476289Y-90715205D01*
X161455918Y-90782039D01*
X161402647Y-90827249D01*
X161366180Y-90837152D01*
X161191221Y-90856866D01*
X161190936Y-90854341D01*
X161132890Y-90850764D01*
X161076547Y-90809446D01*
X161051486Y-90744225D01*
X161065665Y-90675809D01*
X161070085Y-90668186D01*
X161081456Y-90650090D01*
X161137313Y-90490459D01*
X161137313Y-90490457D01*
X161137314Y-90490455D01*
X161146822Y-90406066D01*
X161173888Y-90341652D01*
X161201667Y-90322573D01*
X161178857Y-90308881D01*
X161147901Y-90246243D01*
X161146822Y-90238733D01*
X161137314Y-90154344D01*
X161110650Y-90078143D01*
X161081456Y-89994710D01*
X161081455Y-89994709D01*
X161081454Y-89994705D01*
X161081452Y-89994702D01*
X160991481Y-89851515D01*
X160991476Y-89851509D01*
X160871890Y-89731923D01*
X160871884Y-89731918D01*
X160728697Y-89641947D01*
X160728694Y-89641945D01*
X160569056Y-89586085D01*
X160401003Y-89567151D01*
X160400997Y-89567151D01*
X160232943Y-89586085D01*
X160073305Y-89641945D01*
X160073302Y-89641947D01*
X159930115Y-89731918D01*
X159930109Y-89731923D01*
X159810523Y-89851509D01*
X159810518Y-89851515D01*
X159720547Y-89994702D01*
X159720545Y-89994705D01*
X159664685Y-90154343D01*
X159645751Y-90322397D01*
X159645751Y-90322402D01*
X159664685Y-90490456D01*
X159720545Y-90650093D01*
X159761946Y-90715981D01*
X159780947Y-90783218D01*
X159760580Y-90850053D01*
X159707312Y-90895268D01*
X159638056Y-90904506D01*
X159590981Y-90886948D01*
X159509492Y-90835745D01*
X159509491Y-90835744D01*
X159509490Y-90835744D01*
X159471170Y-90822335D01*
X159349856Y-90779885D01*
X159181803Y-90760951D01*
X159181797Y-90760951D01*
X159013743Y-90779885D01*
X158854105Y-90835745D01*
X158854102Y-90835747D01*
X158710915Y-90925718D01*
X158710909Y-90925723D01*
X158591323Y-91045309D01*
X158591318Y-91045315D01*
X158501347Y-91188502D01*
X158501345Y-91188505D01*
X158445485Y-91348143D01*
X158426551Y-91516197D01*
X158426551Y-91516202D01*
X158445485Y-91684256D01*
X158472149Y-91760456D01*
X158494275Y-91823689D01*
X158501345Y-91843892D01*
X158569119Y-91951753D01*
X158588119Y-92018989D01*
X158567751Y-92085825D01*
X158514484Y-92131039D01*
X158445227Y-92140277D01*
X158398153Y-92122719D01*
X158290292Y-92054945D01*
X158290291Y-92054944D01*
X158290290Y-92054944D01*
X158242587Y-92038252D01*
X158130656Y-91999085D01*
X157962603Y-91980151D01*
X157962597Y-91980151D01*
X157794543Y-91999085D01*
X157634905Y-92054945D01*
X157634902Y-92054947D01*
X157491715Y-92144918D01*
X157491709Y-92144923D01*
X157372123Y-92264509D01*
X157372118Y-92264515D01*
X157282147Y-92407702D01*
X157282145Y-92407705D01*
X157226285Y-92567343D01*
X157207351Y-92735397D01*
X157207351Y-92735402D01*
X157226285Y-92903456D01*
X157282145Y-93063092D01*
X157352951Y-93175778D01*
X157371951Y-93243014D01*
X157351584Y-93309850D01*
X157298316Y-93355064D01*
X157229060Y-93364302D01*
X157181985Y-93346744D01*
X157147292Y-93324945D01*
X157147291Y-93324944D01*
X157147290Y-93324944D01*
X157104154Y-93309850D01*
X156987656Y-93269085D01*
X156819603Y-93250151D01*
X156819597Y-93250151D01*
X156651543Y-93269085D01*
X156491905Y-93324945D01*
X156491902Y-93324947D01*
X156348715Y-93414918D01*
X156348709Y-93414923D01*
X156229123Y-93534509D01*
X156229118Y-93534515D01*
X156139147Y-93677702D01*
X156139145Y-93677705D01*
X156083285Y-93837343D01*
X156064351Y-94005397D01*
X156064351Y-94005403D01*
X156080051Y-94144748D01*
X156067996Y-94213570D01*
X156020647Y-94264949D01*
X155953037Y-94282573D01*
X155942948Y-94281851D01*
X155803604Y-94266151D01*
X155803597Y-94266151D01*
X155635541Y-94285086D01*
X155613177Y-94292911D01*
X155543398Y-94296470D01*
X155482772Y-94261739D01*
X155450547Y-94199745D01*
X155449006Y-94161984D01*
X155466649Y-94005402D01*
X155466649Y-94005397D01*
X155447714Y-93837343D01*
X155391854Y-93677705D01*
X155391852Y-93677702D01*
X155301881Y-93534515D01*
X155301876Y-93534509D01*
X155182290Y-93414923D01*
X155182284Y-93414918D01*
X155039097Y-93324947D01*
X155039094Y-93324945D01*
X154879456Y-93269085D01*
X154711403Y-93250151D01*
X154711397Y-93250151D01*
X154543343Y-93269085D01*
X154383705Y-93324945D01*
X154383702Y-93324947D01*
X154240515Y-93414918D01*
X154240509Y-93414923D01*
X154120923Y-93534509D01*
X154120918Y-93534515D01*
X154030947Y-93677702D01*
X154030945Y-93677705D01*
X153975085Y-93837343D01*
X153956151Y-94005397D01*
X153956151Y-94005403D01*
X153971851Y-94144748D01*
X153959796Y-94213570D01*
X153912447Y-94264949D01*
X153844837Y-94282573D01*
X153834748Y-94281851D01*
X153695404Y-94266151D01*
X153695397Y-94266151D01*
X153527340Y-94285086D01*
X153520551Y-94286636D01*
X153520004Y-94284242D01*
X153461632Y-94287216D01*
X153401009Y-94252481D01*
X153368788Y-94190484D01*
X153367249Y-94152732D01*
X153383849Y-94005402D01*
X153383849Y-94005397D01*
X153364914Y-93837343D01*
X153309054Y-93677705D01*
X153309052Y-93677702D01*
X153219081Y-93534515D01*
X153219076Y-93534509D01*
X153099490Y-93414923D01*
X153099484Y-93414918D01*
X152956297Y-93324947D01*
X152956294Y-93324945D01*
X152796656Y-93269085D01*
X152628603Y-93250151D01*
X152628597Y-93250151D01*
X152460543Y-93269085D01*
X152300905Y-93324945D01*
X152300902Y-93324947D01*
X152157715Y-93414918D01*
X152157709Y-93414923D01*
X152038123Y-93534509D01*
X152038118Y-93534515D01*
X151948147Y-93677702D01*
X151948145Y-93677705D01*
X151892285Y-93837343D01*
X151873351Y-94005397D01*
X151873351Y-94005403D01*
X151889051Y-94144748D01*
X151876996Y-94213570D01*
X151829647Y-94264949D01*
X151762037Y-94282573D01*
X151751948Y-94281851D01*
X151612604Y-94266151D01*
X151612597Y-94266151D01*
X151444543Y-94285085D01*
X151284905Y-94340945D01*
X151284902Y-94340947D01*
X151141715Y-94430918D01*
X151141709Y-94430923D01*
X151022123Y-94550509D01*
X151022118Y-94550515D01*
X150932147Y-94693702D01*
X150932145Y-94693705D01*
X150876285Y-94853343D01*
X150857351Y-95021397D01*
X150857351Y-95021403D01*
X150863702Y-95077771D01*
X150851648Y-95146592D01*
X150804298Y-95197972D01*
X150736688Y-95215596D01*
X150726599Y-95214874D01*
X150647404Y-95205951D01*
X150647397Y-95205951D01*
X150479343Y-95224885D01*
X150319705Y-95280745D01*
X150319702Y-95280747D01*
X150176515Y-95370718D01*
X150176509Y-95370723D01*
X150056923Y-95490309D01*
X150056918Y-95490315D01*
X149966947Y-95633502D01*
X149966945Y-95633505D01*
X149911085Y-95793143D01*
X149892151Y-95961197D01*
X149892151Y-95961202D01*
X149911085Y-96129256D01*
X149966945Y-96288894D01*
X149966947Y-96288897D01*
X150056918Y-96432084D01*
X150056923Y-96432090D01*
X150176509Y-96551676D01*
X150176515Y-96551681D01*
X150319702Y-96641652D01*
X150319705Y-96641654D01*
X150319709Y-96641655D01*
X150319710Y-96641656D01*
X150338012Y-96648060D01*
X150479343Y-96697514D01*
X150647397Y-96716449D01*
X150647400Y-96716449D01*
X150647403Y-96716449D01*
X150778050Y-96701728D01*
X150815459Y-96697513D01*
X150815469Y-96697509D01*
X150815873Y-96697418D01*
X150816155Y-96697435D01*
X150822379Y-96696734D01*
X150822501Y-96697823D01*
X150885613Y-96701681D01*
X150941976Y-96742972D01*
X150967069Y-96808180D01*
X150966703Y-96832187D01*
X150958951Y-96900994D01*
X150958951Y-96901002D01*
X150977886Y-97069057D01*
X150980272Y-97075876D01*
X150983833Y-97145654D01*
X150949104Y-97206282D01*
X150887111Y-97238509D01*
X150822276Y-97233872D01*
X150815457Y-97231486D01*
X150647403Y-97212551D01*
X150647397Y-97212551D01*
X150479343Y-97231485D01*
X150319705Y-97287345D01*
X150319702Y-97287347D01*
X150176515Y-97377318D01*
X150176509Y-97377323D01*
X150056923Y-97496909D01*
X150056918Y-97496915D01*
X149966947Y-97640102D01*
X149966945Y-97640105D01*
X149911085Y-97799743D01*
X149892151Y-97967797D01*
X149892151Y-97967802D01*
X149911085Y-98135856D01*
X149966945Y-98295494D01*
X149966947Y-98295497D01*
X150056918Y-98438684D01*
X150056923Y-98438690D01*
X150176509Y-98558276D01*
X150176515Y-98558281D01*
X150319702Y-98648252D01*
X150319705Y-98648254D01*
X150319709Y-98648255D01*
X150319710Y-98648256D01*
X150376467Y-98668116D01*
X150479343Y-98704114D01*
X150647397Y-98723049D01*
X150647400Y-98723049D01*
X150647403Y-98723049D01*
X150773444Y-98708847D01*
X150815459Y-98704113D01*
X150854754Y-98690362D01*
X150924532Y-98686800D01*
X150985160Y-98721528D01*
X151017388Y-98783521D01*
X151010984Y-98853097D01*
X151008673Y-98858370D01*
X150952485Y-99018943D01*
X150933551Y-99186997D01*
X150933551Y-99187002D01*
X150952485Y-99355056D01*
X151008345Y-99514694D01*
X151008347Y-99514697D01*
X151098318Y-99657884D01*
X151098323Y-99657890D01*
X151217909Y-99777476D01*
X151217915Y-99777481D01*
X151361102Y-99867452D01*
X151361105Y-99867454D01*
X151361109Y-99867455D01*
X151361110Y-99867456D01*
X151398228Y-99880444D01*
X151520743Y-99923314D01*
X151688797Y-99942249D01*
X151688800Y-99942249D01*
X151688803Y-99942249D01*
X151856856Y-99923314D01*
X151873257Y-99917575D01*
X152016490Y-99867456D01*
X152016492Y-99867454D01*
X152016494Y-99867454D01*
X152016497Y-99867452D01*
X152159684Y-99777481D01*
X152159685Y-99777480D01*
X152159690Y-99777477D01*
X152279277Y-99657890D01*
X152339703Y-99561723D01*
X152369252Y-99514697D01*
X152369254Y-99514694D01*
X152369254Y-99514692D01*
X152369256Y-99514690D01*
X152425113Y-99355059D01*
X152425113Y-99355058D01*
X152425114Y-99355056D01*
X152444049Y-99187002D01*
X152444049Y-99186997D01*
X152425114Y-99018943D01*
X152369254Y-98859305D01*
X152366234Y-98853034D01*
X152368309Y-98852034D01*
X152352274Y-98795281D01*
X152372644Y-98728446D01*
X152425913Y-98683234D01*
X152495169Y-98673998D01*
X152517222Y-98679507D01*
X152587541Y-98704113D01*
X152587540Y-98704113D01*
X152755597Y-98723049D01*
X152755600Y-98723049D01*
X152755603Y-98723049D01*
X152923659Y-98704113D01*
X152933351Y-98700722D01*
X153003129Y-98697158D01*
X153063758Y-98731885D01*
X153095987Y-98793877D01*
X153091351Y-98858716D01*
X153035286Y-99018942D01*
X153016351Y-99186997D01*
X153016351Y-99187002D01*
X153035285Y-99355056D01*
X153091145Y-99514694D01*
X153091147Y-99514697D01*
X153181118Y-99657884D01*
X153181123Y-99657890D01*
X153300709Y-99777476D01*
X153300715Y-99777481D01*
X153443902Y-99867452D01*
X153443905Y-99867454D01*
X153443909Y-99867455D01*
X153443910Y-99867456D01*
X153481028Y-99880444D01*
X153603543Y-99923314D01*
X153771597Y-99942249D01*
X153771600Y-99942249D01*
X153771603Y-99942249D01*
X153939656Y-99923314D01*
X153956057Y-99917575D01*
X154099290Y-99867456D01*
X154099292Y-99867454D01*
X154099294Y-99867454D01*
X154099297Y-99867452D01*
X154242484Y-99777481D01*
X154242485Y-99777480D01*
X154242490Y-99777477D01*
X154362077Y-99657890D01*
X154422503Y-99561723D01*
X154452052Y-99514697D01*
X154452054Y-99514694D01*
X154452054Y-99514692D01*
X154452056Y-99514690D01*
X154507913Y-99355059D01*
X154507913Y-99355058D01*
X154507914Y-99355056D01*
X154526849Y-99187002D01*
X154526849Y-99186997D01*
X154507913Y-99018940D01*
X154507913Y-99018938D01*
X154451849Y-98858717D01*
X154448287Y-98788938D01*
X154483015Y-98728311D01*
X154545009Y-98696083D01*
X154609846Y-98700721D01*
X154619541Y-98704113D01*
X154787597Y-98723049D01*
X154787600Y-98723049D01*
X154787603Y-98723049D01*
X154955659Y-98704113D01*
X154955661Y-98704113D01*
X155058535Y-98668116D01*
X155128314Y-98664554D01*
X155188941Y-98699282D01*
X155221169Y-98761276D01*
X155214764Y-98830851D01*
X155204484Y-98851128D01*
X155199346Y-98859304D01*
X155199345Y-98859305D01*
X155143485Y-99018943D01*
X155124551Y-99186997D01*
X155124551Y-99187002D01*
X155143485Y-99355056D01*
X155199345Y-99514694D01*
X155199347Y-99514697D01*
X155289318Y-99657884D01*
X155289323Y-99657890D01*
X155408909Y-99777476D01*
X155408915Y-99777481D01*
X155552102Y-99867452D01*
X155552105Y-99867454D01*
X155552109Y-99867455D01*
X155552110Y-99867456D01*
X155589228Y-99880444D01*
X155711743Y-99923314D01*
X155879797Y-99942249D01*
X155879800Y-99942249D01*
X155879803Y-99942249D01*
X156005844Y-99928047D01*
X156047859Y-99923313D01*
X156057801Y-99919833D01*
X156064258Y-99917575D01*
X156134036Y-99914012D01*
X156194664Y-99948740D01*
X156226892Y-100010733D01*
X156228434Y-100048499D01*
X156216751Y-100152195D01*
X156216751Y-100152202D01*
X156235685Y-100320256D01*
X156291545Y-100479894D01*
X156291547Y-100479897D01*
X156381518Y-100623084D01*
X156381523Y-100623090D01*
X156501109Y-100742676D01*
X156501115Y-100742681D01*
X156644302Y-100832652D01*
X156644305Y-100832654D01*
X156644309Y-100832655D01*
X156644310Y-100832656D01*
X156714416Y-100857187D01*
X156803943Y-100888514D01*
X156971997Y-100907449D01*
X156972000Y-100907449D01*
X156972003Y-100907449D01*
X157129900Y-100889658D01*
X157198722Y-100901712D01*
X157250102Y-100949061D01*
X157267726Y-101016672D01*
X157260826Y-101053832D01*
X157226286Y-101152542D01*
X157207351Y-101320597D01*
X157207351Y-101320604D01*
X157216600Y-101402697D01*
X157204545Y-101471519D01*
X157157196Y-101522898D01*
X157089585Y-101540522D01*
X157079497Y-101539800D01*
X156997404Y-101530551D01*
X156997397Y-101530551D01*
X156829343Y-101549485D01*
X156669705Y-101605345D01*
X156669702Y-101605347D01*
X156526515Y-101695318D01*
X156526509Y-101695323D01*
X156406923Y-101814909D01*
X156406918Y-101814915D01*
X156316947Y-101958102D01*
X156316944Y-101958107D01*
X156261085Y-102117746D01*
X156258349Y-102142034D01*
X156231282Y-102206448D01*
X156173687Y-102246003D01*
X156121246Y-102251370D01*
X156062505Y-102244752D01*
X156062498Y-102244752D01*
X155894444Y-102263686D01*
X155734806Y-102319546D01*
X155734803Y-102319548D01*
X155591616Y-102409519D01*
X155591610Y-102409524D01*
X155472024Y-102529110D01*
X155472019Y-102529116D01*
X155382048Y-102672303D01*
X155382046Y-102672306D01*
X155326186Y-102831944D01*
X155307252Y-102999998D01*
X155307252Y-103000003D01*
X155326186Y-103168057D01*
X155382046Y-103327695D01*
X155382048Y-103327698D01*
X155472019Y-103470885D01*
X155472024Y-103470891D01*
X155591610Y-103590477D01*
X155591616Y-103590482D01*
X155734803Y-103680453D01*
X155734806Y-103680455D01*
X155734810Y-103680456D01*
X155734811Y-103680457D01*
X155805666Y-103705250D01*
X155894444Y-103736315D01*
X156062498Y-103755250D01*
X156062501Y-103755250D01*
X156062504Y-103755250D01*
X156230557Y-103736315D01*
X156230560Y-103736314D01*
X156390191Y-103680457D01*
X156390193Y-103680455D01*
X156390195Y-103680455D01*
X156390198Y-103680453D01*
X156533385Y-103590482D01*
X156533386Y-103590481D01*
X156533391Y-103590478D01*
X156652978Y-103470891D01*
X156652982Y-103470885D01*
X156742953Y-103327698D01*
X156742956Y-103327692D01*
X156742957Y-103327691D01*
X156798814Y-103168060D01*
X156801551Y-103143767D01*
X156828615Y-103079355D01*
X156886209Y-103039798D01*
X156938655Y-103034430D01*
X156997398Y-103041049D01*
X156997400Y-103041049D01*
X156997403Y-103041049D01*
X157165456Y-103022114D01*
X157179008Y-103017372D01*
X157325090Y-102966256D01*
X157325092Y-102966254D01*
X157325094Y-102966254D01*
X157325097Y-102966252D01*
X157468284Y-102876281D01*
X157468285Y-102876280D01*
X157468290Y-102876277D01*
X157587877Y-102756690D01*
X157587881Y-102756684D01*
X157677852Y-102613497D01*
X157677854Y-102613494D01*
X157677854Y-102613492D01*
X157677856Y-102613490D01*
X157733713Y-102453859D01*
X157733713Y-102453858D01*
X157733714Y-102453856D01*
X157752649Y-102285802D01*
X157752649Y-102285797D01*
X157743399Y-102203703D01*
X157755453Y-102134881D01*
X157802802Y-102083501D01*
X157870413Y-102065877D01*
X157880503Y-102066599D01*
X157962597Y-102075849D01*
X157962600Y-102075849D01*
X157962603Y-102075849D01*
X158088644Y-102061647D01*
X158130659Y-102056913D01*
X158199945Y-102032668D01*
X158269722Y-102029106D01*
X158330349Y-102063834D01*
X158362577Y-102125827D01*
X158364119Y-102163593D01*
X158350351Y-102285795D01*
X158350351Y-102285802D01*
X158369285Y-102453856D01*
X158425145Y-102613494D01*
X158425147Y-102613497D01*
X158515118Y-102756684D01*
X158515123Y-102756690D01*
X158634709Y-102876276D01*
X158634715Y-102876281D01*
X158777902Y-102966252D01*
X158777905Y-102966254D01*
X158777909Y-102966255D01*
X158777910Y-102966256D01*
X158920343Y-103016095D01*
X158952322Y-103039031D01*
X158995034Y-103028824D01*
X159002596Y-103029443D01*
X159105598Y-103041049D01*
X159105600Y-103041049D01*
X159105603Y-103041049D01*
X159273656Y-103022114D01*
X159287208Y-103017372D01*
X159433290Y-102966256D01*
X159433292Y-102966254D01*
X159433294Y-102966254D01*
X159433297Y-102966252D01*
X159576484Y-102876281D01*
X159576485Y-102876280D01*
X159576490Y-102876277D01*
X159696077Y-102756690D01*
X159696081Y-102756684D01*
X159786052Y-102613497D01*
X159786054Y-102613494D01*
X159786054Y-102613492D01*
X159786056Y-102613490D01*
X159841913Y-102453859D01*
X159841913Y-102453858D01*
X159841914Y-102453856D01*
X159860849Y-102285802D01*
X159860849Y-102285798D01*
X159855578Y-102239022D01*
X159851925Y-102206600D01*
X159863979Y-102137780D01*
X159911328Y-102086400D01*
X159978938Y-102068775D01*
X159989017Y-102069496D01*
X160035458Y-102074728D01*
X160045399Y-102075849D01*
X160045400Y-102075849D01*
X160045403Y-102075849D01*
X160171444Y-102061647D01*
X160213459Y-102056913D01*
X160282745Y-102032668D01*
X160352522Y-102029106D01*
X160413149Y-102063834D01*
X160445377Y-102125827D01*
X160446919Y-102163593D01*
X160433151Y-102285795D01*
X160433151Y-102285802D01*
X160452085Y-102453856D01*
X160507945Y-102613494D01*
X160507947Y-102613497D01*
X160597918Y-102756684D01*
X160597923Y-102756690D01*
X160717509Y-102876276D01*
X160717515Y-102876281D01*
X160860702Y-102966252D01*
X160860705Y-102966254D01*
X160860709Y-102966255D01*
X160860710Y-102966256D01*
X160918847Y-102986599D01*
X161020343Y-103022114D01*
X161188397Y-103041049D01*
X161188400Y-103041049D01*
X161188403Y-103041049D01*
X161291404Y-103029443D01*
X161356459Y-103022113D01*
X161410687Y-103003137D01*
X161480463Y-102999575D01*
X161541091Y-103034303D01*
X161573319Y-103096296D01*
X161574861Y-103106291D01*
X161576187Y-103118057D01*
X161632046Y-103277695D01*
X161632048Y-103277698D01*
X161722019Y-103420885D01*
X161722024Y-103420891D01*
X161841610Y-103540477D01*
X161841616Y-103540482D01*
X161984803Y-103630453D01*
X161984806Y-103630455D01*
X161984810Y-103630456D01*
X161984811Y-103630457D01*
X162057414Y-103655861D01*
X162144444Y-103686315D01*
X162312498Y-103705250D01*
X162312501Y-103705250D01*
X162312504Y-103705250D01*
X162480557Y-103686315D01*
X162520578Y-103672311D01*
X162640191Y-103630457D01*
X162640193Y-103630455D01*
X162640195Y-103630455D01*
X162640198Y-103630453D01*
X162783385Y-103540482D01*
X162783386Y-103540481D01*
X162783391Y-103540478D01*
X162902978Y-103420891D01*
X162920507Y-103392992D01*
X162972840Y-103346702D01*
X163039385Y-103335744D01*
X163044441Y-103336313D01*
X163044442Y-103336314D01*
X163121630Y-103345011D01*
X163212499Y-103355250D01*
X163212501Y-103355250D01*
X163212504Y-103355250D01*
X163380557Y-103336315D01*
X163405183Y-103327698D01*
X163540191Y-103280457D01*
X163540193Y-103280455D01*
X163540195Y-103280455D01*
X163540198Y-103280453D01*
X163683385Y-103190482D01*
X163683386Y-103190481D01*
X163683391Y-103190478D01*
X163802978Y-103070891D01*
X163827450Y-103031944D01*
X163892953Y-102927698D01*
X163892955Y-102927695D01*
X163892955Y-102927693D01*
X163892957Y-102927691D01*
X163948814Y-102768060D01*
X163948814Y-102768059D01*
X163948815Y-102768057D01*
X163967750Y-102600003D01*
X163967750Y-102599998D01*
X163948815Y-102431944D01*
X163901295Y-102296141D01*
X163892957Y-102272311D01*
X163892956Y-102272310D01*
X163892955Y-102272306D01*
X163892953Y-102272303D01*
X163802982Y-102129116D01*
X163802977Y-102129110D01*
X163683391Y-102009524D01*
X163683385Y-102009519D01*
X163540198Y-101919548D01*
X163540195Y-101919546D01*
X163380557Y-101863686D01*
X163212504Y-101844752D01*
X163212498Y-101844752D01*
X163044443Y-101863687D01*
X162935760Y-101901717D01*
X162865982Y-101905278D01*
X162805354Y-101870549D01*
X162773127Y-101808556D01*
X162779532Y-101738980D01*
X162789813Y-101718702D01*
X162834054Y-101648293D01*
X162834053Y-101648293D01*
X162834056Y-101648290D01*
X162889913Y-101488659D01*
X162889913Y-101488658D01*
X162889914Y-101488656D01*
X162908849Y-101320602D01*
X162908849Y-101320597D01*
X162889913Y-101152540D01*
X162889913Y-101152538D01*
X162843473Y-101019821D01*
X162839911Y-100950042D01*
X162874639Y-100889415D01*
X162936633Y-100857187D01*
X163001469Y-100861825D01*
X163077739Y-100888513D01*
X163245797Y-100907449D01*
X163245800Y-100907449D01*
X163245803Y-100907449D01*
X163413856Y-100888514D01*
X163413859Y-100888513D01*
X163573490Y-100832656D01*
X163573492Y-100832654D01*
X163573494Y-100832654D01*
X163573497Y-100832652D01*
X163716684Y-100742681D01*
X163716685Y-100742680D01*
X163716690Y-100742677D01*
X163836277Y-100623090D01*
X163840976Y-100615612D01*
X163926252Y-100479897D01*
X163926254Y-100479894D01*
X163926254Y-100479892D01*
X163926256Y-100479890D01*
X163982113Y-100320259D01*
X163982113Y-100320258D01*
X163982114Y-100320256D01*
X164001049Y-100152202D01*
X164001049Y-100152197D01*
X163984176Y-100002447D01*
X163996230Y-99933625D01*
X164043579Y-99882245D01*
X164111190Y-99864621D01*
X164121259Y-99865341D01*
X164127542Y-99866049D01*
X164203755Y-99857461D01*
X164295598Y-99847114D01*
X164295601Y-99847113D01*
X164455232Y-99791256D01*
X164542826Y-99736217D01*
X164610063Y-99717216D01*
X164676898Y-99737583D01*
X164722113Y-99790851D01*
X164732799Y-99841210D01*
X164732799Y-108187285D01*
X164713114Y-108254324D01*
X164660310Y-108300079D01*
X164622684Y-108310505D01*
X164594447Y-108313686D01*
X164434808Y-108369545D01*
X164434803Y-108369548D01*
X164291616Y-108459519D01*
X164291610Y-108459524D01*
X164172024Y-108579110D01*
X164172019Y-108579116D01*
X164082048Y-108722303D01*
X164082046Y-108722306D01*
X164026186Y-108881944D01*
X164007252Y-109049998D01*
X164007252Y-109050003D01*
X164026186Y-109218057D01*
X164082046Y-109377695D01*
X164082048Y-109377698D01*
X164172019Y-109520885D01*
X164172024Y-109520891D01*
X164291610Y-109640477D01*
X164291616Y-109640482D01*
X164434803Y-109730453D01*
X164434806Y-109730455D01*
X164434810Y-109730456D01*
X164434811Y-109730457D01*
X164594442Y-109786314D01*
X164622683Y-109789496D01*
X164687095Y-109816561D01*
X164726651Y-109874155D01*
X164732799Y-109912716D01*
X164732799Y-110266260D01*
X164713114Y-110333299D01*
X164660310Y-110379054D01*
X164649754Y-110383301D01*
X164619910Y-110393743D01*
X164619900Y-110393748D01*
X164476715Y-110483718D01*
X164476709Y-110483723D01*
X164357123Y-110603309D01*
X164357121Y-110603312D01*
X164303293Y-110688978D01*
X164250958Y-110735269D01*
X164181905Y-110745916D01*
X164118056Y-110717541D01*
X164093307Y-110688978D01*
X164039478Y-110603312D01*
X164039476Y-110603309D01*
X163919890Y-110483723D01*
X163919884Y-110483718D01*
X163776697Y-110393747D01*
X163776694Y-110393745D01*
X163617056Y-110337885D01*
X163528064Y-110327859D01*
X163463650Y-110300793D01*
X163424095Y-110243198D01*
X163421958Y-110173361D01*
X163424907Y-110163684D01*
X163474113Y-110023061D01*
X163474113Y-110023059D01*
X163493049Y-109855002D01*
X163493049Y-109854997D01*
X163474114Y-109686943D01*
X163418254Y-109527305D01*
X163418252Y-109527302D01*
X163328281Y-109384115D01*
X163328276Y-109384109D01*
X163208690Y-109264523D01*
X163208684Y-109264518D01*
X163065497Y-109174547D01*
X163065494Y-109174545D01*
X162905856Y-109118685D01*
X162737803Y-109099751D01*
X162737797Y-109099751D01*
X162569743Y-109118685D01*
X162410105Y-109174545D01*
X162410102Y-109174547D01*
X162266915Y-109264518D01*
X162266909Y-109264523D01*
X162147323Y-109384109D01*
X162147318Y-109384115D01*
X162057347Y-109527302D01*
X162057342Y-109527313D01*
X162033153Y-109596441D01*
X161992431Y-109653217D01*
X161927479Y-109678964D01*
X161858917Y-109665508D01*
X161808514Y-109617120D01*
X161799071Y-109596441D01*
X161792657Y-109578113D01*
X161792652Y-109578102D01*
X161702681Y-109434915D01*
X161702676Y-109434909D01*
X161583090Y-109315323D01*
X161583084Y-109315318D01*
X161439897Y-109225347D01*
X161439894Y-109225345D01*
X161280256Y-109169485D01*
X161112203Y-109150551D01*
X161112197Y-109150551D01*
X160944143Y-109169485D01*
X160784505Y-109225345D01*
X160784502Y-109225347D01*
X160641315Y-109315318D01*
X160641309Y-109315323D01*
X160521723Y-109434909D01*
X160521718Y-109434915D01*
X160431747Y-109578102D01*
X160431745Y-109578105D01*
X160375885Y-109737743D01*
X160356951Y-109905797D01*
X160356951Y-109905802D01*
X160375886Y-110073857D01*
X160395040Y-110128597D01*
X160398601Y-110198376D01*
X160363872Y-110259003D01*
X160301878Y-110291230D01*
X160277998Y-110293551D01*
X160273997Y-110293551D01*
X160105943Y-110312485D01*
X159946305Y-110368345D01*
X159946302Y-110368347D01*
X159803115Y-110458318D01*
X159803109Y-110458323D01*
X159683523Y-110577909D01*
X159683518Y-110577915D01*
X159593547Y-110721102D01*
X159593545Y-110721105D01*
X159537685Y-110880743D01*
X159518751Y-111048797D01*
X159518751Y-111048803D01*
X159534124Y-111185249D01*
X159522069Y-111254071D01*
X159474720Y-111305450D01*
X159407110Y-111323074D01*
X159397021Y-111322352D01*
X159283404Y-111309551D01*
X159283396Y-111309551D01*
X159179699Y-111321234D01*
X159110877Y-111309179D01*
X159059498Y-111261830D01*
X159041874Y-111194219D01*
X159048775Y-111157058D01*
X159053485Y-111143596D01*
X159054513Y-111140659D01*
X159073449Y-110972600D01*
X159066997Y-110915335D01*
X159054514Y-110804543D01*
X159004303Y-110661049D01*
X158998656Y-110644910D01*
X158998655Y-110644909D01*
X158998654Y-110644905D01*
X158998652Y-110644902D01*
X158908681Y-110501715D01*
X158908676Y-110501709D01*
X158789090Y-110382123D01*
X158789084Y-110382118D01*
X158645897Y-110292147D01*
X158645894Y-110292145D01*
X158486256Y-110236285D01*
X158318203Y-110217351D01*
X158318197Y-110217351D01*
X158150143Y-110236285D01*
X157990505Y-110292145D01*
X157990502Y-110292147D01*
X157847315Y-110382118D01*
X157847309Y-110382123D01*
X157727723Y-110501709D01*
X157727718Y-110501715D01*
X157637747Y-110644902D01*
X157637745Y-110644905D01*
X157581885Y-110804543D01*
X157562951Y-110972597D01*
X157562951Y-110972602D01*
X157581885Y-111140656D01*
X157637745Y-111300294D01*
X157637747Y-111300297D01*
X157727718Y-111443484D01*
X157727723Y-111443490D01*
X157847309Y-111563076D01*
X157847315Y-111563081D01*
X157990502Y-111653052D01*
X157990505Y-111653054D01*
X157990509Y-111653055D01*
X157990510Y-111653056D01*
X158023721Y-111664677D01*
X158150143Y-111708914D01*
X158318197Y-111727849D01*
X158318200Y-111727849D01*
X158318203Y-111727849D01*
X158421899Y-111716165D01*
X158490721Y-111728219D01*
X158542101Y-111775568D01*
X158559725Y-111843179D01*
X158552826Y-111880335D01*
X158547086Y-111896738D01*
X158547086Y-111896740D01*
X158528151Y-112064797D01*
X158528151Y-112064802D01*
X158547086Y-112232857D01*
X158570288Y-112299166D01*
X158573849Y-112368945D01*
X158539120Y-112429572D01*
X158477126Y-112461799D01*
X158439363Y-112463340D01*
X158343604Y-112452551D01*
X158343597Y-112452551D01*
X158175543Y-112471485D01*
X158015905Y-112527345D01*
X158015902Y-112527347D01*
X157872715Y-112617318D01*
X157872709Y-112617323D01*
X157753123Y-112736909D01*
X157753118Y-112736915D01*
X157663147Y-112880102D01*
X157663145Y-112880105D01*
X157607285Y-113039743D01*
X157588351Y-113207797D01*
X157588351Y-113207802D01*
X157607285Y-113375856D01*
X157663145Y-113535494D01*
X157663147Y-113535497D01*
X157753118Y-113678684D01*
X157753123Y-113678690D01*
X157872709Y-113798276D01*
X157872715Y-113798281D01*
X158015902Y-113888252D01*
X158015905Y-113888254D01*
X158015909Y-113888255D01*
X158015910Y-113888256D01*
X158157068Y-113937649D01*
X158182114Y-113946413D01*
X158181073Y-113949386D01*
X158229942Y-113976733D01*
X158262789Y-114038400D01*
X158257082Y-114108036D01*
X158214633Y-114163533D01*
X158148919Y-114187269D01*
X158141356Y-114187500D01*
X156572970Y-114187500D01*
X156505931Y-114167815D01*
X156460176Y-114115011D01*
X156450232Y-114045853D01*
X156467977Y-113997527D01*
X156521561Y-113912249D01*
X156534856Y-113891090D01*
X156590713Y-113731459D01*
X156590713Y-113731458D01*
X156590714Y-113731456D01*
X156609649Y-113563402D01*
X156609649Y-113563397D01*
X156590714Y-113395343D01*
X156544769Y-113264039D01*
X156534856Y-113235710D01*
X156534855Y-113235709D01*
X156534854Y-113235705D01*
X156534852Y-113235702D01*
X156444881Y-113092515D01*
X156444876Y-113092509D01*
X156325290Y-112972923D01*
X156325284Y-112972918D01*
X156182097Y-112882947D01*
X156182094Y-112882945D01*
X156022456Y-112827085D01*
X155854403Y-112808151D01*
X155854397Y-112808151D01*
X155686343Y-112827085D01*
X155526705Y-112882945D01*
X155526702Y-112882947D01*
X155383515Y-112972918D01*
X155383509Y-112972923D01*
X155263923Y-113092509D01*
X155263918Y-113092515D01*
X155173947Y-113235702D01*
X155173945Y-113235705D01*
X155118085Y-113395343D01*
X155099151Y-113563397D01*
X155099151Y-113563402D01*
X155118085Y-113731456D01*
X155173945Y-113891093D01*
X155240823Y-113997527D01*
X155259824Y-114064764D01*
X155239457Y-114131599D01*
X155186189Y-114176814D01*
X155135830Y-114187500D01*
X153947330Y-114187500D01*
X153880291Y-114167815D01*
X153834536Y-114115011D01*
X153824592Y-114045853D01*
X153842337Y-113997527D01*
X153879961Y-113937649D01*
X153893256Y-113916490D01*
X153949113Y-113756859D01*
X153949113Y-113756858D01*
X153949114Y-113756856D01*
X153968049Y-113588802D01*
X153968049Y-113588797D01*
X153949114Y-113420743D01*
X153893254Y-113261105D01*
X153893252Y-113261102D01*
X153803281Y-113117915D01*
X153803276Y-113117909D01*
X153683690Y-112998323D01*
X153683684Y-112998318D01*
X153540497Y-112908347D01*
X153540494Y-112908345D01*
X153380856Y-112852485D01*
X153212803Y-112833551D01*
X153212797Y-112833551D01*
X153044743Y-112852485D01*
X152885105Y-112908345D01*
X152885102Y-112908347D01*
X152741915Y-112998318D01*
X152741909Y-112998323D01*
X152622323Y-113117909D01*
X152622318Y-113117915D01*
X152532347Y-113261102D01*
X152532345Y-113261105D01*
X152476485Y-113420743D01*
X152457551Y-113588797D01*
X152457551Y-113588802D01*
X152476485Y-113756856D01*
X152532345Y-113916493D01*
X152583263Y-113997527D01*
X152602264Y-114064764D01*
X152581897Y-114131599D01*
X152528629Y-114176814D01*
X152478270Y-114187500D01*
X130278575Y-114187500D01*
X130211536Y-114167815D01*
X130165781Y-114115011D01*
X130155837Y-114045853D01*
X130184862Y-113982297D01*
X130227681Y-113950425D01*
X130416279Y-113865545D01*
X130695863Y-113696530D01*
X130953036Y-113495048D01*
X131184048Y-113264036D01*
X131385530Y-113006863D01*
X131554545Y-112727279D01*
X131688627Y-112429361D01*
X131785821Y-112117453D01*
X131844710Y-111796104D01*
X131856903Y-111594517D01*
X131880599Y-111528791D01*
X131936069Y-111486307D01*
X132005702Y-111480557D01*
X132067389Y-111513367D01*
X132068358Y-111514325D01*
X132117109Y-111563076D01*
X132117115Y-111563081D01*
X132260302Y-111653052D01*
X132260305Y-111653054D01*
X132260309Y-111653055D01*
X132260310Y-111653056D01*
X132293521Y-111664677D01*
X132419943Y-111708914D01*
X132587997Y-111727849D01*
X132588000Y-111727849D01*
X132588002Y-111727849D01*
X132604669Y-111725971D01*
X132673491Y-111738025D01*
X132724870Y-111785374D01*
X132742495Y-111852984D01*
X132741035Y-111864372D01*
X132741466Y-111864421D01*
X132721751Y-112039397D01*
X132721751Y-112039402D01*
X132738717Y-112189980D01*
X132726663Y-112258802D01*
X132679314Y-112310182D01*
X132611703Y-112327806D01*
X132601616Y-112327085D01*
X132595588Y-112326406D01*
X132588000Y-112325551D01*
X132587999Y-112325551D01*
X132587998Y-112325551D01*
X132587997Y-112325551D01*
X132419943Y-112344485D01*
X132260305Y-112400345D01*
X132260302Y-112400347D01*
X132117115Y-112490318D01*
X132117109Y-112490323D01*
X131997523Y-112609909D01*
X131997518Y-112609915D01*
X131907547Y-112753102D01*
X131907545Y-112753105D01*
X131851685Y-112912743D01*
X131832751Y-113080797D01*
X131832751Y-113080802D01*
X131851685Y-113248856D01*
X131907545Y-113408494D01*
X131907547Y-113408497D01*
X131997518Y-113551684D01*
X131997523Y-113551690D01*
X132117109Y-113671276D01*
X132117115Y-113671281D01*
X132260302Y-113761252D01*
X132260305Y-113761254D01*
X132260309Y-113761255D01*
X132260310Y-113761256D01*
X132293521Y-113772877D01*
X132419943Y-113817114D01*
X132587997Y-113836049D01*
X132588000Y-113836049D01*
X132588003Y-113836049D01*
X132756056Y-113817114D01*
X132756059Y-113817113D01*
X132915690Y-113761256D01*
X132915692Y-113761254D01*
X132915694Y-113761254D01*
X132915697Y-113761252D01*
X133058884Y-113671281D01*
X133058885Y-113671280D01*
X133058890Y-113671277D01*
X133178477Y-113551690D01*
X133232306Y-113466021D01*
X133284641Y-113419731D01*
X133353695Y-113409083D01*
X133417543Y-113437458D01*
X133442293Y-113466021D01*
X133460530Y-113495045D01*
X133496123Y-113551690D01*
X133615709Y-113671276D01*
X133615715Y-113671281D01*
X133758902Y-113761252D01*
X133758905Y-113761254D01*
X133758909Y-113761255D01*
X133758910Y-113761256D01*
X133792121Y-113772877D01*
X133918543Y-113817114D01*
X134086597Y-113836049D01*
X134086600Y-113836049D01*
X134086603Y-113836049D01*
X134254656Y-113817114D01*
X134254659Y-113817113D01*
X134414290Y-113761256D01*
X134414292Y-113761254D01*
X134414294Y-113761254D01*
X134414297Y-113761252D01*
X134557484Y-113671281D01*
X134557485Y-113671280D01*
X134557490Y-113671277D01*
X134677077Y-113551690D01*
X134719174Y-113484694D01*
X134767052Y-113408497D01*
X134767054Y-113408494D01*
X134767054Y-113408492D01*
X134767056Y-113408490D01*
X134822913Y-113248859D01*
X134822913Y-113248858D01*
X134822914Y-113248856D01*
X134830402Y-113182402D01*
X146437751Y-113182402D01*
X146456685Y-113350456D01*
X146512545Y-113510094D01*
X146512547Y-113510097D01*
X146602518Y-113653284D01*
X146602523Y-113653290D01*
X146722109Y-113772876D01*
X146722115Y-113772881D01*
X146865302Y-113862852D01*
X146865305Y-113862854D01*
X146865309Y-113862855D01*
X146865310Y-113862856D01*
X146872995Y-113865545D01*
X147024943Y-113918714D01*
X147192997Y-113937649D01*
X147193000Y-113937649D01*
X147193003Y-113937649D01*
X147361056Y-113918714D01*
X147367412Y-113916490D01*
X147520690Y-113862856D01*
X147520692Y-113862854D01*
X147520694Y-113862854D01*
X147520697Y-113862852D01*
X147663884Y-113772881D01*
X147663885Y-113772880D01*
X147663890Y-113772877D01*
X147783477Y-113653290D01*
X147837306Y-113567621D01*
X147889641Y-113521331D01*
X147958695Y-113510683D01*
X148022543Y-113539058D01*
X148047293Y-113567621D01*
X148060599Y-113588797D01*
X148101123Y-113653290D01*
X148220709Y-113772876D01*
X148220715Y-113772881D01*
X148363902Y-113862852D01*
X148363905Y-113862854D01*
X148363909Y-113862855D01*
X148363910Y-113862856D01*
X148371595Y-113865545D01*
X148523543Y-113918714D01*
X148691597Y-113937649D01*
X148691600Y-113937649D01*
X148691603Y-113937649D01*
X148859656Y-113918714D01*
X148866012Y-113916490D01*
X149019290Y-113862856D01*
X149019292Y-113862854D01*
X149019294Y-113862854D01*
X149019297Y-113862852D01*
X149162484Y-113772881D01*
X149162485Y-113772880D01*
X149162490Y-113772877D01*
X149282077Y-113653290D01*
X149369814Y-113513658D01*
X149372052Y-113510097D01*
X149372054Y-113510094D01*
X149372054Y-113510092D01*
X149372056Y-113510090D01*
X149427913Y-113350459D01*
X149427913Y-113350458D01*
X149427914Y-113350456D01*
X149446849Y-113182402D01*
X149446849Y-113182397D01*
X149428903Y-113023123D01*
X149440957Y-112954301D01*
X149488306Y-112902921D01*
X149555917Y-112885297D01*
X149566007Y-112886019D01*
X149656798Y-112896249D01*
X149656800Y-112896249D01*
X149656803Y-112896249D01*
X149824856Y-112877314D01*
X149843332Y-112870849D01*
X149984490Y-112821456D01*
X149984492Y-112821454D01*
X149984494Y-112821454D01*
X149984497Y-112821452D01*
X150127684Y-112731481D01*
X150127685Y-112731480D01*
X150127690Y-112731477D01*
X150247277Y-112611890D01*
X150259823Y-112591923D01*
X150337252Y-112468697D01*
X150337254Y-112468694D01*
X150337254Y-112468692D01*
X150337256Y-112468690D01*
X150393113Y-112309059D01*
X150393113Y-112309058D01*
X150393114Y-112309056D01*
X150412049Y-112141002D01*
X150412049Y-112140997D01*
X150393114Y-111972943D01*
X150360242Y-111879000D01*
X150337256Y-111813310D01*
X150337255Y-111813309D01*
X150337254Y-111813305D01*
X150337252Y-111813302D01*
X150247281Y-111670115D01*
X150247276Y-111670109D01*
X150127690Y-111550523D01*
X150127684Y-111550518D01*
X149984497Y-111460547D01*
X149984494Y-111460545D01*
X149824856Y-111404685D01*
X149656803Y-111385751D01*
X149656796Y-111385751D01*
X149561918Y-111396441D01*
X149493096Y-111384386D01*
X149441717Y-111337037D01*
X149424093Y-111269427D01*
X149427145Y-111245623D01*
X149427911Y-111242263D01*
X149427913Y-111242259D01*
X149439362Y-111140652D01*
X149446849Y-111074202D01*
X149446849Y-111074197D01*
X149427914Y-110906143D01*
X149397460Y-110819113D01*
X149372056Y-110746510D01*
X149372055Y-110746509D01*
X149372054Y-110746505D01*
X149372052Y-110746502D01*
X149282081Y-110603315D01*
X149282076Y-110603309D01*
X149162490Y-110483723D01*
X149162484Y-110483718D01*
X149019297Y-110393747D01*
X149019294Y-110393745D01*
X148859656Y-110337885D01*
X148691603Y-110318951D01*
X148691597Y-110318951D01*
X148523543Y-110337885D01*
X148363905Y-110393745D01*
X148363902Y-110393747D01*
X148220715Y-110483718D01*
X148220709Y-110483723D01*
X148101123Y-110603309D01*
X148101121Y-110603312D01*
X148047293Y-110688978D01*
X147994958Y-110735269D01*
X147925905Y-110745916D01*
X147862056Y-110717541D01*
X147837307Y-110688978D01*
X147783478Y-110603312D01*
X147783476Y-110603309D01*
X147663890Y-110483723D01*
X147663884Y-110483718D01*
X147520697Y-110393747D01*
X147520694Y-110393745D01*
X147361056Y-110337885D01*
X147193003Y-110318951D01*
X147192997Y-110318951D01*
X147024943Y-110337885D01*
X146865305Y-110393745D01*
X146865302Y-110393747D01*
X146722115Y-110483718D01*
X146722109Y-110483723D01*
X146602523Y-110603309D01*
X146602518Y-110603315D01*
X146512547Y-110746502D01*
X146512545Y-110746505D01*
X146456685Y-110906143D01*
X146437751Y-111074197D01*
X146437751Y-111074202D01*
X146456685Y-111242256D01*
X146512545Y-111401894D01*
X146512547Y-111401897D01*
X146602518Y-111545084D01*
X146602523Y-111545090D01*
X146722109Y-111664676D01*
X146722115Y-111664681D01*
X146865302Y-111754652D01*
X146865305Y-111754654D01*
X146865309Y-111754655D01*
X146865310Y-111754656D01*
X146935164Y-111779099D01*
X147024943Y-111810514D01*
X147192997Y-111829449D01*
X147193000Y-111829449D01*
X147193002Y-111829449D01*
X147209669Y-111827571D01*
X147278491Y-111839625D01*
X147329870Y-111886974D01*
X147347495Y-111954584D01*
X147346035Y-111965972D01*
X147346466Y-111966021D01*
X147326751Y-112140997D01*
X147326751Y-112141002D01*
X147343717Y-112291580D01*
X147331663Y-112360402D01*
X147284314Y-112411782D01*
X147216703Y-112429406D01*
X147206616Y-112428685D01*
X147200588Y-112428006D01*
X147193000Y-112427151D01*
X147192999Y-112427151D01*
X147192998Y-112427151D01*
X147192997Y-112427151D01*
X147024943Y-112446085D01*
X146865305Y-112501945D01*
X146865302Y-112501947D01*
X146722115Y-112591918D01*
X146722109Y-112591923D01*
X146602523Y-112711509D01*
X146602518Y-112711515D01*
X146512547Y-112854702D01*
X146512545Y-112854705D01*
X146456685Y-113014343D01*
X146437751Y-113182397D01*
X146437751Y-113182402D01*
X134830402Y-113182402D01*
X134841849Y-113080802D01*
X134841849Y-113080797D01*
X134823903Y-112921523D01*
X134835957Y-112852701D01*
X134883306Y-112801321D01*
X134950917Y-112783697D01*
X134961007Y-112784419D01*
X135051798Y-112794649D01*
X135051800Y-112794649D01*
X135051803Y-112794649D01*
X135219856Y-112775714D01*
X135256982Y-112762723D01*
X135379490Y-112719856D01*
X135379492Y-112719854D01*
X135379494Y-112719854D01*
X135379497Y-112719852D01*
X135522684Y-112629881D01*
X135522685Y-112629880D01*
X135522690Y-112629877D01*
X135642277Y-112510290D01*
X135642281Y-112510284D01*
X135732252Y-112367097D01*
X135732254Y-112367094D01*
X135732254Y-112367092D01*
X135732256Y-112367090D01*
X135788113Y-112207459D01*
X135788113Y-112207458D01*
X135788114Y-112207456D01*
X135807049Y-112039402D01*
X135807049Y-112039397D01*
X135788114Y-111871343D01*
X135754601Y-111775568D01*
X135732256Y-111711710D01*
X135732255Y-111711709D01*
X135732254Y-111711705D01*
X135732252Y-111711702D01*
X135642281Y-111568515D01*
X135642276Y-111568509D01*
X135522690Y-111448923D01*
X135522684Y-111448918D01*
X135411411Y-111379000D01*
X136566341Y-111379000D01*
X136586936Y-111614403D01*
X136586938Y-111614413D01*
X136648094Y-111842655D01*
X136648096Y-111842659D01*
X136648097Y-111842663D01*
X136665664Y-111880335D01*
X136747965Y-112056830D01*
X136747967Y-112056834D01*
X136806903Y-112141002D01*
X136883505Y-112250401D01*
X137050599Y-112417495D01*
X137134930Y-112476544D01*
X137244165Y-112553032D01*
X137244167Y-112553033D01*
X137244170Y-112553035D01*
X137458337Y-112652903D01*
X137686592Y-112714063D01*
X137874918Y-112730539D01*
X137921999Y-112734659D01*
X137922000Y-112734659D01*
X137922001Y-112734659D01*
X137961234Y-112731226D01*
X138157408Y-112714063D01*
X138385663Y-112652903D01*
X138599830Y-112553035D01*
X138793401Y-112417495D01*
X138960495Y-112250401D01*
X139090425Y-112064842D01*
X139145002Y-112021217D01*
X139214500Y-112014023D01*
X139276855Y-112045546D01*
X139293575Y-112064842D01*
X139423500Y-112250395D01*
X139423505Y-112250401D01*
X139590599Y-112417495D01*
X139674930Y-112476544D01*
X139784165Y-112553032D01*
X139784167Y-112553033D01*
X139784170Y-112553035D01*
X139998337Y-112652903D01*
X140226592Y-112714063D01*
X140414918Y-112730539D01*
X140461999Y-112734659D01*
X140462000Y-112734659D01*
X140462001Y-112734659D01*
X140501234Y-112731226D01*
X140697408Y-112714063D01*
X140925663Y-112652903D01*
X141139830Y-112553035D01*
X141333401Y-112417495D01*
X141455717Y-112295178D01*
X141517036Y-112261696D01*
X141586728Y-112266680D01*
X141642662Y-112308551D01*
X141659577Y-112339528D01*
X141708646Y-112471088D01*
X141708649Y-112471093D01*
X141794809Y-112586187D01*
X141794812Y-112586190D01*
X141909906Y-112672350D01*
X141909913Y-112672354D01*
X142044620Y-112722596D01*
X142044627Y-112722598D01*
X142104155Y-112728999D01*
X142104172Y-112729000D01*
X142752000Y-112729000D01*
X142752000Y-111812012D01*
X142809007Y-111844925D01*
X142936174Y-111879000D01*
X143067826Y-111879000D01*
X143194993Y-111844925D01*
X143252000Y-111812012D01*
X143252000Y-112729000D01*
X143899828Y-112729000D01*
X143899844Y-112728999D01*
X143959372Y-112722598D01*
X143959379Y-112722596D01*
X144094086Y-112672354D01*
X144094093Y-112672350D01*
X144209187Y-112586190D01*
X144209190Y-112586187D01*
X144295350Y-112471093D01*
X144295354Y-112471086D01*
X144345596Y-112336379D01*
X144345598Y-112336372D01*
X144351999Y-112276844D01*
X144352000Y-112276827D01*
X144352000Y-111629000D01*
X143435012Y-111629000D01*
X143467925Y-111571993D01*
X143502000Y-111444826D01*
X143502000Y-111313174D01*
X143467925Y-111186007D01*
X143435012Y-111129000D01*
X144352000Y-111129000D01*
X144352000Y-110481172D01*
X144351999Y-110481155D01*
X144345598Y-110421627D01*
X144345596Y-110421620D01*
X144295354Y-110286913D01*
X144295350Y-110286906D01*
X144209190Y-110171812D01*
X144209187Y-110171809D01*
X144094093Y-110085649D01*
X144094086Y-110085645D01*
X143959379Y-110035403D01*
X143959372Y-110035401D01*
X143899844Y-110029000D01*
X143252000Y-110029000D01*
X143252000Y-110945988D01*
X143194993Y-110913075D01*
X143067826Y-110879000D01*
X142936174Y-110879000D01*
X142809007Y-110913075D01*
X142752000Y-110945988D01*
X142752000Y-110029000D01*
X142104155Y-110029000D01*
X142044627Y-110035401D01*
X142044620Y-110035403D01*
X141909913Y-110085645D01*
X141909906Y-110085649D01*
X141794812Y-110171809D01*
X141794809Y-110171812D01*
X141708649Y-110286906D01*
X141708645Y-110286913D01*
X141659578Y-110418470D01*
X141617707Y-110474404D01*
X141552242Y-110498821D01*
X141483969Y-110483969D01*
X141455715Y-110462819D01*
X141411366Y-110418470D01*
X141333401Y-110340505D01*
X141333397Y-110340502D01*
X141333396Y-110340501D01*
X141139834Y-110204967D01*
X141139830Y-110204965D01*
X141068727Y-110171809D01*
X140925663Y-110105097D01*
X140925659Y-110105096D01*
X140925655Y-110105094D01*
X140697413Y-110043938D01*
X140697403Y-110043936D01*
X140462001Y-110023341D01*
X140461999Y-110023341D01*
X140226596Y-110043936D01*
X140226586Y-110043938D01*
X139998344Y-110105094D01*
X139998335Y-110105098D01*
X139784171Y-110204964D01*
X139784169Y-110204965D01*
X139590597Y-110340505D01*
X139423505Y-110507597D01*
X139293575Y-110693158D01*
X139238998Y-110736783D01*
X139169500Y-110743977D01*
X139107145Y-110712454D01*
X139090425Y-110693158D01*
X138960494Y-110507597D01*
X138793402Y-110340506D01*
X138793395Y-110340501D01*
X138783252Y-110333399D01*
X138753384Y-110312485D01*
X138599834Y-110204967D01*
X138599830Y-110204965D01*
X138528727Y-110171809D01*
X138385663Y-110105097D01*
X138385659Y-110105096D01*
X138385655Y-110105094D01*
X138157413Y-110043938D01*
X138157403Y-110043936D01*
X137922001Y-110023341D01*
X137921999Y-110023341D01*
X137686596Y-110043936D01*
X137686586Y-110043938D01*
X137458344Y-110105094D01*
X137458335Y-110105098D01*
X137244171Y-110204964D01*
X137244169Y-110204965D01*
X137050597Y-110340505D01*
X136883505Y-110507597D01*
X136747965Y-110701169D01*
X136747964Y-110701171D01*
X136648098Y-110915335D01*
X136648094Y-110915344D01*
X136586938Y-111143586D01*
X136586936Y-111143596D01*
X136566341Y-111378999D01*
X136566341Y-111379000D01*
X135411411Y-111379000D01*
X135379497Y-111358947D01*
X135379494Y-111358945D01*
X135219856Y-111303085D01*
X135051803Y-111284151D01*
X135051796Y-111284151D01*
X134956918Y-111294841D01*
X134888096Y-111282786D01*
X134836717Y-111235437D01*
X134819093Y-111167827D01*
X134822145Y-111144023D01*
X134822911Y-111140663D01*
X134822913Y-111140659D01*
X134835900Y-111025398D01*
X134841849Y-110972602D01*
X134841849Y-110972597D01*
X134822914Y-110804543D01*
X134772703Y-110661049D01*
X134767056Y-110644910D01*
X134767055Y-110644909D01*
X134767054Y-110644905D01*
X134767052Y-110644902D01*
X134677081Y-110501715D01*
X134677076Y-110501709D01*
X134557490Y-110382123D01*
X134557484Y-110382118D01*
X134414297Y-110292147D01*
X134414294Y-110292145D01*
X134254656Y-110236285D01*
X134086603Y-110217351D01*
X134086597Y-110217351D01*
X133918543Y-110236285D01*
X133758905Y-110292145D01*
X133758902Y-110292147D01*
X133615715Y-110382118D01*
X133615709Y-110382123D01*
X133496123Y-110501709D01*
X133496121Y-110501712D01*
X133442293Y-110587378D01*
X133389958Y-110633669D01*
X133320905Y-110644316D01*
X133257056Y-110615941D01*
X133232307Y-110587378D01*
X133178478Y-110501712D01*
X133178476Y-110501709D01*
X133058890Y-110382123D01*
X133058884Y-110382118D01*
X132915697Y-110292147D01*
X132915694Y-110292145D01*
X132756056Y-110236285D01*
X132588003Y-110217351D01*
X132587997Y-110217351D01*
X132419943Y-110236285D01*
X132260305Y-110292145D01*
X132260302Y-110292147D01*
X132117115Y-110382118D01*
X132117109Y-110382123D01*
X131997523Y-110501709D01*
X131997521Y-110501712D01*
X131932437Y-110605291D01*
X131880102Y-110651582D01*
X131811048Y-110662229D01*
X131747200Y-110633853D01*
X131709059Y-110576209D01*
X131688627Y-110510639D01*
X131554545Y-110212721D01*
X131385530Y-109933137D01*
X131385528Y-109933134D01*
X131385526Y-109933131D01*
X131184045Y-109675960D01*
X130953039Y-109444954D01*
X130695868Y-109243473D01*
X130653825Y-109218057D01*
X130416279Y-109074455D01*
X130118361Y-108940373D01*
X130118354Y-108940370D01*
X130118342Y-108940366D01*
X129806452Y-108843178D01*
X129485099Y-108784289D01*
X129159000Y-108764564D01*
X128832900Y-108784289D01*
X128511547Y-108843178D01*
X128199657Y-108940366D01*
X128199641Y-108940372D01*
X128199639Y-108940373D01*
X128009933Y-109025752D01*
X127956056Y-109050001D01*
X127901721Y-109074455D01*
X127831825Y-109116708D01*
X127622131Y-109243473D01*
X127364960Y-109444954D01*
X127133954Y-109675960D01*
X126932473Y-109933131D01*
X126763449Y-110212731D01*
X126763289Y-110213037D01*
X126763224Y-110213103D01*
X126761517Y-110215928D01*
X126760869Y-110215536D01*
X126714698Y-110263243D01*
X126646677Y-110279209D01*
X126580822Y-110255866D01*
X126538042Y-110200624D01*
X126529500Y-110155397D01*
X126529500Y-107950002D01*
X135261751Y-107950002D01*
X135280685Y-108118056D01*
X135336545Y-108277694D01*
X135336547Y-108277697D01*
X135426518Y-108420884D01*
X135426523Y-108420890D01*
X135546109Y-108540476D01*
X135546115Y-108540481D01*
X135689302Y-108630452D01*
X135689305Y-108630454D01*
X135689309Y-108630455D01*
X135689310Y-108630456D01*
X135761888Y-108655852D01*
X135848943Y-108686314D01*
X136016997Y-108705249D01*
X136017000Y-108705249D01*
X136017003Y-108705249D01*
X136185056Y-108686314D01*
X136185059Y-108686313D01*
X136344690Y-108630456D01*
X136344692Y-108630454D01*
X136344694Y-108630454D01*
X136344697Y-108630452D01*
X136487884Y-108540481D01*
X136487885Y-108540480D01*
X136487890Y-108540477D01*
X136607477Y-108420890D01*
X136607481Y-108420884D01*
X136697452Y-108277697D01*
X136697454Y-108277694D01*
X136697454Y-108277692D01*
X136697456Y-108277690D01*
X136753313Y-108118059D01*
X136753313Y-108118058D01*
X136753314Y-108118056D01*
X136769387Y-107975402D01*
X148291951Y-107975402D01*
X148310885Y-108143456D01*
X148366745Y-108303094D01*
X148366747Y-108303097D01*
X148456718Y-108446284D01*
X148456723Y-108446290D01*
X148576309Y-108565876D01*
X148576315Y-108565881D01*
X148719502Y-108655852D01*
X148719505Y-108655854D01*
X148719509Y-108655855D01*
X148719510Y-108655856D01*
X148792113Y-108681260D01*
X148879143Y-108711714D01*
X149047197Y-108730649D01*
X149047200Y-108730649D01*
X149047203Y-108730649D01*
X149215256Y-108711714D01*
X149233732Y-108705249D01*
X149374890Y-108655856D01*
X149374892Y-108655854D01*
X149374894Y-108655854D01*
X149374897Y-108655852D01*
X149518084Y-108565881D01*
X149518085Y-108565880D01*
X149518090Y-108565877D01*
X149637677Y-108446290D01*
X149653641Y-108420884D01*
X149727652Y-108303097D01*
X149727654Y-108303094D01*
X149727654Y-108303092D01*
X149727656Y-108303090D01*
X149783513Y-108143459D01*
X149783513Y-108143458D01*
X149783514Y-108143456D01*
X149802449Y-107975402D01*
X149802449Y-107975397D01*
X149783514Y-107807343D01*
X149738645Y-107679116D01*
X149727656Y-107647710D01*
X149727655Y-107647709D01*
X149727654Y-107647705D01*
X149727652Y-107647702D01*
X149637681Y-107504515D01*
X149637676Y-107504509D01*
X149518090Y-107384923D01*
X149518084Y-107384918D01*
X149374897Y-107294947D01*
X149374894Y-107294945D01*
X149215256Y-107239085D01*
X149047203Y-107220151D01*
X149047197Y-107220151D01*
X148879143Y-107239085D01*
X148719505Y-107294945D01*
X148719502Y-107294947D01*
X148576315Y-107384918D01*
X148576309Y-107384923D01*
X148456723Y-107504509D01*
X148456718Y-107504515D01*
X148366747Y-107647702D01*
X148366745Y-107647705D01*
X148310885Y-107807343D01*
X148291951Y-107975397D01*
X148291951Y-107975402D01*
X136769387Y-107975402D01*
X136772249Y-107950002D01*
X136772249Y-107949997D01*
X136753314Y-107781943D01*
X136697454Y-107622305D01*
X136697452Y-107622302D01*
X136607481Y-107479115D01*
X136607476Y-107479109D01*
X136487890Y-107359523D01*
X136487884Y-107359518D01*
X136344697Y-107269547D01*
X136344694Y-107269545D01*
X136185056Y-107213685D01*
X136017003Y-107194751D01*
X136016997Y-107194751D01*
X135848943Y-107213685D01*
X135689305Y-107269545D01*
X135689302Y-107269547D01*
X135546115Y-107359518D01*
X135546109Y-107359523D01*
X135426523Y-107479109D01*
X135426518Y-107479115D01*
X135336547Y-107622302D01*
X135336545Y-107622305D01*
X135280685Y-107781943D01*
X135261751Y-107949997D01*
X135261751Y-107950002D01*
X126529500Y-107950002D01*
X126529500Y-107188002D01*
X131959751Y-107188002D01*
X131978685Y-107356056D01*
X132034545Y-107515694D01*
X132034547Y-107515697D01*
X132124518Y-107658884D01*
X132124523Y-107658890D01*
X132244109Y-107778476D01*
X132244115Y-107778481D01*
X132387302Y-107868452D01*
X132387305Y-107868454D01*
X132387309Y-107868455D01*
X132387310Y-107868456D01*
X132459913Y-107893860D01*
X132546943Y-107924314D01*
X132714997Y-107943249D01*
X132715000Y-107943249D01*
X132715003Y-107943249D01*
X132883056Y-107924314D01*
X132937538Y-107905250D01*
X133042690Y-107868456D01*
X133042692Y-107868454D01*
X133042694Y-107868454D01*
X133042697Y-107868452D01*
X133185884Y-107778481D01*
X133185885Y-107778480D01*
X133185890Y-107778477D01*
X133305477Y-107658890D01*
X133328467Y-107622302D01*
X133395452Y-107515697D01*
X133395454Y-107515694D01*
X133395454Y-107515692D01*
X133395456Y-107515690D01*
X133451313Y-107356059D01*
X133451313Y-107356058D01*
X133451314Y-107356056D01*
X133470249Y-107188002D01*
X133470249Y-107187997D01*
X133465968Y-107150003D01*
X151057252Y-107150003D01*
X151076186Y-107318057D01*
X151132046Y-107477695D01*
X151132048Y-107477698D01*
X151222019Y-107620885D01*
X151222024Y-107620891D01*
X151341610Y-107740477D01*
X151341616Y-107740482D01*
X151484803Y-107830453D01*
X151484806Y-107830455D01*
X151484810Y-107830456D01*
X151484811Y-107830457D01*
X151557414Y-107855861D01*
X151644444Y-107886315D01*
X151812498Y-107905250D01*
X151812501Y-107905250D01*
X151812504Y-107905250D01*
X151980557Y-107886315D01*
X151997310Y-107880453D01*
X152140191Y-107830457D01*
X152140193Y-107830455D01*
X152140195Y-107830455D01*
X152140198Y-107830453D01*
X152283385Y-107740482D01*
X152283386Y-107740481D01*
X152283391Y-107740478D01*
X152402978Y-107620891D01*
X152441541Y-107559519D01*
X152492953Y-107477698D01*
X152492955Y-107477695D01*
X152492955Y-107477693D01*
X152492957Y-107477691D01*
X152548814Y-107318060D01*
X152548814Y-107318059D01*
X152548815Y-107318057D01*
X152562116Y-107200003D01*
X155107252Y-107200003D01*
X155126186Y-107368057D01*
X155182046Y-107527695D01*
X155182048Y-107527698D01*
X155272019Y-107670885D01*
X155272024Y-107670891D01*
X155391610Y-107790477D01*
X155391616Y-107790482D01*
X155534803Y-107880453D01*
X155534806Y-107880455D01*
X155534810Y-107880456D01*
X155534811Y-107880457D01*
X155605666Y-107905250D01*
X155694445Y-107936315D01*
X155755764Y-107943224D01*
X155820178Y-107970290D01*
X155859734Y-108027885D01*
X155865101Y-108080326D01*
X155857252Y-108149995D01*
X155857252Y-108150003D01*
X155876186Y-108318057D01*
X155932046Y-108477695D01*
X155932048Y-108477698D01*
X156022019Y-108620885D01*
X156022024Y-108620891D01*
X156141610Y-108740477D01*
X156141616Y-108740482D01*
X156284803Y-108830453D01*
X156284806Y-108830455D01*
X156284810Y-108830456D01*
X156284811Y-108830457D01*
X156321166Y-108843178D01*
X156444444Y-108886315D01*
X156612498Y-108905250D01*
X156612501Y-108905250D01*
X156612504Y-108905250D01*
X156780557Y-108886315D01*
X156793049Y-108881944D01*
X156940191Y-108830457D01*
X156940193Y-108830455D01*
X156940195Y-108830455D01*
X156940198Y-108830453D01*
X157083385Y-108740482D01*
X157083386Y-108740481D01*
X157083391Y-108740478D01*
X157202978Y-108620891D01*
X157229227Y-108579116D01*
X157292953Y-108477698D01*
X157292955Y-108477695D01*
X157292955Y-108477693D01*
X157292957Y-108477691D01*
X157348814Y-108318060D01*
X157348814Y-108318059D01*
X157348815Y-108318057D01*
X157367750Y-108150003D01*
X159857252Y-108150003D01*
X159876186Y-108318057D01*
X159932046Y-108477695D01*
X159932048Y-108477698D01*
X160022019Y-108620885D01*
X160022024Y-108620891D01*
X160141610Y-108740477D01*
X160141616Y-108740482D01*
X160284803Y-108830453D01*
X160284806Y-108830455D01*
X160284810Y-108830456D01*
X160284811Y-108830457D01*
X160321166Y-108843178D01*
X160444444Y-108886315D01*
X160612498Y-108905250D01*
X160612501Y-108905250D01*
X160612504Y-108905250D01*
X160780557Y-108886315D01*
X160793049Y-108881944D01*
X160940191Y-108830457D01*
X160940193Y-108830455D01*
X160940195Y-108830455D01*
X160940198Y-108830453D01*
X161083385Y-108740482D01*
X161083386Y-108740481D01*
X161083391Y-108740478D01*
X161202978Y-108620891D01*
X161229227Y-108579116D01*
X161292953Y-108477698D01*
X161292955Y-108477695D01*
X161292955Y-108477693D01*
X161292957Y-108477691D01*
X161348814Y-108318060D01*
X161348814Y-108318059D01*
X161348815Y-108318057D01*
X161367750Y-108150003D01*
X161367750Y-108149998D01*
X161348815Y-107981944D01*
X161295807Y-107830457D01*
X161292957Y-107822311D01*
X161292956Y-107822310D01*
X161292955Y-107822306D01*
X161292953Y-107822303D01*
X161202982Y-107679116D01*
X161202977Y-107679110D01*
X161083391Y-107559524D01*
X161083385Y-107559519D01*
X160940198Y-107469548D01*
X160940195Y-107469546D01*
X160780557Y-107413686D01*
X160612504Y-107394752D01*
X160612498Y-107394752D01*
X160444444Y-107413686D01*
X160284806Y-107469546D01*
X160284803Y-107469548D01*
X160141616Y-107559519D01*
X160141610Y-107559524D01*
X160022024Y-107679110D01*
X160022019Y-107679116D01*
X159932048Y-107822303D01*
X159932046Y-107822306D01*
X159876186Y-107981944D01*
X159857252Y-108149998D01*
X159857252Y-108150003D01*
X157367750Y-108150003D01*
X157367750Y-108149998D01*
X157348815Y-107981944D01*
X157295807Y-107830457D01*
X157292957Y-107822311D01*
X157292956Y-107822310D01*
X157292955Y-107822306D01*
X157292953Y-107822303D01*
X157202982Y-107679116D01*
X157202977Y-107679110D01*
X157083391Y-107559524D01*
X157083385Y-107559519D01*
X156940198Y-107469548D01*
X156940195Y-107469546D01*
X156780557Y-107413687D01*
X156719234Y-107406777D01*
X156654821Y-107379710D01*
X156615266Y-107322115D01*
X156609899Y-107269675D01*
X156617750Y-107200001D01*
X156617750Y-107199998D01*
X156598815Y-107031944D01*
X156558497Y-106916722D01*
X156542957Y-106872311D01*
X156542956Y-106872310D01*
X156542955Y-106872306D01*
X156542953Y-106872303D01*
X156452982Y-106729116D01*
X156452977Y-106729110D01*
X156333391Y-106609524D01*
X156333385Y-106609519D01*
X156190198Y-106519548D01*
X156190195Y-106519546D01*
X156030557Y-106463686D01*
X155862504Y-106444752D01*
X155862498Y-106444752D01*
X155694444Y-106463686D01*
X155534806Y-106519546D01*
X155534803Y-106519548D01*
X155391616Y-106609519D01*
X155391610Y-106609524D01*
X155272024Y-106729110D01*
X155272019Y-106729116D01*
X155182048Y-106872303D01*
X155182046Y-106872306D01*
X155126186Y-107031944D01*
X155107252Y-107199998D01*
X155107252Y-107200003D01*
X152562116Y-107200003D01*
X152567750Y-107150003D01*
X152567750Y-107149998D01*
X152548815Y-106981944D01*
X152510450Y-106872303D01*
X152492957Y-106822311D01*
X152492956Y-106822310D01*
X152492955Y-106822306D01*
X152492953Y-106822303D01*
X152402982Y-106679116D01*
X152402977Y-106679110D01*
X152283391Y-106559524D01*
X152283385Y-106559519D01*
X152140198Y-106469548D01*
X152140195Y-106469546D01*
X151980557Y-106413686D01*
X151812504Y-106394752D01*
X151812498Y-106394752D01*
X151644444Y-106413686D01*
X151484806Y-106469546D01*
X151484803Y-106469548D01*
X151341616Y-106559519D01*
X151341610Y-106559524D01*
X151222024Y-106679110D01*
X151222019Y-106679116D01*
X151132048Y-106822303D01*
X151132046Y-106822306D01*
X151076186Y-106981944D01*
X151057252Y-107149998D01*
X151057252Y-107150003D01*
X133465968Y-107150003D01*
X133451314Y-107019943D01*
X133399655Y-106872311D01*
X133395456Y-106860310D01*
X133395455Y-106860309D01*
X133395454Y-106860305D01*
X133395452Y-106860302D01*
X133305481Y-106717115D01*
X133305476Y-106717109D01*
X133185890Y-106597523D01*
X133185884Y-106597518D01*
X133039587Y-106505593D01*
X132993296Y-106453259D01*
X132982648Y-106384205D01*
X133011023Y-106320357D01*
X133039587Y-106295607D01*
X133185884Y-106203681D01*
X133185888Y-106203678D01*
X133185890Y-106203677D01*
X133189564Y-106200003D01*
X160057252Y-106200003D01*
X160076186Y-106368057D01*
X160132046Y-106527695D01*
X160132048Y-106527698D01*
X160222019Y-106670885D01*
X160222024Y-106670891D01*
X160341610Y-106790477D01*
X160341616Y-106790482D01*
X160484803Y-106880453D01*
X160484806Y-106880455D01*
X160484810Y-106880456D01*
X160484811Y-106880457D01*
X160557414Y-106905861D01*
X160644444Y-106936315D01*
X160812498Y-106955250D01*
X160812501Y-106955250D01*
X160812504Y-106955250D01*
X160980553Y-106936315D01*
X160980553Y-106936314D01*
X160980560Y-106936314D01*
X161026368Y-106920284D01*
X161096142Y-106916722D01*
X161156770Y-106951450D01*
X161168646Y-106966656D01*
X161172022Y-106970889D01*
X161291610Y-107090477D01*
X161291616Y-107090482D01*
X161434803Y-107180453D01*
X161434806Y-107180455D01*
X161434810Y-107180456D01*
X161434811Y-107180457D01*
X161475661Y-107194751D01*
X161594444Y-107236315D01*
X161762498Y-107255250D01*
X161762501Y-107255250D01*
X161762504Y-107255250D01*
X161930557Y-107236315D01*
X161976751Y-107220151D01*
X162090191Y-107180457D01*
X162090193Y-107180455D01*
X162090195Y-107180455D01*
X162090198Y-107180453D01*
X162233385Y-107090482D01*
X162233386Y-107090481D01*
X162233391Y-107090478D01*
X162352978Y-106970891D01*
X162374704Y-106936315D01*
X162442953Y-106827698D01*
X162442955Y-106827695D01*
X162442955Y-106827693D01*
X162442957Y-106827691D01*
X162498814Y-106668060D01*
X162498815Y-106668044D01*
X162499129Y-106666676D01*
X162499581Y-106665867D01*
X162501114Y-106661487D01*
X162501880Y-106661755D01*
X162533230Y-106605693D01*
X162594888Y-106572827D01*
X162664526Y-106578514D01*
X162707705Y-106606572D01*
X162791610Y-106690477D01*
X162791616Y-106690482D01*
X162934803Y-106780453D01*
X162934806Y-106780455D01*
X162934810Y-106780456D01*
X162934811Y-106780457D01*
X162963447Y-106790477D01*
X163094444Y-106836315D01*
X163262498Y-106855250D01*
X163262501Y-106855250D01*
X163262504Y-106855250D01*
X163430557Y-106836315D01*
X163455183Y-106827698D01*
X163590191Y-106780457D01*
X163590193Y-106780455D01*
X163590195Y-106780455D01*
X163590198Y-106780453D01*
X163733385Y-106690482D01*
X163733386Y-106690481D01*
X163733391Y-106690478D01*
X163852978Y-106570891D01*
X163852982Y-106570885D01*
X163942953Y-106427698D01*
X163942955Y-106427695D01*
X163942955Y-106427693D01*
X163942957Y-106427691D01*
X163998814Y-106268060D01*
X163998814Y-106268059D01*
X163998815Y-106268057D01*
X164017750Y-106100003D01*
X164017750Y-106099998D01*
X163998815Y-105931944D01*
X163953453Y-105802306D01*
X163942957Y-105772311D01*
X163942956Y-105772310D01*
X163942955Y-105772306D01*
X163942953Y-105772303D01*
X163852982Y-105629116D01*
X163852977Y-105629110D01*
X163733391Y-105509524D01*
X163733385Y-105509519D01*
X163590198Y-105419548D01*
X163590195Y-105419546D01*
X163430557Y-105363686D01*
X163262504Y-105344752D01*
X163262498Y-105344752D01*
X163094444Y-105363686D01*
X162934806Y-105419546D01*
X162934803Y-105419548D01*
X162791616Y-105509519D01*
X162791610Y-105509524D01*
X162672024Y-105629110D01*
X162672019Y-105629116D01*
X162582048Y-105772303D01*
X162582046Y-105772306D01*
X162526187Y-105931943D01*
X162525868Y-105933343D01*
X162525413Y-105934155D01*
X162523888Y-105938515D01*
X162523124Y-105938247D01*
X162491758Y-105994320D01*
X162430096Y-106027177D01*
X162360459Y-106021481D01*
X162317296Y-105993429D01*
X162233391Y-105909524D01*
X162233385Y-105909519D01*
X162090198Y-105819548D01*
X162090195Y-105819546D01*
X161930557Y-105763686D01*
X161762504Y-105744752D01*
X161762498Y-105744752D01*
X161594442Y-105763687D01*
X161594438Y-105763688D01*
X161548631Y-105779716D01*
X161478852Y-105783277D01*
X161418226Y-105748547D01*
X161406412Y-105733417D01*
X161402977Y-105729110D01*
X161283391Y-105609524D01*
X161283385Y-105609519D01*
X161140198Y-105519548D01*
X161140195Y-105519546D01*
X160980557Y-105463686D01*
X160812504Y-105444752D01*
X160812498Y-105444752D01*
X160644444Y-105463686D01*
X160484806Y-105519546D01*
X160484803Y-105519548D01*
X160341616Y-105609519D01*
X160341610Y-105609524D01*
X160222024Y-105729110D01*
X160222019Y-105729116D01*
X160132048Y-105872303D01*
X160132046Y-105872306D01*
X160076186Y-106031944D01*
X160057252Y-106199998D01*
X160057252Y-106200003D01*
X133189564Y-106200003D01*
X133305477Y-106084090D01*
X133361884Y-105994320D01*
X133395452Y-105940897D01*
X133395454Y-105940894D01*
X133395454Y-105940892D01*
X133395456Y-105940890D01*
X133451313Y-105781259D01*
X133451313Y-105781258D01*
X133451314Y-105781256D01*
X133470249Y-105613202D01*
X133470249Y-105613197D01*
X133451314Y-105445143D01*
X133395454Y-105285505D01*
X133395452Y-105285502D01*
X133305481Y-105142315D01*
X133305476Y-105142309D01*
X133185890Y-105022723D01*
X133185884Y-105022718D01*
X133042697Y-104932747D01*
X133042694Y-104932745D01*
X132883056Y-104876885D01*
X132715003Y-104857951D01*
X132714997Y-104857951D01*
X132546943Y-104876885D01*
X132387305Y-104932745D01*
X132387302Y-104932747D01*
X132244115Y-105022718D01*
X132244109Y-105022723D01*
X132124523Y-105142309D01*
X132124518Y-105142315D01*
X132034547Y-105285502D01*
X132034545Y-105285505D01*
X131978685Y-105445143D01*
X131959751Y-105613197D01*
X131959751Y-105613202D01*
X131978685Y-105781256D01*
X132034545Y-105940894D01*
X132034547Y-105940897D01*
X132124518Y-106084084D01*
X132124523Y-106084090D01*
X132244111Y-106203678D01*
X132390413Y-106295607D01*
X132436704Y-106347942D01*
X132447351Y-106416995D01*
X132418976Y-106480843D01*
X132390413Y-106505593D01*
X132244111Y-106597521D01*
X132124523Y-106717109D01*
X132124518Y-106717115D01*
X132034547Y-106860302D01*
X132034545Y-106860305D01*
X131978685Y-107019943D01*
X131959751Y-107187997D01*
X131959751Y-107188002D01*
X126529500Y-107188002D01*
X126529500Y-106130003D01*
X127203752Y-106130003D01*
X127222686Y-106298057D01*
X127278546Y-106457695D01*
X127278548Y-106457698D01*
X127368519Y-106600885D01*
X127368524Y-106600891D01*
X127488110Y-106720477D01*
X127488116Y-106720482D01*
X127631303Y-106810453D01*
X127631306Y-106810455D01*
X127631310Y-106810456D01*
X127631311Y-106810457D01*
X127665165Y-106822303D01*
X127790944Y-106866315D01*
X127958998Y-106885250D01*
X127959001Y-106885250D01*
X127959004Y-106885250D01*
X128127057Y-106866315D01*
X128127060Y-106866314D01*
X128286691Y-106810457D01*
X128286693Y-106810455D01*
X128286695Y-106810455D01*
X128286698Y-106810453D01*
X128429885Y-106720482D01*
X128429886Y-106720481D01*
X128429891Y-106720478D01*
X128549478Y-106600891D01*
X128551596Y-106597521D01*
X128639453Y-106457698D01*
X128639455Y-106457695D01*
X128639455Y-106457693D01*
X128639457Y-106457691D01*
X128695314Y-106298060D01*
X128695314Y-106298059D01*
X128695315Y-106298057D01*
X128714250Y-106130003D01*
X128714250Y-106129998D01*
X128695315Y-105961944D01*
X128639455Y-105802306D01*
X128639453Y-105802303D01*
X128549482Y-105659116D01*
X128549477Y-105659110D01*
X128429891Y-105539524D01*
X128429885Y-105539519D01*
X128286698Y-105449548D01*
X128286695Y-105449546D01*
X128127057Y-105393686D01*
X127959004Y-105374752D01*
X127958998Y-105374752D01*
X127790944Y-105393686D01*
X127631306Y-105449546D01*
X127631303Y-105449548D01*
X127488116Y-105539519D01*
X127488110Y-105539524D01*
X127368524Y-105659110D01*
X127368519Y-105659116D01*
X127278548Y-105802303D01*
X127278546Y-105802306D01*
X127222686Y-105961944D01*
X127203752Y-106129998D01*
X127203752Y-106130003D01*
X126529500Y-106130003D01*
X126529500Y-103428802D01*
X139173351Y-103428802D01*
X139192285Y-103596856D01*
X139248145Y-103756494D01*
X139248147Y-103756497D01*
X139338118Y-103899684D01*
X139338123Y-103899690D01*
X139457709Y-104019276D01*
X139457715Y-104019281D01*
X139600902Y-104109252D01*
X139600905Y-104109254D01*
X139600909Y-104109255D01*
X139600910Y-104109256D01*
X139626062Y-104118057D01*
X139760543Y-104165114D01*
X139928597Y-104184049D01*
X139928600Y-104184049D01*
X139928603Y-104184049D01*
X140096656Y-104165114D01*
X140096659Y-104165113D01*
X140256290Y-104109256D01*
X140256292Y-104109254D01*
X140256294Y-104109254D01*
X140256297Y-104109252D01*
X140399484Y-104019281D01*
X140399485Y-104019280D01*
X140399490Y-104019277D01*
X140519077Y-103899690D01*
X140531163Y-103880455D01*
X140607478Y-103759002D01*
X150151751Y-103759002D01*
X150170685Y-103927056D01*
X150226545Y-104086694D01*
X150226547Y-104086697D01*
X150316518Y-104229884D01*
X150316523Y-104229890D01*
X150436109Y-104349476D01*
X150436115Y-104349481D01*
X150579302Y-104439452D01*
X150579305Y-104439454D01*
X150579309Y-104439455D01*
X150579310Y-104439456D01*
X150651913Y-104464860D01*
X150738943Y-104495314D01*
X150906997Y-104514249D01*
X150907000Y-104514249D01*
X150907003Y-104514249D01*
X151075056Y-104495314D01*
X151144853Y-104470891D01*
X151234690Y-104439456D01*
X151234692Y-104439454D01*
X151234694Y-104439454D01*
X151234697Y-104439452D01*
X151377884Y-104349481D01*
X151377885Y-104349480D01*
X151377890Y-104349477D01*
X151497477Y-104229890D01*
X151536328Y-104168060D01*
X151587452Y-104086697D01*
X151587457Y-104086687D01*
X151607579Y-104029180D01*
X151628505Y-104000003D01*
X158007252Y-104000003D01*
X158026186Y-104168057D01*
X158082046Y-104327695D01*
X158082048Y-104327698D01*
X158172019Y-104470885D01*
X158172024Y-104470891D01*
X158291610Y-104590477D01*
X158291616Y-104590482D01*
X158434803Y-104680453D01*
X158434806Y-104680455D01*
X158434810Y-104680456D01*
X158434811Y-104680457D01*
X158505666Y-104705250D01*
X158594444Y-104736315D01*
X158762498Y-104755250D01*
X158762501Y-104755250D01*
X158762504Y-104755250D01*
X158930557Y-104736315D01*
X158930560Y-104736314D01*
X159090191Y-104680457D01*
X159090193Y-104680455D01*
X159090195Y-104680455D01*
X159090198Y-104680453D01*
X159233385Y-104590482D01*
X159233386Y-104590481D01*
X159233391Y-104590478D01*
X159299820Y-104524049D01*
X159361143Y-104490564D01*
X159430835Y-104495548D01*
X159475182Y-104524049D01*
X159491610Y-104540477D01*
X159491616Y-104540482D01*
X159634803Y-104630453D01*
X159634806Y-104630455D01*
X159634810Y-104630456D01*
X159634811Y-104630457D01*
X159707414Y-104655861D01*
X159794444Y-104686315D01*
X159962498Y-104705250D01*
X159962501Y-104705250D01*
X159962504Y-104705250D01*
X160130557Y-104686315D01*
X160147310Y-104680453D01*
X160290191Y-104630457D01*
X160290193Y-104630455D01*
X160290195Y-104630455D01*
X160290198Y-104630453D01*
X160433385Y-104540482D01*
X160433386Y-104540481D01*
X160433391Y-104540478D01*
X160552978Y-104420891D01*
X160597851Y-104349477D01*
X160642953Y-104277698D01*
X160642955Y-104277695D01*
X160642955Y-104277693D01*
X160642957Y-104277691D01*
X160698814Y-104118060D01*
X160698814Y-104118059D01*
X160698815Y-104118057D01*
X160717750Y-103950003D01*
X160717750Y-103949998D01*
X160698815Y-103781944D01*
X160645807Y-103630457D01*
X160642957Y-103622311D01*
X160642956Y-103622310D01*
X160642955Y-103622306D01*
X160642953Y-103622303D01*
X160552982Y-103479116D01*
X160552977Y-103479110D01*
X160433391Y-103359524D01*
X160433385Y-103359519D01*
X160290198Y-103269548D01*
X160290195Y-103269546D01*
X160130557Y-103213686D01*
X159962504Y-103194752D01*
X159962498Y-103194752D01*
X159794444Y-103213686D01*
X159634806Y-103269546D01*
X159634803Y-103269548D01*
X159491616Y-103359519D01*
X159491609Y-103359525D01*
X159425180Y-103425953D01*
X159363856Y-103459438D01*
X159294165Y-103454452D01*
X159249819Y-103425952D01*
X159233391Y-103409524D01*
X159233385Y-103409519D01*
X159090198Y-103319548D01*
X159090187Y-103319543D01*
X158947757Y-103269704D01*
X158915777Y-103246767D01*
X158873067Y-103256976D01*
X158865505Y-103256357D01*
X158762505Y-103244752D01*
X158762498Y-103244752D01*
X158594444Y-103263686D01*
X158434806Y-103319546D01*
X158434803Y-103319548D01*
X158291616Y-103409519D01*
X158291610Y-103409524D01*
X158172024Y-103529110D01*
X158172019Y-103529116D01*
X158082048Y-103672303D01*
X158082046Y-103672306D01*
X158026186Y-103831944D01*
X158007252Y-103999998D01*
X158007252Y-104000003D01*
X151628505Y-104000003D01*
X151648299Y-103972403D01*
X151713252Y-103946654D01*
X151738499Y-103946911D01*
X151801340Y-103953992D01*
X151812500Y-103955250D01*
X151812501Y-103955250D01*
X151812504Y-103955250D01*
X151980557Y-103936315D01*
X152007018Y-103927056D01*
X152140191Y-103880457D01*
X152140193Y-103880455D01*
X152140195Y-103880455D01*
X152140198Y-103880453D01*
X152283385Y-103790482D01*
X152283386Y-103790481D01*
X152283391Y-103790478D01*
X152402978Y-103670891D01*
X152453213Y-103590943D01*
X152492953Y-103527698D01*
X152492955Y-103527695D01*
X152492955Y-103527693D01*
X152492957Y-103527691D01*
X152548814Y-103368060D01*
X152548814Y-103368059D01*
X152548815Y-103368057D01*
X152567750Y-103200003D01*
X152567750Y-103199998D01*
X152548815Y-103031944D01*
X152492955Y-102872306D01*
X152492953Y-102872303D01*
X152402982Y-102729116D01*
X152402977Y-102729110D01*
X152283391Y-102609524D01*
X152283385Y-102609519D01*
X152140198Y-102519548D01*
X152140195Y-102519546D01*
X151980557Y-102463686D01*
X151812504Y-102444752D01*
X151812498Y-102444752D01*
X151644444Y-102463686D01*
X151484806Y-102519546D01*
X151484803Y-102519548D01*
X151341616Y-102609519D01*
X151341610Y-102609524D01*
X151222024Y-102729110D01*
X151222019Y-102729116D01*
X151132044Y-102872309D01*
X151111919Y-102929824D01*
X151071197Y-102986599D01*
X151006244Y-103012346D01*
X150980994Y-103012088D01*
X150907003Y-103003751D01*
X150906997Y-103003751D01*
X150738943Y-103022685D01*
X150579305Y-103078545D01*
X150579302Y-103078547D01*
X150436115Y-103168518D01*
X150436109Y-103168523D01*
X150316523Y-103288109D01*
X150316518Y-103288115D01*
X150226547Y-103431302D01*
X150226545Y-103431305D01*
X150170685Y-103590943D01*
X150151751Y-103758997D01*
X150151751Y-103759002D01*
X140607478Y-103759002D01*
X140609052Y-103756497D01*
X140609054Y-103756494D01*
X140609054Y-103756492D01*
X140609056Y-103756490D01*
X140664913Y-103596859D01*
X140664913Y-103596858D01*
X140664914Y-103596856D01*
X140683849Y-103428802D01*
X140683849Y-103428797D01*
X140664914Y-103260743D01*
X140609054Y-103101105D01*
X140609052Y-103101102D01*
X140519081Y-102957915D01*
X140519076Y-102957909D01*
X140399490Y-102838323D01*
X140399484Y-102838318D01*
X140256297Y-102748347D01*
X140256291Y-102748344D01*
X140212559Y-102733042D01*
X140155783Y-102692320D01*
X140130035Y-102627367D01*
X140143491Y-102558806D01*
X140191878Y-102508403D01*
X140212559Y-102498958D01*
X140256290Y-102483656D01*
X140256293Y-102483653D01*
X140256297Y-102483652D01*
X140399484Y-102393681D01*
X140399485Y-102393680D01*
X140399490Y-102393677D01*
X140519077Y-102274090D01*
X140525613Y-102263688D01*
X140609052Y-102130897D01*
X140609054Y-102130894D01*
X140609054Y-102130892D01*
X140609056Y-102130890D01*
X140664913Y-101971259D01*
X140664913Y-101971258D01*
X140664914Y-101971256D01*
X140683849Y-101803202D01*
X140683849Y-101803197D01*
X140664914Y-101635143D01*
X140631552Y-101539800D01*
X140609056Y-101475510D01*
X140609055Y-101475509D01*
X140609054Y-101475505D01*
X140609052Y-101475502D01*
X140519081Y-101332315D01*
X140519076Y-101332309D01*
X140399490Y-101212723D01*
X140399484Y-101212718D01*
X140288214Y-101142802D01*
X143567551Y-101142802D01*
X143586485Y-101310856D01*
X143642345Y-101470494D01*
X143642347Y-101470497D01*
X143732318Y-101613684D01*
X143732323Y-101613690D01*
X143851909Y-101733276D01*
X143851915Y-101733281D01*
X143995102Y-101823252D01*
X143995105Y-101823254D01*
X143995109Y-101823255D01*
X143995110Y-101823256D01*
X144056542Y-101844752D01*
X144154743Y-101879114D01*
X144322797Y-101898049D01*
X144322800Y-101898049D01*
X144322803Y-101898049D01*
X144490856Y-101879114D01*
X144490859Y-101879113D01*
X144650490Y-101823256D01*
X144650492Y-101823254D01*
X144650494Y-101823254D01*
X144650497Y-101823252D01*
X144793684Y-101733281D01*
X144793685Y-101733280D01*
X144793690Y-101733277D01*
X144913277Y-101613690D01*
X144913281Y-101613684D01*
X145003252Y-101470497D01*
X145003255Y-101470491D01*
X145003256Y-101470490D01*
X145031258Y-101390463D01*
X145071980Y-101333688D01*
X145136932Y-101307940D01*
X145205494Y-101321396D01*
X145255897Y-101369783D01*
X145265342Y-101390464D01*
X145293344Y-101470491D01*
X145293347Y-101470497D01*
X145383318Y-101613684D01*
X145383323Y-101613690D01*
X145502909Y-101733276D01*
X145502915Y-101733281D01*
X145646102Y-101823252D01*
X145646105Y-101823254D01*
X145646109Y-101823255D01*
X145646110Y-101823256D01*
X145707542Y-101844752D01*
X145805743Y-101879114D01*
X145973797Y-101898049D01*
X145973800Y-101898049D01*
X145973803Y-101898049D01*
X146141856Y-101879114D01*
X146141859Y-101879113D01*
X146301490Y-101823256D01*
X146301492Y-101823254D01*
X146301494Y-101823254D01*
X146301497Y-101823252D01*
X146444684Y-101733281D01*
X146444685Y-101733280D01*
X146444690Y-101733277D01*
X146564277Y-101613690D01*
X146564281Y-101613684D01*
X146654252Y-101470497D01*
X146654254Y-101470494D01*
X146654255Y-101470491D01*
X146654256Y-101470490D01*
X146710113Y-101310859D01*
X146710113Y-101310858D01*
X146710114Y-101310856D01*
X146729049Y-101142802D01*
X146729049Y-101142797D01*
X146710114Y-100974743D01*
X146665435Y-100847059D01*
X146654256Y-100815110D01*
X146654255Y-100815109D01*
X146654254Y-100815105D01*
X146654252Y-100815102D01*
X146564281Y-100671915D01*
X146564276Y-100671909D01*
X146444690Y-100552323D01*
X146444684Y-100552318D01*
X146301497Y-100462347D01*
X146301494Y-100462345D01*
X146141856Y-100406485D01*
X145973803Y-100387551D01*
X145973797Y-100387551D01*
X145805743Y-100406485D01*
X145646105Y-100462345D01*
X145646102Y-100462347D01*
X145502915Y-100552318D01*
X145502909Y-100552323D01*
X145383323Y-100671909D01*
X145383318Y-100671915D01*
X145293347Y-100815102D01*
X145293345Y-100815105D01*
X145265342Y-100895136D01*
X145224620Y-100951912D01*
X145159667Y-100977659D01*
X145091105Y-100964203D01*
X145040703Y-100915815D01*
X145031258Y-100895136D01*
X145014435Y-100847059D01*
X145003256Y-100815110D01*
X145003255Y-100815109D01*
X145003254Y-100815105D01*
X145003252Y-100815102D01*
X144913281Y-100671915D01*
X144913276Y-100671909D01*
X144793690Y-100552323D01*
X144793684Y-100552318D01*
X144650497Y-100462347D01*
X144650494Y-100462345D01*
X144490856Y-100406485D01*
X144322803Y-100387551D01*
X144322797Y-100387551D01*
X144154743Y-100406485D01*
X143995105Y-100462345D01*
X143995102Y-100462347D01*
X143851915Y-100552318D01*
X143851909Y-100552323D01*
X143732323Y-100671909D01*
X143732318Y-100671915D01*
X143642347Y-100815102D01*
X143642345Y-100815105D01*
X143586485Y-100974743D01*
X143567551Y-101142797D01*
X143567551Y-101142802D01*
X140288214Y-101142802D01*
X140256297Y-101122747D01*
X140256294Y-101122745D01*
X140096656Y-101066885D01*
X139928603Y-101047951D01*
X139928597Y-101047951D01*
X139760543Y-101066885D01*
X139600905Y-101122745D01*
X139600902Y-101122747D01*
X139457715Y-101212718D01*
X139457709Y-101212723D01*
X139338123Y-101332309D01*
X139338118Y-101332315D01*
X139248147Y-101475502D01*
X139248145Y-101475505D01*
X139192285Y-101635143D01*
X139173351Y-101803197D01*
X139173351Y-101803202D01*
X139192285Y-101971256D01*
X139248145Y-102130894D01*
X139248147Y-102130897D01*
X139338118Y-102274084D01*
X139338123Y-102274090D01*
X139457709Y-102393676D01*
X139457715Y-102393681D01*
X139600902Y-102483652D01*
X139600907Y-102483654D01*
X139600910Y-102483656D01*
X139600913Y-102483657D01*
X139644641Y-102498959D01*
X139701417Y-102539681D01*
X139727164Y-102604633D01*
X139713708Y-102673195D01*
X139665320Y-102723598D01*
X139644641Y-102733041D01*
X139600913Y-102748342D01*
X139600902Y-102748347D01*
X139457715Y-102838318D01*
X139457709Y-102838323D01*
X139338123Y-102957909D01*
X139338118Y-102957915D01*
X139248147Y-103101102D01*
X139248145Y-103101105D01*
X139192285Y-103260743D01*
X139173351Y-103428797D01*
X139173351Y-103428802D01*
X126529500Y-103428802D01*
X126529500Y-102641402D01*
X130181751Y-102641402D01*
X130200685Y-102809456D01*
X130256545Y-102969094D01*
X130256547Y-102969097D01*
X130346518Y-103112284D01*
X130346523Y-103112290D01*
X130466109Y-103231876D01*
X130466115Y-103231881D01*
X130609302Y-103321852D01*
X130609305Y-103321854D01*
X130609309Y-103321855D01*
X130609310Y-103321856D01*
X130626006Y-103327698D01*
X130768943Y-103377714D01*
X130936997Y-103396649D01*
X130937000Y-103396649D01*
X130937003Y-103396649D01*
X131105056Y-103377714D01*
X131105059Y-103377713D01*
X131264690Y-103321856D01*
X131264692Y-103321854D01*
X131264694Y-103321854D01*
X131264697Y-103321852D01*
X131407884Y-103231881D01*
X131407885Y-103231880D01*
X131407890Y-103231877D01*
X131527477Y-103112290D01*
X131527481Y-103112284D01*
X131617452Y-102969097D01*
X131617454Y-102969094D01*
X131617454Y-102969092D01*
X131617456Y-102969090D01*
X131673313Y-102809459D01*
X131673313Y-102809458D01*
X131673314Y-102809456D01*
X131689387Y-102666802D01*
X132772551Y-102666802D01*
X132791485Y-102834856D01*
X132847345Y-102994494D01*
X132847347Y-102994497D01*
X132937318Y-103137684D01*
X132937323Y-103137690D01*
X133056909Y-103257276D01*
X133056915Y-103257281D01*
X133200102Y-103347252D01*
X133200105Y-103347254D01*
X133200109Y-103347255D01*
X133200110Y-103347256D01*
X133222956Y-103355250D01*
X133359743Y-103403114D01*
X133527797Y-103422049D01*
X133527800Y-103422049D01*
X133527803Y-103422049D01*
X133695856Y-103403114D01*
X133714332Y-103396649D01*
X133855490Y-103347256D01*
X133855492Y-103347254D01*
X133855494Y-103347254D01*
X133855497Y-103347252D01*
X133998684Y-103257281D01*
X133998685Y-103257280D01*
X133998690Y-103257277D01*
X134118277Y-103137690D01*
X134118281Y-103137684D01*
X134208252Y-102994497D01*
X134208254Y-102994494D01*
X134208254Y-102994492D01*
X134208256Y-102994490D01*
X134264113Y-102834859D01*
X134264113Y-102834858D01*
X134264114Y-102834856D01*
X134283049Y-102666802D01*
X134283049Y-102666797D01*
X134264114Y-102498743D01*
X134208254Y-102339105D01*
X134208252Y-102339102D01*
X134118281Y-102195915D01*
X134118276Y-102195909D01*
X133998690Y-102076323D01*
X133958258Y-102050918D01*
X133872597Y-101997093D01*
X133826307Y-101944759D01*
X133815659Y-101875705D01*
X133844034Y-101811857D01*
X133872598Y-101787106D01*
X133927859Y-101752383D01*
X133998690Y-101707877D01*
X134118277Y-101588290D01*
X134126341Y-101575456D01*
X134208252Y-101445097D01*
X134208254Y-101445094D01*
X134208254Y-101445092D01*
X134208256Y-101445090D01*
X134264113Y-101285459D01*
X134264113Y-101285458D01*
X134264114Y-101285456D01*
X134283049Y-101117402D01*
X134283049Y-101117397D01*
X134264114Y-100949343D01*
X134208254Y-100789705D01*
X134208252Y-100789702D01*
X134118281Y-100646515D01*
X134118276Y-100646509D01*
X133998690Y-100526923D01*
X133998684Y-100526918D01*
X133855497Y-100436947D01*
X133855494Y-100436945D01*
X133695856Y-100381085D01*
X133527803Y-100362151D01*
X133527797Y-100362151D01*
X133359743Y-100381085D01*
X133200105Y-100436945D01*
X133200102Y-100436947D01*
X133056915Y-100526918D01*
X133056909Y-100526923D01*
X132937323Y-100646509D01*
X132937318Y-100646515D01*
X132847347Y-100789702D01*
X132847345Y-100789705D01*
X132791485Y-100949343D01*
X132772551Y-101117397D01*
X132772551Y-101117402D01*
X132791485Y-101285456D01*
X132847345Y-101445094D01*
X132847347Y-101445097D01*
X132937318Y-101588284D01*
X132937323Y-101588290D01*
X133056911Y-101707878D01*
X133183002Y-101787107D01*
X133229292Y-101839441D01*
X133239940Y-101908495D01*
X133211565Y-101972343D01*
X133183002Y-101997093D01*
X133056911Y-102076321D01*
X132937323Y-102195909D01*
X132937318Y-102195915D01*
X132847347Y-102339102D01*
X132847345Y-102339105D01*
X132791485Y-102498743D01*
X132772551Y-102666797D01*
X132772551Y-102666802D01*
X131689387Y-102666802D01*
X131692249Y-102641402D01*
X131692249Y-102641397D01*
X131673314Y-102473343D01*
X131617454Y-102313705D01*
X131617452Y-102313702D01*
X131527481Y-102170515D01*
X131527476Y-102170509D01*
X131407890Y-102050923D01*
X131407884Y-102050918D01*
X131264697Y-101960947D01*
X131264694Y-101960945D01*
X131105056Y-101905085D01*
X130937003Y-101886151D01*
X130936997Y-101886151D01*
X130768943Y-101905085D01*
X130609305Y-101960945D01*
X130609302Y-101960947D01*
X130466115Y-102050918D01*
X130466109Y-102050923D01*
X130346523Y-102170509D01*
X130346518Y-102170515D01*
X130256547Y-102313702D01*
X130256545Y-102313705D01*
X130200685Y-102473343D01*
X130181751Y-102641397D01*
X130181751Y-102641402D01*
X126529500Y-102641402D01*
X126529500Y-100895004D01*
X127203753Y-100895004D01*
X127222687Y-101063058D01*
X127278547Y-101222696D01*
X127278549Y-101222699D01*
X127368520Y-101365886D01*
X127368525Y-101365892D01*
X127488111Y-101485478D01*
X127488117Y-101485483D01*
X127631304Y-101575454D01*
X127631307Y-101575456D01*
X127631311Y-101575457D01*
X127631312Y-101575458D01*
X127650660Y-101582228D01*
X127790945Y-101631316D01*
X127958999Y-101650251D01*
X127959002Y-101650251D01*
X127959005Y-101650251D01*
X128127058Y-101631316D01*
X128127061Y-101631315D01*
X128286692Y-101575458D01*
X128286694Y-101575456D01*
X128286696Y-101575456D01*
X128286699Y-101575454D01*
X128429886Y-101485483D01*
X128429887Y-101485482D01*
X128429892Y-101485479D01*
X128549479Y-101365892D01*
X128577438Y-101321396D01*
X128639454Y-101222699D01*
X128639456Y-101222696D01*
X128639456Y-101222694D01*
X128639458Y-101222692D01*
X128695315Y-101063061D01*
X128695315Y-101063060D01*
X128695316Y-101063058D01*
X128714251Y-100895004D01*
X128714251Y-100894999D01*
X128695316Y-100726945D01*
X128644997Y-100583141D01*
X128639458Y-100567312D01*
X128639457Y-100567311D01*
X128639456Y-100567307D01*
X128639454Y-100567304D01*
X128549483Y-100424117D01*
X128549478Y-100424111D01*
X128429892Y-100304525D01*
X128429886Y-100304520D01*
X128286699Y-100214549D01*
X128286696Y-100214547D01*
X128127058Y-100158687D01*
X127959005Y-100139753D01*
X127958999Y-100139753D01*
X127790945Y-100158687D01*
X127631307Y-100214547D01*
X127631304Y-100214549D01*
X127488117Y-100304520D01*
X127488111Y-100304525D01*
X127368525Y-100424111D01*
X127368520Y-100424117D01*
X127278549Y-100567304D01*
X127278547Y-100567307D01*
X127222687Y-100726945D01*
X127203753Y-100894999D01*
X127203753Y-100895004D01*
X126529500Y-100895004D01*
X126529500Y-99263202D01*
X137827151Y-99263202D01*
X137846085Y-99431256D01*
X137901945Y-99590894D01*
X137901947Y-99590897D01*
X137991918Y-99734084D01*
X137991923Y-99734090D01*
X138111509Y-99853676D01*
X138111515Y-99853681D01*
X138254702Y-99943652D01*
X138254705Y-99943654D01*
X138254709Y-99943655D01*
X138254710Y-99943656D01*
X138323278Y-99967649D01*
X138414343Y-99999514D01*
X138582397Y-100018449D01*
X138582400Y-100018449D01*
X138582403Y-100018449D01*
X138750456Y-99999514D01*
X138794384Y-99984143D01*
X138910090Y-99943656D01*
X138910092Y-99943654D01*
X138910094Y-99943654D01*
X138910097Y-99943652D01*
X139053284Y-99853681D01*
X139053285Y-99853680D01*
X139053290Y-99853677D01*
X139172877Y-99734090D01*
X139262852Y-99590897D01*
X139262854Y-99590894D01*
X139262854Y-99590892D01*
X139262856Y-99590890D01*
X139318713Y-99431259D01*
X139318713Y-99431258D01*
X139318714Y-99431256D01*
X139337649Y-99263202D01*
X139337649Y-99263197D01*
X139331926Y-99212402D01*
X140925951Y-99212402D01*
X140944885Y-99380456D01*
X141000745Y-99540094D01*
X141000747Y-99540097D01*
X141090718Y-99683284D01*
X141090723Y-99683290D01*
X141210309Y-99802876D01*
X141210315Y-99802881D01*
X141353502Y-99892852D01*
X141353505Y-99892854D01*
X141353509Y-99892855D01*
X141353510Y-99892856D01*
X141389545Y-99905465D01*
X141513143Y-99948714D01*
X141681197Y-99967649D01*
X141681200Y-99967649D01*
X141681203Y-99967649D01*
X141849256Y-99948714D01*
X141863717Y-99943654D01*
X142008890Y-99892856D01*
X142008892Y-99892854D01*
X142008894Y-99892854D01*
X142008897Y-99892852D01*
X142152084Y-99802881D01*
X142152085Y-99802880D01*
X142152090Y-99802877D01*
X142271677Y-99683290D01*
X142348063Y-99561723D01*
X142361652Y-99540097D01*
X142361654Y-99540094D01*
X142361654Y-99540092D01*
X142361656Y-99540090D01*
X142417513Y-99380459D01*
X142417513Y-99380458D01*
X142417514Y-99380456D01*
X142436449Y-99212402D01*
X142436449Y-99212396D01*
X142419223Y-99059510D01*
X142431277Y-98990689D01*
X142478627Y-98939309D01*
X142546237Y-98921685D01*
X142612643Y-98943412D01*
X142647435Y-98979653D01*
X142672123Y-99018943D01*
X142706523Y-99073690D01*
X142826109Y-99193276D01*
X142826115Y-99193281D01*
X142969302Y-99283252D01*
X142969305Y-99283254D01*
X142969309Y-99283255D01*
X142969310Y-99283256D01*
X142990581Y-99290699D01*
X143128943Y-99339114D01*
X143296997Y-99358049D01*
X143297000Y-99358049D01*
X143297003Y-99358049D01*
X143465056Y-99339114D01*
X143465059Y-99339113D01*
X143624690Y-99283256D01*
X143624692Y-99283254D01*
X143624694Y-99283254D01*
X143624697Y-99283252D01*
X143767884Y-99193281D01*
X143767885Y-99193280D01*
X143767890Y-99193277D01*
X143887477Y-99073690D01*
X143905917Y-99044343D01*
X143977452Y-98930497D01*
X143977455Y-98930492D01*
X143987336Y-98902254D01*
X144019306Y-98810886D01*
X144060026Y-98754113D01*
X144108758Y-98730951D01*
X144115057Y-98729513D01*
X144115059Y-98729513D01*
X144274690Y-98673656D01*
X144274693Y-98673653D01*
X144274697Y-98673652D01*
X144417884Y-98583681D01*
X144417885Y-98583680D01*
X144417890Y-98583677D01*
X144537477Y-98464090D01*
X144540854Y-98458716D01*
X144627452Y-98320897D01*
X144627454Y-98320894D01*
X144627454Y-98320892D01*
X144627456Y-98320890D01*
X144683313Y-98161259D01*
X144683313Y-98161258D01*
X144683314Y-98161256D01*
X144702249Y-97993202D01*
X144702249Y-97993197D01*
X144683314Y-97825143D01*
X144650394Y-97731064D01*
X144627456Y-97665510D01*
X144627455Y-97665509D01*
X144627454Y-97665505D01*
X144627452Y-97665502D01*
X144537481Y-97522315D01*
X144537476Y-97522309D01*
X144417890Y-97402723D01*
X144417884Y-97402718D01*
X144274697Y-97312747D01*
X144274694Y-97312745D01*
X144115056Y-97256885D01*
X143947003Y-97237951D01*
X143946997Y-97237951D01*
X143778943Y-97256885D01*
X143619305Y-97312745D01*
X143619302Y-97312747D01*
X143476115Y-97402718D01*
X143476108Y-97402724D01*
X143432198Y-97446634D01*
X143370875Y-97480118D01*
X143301183Y-97475133D01*
X143245250Y-97433261D01*
X143239522Y-97424920D01*
X143236877Y-97420710D01*
X143117290Y-97301123D01*
X143117284Y-97301118D01*
X142974097Y-97211147D01*
X142974094Y-97211145D01*
X142814456Y-97155285D01*
X142646403Y-97136351D01*
X142646397Y-97136351D01*
X142478343Y-97155285D01*
X142318705Y-97211145D01*
X142318702Y-97211147D01*
X142175515Y-97301118D01*
X142175509Y-97301123D01*
X142055923Y-97420709D01*
X142055918Y-97420715D01*
X141965947Y-97563902D01*
X141965945Y-97563905D01*
X141910085Y-97723543D01*
X141891151Y-97891597D01*
X141891151Y-97891602D01*
X141910085Y-98059656D01*
X141965945Y-98219292D01*
X142017123Y-98300741D01*
X142036123Y-98367978D01*
X142015755Y-98434813D01*
X141962488Y-98480027D01*
X141893231Y-98489265D01*
X141871176Y-98483755D01*
X141849259Y-98476086D01*
X141681203Y-98457151D01*
X141681197Y-98457151D01*
X141513143Y-98476085D01*
X141353505Y-98531945D01*
X141353502Y-98531947D01*
X141210315Y-98621918D01*
X141210309Y-98621923D01*
X141090723Y-98741509D01*
X141090718Y-98741515D01*
X141000747Y-98884702D01*
X141000745Y-98884705D01*
X140944885Y-99044343D01*
X140925951Y-99212397D01*
X140925951Y-99212402D01*
X139331926Y-99212402D01*
X139318714Y-99095143D01*
X139262854Y-98935505D01*
X139262852Y-98935502D01*
X139172881Y-98792315D01*
X139172876Y-98792309D01*
X139053290Y-98672723D01*
X139053284Y-98672718D01*
X138910097Y-98582747D01*
X138910094Y-98582745D01*
X138750456Y-98526885D01*
X138582403Y-98507951D01*
X138582397Y-98507951D01*
X138414343Y-98526885D01*
X138254705Y-98582745D01*
X138254702Y-98582747D01*
X138111515Y-98672718D01*
X138111509Y-98672723D01*
X137991923Y-98792309D01*
X137991918Y-98792315D01*
X137901947Y-98935502D01*
X137901945Y-98935505D01*
X137846085Y-99095143D01*
X137827151Y-99263197D01*
X137827151Y-99263202D01*
X126529500Y-99263202D01*
X126529500Y-98221802D01*
X130359551Y-98221802D01*
X130378485Y-98389856D01*
X130434345Y-98549494D01*
X130434347Y-98549497D01*
X130524318Y-98692684D01*
X130524323Y-98692690D01*
X130643909Y-98812276D01*
X130643915Y-98812281D01*
X130787102Y-98902252D01*
X130787105Y-98902254D01*
X130787109Y-98902255D01*
X130787110Y-98902256D01*
X130842635Y-98921685D01*
X130946743Y-98958114D01*
X131114797Y-98977049D01*
X131114800Y-98977049D01*
X131114803Y-98977049D01*
X131282856Y-98958114D01*
X131326784Y-98942743D01*
X131442490Y-98902256D01*
X131442492Y-98902254D01*
X131442494Y-98902254D01*
X131442497Y-98902252D01*
X131585684Y-98812281D01*
X131585685Y-98812280D01*
X131585690Y-98812277D01*
X131705277Y-98692690D01*
X131706739Y-98690363D01*
X131795252Y-98549497D01*
X131795254Y-98549494D01*
X131795254Y-98549492D01*
X131795256Y-98549490D01*
X131851113Y-98389859D01*
X131851113Y-98389858D01*
X131851114Y-98389856D01*
X131870049Y-98221802D01*
X131870049Y-98221797D01*
X131851114Y-98053743D01*
X131795254Y-97894105D01*
X131795252Y-97894102D01*
X131705281Y-97750915D01*
X131705276Y-97750909D01*
X131585690Y-97631323D01*
X131585684Y-97631318D01*
X131442497Y-97541347D01*
X131442494Y-97541345D01*
X131282856Y-97485485D01*
X131114803Y-97466551D01*
X131114797Y-97466551D01*
X130946743Y-97485485D01*
X130787105Y-97541345D01*
X130787102Y-97541347D01*
X130643915Y-97631318D01*
X130643909Y-97631323D01*
X130524323Y-97750909D01*
X130524318Y-97750915D01*
X130434347Y-97894102D01*
X130434345Y-97894105D01*
X130378485Y-98053743D01*
X130359551Y-98221797D01*
X130359551Y-98221802D01*
X126529500Y-98221802D01*
X126529500Y-97459072D01*
X127508500Y-97459072D01*
X127533498Y-97584739D01*
X127533500Y-97584745D01*
X127582534Y-97703125D01*
X127582539Y-97703134D01*
X127653724Y-97809669D01*
X127653727Y-97809673D01*
X127744328Y-97900274D01*
X127744332Y-97900277D01*
X127850867Y-97971462D01*
X127850873Y-97971465D01*
X127850874Y-97971466D01*
X127969257Y-98020502D01*
X127969261Y-98020502D01*
X127969262Y-98020503D01*
X128094929Y-98045501D01*
X128094932Y-98045501D01*
X128223072Y-98045501D01*
X128307616Y-98028683D01*
X128348745Y-98020502D01*
X128467128Y-97971466D01*
X128573670Y-97900277D01*
X128664277Y-97809670D01*
X128735466Y-97703128D01*
X128784502Y-97584745D01*
X128794390Y-97535035D01*
X128809501Y-97459072D01*
X128809501Y-97330929D01*
X128784503Y-97205262D01*
X128784502Y-97205261D01*
X128784502Y-97205257D01*
X128735466Y-97086874D01*
X128735465Y-97086873D01*
X128735462Y-97086867D01*
X128664277Y-96980332D01*
X128664274Y-96980328D01*
X128573673Y-96889727D01*
X128573669Y-96889724D01*
X128467134Y-96818539D01*
X128467125Y-96818534D01*
X128348745Y-96769500D01*
X128348739Y-96769498D01*
X128223072Y-96744501D01*
X128223070Y-96744501D01*
X128094932Y-96744501D01*
X128094930Y-96744501D01*
X127969262Y-96769498D01*
X127969256Y-96769500D01*
X127850876Y-96818534D01*
X127850867Y-96818539D01*
X127744332Y-96889724D01*
X127744328Y-96889727D01*
X127653727Y-96980328D01*
X127653724Y-96980332D01*
X127582539Y-97086867D01*
X127582534Y-97086876D01*
X127533500Y-97205256D01*
X127533498Y-97205262D01*
X127508501Y-97330929D01*
X127508501Y-97330932D01*
X127508501Y-97459070D01*
X127508501Y-97459072D01*
X127508500Y-97459072D01*
X126529500Y-97459072D01*
X126529500Y-93209072D01*
X127508500Y-93209072D01*
X127533498Y-93334739D01*
X127533500Y-93334745D01*
X127582534Y-93453125D01*
X127582539Y-93453134D01*
X127653724Y-93559669D01*
X127653727Y-93559673D01*
X127744328Y-93650274D01*
X127744332Y-93650277D01*
X127850867Y-93721462D01*
X127850873Y-93721465D01*
X127850874Y-93721466D01*
X127969257Y-93770502D01*
X127969261Y-93770502D01*
X127969262Y-93770503D01*
X128094929Y-93795501D01*
X128094932Y-93795501D01*
X128223072Y-93795501D01*
X128307616Y-93778683D01*
X128348745Y-93770502D01*
X128467128Y-93721466D01*
X128573670Y-93650277D01*
X128664277Y-93559670D01*
X128735466Y-93453128D01*
X128784502Y-93334745D01*
X128809501Y-93209070D01*
X128809501Y-93080932D01*
X128809501Y-93080929D01*
X128784503Y-92955262D01*
X128784502Y-92955261D01*
X128784502Y-92955257D01*
X128737732Y-92842344D01*
X128735467Y-92836876D01*
X128735462Y-92836867D01*
X128664277Y-92730332D01*
X128664274Y-92730328D01*
X128573673Y-92639727D01*
X128573669Y-92639724D01*
X128467134Y-92568539D01*
X128467125Y-92568534D01*
X128348745Y-92519500D01*
X128348739Y-92519498D01*
X128223072Y-92494501D01*
X128223070Y-92494501D01*
X128094932Y-92494501D01*
X128094930Y-92494501D01*
X127969262Y-92519498D01*
X127969256Y-92519500D01*
X127850876Y-92568534D01*
X127850867Y-92568539D01*
X127744332Y-92639724D01*
X127744328Y-92639727D01*
X127653727Y-92730328D01*
X127653724Y-92730332D01*
X127582539Y-92836867D01*
X127582534Y-92836876D01*
X127533500Y-92955256D01*
X127533498Y-92955262D01*
X127508501Y-93080929D01*
X127508501Y-93080932D01*
X127508501Y-93209070D01*
X127508501Y-93209072D01*
X127508500Y-93209072D01*
X126529500Y-93209072D01*
X126529500Y-91769640D01*
X129288500Y-91769640D01*
X129291397Y-91823688D01*
X129291397Y-91823689D01*
X129294229Y-91850022D01*
X129294232Y-91850049D01*
X129302885Y-91903445D01*
X129302885Y-91903447D01*
X129320903Y-91951753D01*
X129353168Y-92038257D01*
X129386653Y-92099580D01*
X129472877Y-92214761D01*
X129472881Y-92214765D01*
X129472886Y-92214771D01*
X130979578Y-93721462D01*
X132448239Y-95190123D01*
X132448255Y-95190137D01*
X132448262Y-95190144D01*
X132488480Y-95226271D01*
X132488492Y-95226281D01*
X132488500Y-95226288D01*
X132497008Y-95233144D01*
X132508490Y-95242397D01*
X132509142Y-95242922D01*
X132553026Y-95274567D01*
X132683903Y-95334338D01*
X132750942Y-95354023D01*
X132750946Y-95354024D01*
X132893362Y-95374500D01*
X132893364Y-95374500D01*
X132897746Y-95375130D01*
X132897477Y-95376998D01*
X132955628Y-95398690D01*
X132997498Y-95454624D01*
X133002481Y-95524316D01*
X132968997Y-95585636D01*
X132886518Y-95668115D01*
X132796547Y-95811302D01*
X132796545Y-95811305D01*
X132740685Y-95970943D01*
X132721751Y-96138997D01*
X132721751Y-96139002D01*
X132740685Y-96307056D01*
X132796545Y-96466694D01*
X132796547Y-96466697D01*
X132886518Y-96609884D01*
X132886523Y-96609890D01*
X133006109Y-96729476D01*
X133006115Y-96729481D01*
X133149302Y-96819452D01*
X133149305Y-96819454D01*
X133149309Y-96819455D01*
X133149310Y-96819456D01*
X133196393Y-96835931D01*
X133308943Y-96875314D01*
X133476997Y-96894249D01*
X133477000Y-96894249D01*
X133477003Y-96894249D01*
X133645056Y-96875314D01*
X133645059Y-96875313D01*
X133804690Y-96819456D01*
X133804692Y-96819454D01*
X133804694Y-96819454D01*
X133804697Y-96819452D01*
X133947884Y-96729481D01*
X133947885Y-96729480D01*
X133947890Y-96729477D01*
X134067477Y-96609890D01*
X134090467Y-96573302D01*
X134157452Y-96466697D01*
X134157454Y-96466694D01*
X134157454Y-96466692D01*
X134157456Y-96466690D01*
X134213313Y-96307059D01*
X134213313Y-96307058D01*
X134213314Y-96307056D01*
X134232249Y-96139002D01*
X134232249Y-96138997D01*
X134213314Y-95970943D01*
X134169655Y-95846173D01*
X134157456Y-95811310D01*
X134157455Y-95811309D01*
X134157454Y-95811305D01*
X134157452Y-95811302D01*
X134067481Y-95668115D01*
X134067476Y-95668109D01*
X133985548Y-95586181D01*
X133952063Y-95524858D01*
X133957047Y-95455166D01*
X133998919Y-95399233D01*
X134064383Y-95374816D01*
X134073229Y-95374500D01*
X134441640Y-95374500D01*
X134451786Y-95373955D01*
X134495678Y-95371603D01*
X134495686Y-95371602D01*
X134495688Y-95371602D01*
X134495689Y-95371602D01*
X134502682Y-95370849D01*
X134522036Y-95368769D01*
X134522046Y-95368767D01*
X134522049Y-95368767D01*
X134531648Y-95367211D01*
X134575448Y-95360114D01*
X134710257Y-95309832D01*
X134726794Y-95300802D01*
X138614551Y-95300802D01*
X138633485Y-95468856D01*
X138689345Y-95628494D01*
X138689347Y-95628497D01*
X138779318Y-95771684D01*
X138779323Y-95771690D01*
X138898909Y-95891276D01*
X138898915Y-95891281D01*
X139042102Y-95981252D01*
X139042105Y-95981254D01*
X139042109Y-95981255D01*
X139042110Y-95981256D01*
X139114713Y-96006660D01*
X139201743Y-96037114D01*
X139369797Y-96056049D01*
X139369800Y-96056049D01*
X139369803Y-96056049D01*
X139537856Y-96037114D01*
X139585422Y-96020470D01*
X139697490Y-95981256D01*
X139697492Y-95981254D01*
X139697494Y-95981254D01*
X139697497Y-95981252D01*
X139840684Y-95891281D01*
X139840685Y-95891280D01*
X139840690Y-95891277D01*
X139960277Y-95771690D01*
X139960947Y-95770624D01*
X140050252Y-95628497D01*
X140050254Y-95628494D01*
X140050254Y-95628492D01*
X140050256Y-95628490D01*
X140106113Y-95468859D01*
X140106113Y-95468858D01*
X140106114Y-95468856D01*
X140125049Y-95300802D01*
X140125049Y-95300797D01*
X140106114Y-95132743D01*
X140067152Y-95021396D01*
X140050256Y-94973110D01*
X140050255Y-94973109D01*
X140050254Y-94973105D01*
X140050252Y-94973102D01*
X140048681Y-94970602D01*
X144416751Y-94970602D01*
X144435685Y-95138656D01*
X144491545Y-95298294D01*
X144491547Y-95298297D01*
X144581518Y-95441484D01*
X144581523Y-95441490D01*
X144701109Y-95561076D01*
X144701115Y-95561081D01*
X144844302Y-95651052D01*
X144844305Y-95651054D01*
X144844309Y-95651055D01*
X144844310Y-95651056D01*
X144893045Y-95668109D01*
X145003943Y-95706914D01*
X145171997Y-95725849D01*
X145172000Y-95725849D01*
X145172003Y-95725849D01*
X145340059Y-95706913D01*
X145340060Y-95706913D01*
X145450955Y-95668109D01*
X145493845Y-95653100D01*
X145563624Y-95649539D01*
X145575750Y-95653099D01*
X145615375Y-95666964D01*
X145729539Y-95706913D01*
X145897597Y-95725849D01*
X145897600Y-95725849D01*
X145897603Y-95725849D01*
X146065656Y-95706914D01*
X146080117Y-95701854D01*
X146225290Y-95651056D01*
X146225292Y-95651054D01*
X146225294Y-95651054D01*
X146225297Y-95651052D01*
X146368484Y-95561081D01*
X146368485Y-95561080D01*
X146368490Y-95561077D01*
X146488077Y-95441490D01*
X146525175Y-95382449D01*
X146578052Y-95298297D01*
X146578054Y-95298294D01*
X146578054Y-95298292D01*
X146578056Y-95298290D01*
X146633913Y-95138659D01*
X146633913Y-95138658D01*
X146633914Y-95138656D01*
X146652849Y-94970602D01*
X146652849Y-94970597D01*
X146633914Y-94802543D01*
X146578054Y-94642905D01*
X146578052Y-94642902D01*
X146488081Y-94499715D01*
X146488076Y-94499709D01*
X146368490Y-94380123D01*
X146368484Y-94380118D01*
X146225297Y-94290147D01*
X146225294Y-94290145D01*
X146065656Y-94234285D01*
X145897603Y-94215351D01*
X145897597Y-94215351D01*
X145729543Y-94234285D01*
X145604476Y-94278049D01*
X145575754Y-94288099D01*
X145505976Y-94291660D01*
X145493849Y-94288100D01*
X145431122Y-94266151D01*
X145340056Y-94234285D01*
X145172003Y-94215351D01*
X145171997Y-94215351D01*
X145003943Y-94234285D01*
X144844305Y-94290145D01*
X144844302Y-94290147D01*
X144701115Y-94380118D01*
X144701109Y-94380123D01*
X144581523Y-94499709D01*
X144581518Y-94499715D01*
X144491547Y-94642902D01*
X144491545Y-94642905D01*
X144435685Y-94802543D01*
X144416751Y-94970597D01*
X144416751Y-94970602D01*
X140048681Y-94970602D01*
X139960281Y-94829915D01*
X139960276Y-94829909D01*
X139840690Y-94710323D01*
X139840684Y-94710318D01*
X139697497Y-94620347D01*
X139697494Y-94620345D01*
X139537856Y-94564485D01*
X139369803Y-94545551D01*
X139369797Y-94545551D01*
X139201743Y-94564485D01*
X139042105Y-94620345D01*
X139042102Y-94620347D01*
X138898915Y-94710318D01*
X138898909Y-94710323D01*
X138779323Y-94829909D01*
X138779318Y-94829915D01*
X138689347Y-94973102D01*
X138689345Y-94973105D01*
X138633485Y-95132743D01*
X138614551Y-95300797D01*
X138614551Y-95300802D01*
X134726794Y-95300802D01*
X134771580Y-95276347D01*
X134886761Y-95190123D01*
X135195123Y-94881761D01*
X135231288Y-94841500D01*
X135247922Y-94820858D01*
X135279567Y-94776974D01*
X135339338Y-94646097D01*
X135359023Y-94579058D01*
X135359024Y-94579054D01*
X135379500Y-94436638D01*
X135379500Y-93522802D01*
X140798951Y-93522802D01*
X140817885Y-93690856D01*
X140873745Y-93850494D01*
X140873747Y-93850497D01*
X140963718Y-93993684D01*
X140963723Y-93993690D01*
X141083309Y-94113276D01*
X141083315Y-94113281D01*
X141226502Y-94203252D01*
X141226505Y-94203254D01*
X141226509Y-94203255D01*
X141226510Y-94203256D01*
X141255986Y-94213570D01*
X141386143Y-94259114D01*
X141554197Y-94278049D01*
X141554200Y-94278049D01*
X141554203Y-94278049D01*
X141722256Y-94259114D01*
X141741212Y-94252481D01*
X141881890Y-94203256D01*
X141881892Y-94203254D01*
X141881894Y-94203254D01*
X141881897Y-94203252D01*
X142025084Y-94113281D01*
X142025085Y-94113280D01*
X142025090Y-94113277D01*
X142144677Y-93993690D01*
X142220868Y-93872434D01*
X142234652Y-93850497D01*
X142234654Y-93850494D01*
X142234654Y-93850492D01*
X142234656Y-93850490D01*
X142290513Y-93690859D01*
X142290513Y-93690858D01*
X142290514Y-93690856D01*
X142309449Y-93522802D01*
X142309449Y-93522797D01*
X142290514Y-93354743D01*
X142237875Y-93204310D01*
X142234656Y-93195110D01*
X142234655Y-93195109D01*
X142234654Y-93195105D01*
X142234652Y-93195102D01*
X142144681Y-93051915D01*
X142144676Y-93051909D01*
X142025090Y-92932323D01*
X142025084Y-92932318D01*
X141881897Y-92842347D01*
X141881894Y-92842345D01*
X141722256Y-92786485D01*
X141554203Y-92767551D01*
X141554197Y-92767551D01*
X141386143Y-92786485D01*
X141226505Y-92842345D01*
X141226502Y-92842347D01*
X141083315Y-92932318D01*
X141083309Y-92932323D01*
X140963723Y-93051909D01*
X140963718Y-93051915D01*
X140873747Y-93195102D01*
X140873745Y-93195105D01*
X140817885Y-93354743D01*
X140798951Y-93522797D01*
X140798951Y-93522802D01*
X135379500Y-93522802D01*
X135379500Y-90246202D01*
X137369951Y-90246202D01*
X137388885Y-90414256D01*
X137444745Y-90573894D01*
X137444747Y-90573897D01*
X137534718Y-90717084D01*
X137534723Y-90717090D01*
X137654309Y-90836676D01*
X137654315Y-90836681D01*
X137797502Y-90926652D01*
X137797505Y-90926654D01*
X137797509Y-90926655D01*
X137797510Y-90926656D01*
X137818764Y-90934093D01*
X137957143Y-90982514D01*
X138125197Y-91001449D01*
X138125200Y-91001449D01*
X138125203Y-91001449D01*
X138293256Y-90982514D01*
X138310077Y-90976628D01*
X138452890Y-90926656D01*
X138452892Y-90926654D01*
X138452894Y-90926654D01*
X138452897Y-90926652D01*
X138596084Y-90836681D01*
X138596085Y-90836680D01*
X138596090Y-90836677D01*
X138715677Y-90717090D01*
X138716374Y-90715981D01*
X138805652Y-90573897D01*
X138805654Y-90573894D01*
X138805654Y-90573892D01*
X138805656Y-90573890D01*
X138861513Y-90414259D01*
X138861513Y-90414258D01*
X138861514Y-90414256D01*
X138880449Y-90246202D01*
X138880449Y-90246197D01*
X138861514Y-90078143D01*
X138805654Y-89918505D01*
X138805652Y-89918502D01*
X138804081Y-89916002D01*
X142789750Y-89916002D01*
X142808684Y-90084056D01*
X142864544Y-90243694D01*
X142864546Y-90243697D01*
X142954517Y-90386884D01*
X142954522Y-90386890D01*
X143074108Y-90506476D01*
X143074114Y-90506481D01*
X143217301Y-90596452D01*
X143217304Y-90596454D01*
X143217308Y-90596455D01*
X143217309Y-90596456D01*
X143289912Y-90621860D01*
X143376942Y-90652314D01*
X143544996Y-90671249D01*
X143544999Y-90671249D01*
X143545002Y-90671249D01*
X143713055Y-90652314D01*
X143713058Y-90652313D01*
X143872689Y-90596456D01*
X143872691Y-90596454D01*
X143872693Y-90596454D01*
X143872696Y-90596452D01*
X144015883Y-90506481D01*
X144015884Y-90506480D01*
X144015889Y-90506477D01*
X144135476Y-90386890D01*
X144138650Y-90381839D01*
X144225451Y-90243697D01*
X144225453Y-90243694D01*
X144225453Y-90243692D01*
X144225455Y-90243690D01*
X144269015Y-90119202D01*
X145370951Y-90119202D01*
X145389885Y-90287256D01*
X145445745Y-90446894D01*
X145445747Y-90446897D01*
X145535718Y-90590084D01*
X145535723Y-90590090D01*
X145655309Y-90709676D01*
X145655315Y-90709681D01*
X145798502Y-90799652D01*
X145798505Y-90799654D01*
X145798509Y-90799655D01*
X145798510Y-90799656D01*
X145871113Y-90825060D01*
X145958143Y-90855514D01*
X146126197Y-90874449D01*
X146126200Y-90874449D01*
X146126203Y-90874449D01*
X146294256Y-90855514D01*
X146309863Y-90850053D01*
X146453890Y-90799656D01*
X146453892Y-90799654D01*
X146453894Y-90799654D01*
X146453897Y-90799652D01*
X146597084Y-90709681D01*
X146597085Y-90709680D01*
X146597090Y-90709677D01*
X146716677Y-90590090D01*
X146741419Y-90550714D01*
X146806652Y-90446897D01*
X146806654Y-90446894D01*
X146806654Y-90446892D01*
X146806656Y-90446890D01*
X146862513Y-90287259D01*
X146862513Y-90287258D01*
X146862514Y-90287256D01*
X146881449Y-90119202D01*
X146881449Y-90119197D01*
X146862514Y-89951143D01*
X146814666Y-89814402D01*
X147479151Y-89814402D01*
X147498085Y-89982456D01*
X147553945Y-90142094D01*
X147553947Y-90142097D01*
X147643918Y-90285284D01*
X147643923Y-90285290D01*
X147763509Y-90404876D01*
X147763515Y-90404881D01*
X147906702Y-90494852D01*
X147906705Y-90494854D01*
X147906709Y-90494855D01*
X147906710Y-90494856D01*
X147939921Y-90506477D01*
X148066343Y-90550714D01*
X148234397Y-90569649D01*
X148234400Y-90569649D01*
X148234403Y-90569649D01*
X148402456Y-90550714D01*
X148402459Y-90550713D01*
X148562090Y-90494856D01*
X148562092Y-90494854D01*
X148562094Y-90494854D01*
X148562097Y-90494852D01*
X148705284Y-90404881D01*
X148705285Y-90404880D01*
X148705290Y-90404877D01*
X148824877Y-90285290D01*
X148851016Y-90243690D01*
X148914852Y-90142097D01*
X148914854Y-90142094D01*
X148914854Y-90142092D01*
X148914856Y-90142090D01*
X148970713Y-89982459D01*
X148970713Y-89982458D01*
X148970714Y-89982456D01*
X148989649Y-89814402D01*
X148989649Y-89814397D01*
X148970714Y-89646343D01*
X148914854Y-89486705D01*
X148914852Y-89486702D01*
X148824881Y-89343515D01*
X148824876Y-89343509D01*
X148705290Y-89223923D01*
X148705284Y-89223918D01*
X148594014Y-89154002D01*
X152635351Y-89154002D01*
X152654285Y-89322056D01*
X152710145Y-89481694D01*
X152710147Y-89481697D01*
X152800118Y-89624884D01*
X152800123Y-89624890D01*
X152919709Y-89744476D01*
X152919715Y-89744481D01*
X153062902Y-89834452D01*
X153062905Y-89834454D01*
X153062909Y-89834455D01*
X153062910Y-89834456D01*
X153087562Y-89843082D01*
X153222543Y-89890314D01*
X153390597Y-89909249D01*
X153390600Y-89909249D01*
X153390603Y-89909249D01*
X153558656Y-89890314D01*
X153558659Y-89890313D01*
X153718290Y-89834456D01*
X153718292Y-89834454D01*
X153718294Y-89834454D01*
X153718297Y-89834452D01*
X153861484Y-89744481D01*
X153861485Y-89744480D01*
X153861490Y-89744477D01*
X153981077Y-89624890D01*
X153986609Y-89616086D01*
X154071052Y-89481697D01*
X154071054Y-89481694D01*
X154071054Y-89481692D01*
X154071056Y-89481690D01*
X154126913Y-89322059D01*
X154126913Y-89322058D01*
X154126914Y-89322056D01*
X154145849Y-89154002D01*
X154145849Y-89153997D01*
X154126914Y-88985943D01*
X154071054Y-88826305D01*
X154071052Y-88826302D01*
X153981081Y-88683115D01*
X153981076Y-88683109D01*
X153861490Y-88563523D01*
X153861484Y-88563518D01*
X153718297Y-88473547D01*
X153718294Y-88473545D01*
X153558656Y-88417685D01*
X153390603Y-88398751D01*
X153390597Y-88398751D01*
X153222543Y-88417685D01*
X153062905Y-88473545D01*
X153062902Y-88473547D01*
X152919715Y-88563518D01*
X152919709Y-88563523D01*
X152800123Y-88683109D01*
X152800118Y-88683115D01*
X152710147Y-88826302D01*
X152710145Y-88826305D01*
X152654285Y-88985943D01*
X152635351Y-89153997D01*
X152635351Y-89154002D01*
X148594014Y-89154002D01*
X148562097Y-89133947D01*
X148562094Y-89133945D01*
X148402456Y-89078085D01*
X148234403Y-89059151D01*
X148234397Y-89059151D01*
X148066343Y-89078085D01*
X147906705Y-89133945D01*
X147906702Y-89133947D01*
X147763515Y-89223918D01*
X147763509Y-89223923D01*
X147643923Y-89343509D01*
X147643918Y-89343515D01*
X147553947Y-89486702D01*
X147553945Y-89486705D01*
X147498085Y-89646343D01*
X147479151Y-89814397D01*
X147479151Y-89814402D01*
X146814666Y-89814402D01*
X146806656Y-89791510D01*
X146806655Y-89791509D01*
X146806654Y-89791505D01*
X146806652Y-89791502D01*
X146716681Y-89648315D01*
X146716676Y-89648309D01*
X146597090Y-89528723D01*
X146597084Y-89528718D01*
X146453897Y-89438747D01*
X146453894Y-89438745D01*
X146294256Y-89382885D01*
X146126203Y-89363951D01*
X146126197Y-89363951D01*
X145958143Y-89382885D01*
X145798505Y-89438745D01*
X145798502Y-89438747D01*
X145655315Y-89528718D01*
X145655309Y-89528723D01*
X145535723Y-89648309D01*
X145535718Y-89648315D01*
X145445747Y-89791502D01*
X145445745Y-89791505D01*
X145389885Y-89951143D01*
X145370951Y-90119197D01*
X145370951Y-90119202D01*
X144269015Y-90119202D01*
X144281312Y-90084059D01*
X144281312Y-90084058D01*
X144281313Y-90084056D01*
X144300248Y-89916002D01*
X144300248Y-89915997D01*
X144281313Y-89747943D01*
X144246449Y-89648309D01*
X144225455Y-89588310D01*
X144225454Y-89588309D01*
X144225453Y-89588305D01*
X144225451Y-89588302D01*
X144135480Y-89445115D01*
X144135475Y-89445109D01*
X144015889Y-89325523D01*
X144015883Y-89325518D01*
X143872696Y-89235547D01*
X143872693Y-89235545D01*
X143713055Y-89179685D01*
X143545002Y-89160751D01*
X143544996Y-89160751D01*
X143376942Y-89179685D01*
X143217304Y-89235545D01*
X143217301Y-89235547D01*
X143074114Y-89325518D01*
X143074108Y-89325523D01*
X142954522Y-89445109D01*
X142954517Y-89445115D01*
X142864546Y-89588302D01*
X142864544Y-89588305D01*
X142808684Y-89747943D01*
X142789750Y-89915997D01*
X142789750Y-89916002D01*
X138804081Y-89916002D01*
X138715681Y-89775315D01*
X138715676Y-89775309D01*
X138596090Y-89655723D01*
X138596084Y-89655718D01*
X138452897Y-89565747D01*
X138452894Y-89565745D01*
X138293256Y-89509885D01*
X138125203Y-89490951D01*
X138125197Y-89490951D01*
X137957143Y-89509885D01*
X137797505Y-89565745D01*
X137797502Y-89565747D01*
X137654315Y-89655718D01*
X137654309Y-89655723D01*
X137534723Y-89775309D01*
X137534718Y-89775315D01*
X137444747Y-89918502D01*
X137444745Y-89918505D01*
X137388885Y-90078143D01*
X137369951Y-90246197D01*
X137369951Y-90246202D01*
X135379500Y-90246202D01*
X135379500Y-89840362D01*
X135376603Y-89786322D01*
X135373769Y-89759964D01*
X135371259Y-89744477D01*
X135365114Y-89706554D01*
X135365114Y-89706552D01*
X135346155Y-89655723D01*
X135314832Y-89571743D01*
X135281347Y-89510420D01*
X135195123Y-89395239D01*
X135195118Y-89395234D01*
X135195113Y-89395228D01*
X134886776Y-89086892D01*
X134886761Y-89086877D01*
X134886737Y-89086855D01*
X134846519Y-89050728D01*
X134846507Y-89050718D01*
X134825856Y-89034076D01*
X134781974Y-89002433D01*
X134651100Y-88942663D01*
X134584055Y-88922976D01*
X134536582Y-88916150D01*
X134441638Y-88902500D01*
X134441636Y-88902500D01*
X133991746Y-88902500D01*
X133924707Y-88882815D01*
X133904065Y-88866181D01*
X132240819Y-87202935D01*
X132207334Y-87141612D01*
X132204500Y-87115254D01*
X132204500Y-86995002D01*
X137420751Y-86995002D01*
X137439685Y-87163056D01*
X137495545Y-87322694D01*
X137495547Y-87322697D01*
X137585518Y-87465884D01*
X137585523Y-87465890D01*
X137705109Y-87585476D01*
X137705115Y-87585481D01*
X137848302Y-87675452D01*
X137848305Y-87675454D01*
X137848309Y-87675455D01*
X137848310Y-87675456D01*
X137920913Y-87700860D01*
X138007943Y-87731314D01*
X138175997Y-87750249D01*
X138176000Y-87750249D01*
X138176003Y-87750249D01*
X138344056Y-87731314D01*
X138350392Y-87729097D01*
X138503690Y-87675456D01*
X138503692Y-87675454D01*
X138503694Y-87675454D01*
X138503697Y-87675452D01*
X138646884Y-87585481D01*
X138646885Y-87585480D01*
X138646890Y-87585477D01*
X138766477Y-87465890D01*
X138766481Y-87465884D01*
X138806998Y-87401402D01*
X147453751Y-87401402D01*
X147472685Y-87569456D01*
X147528545Y-87729094D01*
X147528547Y-87729097D01*
X147618518Y-87872284D01*
X147618523Y-87872290D01*
X147738109Y-87991876D01*
X147738115Y-87991881D01*
X147881302Y-88081852D01*
X147881305Y-88081854D01*
X147881309Y-88081855D01*
X147881310Y-88081856D01*
X147953888Y-88107252D01*
X148040943Y-88137714D01*
X148208997Y-88156649D01*
X148209000Y-88156649D01*
X148209003Y-88156649D01*
X148377056Y-88137714D01*
X148377059Y-88137713D01*
X148536690Y-88081856D01*
X148536692Y-88081854D01*
X148536694Y-88081854D01*
X148536697Y-88081852D01*
X148679884Y-87991881D01*
X148679885Y-87991880D01*
X148679890Y-87991877D01*
X148799477Y-87872290D01*
X148838427Y-87810302D01*
X148889452Y-87729097D01*
X148889454Y-87729094D01*
X148889454Y-87729092D01*
X148889456Y-87729090D01*
X148945313Y-87569459D01*
X148945313Y-87569458D01*
X148945314Y-87569456D01*
X148961387Y-87426802D01*
X150343951Y-87426802D01*
X150362885Y-87594856D01*
X150418745Y-87754494D01*
X150418747Y-87754497D01*
X150508718Y-87897684D01*
X150508723Y-87897690D01*
X150628309Y-88017276D01*
X150628315Y-88017281D01*
X150771502Y-88107252D01*
X150771505Y-88107254D01*
X150771509Y-88107255D01*
X150771510Y-88107256D01*
X150789889Y-88113687D01*
X150931143Y-88163114D01*
X151099197Y-88182049D01*
X151099200Y-88182049D01*
X151099203Y-88182049D01*
X151267256Y-88163114D01*
X151285732Y-88156649D01*
X151426890Y-88107256D01*
X151540079Y-88036134D01*
X151607312Y-88017134D01*
X151646996Y-88024085D01*
X151681941Y-88036313D01*
X151681945Y-88036313D01*
X151681947Y-88036314D01*
X151849997Y-88055249D01*
X151850000Y-88055249D01*
X151850003Y-88055249D01*
X152018056Y-88036314D01*
X152052999Y-88024087D01*
X152177690Y-87980456D01*
X152177692Y-87980454D01*
X152177694Y-87980454D01*
X152177697Y-87980452D01*
X152320884Y-87890481D01*
X152320885Y-87890480D01*
X152320890Y-87890477D01*
X152440477Y-87770890D01*
X152440481Y-87770884D01*
X152530452Y-87627697D01*
X152530454Y-87627694D01*
X152530454Y-87627692D01*
X152530456Y-87627690D01*
X152586313Y-87468059D01*
X152586313Y-87468058D01*
X152586314Y-87468056D01*
X152599615Y-87350002D01*
X155244751Y-87350002D01*
X155263685Y-87518056D01*
X155319545Y-87677694D01*
X155319547Y-87677697D01*
X155409518Y-87820884D01*
X155409523Y-87820890D01*
X155529109Y-87940476D01*
X155529115Y-87940481D01*
X155672302Y-88030452D01*
X155672305Y-88030454D01*
X155672309Y-88030455D01*
X155672310Y-88030456D01*
X155831941Y-88086313D01*
X155860268Y-88089504D01*
X155924681Y-88116570D01*
X155964237Y-88174165D01*
X155969605Y-88198841D01*
X155981685Y-88306055D01*
X156037545Y-88465694D01*
X156037547Y-88465697D01*
X156127518Y-88608884D01*
X156127523Y-88608890D01*
X156247109Y-88728476D01*
X156247115Y-88728481D01*
X156390302Y-88818452D01*
X156390305Y-88818454D01*
X156390309Y-88818455D01*
X156390310Y-88818456D01*
X156412756Y-88826310D01*
X156549943Y-88874314D01*
X156717997Y-88893249D01*
X156718000Y-88893249D01*
X156718003Y-88893249D01*
X156886056Y-88874314D01*
X156909299Y-88866181D01*
X157045690Y-88818456D01*
X157045692Y-88818454D01*
X157045694Y-88818454D01*
X157045697Y-88818452D01*
X157188884Y-88728481D01*
X157188885Y-88728480D01*
X157188890Y-88728477D01*
X157308477Y-88608890D01*
X157336983Y-88563523D01*
X157398452Y-88465697D01*
X157398454Y-88465694D01*
X157398454Y-88465692D01*
X157398456Y-88465690D01*
X157454313Y-88306059D01*
X157454313Y-88306058D01*
X157454314Y-88306056D01*
X157473249Y-88138002D01*
X160153751Y-88138002D01*
X160172685Y-88306056D01*
X160228545Y-88465694D01*
X160228547Y-88465697D01*
X160318518Y-88608884D01*
X160318523Y-88608890D01*
X160438109Y-88728476D01*
X160438115Y-88728481D01*
X160581302Y-88818452D01*
X160581305Y-88818454D01*
X160581309Y-88818455D01*
X160581310Y-88818456D01*
X160603756Y-88826310D01*
X160740943Y-88874314D01*
X160908997Y-88893249D01*
X160909000Y-88893249D01*
X160909003Y-88893249D01*
X161077056Y-88874314D01*
X161100299Y-88866181D01*
X161236690Y-88818456D01*
X161236692Y-88818454D01*
X161236694Y-88818454D01*
X161236697Y-88818452D01*
X161379884Y-88728481D01*
X161379885Y-88728480D01*
X161379890Y-88728477D01*
X161499477Y-88608890D01*
X161527983Y-88563523D01*
X161589452Y-88465697D01*
X161589454Y-88465694D01*
X161589454Y-88465692D01*
X161589456Y-88465690D01*
X161645313Y-88306059D01*
X161645313Y-88306058D01*
X161645314Y-88306056D01*
X161664249Y-88138002D01*
X161664249Y-88137997D01*
X161645314Y-87969943D01*
X161611144Y-87872290D01*
X161589456Y-87810310D01*
X161589455Y-87810309D01*
X161589454Y-87810305D01*
X161589452Y-87810302D01*
X161499481Y-87667115D01*
X161499476Y-87667109D01*
X161379890Y-87547523D01*
X161379884Y-87547518D01*
X161236697Y-87457547D01*
X161236694Y-87457545D01*
X161077056Y-87401685D01*
X160909003Y-87382751D01*
X160908997Y-87382751D01*
X160740943Y-87401685D01*
X160581305Y-87457545D01*
X160581302Y-87457547D01*
X160438115Y-87547518D01*
X160438109Y-87547523D01*
X160318523Y-87667109D01*
X160318518Y-87667115D01*
X160228547Y-87810302D01*
X160228545Y-87810305D01*
X160172685Y-87969943D01*
X160153751Y-88137997D01*
X160153751Y-88138002D01*
X157473249Y-88138002D01*
X157473249Y-88137997D01*
X157454314Y-87969943D01*
X157420144Y-87872290D01*
X157398456Y-87810310D01*
X157398455Y-87810309D01*
X157398454Y-87810305D01*
X157398452Y-87810302D01*
X157308481Y-87667115D01*
X157308476Y-87667109D01*
X157188890Y-87547523D01*
X157188884Y-87547518D01*
X157045697Y-87457547D01*
X157045692Y-87457544D01*
X156886053Y-87401685D01*
X156857729Y-87398494D01*
X156793315Y-87371427D01*
X156753761Y-87313831D01*
X156748394Y-87289157D01*
X156736314Y-87181944D01*
X156707329Y-87099110D01*
X156680456Y-87022310D01*
X156680455Y-87022309D01*
X156680454Y-87022305D01*
X156680452Y-87022302D01*
X156590481Y-86879115D01*
X156590476Y-86879109D01*
X156470890Y-86759523D01*
X156470884Y-86759518D01*
X156327697Y-86669547D01*
X156327694Y-86669545D01*
X156168056Y-86613685D01*
X156000003Y-86594751D01*
X155999997Y-86594751D01*
X155831943Y-86613685D01*
X155672305Y-86669545D01*
X155672302Y-86669547D01*
X155529115Y-86759518D01*
X155529109Y-86759523D01*
X155409523Y-86879109D01*
X155409518Y-86879115D01*
X155319547Y-87022302D01*
X155319545Y-87022305D01*
X155263685Y-87181943D01*
X155244751Y-87349997D01*
X155244751Y-87350002D01*
X152599615Y-87350002D01*
X152605249Y-87300002D01*
X152605249Y-87299997D01*
X152586314Y-87131943D01*
X152538396Y-86995002D01*
X152530456Y-86972310D01*
X152530455Y-86972309D01*
X152530454Y-86972305D01*
X152530452Y-86972302D01*
X152440481Y-86829115D01*
X152440476Y-86829109D01*
X152320890Y-86709523D01*
X152320884Y-86709518D01*
X152177697Y-86619547D01*
X152177694Y-86619545D01*
X152018056Y-86563685D01*
X151850003Y-86544751D01*
X151849997Y-86544751D01*
X151681943Y-86563685D01*
X151522307Y-86619545D01*
X151409123Y-86690664D01*
X151341886Y-86709664D01*
X151302197Y-86702712D01*
X151267258Y-86690486D01*
X151267254Y-86690485D01*
X151099203Y-86671551D01*
X151099197Y-86671551D01*
X150931143Y-86690485D01*
X150771505Y-86746345D01*
X150771502Y-86746347D01*
X150628315Y-86836318D01*
X150628309Y-86836323D01*
X150508723Y-86955909D01*
X150508718Y-86955915D01*
X150418747Y-87099102D01*
X150418745Y-87099105D01*
X150362885Y-87258743D01*
X150343951Y-87426797D01*
X150343951Y-87426802D01*
X148961387Y-87426802D01*
X148964249Y-87401402D01*
X148964249Y-87401397D01*
X148945314Y-87233343D01*
X148889454Y-87073705D01*
X148889452Y-87073702D01*
X148799481Y-86930515D01*
X148799476Y-86930509D01*
X148679890Y-86810923D01*
X148679884Y-86810918D01*
X148536697Y-86720947D01*
X148536694Y-86720945D01*
X148377056Y-86665085D01*
X148209003Y-86646151D01*
X148208997Y-86646151D01*
X148040943Y-86665085D01*
X147881305Y-86720945D01*
X147881302Y-86720947D01*
X147738115Y-86810918D01*
X147738109Y-86810923D01*
X147618523Y-86930509D01*
X147618518Y-86930515D01*
X147528547Y-87073702D01*
X147528545Y-87073705D01*
X147472685Y-87233343D01*
X147453751Y-87401397D01*
X147453751Y-87401402D01*
X138806998Y-87401402D01*
X138856452Y-87322697D01*
X138856454Y-87322694D01*
X138856454Y-87322692D01*
X138856456Y-87322690D01*
X138912313Y-87163059D01*
X138912313Y-87163058D01*
X138912314Y-87163056D01*
X138931249Y-86995002D01*
X138931249Y-86994997D01*
X138912314Y-86826943D01*
X138864566Y-86690487D01*
X138856456Y-86667310D01*
X138856455Y-86667309D01*
X138856454Y-86667305D01*
X138856452Y-86667302D01*
X138766481Y-86524115D01*
X138766476Y-86524109D01*
X138646890Y-86404523D01*
X138646884Y-86404518D01*
X138503697Y-86314547D01*
X138503694Y-86314545D01*
X138344056Y-86258685D01*
X138176003Y-86239751D01*
X138175997Y-86239751D01*
X138007943Y-86258685D01*
X137848305Y-86314545D01*
X137848302Y-86314547D01*
X137705115Y-86404518D01*
X137705109Y-86404523D01*
X137585523Y-86524109D01*
X137585518Y-86524115D01*
X137495547Y-86667302D01*
X137495545Y-86667305D01*
X137439685Y-86826943D01*
X137420751Y-86994997D01*
X137420751Y-86995002D01*
X132204500Y-86995002D01*
X132204500Y-85801202D01*
X145370951Y-85801202D01*
X145389885Y-85969256D01*
X145445745Y-86128894D01*
X145445747Y-86128897D01*
X145535718Y-86272084D01*
X145535723Y-86272090D01*
X145655309Y-86391676D01*
X145655315Y-86391681D01*
X145798502Y-86481652D01*
X145798505Y-86481654D01*
X145798509Y-86481655D01*
X145798510Y-86481656D01*
X145871113Y-86507060D01*
X145958143Y-86537514D01*
X146126197Y-86556449D01*
X146126200Y-86556449D01*
X146126203Y-86556449D01*
X146294256Y-86537514D01*
X146294259Y-86537513D01*
X146453890Y-86481656D01*
X146453892Y-86481654D01*
X146453894Y-86481654D01*
X146453897Y-86481652D01*
X146597084Y-86391681D01*
X146597085Y-86391680D01*
X146597090Y-86391677D01*
X146716677Y-86272090D01*
X146741238Y-86233002D01*
X160788751Y-86233002D01*
X160807685Y-86401056D01*
X160863545Y-86560694D01*
X160863547Y-86560697D01*
X160953518Y-86703884D01*
X160953523Y-86703890D01*
X161073109Y-86823476D01*
X161073115Y-86823481D01*
X161216302Y-86913452D01*
X161216305Y-86913454D01*
X161216309Y-86913455D01*
X161216310Y-86913456D01*
X161265045Y-86930509D01*
X161375943Y-86969314D01*
X161543997Y-86988249D01*
X161544000Y-86988249D01*
X161544003Y-86988249D01*
X161712056Y-86969314D01*
X161750348Y-86955915D01*
X161871690Y-86913456D01*
X161871692Y-86913454D01*
X161871694Y-86913454D01*
X161871697Y-86913452D01*
X162014884Y-86823481D01*
X162014885Y-86823480D01*
X162014890Y-86823477D01*
X162134477Y-86703890D01*
X162135217Y-86702712D01*
X162224452Y-86560697D01*
X162224454Y-86560694D01*
X162224454Y-86560692D01*
X162224456Y-86560690D01*
X162280313Y-86401059D01*
X162280313Y-86401058D01*
X162280314Y-86401056D01*
X162299249Y-86233002D01*
X162299249Y-86229134D01*
X162299590Y-86227969D01*
X162297531Y-86217749D01*
X162296098Y-86205029D01*
X162544408Y-86205029D01*
X162546469Y-86215251D01*
X162563685Y-86368055D01*
X162619545Y-86527694D01*
X162619547Y-86527697D01*
X162709518Y-86670884D01*
X162709523Y-86670890D01*
X162829109Y-86790476D01*
X162829115Y-86790481D01*
X162972302Y-86880452D01*
X162972305Y-86880454D01*
X162972309Y-86880455D01*
X162972310Y-86880456D01*
X163044913Y-86905860D01*
X163131943Y-86936314D01*
X163299997Y-86955249D01*
X163300000Y-86955249D01*
X163300003Y-86955249D01*
X163468056Y-86936314D01*
X163484646Y-86930509D01*
X163627690Y-86880456D01*
X163627692Y-86880454D01*
X163627694Y-86880454D01*
X163627697Y-86880452D01*
X163770884Y-86790481D01*
X163770885Y-86790480D01*
X163770890Y-86790477D01*
X163890477Y-86670890D01*
X163891323Y-86669544D01*
X163980452Y-86527697D01*
X163980454Y-86527694D01*
X163980454Y-86527692D01*
X163980456Y-86527690D01*
X164036313Y-86368059D01*
X164036313Y-86368058D01*
X164036314Y-86368056D01*
X164055249Y-86200002D01*
X164055249Y-86199997D01*
X164036314Y-86031943D01*
X163980454Y-85872305D01*
X163980452Y-85872302D01*
X163890481Y-85729115D01*
X163890476Y-85729109D01*
X163770890Y-85609523D01*
X163770884Y-85609518D01*
X163627697Y-85519547D01*
X163627694Y-85519545D01*
X163468056Y-85463685D01*
X163300003Y-85444751D01*
X163299997Y-85444751D01*
X163131943Y-85463685D01*
X162972305Y-85519545D01*
X162972302Y-85519547D01*
X162829115Y-85609518D01*
X162829109Y-85609523D01*
X162709523Y-85729109D01*
X162709518Y-85729115D01*
X162619547Y-85872302D01*
X162619545Y-85872305D01*
X162563685Y-86031943D01*
X162544751Y-86199997D01*
X162544751Y-86203865D01*
X162544408Y-86205029D01*
X162296098Y-86205029D01*
X162280314Y-86064943D01*
X162224454Y-85905305D01*
X162224452Y-85905302D01*
X162134481Y-85762115D01*
X162134476Y-85762109D01*
X162014890Y-85642523D01*
X162014884Y-85642518D01*
X161871697Y-85552547D01*
X161871694Y-85552545D01*
X161712056Y-85496685D01*
X161544003Y-85477751D01*
X161543997Y-85477751D01*
X161375943Y-85496685D01*
X161216305Y-85552545D01*
X161216302Y-85552547D01*
X161073115Y-85642518D01*
X161073109Y-85642523D01*
X160953523Y-85762109D01*
X160953518Y-85762115D01*
X160863547Y-85905302D01*
X160863545Y-85905305D01*
X160807685Y-86064943D01*
X160788751Y-86232997D01*
X160788751Y-86233002D01*
X146741238Y-86233002D01*
X146750822Y-86217749D01*
X146806652Y-86128897D01*
X146806654Y-86128894D01*
X146806654Y-86128892D01*
X146806656Y-86128890D01*
X146862513Y-85969259D01*
X146862513Y-85969258D01*
X146862514Y-85969256D01*
X146881449Y-85801202D01*
X146881449Y-85801197D01*
X146862514Y-85633143D01*
X146806654Y-85473505D01*
X146806652Y-85473502D01*
X146716681Y-85330315D01*
X146716676Y-85330309D01*
X146597090Y-85210723D01*
X146597084Y-85210718D01*
X146453897Y-85120747D01*
X146453894Y-85120745D01*
X146294256Y-85064885D01*
X146126203Y-85045951D01*
X146126197Y-85045951D01*
X145958143Y-85064885D01*
X145798505Y-85120745D01*
X145798502Y-85120747D01*
X145655315Y-85210718D01*
X145655309Y-85210723D01*
X145535723Y-85330309D01*
X145535718Y-85330315D01*
X145445747Y-85473502D01*
X145445745Y-85473505D01*
X145389885Y-85633143D01*
X145370951Y-85801197D01*
X145370951Y-85801202D01*
X132204500Y-85801202D01*
X132204500Y-84531202D01*
X135947551Y-84531202D01*
X135966485Y-84699256D01*
X136022345Y-84858894D01*
X136022347Y-84858897D01*
X136112318Y-85002084D01*
X136112323Y-85002090D01*
X136231909Y-85121676D01*
X136231915Y-85121681D01*
X136375102Y-85211652D01*
X136375105Y-85211654D01*
X136375109Y-85211655D01*
X136375110Y-85211656D01*
X136447713Y-85237060D01*
X136534743Y-85267514D01*
X136702797Y-85286449D01*
X136702800Y-85286449D01*
X136702803Y-85286449D01*
X136870856Y-85267514D01*
X136870859Y-85267513D01*
X137030490Y-85211656D01*
X137030492Y-85211654D01*
X137030494Y-85211654D01*
X137030497Y-85211652D01*
X137173684Y-85121681D01*
X137173685Y-85121680D01*
X137173690Y-85121677D01*
X137293277Y-85002090D01*
X137333979Y-84937314D01*
X137383252Y-84858897D01*
X137383254Y-84858894D01*
X137383254Y-84858892D01*
X137383256Y-84858890D01*
X137439113Y-84699259D01*
X137439113Y-84699258D01*
X137439114Y-84699256D01*
X137458049Y-84531202D01*
X137458049Y-84531197D01*
X137439114Y-84363143D01*
X137395236Y-84237747D01*
X137383256Y-84203510D01*
X137383255Y-84203509D01*
X137383254Y-84203505D01*
X137383252Y-84203502D01*
X137293281Y-84060315D01*
X137293276Y-84060309D01*
X137173690Y-83940723D01*
X137173684Y-83940718D01*
X137030497Y-83850747D01*
X137030494Y-83850745D01*
X136870856Y-83794885D01*
X136702803Y-83775951D01*
X136702797Y-83775951D01*
X136534743Y-83794885D01*
X136375105Y-83850745D01*
X136375102Y-83850747D01*
X136231915Y-83940718D01*
X136231909Y-83940723D01*
X136112323Y-84060309D01*
X136112318Y-84060315D01*
X136022347Y-84203502D01*
X136022345Y-84203505D01*
X135966485Y-84363143D01*
X135947551Y-84531197D01*
X135947551Y-84531202D01*
X132204500Y-84531202D01*
X132204500Y-84506359D01*
X132201602Y-84452311D01*
X132201602Y-84452310D01*
X132198770Y-84425977D01*
X132198767Y-84425950D01*
X132192546Y-84387563D01*
X132190114Y-84372552D01*
X132139832Y-84237743D01*
X132106347Y-84176420D01*
X132020123Y-84061239D01*
X132020118Y-84061234D01*
X132020113Y-84061228D01*
X131838776Y-83879892D01*
X131838770Y-83879886D01*
X131838761Y-83879877D01*
X131838737Y-83879855D01*
X131798519Y-83843728D01*
X131798507Y-83843718D01*
X131777856Y-83827076D01*
X131733974Y-83795433D01*
X131603100Y-83735663D01*
X131536055Y-83715976D01*
X131488582Y-83709150D01*
X131393638Y-83695500D01*
X130099362Y-83695500D01*
X130099360Y-83695500D01*
X130045311Y-83698397D01*
X130045310Y-83698397D01*
X130018977Y-83701229D01*
X130018950Y-83701232D01*
X129965554Y-83709885D01*
X129965552Y-83709885D01*
X129830747Y-83760166D01*
X129769422Y-83793651D01*
X129654240Y-83879876D01*
X129654228Y-83879886D01*
X129472892Y-84061223D01*
X129472855Y-84061262D01*
X129436728Y-84101480D01*
X129436718Y-84101492D01*
X129420076Y-84122143D01*
X129388433Y-84166025D01*
X129328663Y-84296899D01*
X129308976Y-84363944D01*
X129305580Y-84387563D01*
X129288501Y-84506359D01*
X129288500Y-84506363D01*
X129288500Y-91769640D01*
X126529500Y-91769640D01*
X126529500Y-91011115D01*
X126549185Y-90944076D01*
X126601989Y-90898321D01*
X126671147Y-90888377D01*
X126722389Y-90908012D01*
X126825086Y-90976632D01*
X126825088Y-90976633D01*
X126825092Y-90976635D01*
X127007160Y-91052049D01*
X127007165Y-91052051D01*
X127007169Y-91052051D01*
X127007170Y-91052052D01*
X127200456Y-91090500D01*
X127200459Y-91090500D01*
X127997543Y-91090500D01*
X128161259Y-91057934D01*
X128190835Y-91052051D01*
X128344151Y-90988546D01*
X128372907Y-90976635D01*
X128372907Y-90976634D01*
X128372914Y-90976632D01*
X128536782Y-90867139D01*
X128676139Y-90727782D01*
X128785632Y-90563914D01*
X128861051Y-90381835D01*
X128880255Y-90285290D01*
X128899500Y-90188543D01*
X128899500Y-89991456D01*
X128861052Y-89798170D01*
X128861051Y-89798169D01*
X128861051Y-89798165D01*
X128861049Y-89798160D01*
X128785635Y-89616092D01*
X128785628Y-89616079D01*
X128676139Y-89452218D01*
X128676136Y-89452214D01*
X128536785Y-89312863D01*
X128536781Y-89312860D01*
X128372920Y-89203371D01*
X128372907Y-89203364D01*
X128190839Y-89127950D01*
X128190829Y-89127947D01*
X127997543Y-89089500D01*
X127997541Y-89089500D01*
X127200459Y-89089500D01*
X127200457Y-89089500D01*
X127007170Y-89127947D01*
X127007160Y-89127950D01*
X126825092Y-89203364D01*
X126825079Y-89203371D01*
X126722391Y-89271986D01*
X126655713Y-89292864D01*
X126588333Y-89274379D01*
X126541643Y-89222401D01*
X126529500Y-89168884D01*
X126529500Y-82371115D01*
X126549185Y-82304076D01*
X126601989Y-82258321D01*
X126671147Y-82248377D01*
X126722389Y-82268012D01*
X126825086Y-82336632D01*
X126825088Y-82336633D01*
X126825092Y-82336635D01*
X126982134Y-82401683D01*
X127007165Y-82412051D01*
X127007169Y-82412051D01*
X127007170Y-82412052D01*
X127200456Y-82450500D01*
X127200459Y-82450500D01*
X127997543Y-82450500D01*
X128153150Y-82419547D01*
X128190835Y-82412051D01*
X128372914Y-82336632D01*
X128536782Y-82227139D01*
X128676139Y-82087782D01*
X128785632Y-81923914D01*
X128799026Y-81891579D01*
X128820768Y-81839087D01*
X128861051Y-81741835D01*
X128886737Y-81612705D01*
X128899500Y-81548543D01*
X130228499Y-81548543D01*
X130266947Y-81741829D01*
X130266950Y-81741839D01*
X130342364Y-81923907D01*
X130342371Y-81923920D01*
X130451860Y-82087781D01*
X130451863Y-82087785D01*
X130591214Y-82227136D01*
X130591218Y-82227139D01*
X130755079Y-82336628D01*
X130755092Y-82336635D01*
X130812814Y-82360544D01*
X130867218Y-82404385D01*
X130889283Y-82470679D01*
X130872004Y-82538378D01*
X130862726Y-82550341D01*
X130863441Y-82550890D01*
X130858492Y-82557338D01*
X130789313Y-82677161D01*
X130789312Y-82677164D01*
X130753500Y-82810817D01*
X130753500Y-82949183D01*
X130786326Y-83071690D01*
X130789312Y-83082835D01*
X130789313Y-83082838D01*
X130858492Y-83202661D01*
X130858494Y-83202664D01*
X130858495Y-83202665D01*
X130956335Y-83300505D01*
X130956336Y-83300506D01*
X130956338Y-83300507D01*
X130989313Y-83319545D01*
X131076164Y-83369688D01*
X131209817Y-83405500D01*
X131209819Y-83405500D01*
X131348181Y-83405500D01*
X131348183Y-83405500D01*
X131481836Y-83369688D01*
X131601665Y-83300505D01*
X131699505Y-83202665D01*
X131768688Y-83082836D01*
X131804500Y-82949183D01*
X131804500Y-82810817D01*
X131768688Y-82677164D01*
X131764714Y-82670281D01*
X131745211Y-82636499D01*
X131742713Y-82626202D01*
X135947551Y-82626202D01*
X135966485Y-82794256D01*
X136022345Y-82953894D01*
X136022347Y-82953897D01*
X136112318Y-83097084D01*
X136112323Y-83097090D01*
X136231909Y-83216676D01*
X136231915Y-83216681D01*
X136375102Y-83306652D01*
X136375105Y-83306654D01*
X136375109Y-83306655D01*
X136375110Y-83306656D01*
X136411508Y-83319392D01*
X136534743Y-83362514D01*
X136702797Y-83381449D01*
X136702800Y-83381449D01*
X136702803Y-83381449D01*
X136870856Y-83362514D01*
X136908351Y-83349394D01*
X137030490Y-83306656D01*
X137030492Y-83306654D01*
X137030494Y-83306654D01*
X137030497Y-83306652D01*
X137173684Y-83216681D01*
X137173685Y-83216680D01*
X137173690Y-83216677D01*
X137293277Y-83097090D01*
X137302232Y-83082838D01*
X137383252Y-82953897D01*
X137383254Y-82953894D01*
X137383254Y-82953892D01*
X137383256Y-82953890D01*
X137439113Y-82794259D01*
X137439113Y-82794258D01*
X137439114Y-82794256D01*
X137458049Y-82626202D01*
X137458049Y-82626197D01*
X137439114Y-82458143D01*
X137406062Y-82363687D01*
X137383256Y-82298510D01*
X137383255Y-82298509D01*
X137383254Y-82298505D01*
X137383252Y-82298502D01*
X137293281Y-82155315D01*
X137293276Y-82155309D01*
X137173690Y-82035723D01*
X137173684Y-82035718D01*
X137030497Y-81945747D01*
X137030494Y-81945745D01*
X137015225Y-81940402D01*
X149942951Y-81940402D01*
X149961885Y-82108456D01*
X150017745Y-82268094D01*
X150017747Y-82268097D01*
X150107718Y-82411284D01*
X150107723Y-82411290D01*
X150227309Y-82530876D01*
X150227315Y-82530881D01*
X150370502Y-82620852D01*
X150370505Y-82620854D01*
X150370509Y-82620855D01*
X150370510Y-82620856D01*
X150422692Y-82639115D01*
X150530143Y-82676714D01*
X150698197Y-82695649D01*
X150698200Y-82695649D01*
X150698203Y-82695649D01*
X150866259Y-82676713D01*
X150866260Y-82676713D01*
X150973708Y-82639115D01*
X151043486Y-82635552D01*
X151104114Y-82670281D01*
X151136341Y-82732274D01*
X151129937Y-82801850D01*
X151119665Y-82822115D01*
X151119547Y-82822301D01*
X151119545Y-82822305D01*
X151063685Y-82981944D01*
X151046227Y-83136891D01*
X151019160Y-83201305D01*
X150961565Y-83240860D01*
X150936891Y-83246227D01*
X150781944Y-83263685D01*
X150622305Y-83319545D01*
X150622302Y-83319547D01*
X150479115Y-83409518D01*
X150479109Y-83409523D01*
X150359523Y-83529109D01*
X150359518Y-83529115D01*
X150269547Y-83672302D01*
X150269545Y-83672305D01*
X150213685Y-83831943D01*
X150194751Y-83999997D01*
X150194751Y-84000002D01*
X150213685Y-84168056D01*
X150269545Y-84327694D01*
X150269547Y-84327697D01*
X150359518Y-84470884D01*
X150359523Y-84470890D01*
X150479109Y-84590476D01*
X150479115Y-84590481D01*
X150622302Y-84680452D01*
X150622305Y-84680454D01*
X150622309Y-84680455D01*
X150622310Y-84680456D01*
X150676038Y-84699256D01*
X150781943Y-84736314D01*
X150949997Y-84755249D01*
X150950000Y-84755249D01*
X150950003Y-84755249D01*
X151118056Y-84736314D01*
X151118059Y-84736313D01*
X151277690Y-84680456D01*
X151277692Y-84680454D01*
X151277694Y-84680454D01*
X151277697Y-84680452D01*
X151420884Y-84590481D01*
X151420885Y-84590480D01*
X151420890Y-84590477D01*
X151540477Y-84470890D01*
X151602266Y-84372554D01*
X151630452Y-84327697D01*
X151630454Y-84327694D01*
X151630454Y-84327692D01*
X151630456Y-84327690D01*
X151686313Y-84168059D01*
X151686313Y-84168057D01*
X151686314Y-84168055D01*
X151703772Y-84013109D01*
X151730838Y-83948695D01*
X151788433Y-83909140D01*
X151813109Y-83903772D01*
X151968055Y-83886314D01*
X151968057Y-83886313D01*
X151968059Y-83886313D01*
X152127690Y-83830456D01*
X152127692Y-83830454D01*
X152127694Y-83830454D01*
X152127697Y-83830452D01*
X152270884Y-83740481D01*
X152270885Y-83740480D01*
X152270890Y-83740477D01*
X152390477Y-83620890D01*
X152396991Y-83610523D01*
X152480452Y-83477697D01*
X152480454Y-83477694D01*
X152480454Y-83477692D01*
X152480456Y-83477690D01*
X152536313Y-83318059D01*
X152536313Y-83318058D01*
X152536314Y-83318056D01*
X152555249Y-83150002D01*
X152555249Y-83149997D01*
X152536314Y-82981943D01*
X152480454Y-82822305D01*
X152480452Y-82822302D01*
X152390481Y-82679115D01*
X152390476Y-82679109D01*
X152270890Y-82559523D01*
X152270884Y-82559518D01*
X152127697Y-82469547D01*
X152127694Y-82469545D01*
X151968056Y-82413685D01*
X151800003Y-82394751D01*
X151799997Y-82394751D01*
X151631942Y-82413686D01*
X151524490Y-82451285D01*
X151454711Y-82454846D01*
X151394084Y-82420117D01*
X151361857Y-82358124D01*
X151368262Y-82288548D01*
X151378547Y-82268264D01*
X151378580Y-82268210D01*
X151378656Y-82268090D01*
X151434513Y-82108459D01*
X151434513Y-82108458D01*
X151434514Y-82108456D01*
X151453449Y-81940402D01*
X151453449Y-81940397D01*
X151434514Y-81772343D01*
X151378654Y-81612705D01*
X151378652Y-81612702D01*
X151288681Y-81469515D01*
X151288676Y-81469509D01*
X151169090Y-81349923D01*
X151169084Y-81349918D01*
X151025897Y-81259947D01*
X151025894Y-81259945D01*
X150866256Y-81204085D01*
X150698203Y-81185151D01*
X150698197Y-81185151D01*
X150530143Y-81204085D01*
X150370505Y-81259945D01*
X150370502Y-81259947D01*
X150227315Y-81349918D01*
X150227309Y-81349923D01*
X150107723Y-81469509D01*
X150107718Y-81469515D01*
X150017747Y-81612702D01*
X150017745Y-81612705D01*
X149961885Y-81772343D01*
X149942951Y-81940397D01*
X149942951Y-81940402D01*
X137015225Y-81940402D01*
X136870856Y-81889885D01*
X136702803Y-81870951D01*
X136702797Y-81870951D01*
X136534743Y-81889885D01*
X136375105Y-81945745D01*
X136375102Y-81945747D01*
X136231915Y-82035718D01*
X136231909Y-82035723D01*
X136112323Y-82155309D01*
X136112318Y-82155315D01*
X136022347Y-82298502D01*
X136022345Y-82298505D01*
X135966485Y-82458143D01*
X135947551Y-82626197D01*
X135947551Y-82626202D01*
X131742713Y-82626202D01*
X131728738Y-82568599D01*
X131751591Y-82502572D01*
X131806512Y-82459382D01*
X131852598Y-82450500D01*
X132427543Y-82450500D01*
X132583150Y-82419547D01*
X132620835Y-82412051D01*
X132802914Y-82336632D01*
X132966782Y-82227139D01*
X133106139Y-82087782D01*
X133215632Y-81923914D01*
X133229026Y-81891579D01*
X133250768Y-81839087D01*
X133291051Y-81741835D01*
X133316737Y-81612705D01*
X133329500Y-81548543D01*
X133329500Y-81351456D01*
X133291052Y-81158170D01*
X133291051Y-81158169D01*
X133291051Y-81158165D01*
X133289739Y-81154998D01*
X133215635Y-80976092D01*
X133215628Y-80976079D01*
X133106139Y-80812218D01*
X133106136Y-80812214D01*
X132966785Y-80672863D01*
X132966781Y-80672860D01*
X132802920Y-80563371D01*
X132802907Y-80563364D01*
X132620839Y-80487950D01*
X132620829Y-80487947D01*
X132427543Y-80449500D01*
X132427541Y-80449500D01*
X131130459Y-80449500D01*
X131130457Y-80449500D01*
X130937170Y-80487947D01*
X130937160Y-80487950D01*
X130755092Y-80563364D01*
X130755079Y-80563371D01*
X130591218Y-80672860D01*
X130591214Y-80672863D01*
X130451863Y-80812214D01*
X130451860Y-80812218D01*
X130342371Y-80976079D01*
X130342364Y-80976092D01*
X130266950Y-81158160D01*
X130266947Y-81158170D01*
X130228500Y-81351456D01*
X130228500Y-81351459D01*
X130228500Y-81548541D01*
X130228500Y-81548543D01*
X130228499Y-81548543D01*
X128899500Y-81548543D01*
X128899500Y-81351456D01*
X128861052Y-81158170D01*
X128861051Y-81158169D01*
X128861051Y-81158165D01*
X128859739Y-81154998D01*
X128785635Y-80976092D01*
X128785628Y-80976079D01*
X128676139Y-80812218D01*
X128676136Y-80812214D01*
X128536785Y-80672863D01*
X128536781Y-80672860D01*
X128372920Y-80563371D01*
X128372907Y-80563364D01*
X128190839Y-80487950D01*
X128190829Y-80487947D01*
X127997543Y-80449500D01*
X127997541Y-80449500D01*
X127200459Y-80449500D01*
X127200457Y-80449500D01*
X127007170Y-80487947D01*
X127007160Y-80487950D01*
X126825092Y-80563364D01*
X126825079Y-80563371D01*
X126722391Y-80631986D01*
X126655713Y-80652864D01*
X126588333Y-80634379D01*
X126541643Y-80582401D01*
X126529500Y-80528884D01*
X126529500Y-78784602D01*
X126549185Y-78717563D01*
X126601989Y-78671808D01*
X126671147Y-78661864D01*
X126734703Y-78690889D01*
X126761165Y-78724284D01*
X126761517Y-78724072D01*
X126763191Y-78726842D01*
X126763296Y-78726974D01*
X126763449Y-78727266D01*
X126763455Y-78727279D01*
X126912570Y-78973944D01*
X126932473Y-79006868D01*
X127133954Y-79264039D01*
X127364960Y-79495045D01*
X127622131Y-79696526D01*
X127622134Y-79696528D01*
X127622137Y-79696530D01*
X127901721Y-79865545D01*
X128199639Y-79999627D01*
X128199652Y-79999631D01*
X128199657Y-79999633D01*
X128439884Y-80074490D01*
X128511547Y-80096821D01*
X128832896Y-80155710D01*
X129159000Y-80175436D01*
X129485104Y-80155710D01*
X129806453Y-80096821D01*
X130118361Y-79999627D01*
X130416279Y-79865545D01*
X130639501Y-79730602D01*
X133026551Y-79730602D01*
X133045485Y-79898656D01*
X133101345Y-80058294D01*
X133101347Y-80058297D01*
X133191318Y-80201484D01*
X133191323Y-80201490D01*
X133310909Y-80321076D01*
X133310915Y-80321081D01*
X133454102Y-80411052D01*
X133454105Y-80411054D01*
X133454109Y-80411055D01*
X133454110Y-80411056D01*
X133498827Y-80426703D01*
X133613743Y-80466914D01*
X133781797Y-80485849D01*
X133781800Y-80485849D01*
X133781803Y-80485849D01*
X133949856Y-80466914D01*
X133968332Y-80460449D01*
X134109490Y-80411056D01*
X134109492Y-80411054D01*
X134109494Y-80411054D01*
X134109497Y-80411052D01*
X134252684Y-80321081D01*
X134252685Y-80321080D01*
X134252690Y-80321077D01*
X134372277Y-80201490D01*
X134372281Y-80201484D01*
X134462252Y-80058297D01*
X134462254Y-80058294D01*
X134462254Y-80058292D01*
X134462256Y-80058290D01*
X134518113Y-79898659D01*
X134518113Y-79898658D01*
X134518114Y-79898656D01*
X134537049Y-79730602D01*
X138792351Y-79730602D01*
X138811285Y-79898656D01*
X138867145Y-80058294D01*
X138867147Y-80058297D01*
X138957118Y-80201484D01*
X138957123Y-80201490D01*
X139076709Y-80321076D01*
X139076715Y-80321081D01*
X139219902Y-80411052D01*
X139219905Y-80411054D01*
X139219909Y-80411055D01*
X139219910Y-80411056D01*
X139264627Y-80426703D01*
X139379543Y-80466914D01*
X139547597Y-80485849D01*
X139547600Y-80485849D01*
X139547603Y-80485849D01*
X139715656Y-80466914D01*
X139734132Y-80460449D01*
X139875290Y-80411056D01*
X139875292Y-80411054D01*
X139875294Y-80411054D01*
X139875297Y-80411052D01*
X140018484Y-80321081D01*
X140018485Y-80321080D01*
X140018490Y-80321077D01*
X140138077Y-80201490D01*
X140138081Y-80201484D01*
X140228052Y-80058297D01*
X140228054Y-80058294D01*
X140228054Y-80058292D01*
X140228056Y-80058290D01*
X140283913Y-79898659D01*
X140283913Y-79898658D01*
X140283914Y-79898656D01*
X140302849Y-79730602D01*
X140302849Y-79730597D01*
X140283914Y-79562543D01*
X140249744Y-79464890D01*
X140228056Y-79402910D01*
X140228055Y-79402909D01*
X140228054Y-79402905D01*
X140228052Y-79402902D01*
X140138081Y-79259715D01*
X140138076Y-79259709D01*
X140018490Y-79140123D01*
X140018484Y-79140118D01*
X139875297Y-79050147D01*
X139875294Y-79050145D01*
X139715656Y-78994285D01*
X139547603Y-78975351D01*
X139547597Y-78975351D01*
X139379543Y-78994285D01*
X139219905Y-79050145D01*
X139219902Y-79050147D01*
X139076715Y-79140118D01*
X139076709Y-79140123D01*
X138957123Y-79259709D01*
X138957118Y-79259715D01*
X138867147Y-79402902D01*
X138867145Y-79402905D01*
X138811285Y-79562543D01*
X138792351Y-79730597D01*
X138792351Y-79730602D01*
X134537049Y-79730602D01*
X134537049Y-79730597D01*
X134518114Y-79562543D01*
X134483944Y-79464890D01*
X134462256Y-79402910D01*
X134462255Y-79402909D01*
X134462254Y-79402905D01*
X134462252Y-79402902D01*
X134372281Y-79259715D01*
X134372276Y-79259709D01*
X134252690Y-79140123D01*
X134252684Y-79140118D01*
X134109497Y-79050147D01*
X134109494Y-79050145D01*
X133949856Y-78994285D01*
X133781803Y-78975351D01*
X133781797Y-78975351D01*
X133613743Y-78994285D01*
X133454105Y-79050145D01*
X133454102Y-79050147D01*
X133310915Y-79140118D01*
X133310909Y-79140123D01*
X133191323Y-79259709D01*
X133191318Y-79259715D01*
X133101347Y-79402902D01*
X133101345Y-79402905D01*
X133045485Y-79562543D01*
X133026551Y-79730597D01*
X133026551Y-79730602D01*
X130639501Y-79730602D01*
X130695863Y-79696530D01*
X130953036Y-79495048D01*
X131184048Y-79264036D01*
X131385530Y-79006863D01*
X131554545Y-78727279D01*
X131688627Y-78429361D01*
X131714454Y-78346476D01*
X131753190Y-78288331D01*
X131817215Y-78260356D01*
X131886201Y-78271437D01*
X131920520Y-78295687D01*
X131990109Y-78365276D01*
X131990115Y-78365281D01*
X132133302Y-78455252D01*
X132133305Y-78455254D01*
X132133309Y-78455255D01*
X132133310Y-78455256D01*
X132170745Y-78468355D01*
X132292943Y-78511114D01*
X132460997Y-78530049D01*
X132461000Y-78530049D01*
X132461003Y-78530049D01*
X132629056Y-78511114D01*
X132657886Y-78501026D01*
X132788690Y-78455256D01*
X132788692Y-78455254D01*
X132788694Y-78455254D01*
X132788697Y-78455252D01*
X132931884Y-78365281D01*
X132931885Y-78365280D01*
X132931890Y-78365277D01*
X133051477Y-78245690D01*
X133105306Y-78160021D01*
X133157641Y-78113731D01*
X133226695Y-78103083D01*
X133290543Y-78131458D01*
X133315293Y-78160021D01*
X133330178Y-78183710D01*
X133369123Y-78245690D01*
X133488709Y-78365276D01*
X133488715Y-78365281D01*
X133631902Y-78455252D01*
X133631905Y-78455254D01*
X133631909Y-78455255D01*
X133631910Y-78455256D01*
X133669345Y-78468355D01*
X133791543Y-78511114D01*
X133959597Y-78530049D01*
X133959600Y-78530049D01*
X133959603Y-78530049D01*
X134127656Y-78511114D01*
X134156486Y-78501026D01*
X134287290Y-78455256D01*
X134287292Y-78455254D01*
X134287294Y-78455254D01*
X134287297Y-78455252D01*
X134430484Y-78365281D01*
X134430485Y-78365280D01*
X134430490Y-78365277D01*
X134550077Y-78245690D01*
X134555480Y-78237092D01*
X134640052Y-78102497D01*
X134640054Y-78102494D01*
X134640054Y-78102492D01*
X134640056Y-78102490D01*
X134695913Y-77942859D01*
X134695913Y-77942858D01*
X134695914Y-77942856D01*
X134714849Y-77774802D01*
X134714849Y-77774797D01*
X134696903Y-77615523D01*
X134708957Y-77546701D01*
X134756306Y-77495321D01*
X134823917Y-77477697D01*
X134834007Y-77478419D01*
X134924798Y-77488649D01*
X134924800Y-77488649D01*
X134924803Y-77488649D01*
X135092856Y-77469714D01*
X135131148Y-77456315D01*
X135252490Y-77413856D01*
X135252492Y-77413854D01*
X135252494Y-77413854D01*
X135252497Y-77413852D01*
X135395684Y-77323881D01*
X135395685Y-77323880D01*
X135395690Y-77323877D01*
X135515277Y-77204290D01*
X135524059Y-77190314D01*
X135605252Y-77061097D01*
X135605254Y-77061094D01*
X135605254Y-77061092D01*
X135605256Y-77061090D01*
X135661113Y-76901459D01*
X135661113Y-76901458D01*
X135661114Y-76901456D01*
X135680049Y-76733402D01*
X135680049Y-76733397D01*
X135661114Y-76565343D01*
X135622153Y-76454000D01*
X135605256Y-76405710D01*
X135605255Y-76405709D01*
X135605254Y-76405705D01*
X135605252Y-76405702D01*
X135515281Y-76262515D01*
X135515276Y-76262509D01*
X135395690Y-76142923D01*
X135395684Y-76142918D01*
X135252497Y-76052947D01*
X135252494Y-76052945D01*
X135092856Y-75997085D01*
X134924803Y-75978151D01*
X134924796Y-75978151D01*
X134829918Y-75988841D01*
X134761096Y-75976786D01*
X134709717Y-75929437D01*
X134692093Y-75861827D01*
X134695145Y-75838023D01*
X134695911Y-75834663D01*
X134695913Y-75834659D01*
X134697677Y-75819002D01*
X134714849Y-75666602D01*
X134714849Y-75666597D01*
X134695914Y-75498543D01*
X134640054Y-75338905D01*
X134640052Y-75338902D01*
X134550081Y-75195715D01*
X134550076Y-75195709D01*
X134430490Y-75076123D01*
X134337183Y-75017494D01*
X134290892Y-74965159D01*
X134280244Y-74896105D01*
X134308619Y-74832257D01*
X134367009Y-74793885D01*
X134403155Y-74788500D01*
X138799245Y-74788500D01*
X138866284Y-74808185D01*
G37*
%TD.AperFunction*%
%TD*%
%TA.AperFunction,Conductor*%
%TO.N,+5V*%
G36*
X131460677Y-84220685D02*
G01*
X131481319Y-84237319D01*
X131662681Y-84418681D01*
X131696166Y-84480004D01*
X131699000Y-84506362D01*
X131699000Y-87376000D01*
X133731000Y-89408000D01*
X134441638Y-89408000D01*
X134508677Y-89427685D01*
X134529319Y-89444319D01*
X134837681Y-89752681D01*
X134871166Y-89814004D01*
X134874000Y-89840362D01*
X134874000Y-94436638D01*
X134854315Y-94503677D01*
X134837681Y-94524319D01*
X134529319Y-94832681D01*
X134467996Y-94866166D01*
X134441638Y-94869000D01*
X132893362Y-94869000D01*
X132826323Y-94849315D01*
X132805681Y-94832681D01*
X129830319Y-91857319D01*
X129796834Y-91795996D01*
X129794000Y-91769638D01*
X129794000Y-90168846D01*
X130428500Y-90168846D01*
X130459261Y-90323489D01*
X130459264Y-90323501D01*
X130519602Y-90469172D01*
X130519609Y-90469185D01*
X130607210Y-90600288D01*
X130607213Y-90600292D01*
X130718707Y-90711786D01*
X130718711Y-90711789D01*
X130849814Y-90799390D01*
X130849827Y-90799397D01*
X130995498Y-90859735D01*
X130995503Y-90859737D01*
X131150153Y-90890499D01*
X131150156Y-90890500D01*
X131150158Y-90890500D01*
X132407844Y-90890500D01*
X132407845Y-90890499D01*
X132562497Y-90859737D01*
X132708179Y-90799394D01*
X132839289Y-90711789D01*
X132950789Y-90600289D01*
X133038394Y-90469179D01*
X133098737Y-90323497D01*
X133129500Y-90168842D01*
X133129500Y-90011158D01*
X133129500Y-90011155D01*
X133129499Y-90011153D01*
X133098738Y-89856510D01*
X133098737Y-89856503D01*
X133092051Y-89840362D01*
X133038397Y-89710827D01*
X133038390Y-89710814D01*
X132950789Y-89579711D01*
X132950786Y-89579707D01*
X132839292Y-89468213D01*
X132839288Y-89468210D01*
X132708185Y-89380609D01*
X132708172Y-89380602D01*
X132562501Y-89320264D01*
X132562489Y-89320261D01*
X132407845Y-89289500D01*
X132407842Y-89289500D01*
X131692032Y-89289500D01*
X131624993Y-89269815D01*
X131579238Y-89217011D01*
X131569294Y-89147853D01*
X131598319Y-89084297D01*
X131604351Y-89077819D01*
X131699505Y-88982665D01*
X131768688Y-88862836D01*
X131804500Y-88729183D01*
X131804500Y-88590817D01*
X131768688Y-88457164D01*
X131699505Y-88337335D01*
X131601665Y-88239495D01*
X131601664Y-88239494D01*
X131601661Y-88239492D01*
X131481838Y-88170313D01*
X131481837Y-88170312D01*
X131481836Y-88170312D01*
X131348183Y-88134500D01*
X131209817Y-88134500D01*
X131076164Y-88170312D01*
X131076161Y-88170313D01*
X130956338Y-88239492D01*
X130956333Y-88239496D01*
X130858496Y-88337333D01*
X130858492Y-88337338D01*
X130789313Y-88457161D01*
X130789312Y-88457164D01*
X130753500Y-88590817D01*
X130753500Y-88729182D01*
X130789312Y-88862835D01*
X130789313Y-88862838D01*
X130858492Y-88982661D01*
X130858494Y-88982664D01*
X130858495Y-88982665D01*
X130956335Y-89080505D01*
X130956337Y-89080506D01*
X130956341Y-89080509D01*
X130996734Y-89103830D01*
X131044950Y-89154396D01*
X131058174Y-89223003D01*
X131032206Y-89287868D01*
X130982187Y-89325778D01*
X130849827Y-89380602D01*
X130849814Y-89380609D01*
X130718711Y-89468210D01*
X130718707Y-89468213D01*
X130607213Y-89579707D01*
X130607210Y-89579711D01*
X130519609Y-89710814D01*
X130519602Y-89710827D01*
X130459264Y-89856498D01*
X130459261Y-89856510D01*
X130428500Y-90011153D01*
X130428500Y-90168846D01*
X129794000Y-90168846D01*
X129794000Y-84506362D01*
X129813685Y-84439323D01*
X129830319Y-84418681D01*
X130011681Y-84237319D01*
X130073004Y-84203834D01*
X130099362Y-84201000D01*
X131393638Y-84201000D01*
X131460677Y-84220685D01*
G37*
%TD.AperFunction*%
%TD*%
M02*
